<svg width="28" height="28" viewBox="0 0 28 28" fill="none" xmlns="http://www.w3.org/2000/svg">
<path d="M7.41157 5H20.9858C21.7059 5 22.3964 5.28603 22.9055 5.79516C23.4147 6.3043 23.7007 6.99483 23.7007 7.71485V17.8955C23.7007 18.6156 23.4147 19.3061 22.9055 19.8152C22.3964 20.3244 21.7059 20.6104 20.9858 20.6104H19.6284V22.3683C19.6273 22.6359 19.5471 22.8973 19.3978 23.1194C19.2486 23.3416 19.037 23.5147 18.7897 23.617C18.5423 23.7193 18.2703 23.7461 18.0077 23.6942C17.7452 23.6423 17.5038 23.5139 17.314 23.3253L14.5991 20.6104H7.41157C6.69154 20.6104 6.00101 20.3244 5.49188 19.8152C4.98274 19.3061 4.69671 18.6156 4.69671 17.8955V7.71485C4.69671 6.99483 4.98274 6.3043 5.49188 5.79516C6.00101 5.28603 6.69154 5 7.41157 5ZM6.05414 17.8955C6.05414 18.2556 6.19715 18.6008 6.45172 18.8554C6.70629 19.11 7.05156 19.253 7.41157 19.253H14.5991C14.9586 19.2545 15.3027 19.3985 15.5561 19.6534L18.271 22.3683V20.6104C18.271 20.2504 18.414 19.9051 18.6686 19.6506C18.9231 19.396 19.2684 19.253 19.6284 19.253H20.9858C21.3458 19.253 21.6911 19.11 21.9457 18.8554C22.2002 18.6008 22.3433 18.2556 22.3433 17.8955V7.71485C22.3433 7.35484 22.2002 7.00957 21.9457 6.75501C21.6911 6.50044 21.3458 6.35743 20.9858 6.35743H7.41157C7.05156 6.35743 6.70629 6.50044 6.45172 6.75501C6.19715 7.00957 6.05414 7.35484 6.05414 7.71485V17.8955Z" fill="#3E0382"/>
<path d="M6.45172 18.8554C6.19715 18.6008 6.05414 18.2556 6.05414 17.8955V7.71485C6.05414 7.35484 6.19715 7.00957 6.45172 6.75501C6.70629 6.50044 7.05156 6.35743 7.41157 6.35743H20.9858C21.3458 6.35743 21.6911 6.50044 21.9457 6.75501C22.2002 7.00957 22.3433 7.35484 22.3433 7.71485V17.8955C22.3433 18.2556 22.2002 18.6008 21.9457 18.8554C21.6911 19.11 21.3458 19.253 20.9858 19.253H19.6284C19.2684 19.253 18.9231 19.396 18.6686 19.6506C18.414 19.9051 18.271 20.2504 18.271 20.6104V22.3683L15.5561 19.6534C15.3027 19.3985 14.9586 19.2545 14.5991 19.253H7.41157C7.05156 19.253 6.70629 19.11 6.45172 18.8554Z" fill="#3E0382"/>
<path d="M10.8047 12.1265H17.5918C17.7718 12.1265 17.9444 12.198 18.0717 12.3253C18.199 12.4525 18.2705 12.6252 18.2705 12.8052C18.2705 12.9852 18.199 13.1578 18.0717 13.2851C17.9444 13.4124 17.7718 13.4839 17.5918 13.4839H10.8047C10.6247 13.4839 10.452 13.4124 10.3247 13.2851C10.1975 13.1578 10.1259 12.9852 10.1259 12.8052C10.1259 12.6252 10.1975 12.4525 10.3247 12.3253C10.452 12.198 10.6247 12.1265 10.8047 12.1265Z" fill="white"/>
</svg>
