<svg width="28" height="28" viewBox="0 0 28 28" fill="none" xmlns="http://www.w3.org/2000/svg">
<path d="M6.71414 5H20.2857C21.0056 5 21.696 5.28597 22.205 5.795C22.714 6.30403 23 6.99443 23 7.71431V17.893C23 18.6128 22.714 19.3032 22.205 19.8123C21.696 20.3213 21.0056 20.6073 20.2857 20.6073H18.9285V22.3648C18.9274 22.6324 18.8472 22.8937 18.698 23.1158C18.5488 23.3379 18.3373 23.511 18.09 23.6133C17.8427 23.7155 17.5707 23.7424 17.3082 23.6905C17.0457 23.6386 16.8044 23.5102 16.6146 23.3216L13.9003 20.6073H6.71414C5.99427 20.6073 5.30387 20.3213 4.79484 19.8123C4.28581 19.3032 3.99984 18.6128 3.99984 17.893V7.71431C3.99984 6.99443 4.28581 6.30403 4.79484 5.795C5.30387 5.28597 5.99427 5 6.71414 5V5ZM5.35699 17.893C5.35699 18.2529 5.49998 18.5981 5.75449 18.8526C6.00901 19.1071 6.3542 19.2501 6.71414 19.2501H13.9003C14.2596 19.2516 14.6037 19.3956 14.8571 19.6505L17.5714 22.3648V20.6073C17.5714 20.2473 17.7144 19.9021 17.9689 19.6476C18.2234 19.3931 18.5686 19.2501 18.9285 19.2501H20.2857C20.6456 19.2501 20.9908 19.1071 21.2453 18.8526C21.4999 18.5981 21.6428 18.2529 21.6428 17.893V7.71431C21.6428 7.35437 21.4999 7.00917 21.2453 6.75466C20.9908 6.50014 20.6456 6.35715 20.2857 6.35715H6.71414C6.3542 6.35715 6.00901 6.50014 5.75449 6.75466C5.49998 7.00917 5.35699 7.35437 5.35699 7.71431V17.893Z" fill="#404040"/>
<path d="M10.1069 12.125H16.8927C17.0727 12.125 17.2453 12.1965 17.3725 12.3238C17.4998 12.451 17.5713 12.6236 17.5713 12.8036C17.5713 12.9835 17.4998 13.1561 17.3725 13.2834C17.2453 13.4107 17.0727 13.4822 16.8927 13.4822H10.1069C9.92697 13.4822 9.75437 13.4107 9.62711 13.2834C9.49985 13.1561 9.42836 12.9835 9.42836 12.8036C9.42836 12.6236 9.49985 12.451 9.62711 12.3238C9.75437 12.1965 9.92697 12.125 10.1069 12.125Z" fill="#404040"/>
</svg>
