<svg width="28" height="28" viewBox="0 0 28 28" fill="none" xmlns="http://www.w3.org/2000/svg">
<path d="M10.8712 20.6071H12.6569C12.6569 21.4947 13.3765 22.2143 14.2641 22.2143C15.1517 22.2143 15.8712 21.4947 15.8712 20.6071H17.6569C17.6569 22.481 16.1379 24 14.2641 24C12.3903 24 10.8712 22.481 10.8712 20.6071ZM23.7284 18.1065V18.465C23.7284 19.3549 23.0087 20.0714 22.1207 20.0714H6.40744C5.51956 20.0714 4.7998 19.3526 4.7998 18.465V18.1065C4.7998 16.8119 5.72019 15.7319 6.94266 15.4827V11.3212C6.94266 7.27676 10.2201 4 14.2641 4C18.3081 4 21.5855 7.27753 21.5855 11.3212V15.4825C22.8095 15.7312 23.7284 16.8106 23.7284 18.1065ZM21.9427 18.1065C21.9427 17.6129 21.5436 17.2143 21.0465 17.2143C20.3574 17.2143 19.7998 16.6525 19.7998 15.9669V11.3212C19.7998 8.26374 17.3219 5.78571 14.2641 5.78571C11.2062 5.78571 8.72838 8.26307 8.72838 11.3212V15.9669C8.72838 16.6555 8.16786 17.2143 7.48167 17.2143C6.98649 17.2143 6.58552 17.6145 6.58552 18.1065V18.2857H21.9427V18.1065Z" fill="#404040"/>
</svg>
