<svg width="28" height="28" viewBox="0 0 28 28" fill="none" xmlns="http://www.w3.org/2000/svg">
<path d="M11.0714 20.6071H12.8571C14 20.6071 14.4643 20.6071 14.4643 20.6071C14.4643 20.6071 14.8203 20.6071 16.0714 20.6071H17.8571C17.8571 22.481 16.3381 24 14.4643 24C12.5905 24 11.0714 22.481 11.0714 20.6071ZM23.9286 18.1065V18.465C23.9286 19.3549 23.2089 20.0714 22.3209 20.0714H6.60764C5.71976 20.0714 5 19.3526 5 18.465V18.1065C5 16.8119 5.92038 15.7319 7.14286 15.4827V11.3212C7.14286 7.27676 10.4203 4 14.4643 4C18.5083 4 21.7857 7.27753 21.7857 11.3212V15.4825C23.0096 15.7312 23.9286 16.8106 23.9286 18.1065Z" fill="#3E0382"/>
</svg>
