<svg width="28" height="28" viewBox="0 0 28 28" fill="none" xmlns="http://www.w3.org/2000/svg">
<circle cx="14" cy="14" r="14" fill="#F2F2F2"/>
<path d="M19.8186 17.854L17.1656 15.1933C17.5515 14.4811 17.7511 13.6829 17.7457 12.8728C17.7457 11.9091 17.4599 10.967 16.9245 10.1656C16.389 9.3643 15.628 8.73974 14.7376 8.37093C13.8472 8.00211 12.8674 7.90561 11.9222 8.09363C10.977 8.28165 10.1087 8.74575 9.42723 9.42723C8.74575 10.1087 8.28165 10.977 8.09363 11.9222C7.90561 12.8674 8.00211 13.8472 8.37093 14.7376C8.73974 15.628 9.3643 16.389 10.1656 16.9245C10.967 17.4599 11.9091 17.7457 12.8728 17.7457C13.7536 17.7463 14.6176 17.5056 15.3711 17.0496L17.9932 19.6716C18.0935 19.7755 18.2136 19.8581 18.3465 19.9145C18.4794 19.9709 18.6223 20 18.7667 20C18.911 20 19.0539 19.9709 19.1868 19.9145C19.3197 19.8581 19.4399 19.7755 19.5401 19.6716L19.8495 19.3622C20.0415 19.1562 20.1457 18.8834 20.1399 18.6018C20.1341 18.3202 20.0189 18.052 19.8186 17.854ZM12.8574 16.1137C12.2213 16.1137 11.5995 15.9252 11.0706 15.5719C10.5416 15.2187 10.1292 14.7167 9.88543 14.1292C9.64167 13.5417 9.5775 12.8951 9.70102 12.2712C9.82455 11.6472 10.1302 11.0739 10.5795 10.6236C11.0287 10.1733 11.6013 9.86622 12.2249 9.7412C12.8486 9.61617 13.4953 9.67879 14.0834 9.92114C14.6714 10.1635 15.1745 10.5747 15.529 11.1028C15.8835 11.6309 16.0735 12.2523 16.075 12.8883C16.0771 13.7403 15.7411 14.5584 15.1408 15.1631C14.5405 15.7677 13.7249 16.1096 12.8728 16.1137H12.8574Z" fill="#3E0382"/>
</svg>
