<svg width="360" height="360" viewBox="0 0 360 360" fill="none" xmlns="http://www.w3.org/2000/svg">
<g clip-path="url(#clip0)">
<rect width="360" height="360" fill="white" fill-opacity="0.74"/>
<g style="mix-blend-mode:luminosity" opacity="0.5">
<path opacity="0.7" fill-rule="evenodd" clip-rule="evenodd" d="M210.746 268.385C215.176 268.156 220.655 270.742 221.128 275.557C221.471 279.056 221.365 282.545 221.896 286.039C222.321 288.831 223.219 291.512 224.445 294.055C225.623 296.501 228.068 298.583 228.704 301.196C229.109 302.86 228.882 305.202 228.323 306.831C227.644 308.811 228.005 308.654 229.359 310.316C232.013 313.572 234.402 316.91 236.092 320.799C238.526 326.4 240.122 332.947 239.218 339.078C239.103 339.856 238.967 342.65 237.895 342.845C236.698 343.064 237.257 341.466 237.321 340.95C237.729 337.656 238.091 334.777 237.599 331.433C235.703 318.527 226.445 310.024 220.416 299.071C220.085 298.506 219.385 297.161 218.899 296.273C218.131 294.872 217.359 292.207 216.319 291.168C214.361 289.211 216.161 293.145 216.543 293.896C217.025 294.846 217.556 295.856 218.05 296.689C220.312 300.547 222.837 304.76 225.173 308.737C215.07 311.039 207.955 298.894 205.244 290.909C203.01 284.33 200.337 268.948 210.746 268.385Z" fill="#69A1AC"/>
<path opacity="0.7" fill-rule="evenodd" clip-rule="evenodd" d="M270.124 256.168C262.718 256.756 257.963 261.643 255.75 268.478C254.557 272.162 254.421 275.946 253.758 279.731C252.761 285.426 250.615 289.742 246.422 293.8C245.123 295.057 244.166 296.347 243.486 297.727C242.135 299.105 240.959 300.665 240.096 302.572C238.992 305.007 238.68 307.929 239.954 310.356C240.297 311.009 241.151 312.319 242.037 312.914C238.721 319.976 236.898 327.709 237.104 335.433C237.228 340.095 237.455 344.759 237.721 349.416C237.792 350.666 238.2 352.731 238.811 350.634C239.371 348.716 238.669 345.705 238.604 343.701C238.288 333.94 238.018 325.065 242.036 315.945C242.457 314.989 242.904 314.041 243.369 313.1C243.397 313.084 243.422 313.065 243.448 313.047C243.465 313.06 243.482 313.075 243.499 313.088C243.529 313.035 243.57 312.972 243.617 312.902C243.751 312.764 243.867 312.59 243.978 312.396C244.334 311.902 244.738 311.322 244.74 311.004C244.74 311.002 244.739 310.998 244.739 310.995C247.226 306.935 250.075 303.098 252.985 299.336C252.964 299.364 256.142 295.036 255.651 297.429C255.414 298.583 253.076 300.779 252.132 302.001C250.043 304.718 247.59 308.162 245.552 311.492C245.277 311.65 244.89 312.424 244.609 313C244.455 313.292 244.31 313.587 244.168 313.843C251.391 316.229 257.009 311.423 260.84 305.832C260.845 305.826 260.849 305.819 260.853 305.812C262.019 304.267 263.213 302.734 264.705 301.512C267.194 299.475 269.86 299.115 272.795 298.112C280.798 295.378 284.201 285.006 285.282 277.309C286.501 268.626 280.537 255.312 270.124 256.168Z" fill="#89C5CC"/>
<path opacity="0.7" fill-rule="evenodd" clip-rule="evenodd" d="M255.495 231.853C247.894 239.764 244.221 250.737 241.314 261.052C238.066 272.574 235.921 284.273 235.838 296.251C235.785 304.121 235.57 312.04 236.03 319.901C236.193 322.693 236.471 325.49 236.914 328.251C236.95 328.478 237.94 334.645 238.887 333.208C239.426 332.391 237.872 326.811 237.755 325.882C237.095 320.647 236.941 315.374 236.973 310.102C237.026 301.421 236.77 292.785 237.65 284.137C237.781 282.845 237.885 281.489 238.192 280.226C238.518 278.883 238.103 279.469 239.164 278.937C240.194 278.421 241.468 278.494 242.538 277.846C246.78 275.274 248.95 268.666 250.639 264.331C252.57 259.373 253.744 254.087 254.682 248.869C255.371 245.036 255.863 241.226 256.142 237.344C256.229 236.12 256.235 234.84 256.475 233.637C256.54 233.313 256.865 232.738 256.853 232.451C256.828 231.843 256.461 231.485 256.431 230.974C256.113 231.26 255.8 231.554 255.495 231.853Z" fill="#89C5CC"/>
<path opacity="0.7" fill-rule="evenodd" clip-rule="evenodd" d="M214.048 337.255C214.048 350.337 224.654 360.943 237.737 360.943C250.82 360.943 261.426 350.337 261.426 337.255" fill="#89C5CC"/>
<path opacity="0.7" fill-rule="evenodd" clip-rule="evenodd" d="M239.638 337.33H238.386C238.473 335.76 238.588 334.192 238.85 332.639C239.854 326.7 242.994 317.976 249.88 317.012C250.134 316.976 251.068 316.97 252.2 317.037C252.737 316.737 253.338 316.556 253.971 316.514C259.834 316.082 266.381 320.812 269.209 325.734C271.489 329.702 271.105 334.913 269.697 339.129C268.754 341.952 266.696 345.977 263.264 346.016C258.97 346.065 258.763 340.758 258.68 337.656C258.57 333.531 258.048 329.938 254.798 327.127C254.041 326.472 253.213 325.895 252.448 325.25C251.25 324.239 249.926 323.204 249.772 321.531C249.558 319.224 250.861 318.809 252.849 319.237C253.188 319.31 256.603 320.843 256.098 319.631C255.943 319.261 255.379 318.968 254.668 318.749C252.827 318.548 250.631 318.316 249.999 318.455C243.186 319.95 240.533 329.387 239.829 335.383C239.753 336.03 239.691 336.68 239.638 337.33V337.33Z" fill="#69A1AC"/>
</g>
<g style="mix-blend-mode:luminosity" opacity="0.5">
<path d="M-21.3733 481.007C-137.892 487.259 -233.56 422.333 -240.714 336.44C-250.043 224.429 -173.196 73.2581 -38.1026 169.232C65.9978 243.187 176.618 227.705 181.238 313.799C185.858 399.893 95.1454 474.755 -21.3733 481.007Z" fill="url(#paint0_linear)"/>
</g>
<g style="mix-blend-mode:luminosity">
<path fill-rule="evenodd" clip-rule="evenodd" d="M76.5893 203.293C74.1134 200.387 72.4377 196.825 72.7177 192.835C73.5245 181.336 89.5312 183.865 92.6448 189.669C95.7585 195.473 95.3885 210.194 91.3644 211.231C89.7596 211.645 86.3409 210.631 82.8614 208.534L85.0454 223.985H72.1499L76.5893 203.293Z" fill="#915B3C"/>
<path fill-rule="evenodd" clip-rule="evenodd" d="M75.5983 205.882C73.9798 198.681 69.3689 193.773 70.0731 190.554C70.5425 188.409 71.7938 187.075 73.8269 186.552C74.8783 182.298 78.2696 180.489 84.0005 181.124C92.597 182.077 97.8438 185.647 95.5779 193.502C93.4951 193.502 90.9807 192.749 87.5038 194.039C86.4005 194.449 85.6115 195.719 85.1366 197.849H83.5654C82.0405 195.321 80.5369 194.392 79.0546 195.062C77.5724 195.732 77.2355 197.36 78.0438 199.945L77.2698 205.882H75.5983Z" fill="#191847"/>
<path fill-rule="evenodd" clip-rule="evenodd" d="M36.1495 291.149H97.9406C102.689 291.149 106.538 294.998 106.538 299.746V349.179C106.538 353.927 102.689 357.776 97.9406 357.776H36.1495C31.4015 357.776 27.5525 353.927 27.5525 349.179V299.746C27.5525 294.998 31.4015 291.149 36.1495 291.149ZM44.7465 306.194C43.5595 306.194 42.5973 307.156 42.5973 308.343V340.582C42.5973 341.769 43.5595 342.731 44.7465 342.731H89.3435C90.5305 342.731 91.4928 341.769 91.4928 340.582V308.343C91.4928 307.156 90.5305 306.194 89.3435 306.194H44.7465Z" fill="#929FA8"/>
<path fill-rule="evenodd" clip-rule="evenodd" d="M159.817 355.09C149.224 342.153 142.056 332.563 138.313 326.318C131.906 315.626 126.662 306.112 125.007 302.478C121.06 293.812 134.092 289.754 137.042 293.796C141.506 299.914 151.039 319.166 165.642 351.553L159.817 355.09Z" fill="#B28B67"/>
<path fill-rule="evenodd" clip-rule="evenodd" d="M138.109 351.328L118.393 301.7C114.177 292.654 134.54 286.707 137.639 290.917C144.675 300.476 161.397 338.182 163.493 341.03L138.109 351.328Z" fill="#2F3676"/>
<path fill-rule="evenodd" clip-rule="evenodd" d="M85.6004 341.376C89.4409 335.774 103.41 316.926 111.019 309.128C113.205 306.887 115.338 304.737 117.356 302.732C123.354 296.775 135.297 306.788 129.31 312.214C114.402 325.728 92.6489 343.971 90.8315 345.597C88.2842 347.877 83.1868 344.896 85.6004 341.376Z" fill="#915B3C"/>
<path fill-rule="evenodd" clip-rule="evenodd" d="M86.4983 338.845C85.1754 339.934 84.3147 340.824 83.9164 341.514C83.4319 342.353 82.8648 343.658 82.2149 345.429C83.1884 345.991 91.9368 351.042 108.46 360.582C110.444 358.721 110.753 357.277 109.387 356.248C108.022 355.22 106.895 354.353 106.007 353.647L96.9478 341.166C96.7734 340.926 96.4375 340.873 96.1973 341.047C96.1932 341.05 96.1891 341.053 96.1851 341.056L94.3028 342.505C92.5761 342.355 91.2875 342.034 90.437 341.543C89.746 341.144 88.9529 340.314 88.0576 339.053L88.0576 339.053C87.714 338.569 87.0432 338.455 86.5592 338.799C86.5384 338.813 86.518 338.829 86.4983 338.845Z" fill="#E2E0E0"/>
<path fill-rule="evenodd" clip-rule="evenodd" d="M155.26 353.156C154.659 354.761 154.358 355.962 154.358 356.758C154.358 357.727 154.52 359.141 154.843 361C155.967 361 166.068 361 185.148 361C185.936 358.396 185.481 356.991 183.784 356.783C182.088 356.576 180.678 356.388 179.556 356.221L165.47 349.942C165.199 349.821 164.881 349.942 164.76 350.214C164.758 350.218 164.756 350.223 164.754 350.227L163.849 352.424C162.278 353.157 161.002 353.523 160.02 353.523C159.222 353.523 158.12 353.201 156.714 352.556L156.714 352.556C156.175 352.309 155.537 352.546 155.29 353.085C155.279 353.109 155.269 353.132 155.26 353.156Z" fill="#EADAEA"/>
<path fill-rule="evenodd" clip-rule="evenodd" d="M111.299 304.179C94.9131 301.51 83.9373 299.684 78.3721 298.703C62.5089 295.906 57.8831 287.369 60.6181 268.745H89.8457C93.7135 269.861 109.875 276.769 138.329 289.468C143.449 292.01 142.495 299.503 141.56 301.972C141.521 302.073 132.891 316.861 115.668 346.338L91.7585 331.107L111.344 305.974C111.862 304.932 111.847 304.334 111.299 304.179Z" fill="#5C63AB"/>
<path fill-rule="evenodd" clip-rule="evenodd" d="M113.405 261.711L130.545 274.296C135.193 275.551 139.077 277.111 142.196 278.978C142.932 279.65 143.823 281.009 140.767 280.774C137.712 280.539 134.488 280.43 134.066 281.472C133.644 282.514 135.493 283.76 134.641 285.166C134.073 286.104 131.389 283.753 126.589 278.115L109.616 271.077L113.405 261.711ZM47.5986 262.145L58.8271 262.189C51.894 284.57 48.1512 296.446 47.5986 297.815C46.3553 300.896 48.9863 305.589 50.1114 308.111C46.4469 309.75 46.8374 303.678 42.2147 305.828C37.9954 307.791 34.7857 311.348 29.9108 308.34C29.3115 307.97 28.6547 306.578 30.2416 305.49C34.195 302.779 39.8921 298.035 40.6619 296.473C41.7116 294.343 44.0239 282.901 47.5986 262.145Z" fill="#915B3C"/>
<path fill-rule="evenodd" clip-rule="evenodd" d="M79.5083 215.029L84.1545 214.232C101.393 229.124 108.474 257.733 129.604 272.889L124.519 279.193C87.8609 274.654 78.775 239.758 79.5083 215.029Z" fill="#E87613"/>
<path fill-rule="evenodd" clip-rule="evenodd" d="M59.2539 273.418C77.8835 273.418 91.587 273.418 100.365 273.418C102.243 273.418 101.889 270.705 101.618 269.337C98.4835 253.539 86.2492 236.511 86.2492 214.024L74.391 212.164C64.5827 227.939 61.1908 247.361 59.2539 273.418Z" fill="#DDE3E9"/>
<path fill-rule="evenodd" clip-rule="evenodd" d="M59.5842 227.67C57.8619 227.175 56.4981 226.02 55.4926 224.206C51.1584 216.385 52.7237 212.08 57.3556 210.664C61.9875 209.249 66.1182 212.164 73.498 212.164C73.8994 212.164 74.2671 212.189 74.6009 212.24L78.3132 212.452C88.964 248.548 91.9015 272.632 87.1255 284.701H54.7682C52.8511 289.172 51.0166 292.933 49.2646 295.985H40.4479C39.6181 269.155 45.9969 246.384 59.5842 227.67Z" fill="#FF9B21"/>
<path fill-rule="evenodd" clip-rule="evenodd" d="M61.8143 266.163C62.832 274.677 64.4859 280.857 66.7763 284.701H54.7683C57.0046 279.487 59.3533 273.307 61.8143 266.163V266.163Z" fill="black" fill-opacity="0.1"/>
</g>
<g style="mix-blend-mode:luminosity">
<path opacity="0.5" fill-rule="evenodd" clip-rule="evenodd" d="M319.127 201.975C320.71 199.718 323.647 193.987 325.875 193.18C327.31 192.661 326.892 198.034 326.909 199.058C326.978 203.022 326.593 206.961 326.116 210.891C325.257 217.98 322.45 224.293 318.6 230.326C316.618 233.43 314.294 236.572 311.076 238.509C309.594 239.401 307.811 239.551 306.348 240.319C304.644 241.214 305.572 240.491 304.804 242.266C303.737 244.732 303.396 247.913 302.903 250.543C300.637 262.619 295.152 326.457 296.103 338.741C296.187 339.83 294.669 340.09 294.593 338.761C294.191 331.714 297.676 282.909 299.435 266.948C301.194 250.987 302.973 236.887 304.758 231.365C306.922 224.666 310.832 216.609 314.087 210.362C315.598 207.46 317.246 204.657 319.127 201.975Z" fill="#69A1AC"/>
<path opacity="0.5" fill-rule="evenodd" clip-rule="evenodd" d="M330.875 280.255C334.994 277.232 339.452 282.938 335.725 285.962C333.665 287.634 331.511 287.039 330.298 285.646C329.511 286.606 328.774 287.609 328.066 288.457C325.909 291.039 323.871 293.683 321.922 296.389C317.875 302.009 314.406 307.948 310.78 313.777C307.201 319.531 303.65 325.314 300.406 331.213C297.658 336.211 293.995 342.091 293.055 347.571C294.482 335.95 299.899 324.78 306.349 314.535C312.748 304.374 320.09 293.278 329.997 285.259C328.988 283.777 328.96 281.66 330.875 280.255Z" fill="#C1DEE2"/>
<path opacity="0.5" fill-rule="evenodd" clip-rule="evenodd" d="M261.816 165.166C270.498 180.222 277.632 196.761 282.239 213.513C285.03 223.662 286.982 234.077 288.921 244.417C291.924 260.426 294.764 276.435 295.572 292.729C296.385 309.117 297.992 328.019 292.626 343.804C295.306 327.778 292.754 310.72 292.302 294.595C292.086 286.897 291.46 279.274 290.64 271.622C289.843 264.198 288.542 256.809 287.33 249.444C286.74 245.857 286.12 242.275 285.488 238.695C285.3 237.627 285.22 234.458 284.543 233.729C283.861 232.994 280.382 232.695 279.29 232.156C277.09 231.071 275.022 229.529 273.191 227.9C269.681 224.777 266.627 220.697 264.217 216.675C258.641 207.369 256.411 196.011 256.524 185.233C256.545 183.141 259.911 160.606 258.559 160.296C258.641 160.201 258.718 160.102 258.79 160C259.814 161.713 260.818 163.438 261.816 165.166Z" fill="#89C5CC"/>
<path opacity="0.5" fill-rule="evenodd" clip-rule="evenodd" d="M355.52 219.468C355.654 219.275 356.526 217.931 356.087 218.017C356.981 217.842 354.858 219.499 357.085 218.482C356.027 219.481 356.638 220.778 356.652 222.123C356.675 224.305 356.31 226.469 355.899 228.605C355.249 231.981 354.281 235.263 352.877 238.403C349.816 245.245 344.618 251.832 338.448 256.11C335.401 258.222 332.416 258.941 328.941 259.913C326.747 260.528 326.573 261.663 325.408 263.792C322.983 268.228 320.601 272.647 318.462 277.232C315.908 282.707 313.429 288.188 311.091 293.76C303.213 312.526 296.801 331.969 293.433 352.09C293.351 340.233 296.094 328.021 299.554 316.719C302.074 308.484 305.355 300.547 308.855 292.689C309.703 290.786 310.988 288.337 311.348 286.235C311.6 284.763 310.829 283.347 310.477 281.796C309.1 275.755 309.199 268.988 310.407 262.915C311.74 256.219 315.593 253.111 322.111 252.162C324.495 251.815 327.525 251.942 329.711 250.926C332.092 249.819 333.075 246.181 334.429 243.845C338.066 237.572 342.388 231.555 347.35 226.269C348.724 224.806 350.202 223.455 351.77 222.203C352.758 221.414 354.847 220.441 355.52 219.468Z" fill="#89C5CC"/>
<path opacity="0.5" fill-rule="evenodd" clip-rule="evenodd" d="M282.43 339.284H305.563C306.603 339.284 307.446 340.128 307.446 341.168C307.446 341.26 307.439 341.351 307.426 341.442L305.638 353.566C305.093 357.262 301.921 360 298.185 360H289.807C286.071 360 282.9 357.262 282.355 353.566L280.567 341.442C280.415 340.413 281.126 339.456 282.155 339.305C282.246 339.291 282.338 339.284 282.43 339.284Z" fill="#C1DEE2"/>
</g>
<g style="mix-blend-mode:color-dodge">
<path d="M0 0H360V361H0V0Z" fill="url(#paint1_linear)"/>
</g>
</g>
<defs>
<linearGradient id="paint0_linear" x1="180.301" y1="296.343" x2="-241.744" y2="318.989" gradientUnits="userSpaceOnUse">
<stop stop-color="#7D19F1" stop-opacity="0.19"/>
<stop offset="1" stop-color="#FBBEBE" stop-opacity="0.49"/>
</linearGradient>
<linearGradient id="paint1_linear" x1="1.1351e-06" y1="157.5" x2="208.319" y2="505.17" gradientUnits="userSpaceOnUse">
<stop stop-color="#3E0382" stop-opacity="0.2"/>
<stop offset="1" stop-color="#FAC4BA" stop-opacity="0.37"/>
</linearGradient>
<clipPath id="clip0">
<rect width="360" height="360" fill="white"/>
</clipPath>
</defs>
</svg>
