<svg width="360" height="222" viewBox="0 0 360 222" fill="none" xmlns="http://www.w3.org/2000/svg">
<path d="M384 106.403V214.597C384 215.884 382.749 217.117 380.521 218.027C378.294 218.936 375.273 219.447 372.123 219.447H-9.6275C-10.727 219.447 -11.8157 219.359 -12.8315 219.187C-13.8473 219.015 -14.7703 218.764 -15.5477 218.446C-16.3252 218.129 -16.9419 217.752 -17.3627 217.337C-17.7834 216.922 -18 216.477 -18 216.028V119.766C-18 113.928 -12.321 108.329 -2.21222 104.201C7.89652 100.073 21.6069 97.7539 35.9028 97.7539H362.819C365.601 97.7539 368.355 97.9776 370.925 98.4123C373.495 98.847 375.829 99.4841 377.796 100.287C379.763 101.09 381.323 102.044 382.388 103.093C383.452 104.143 384 105.267 384 106.403Z" fill="#F2F2F2" fill-opacity="0.5"/>
<path d="M141 182.206C141.019 195.119 138.056 207.862 132.34 219.447H-12.8844C-13.5562 219.447 -14.2214 219.315 -14.842 219.059C-15.4627 218.802 -16.0266 218.427 -16.5017 217.953C-16.9767 217.479 -17.3535 216.916 -17.6106 216.297C-17.8677 215.678 -18 215.014 -18 214.344V141.883C-9.01585 125.384 5.22396 112.344 22.4682 104.823C39.7124 97.3024 58.9772 95.7307 77.217 100.356C95.4568 104.982 111.631 115.541 123.182 130.365C134.734 145.188 141.003 163.43 141 182.206V182.206Z" fill="#2F2E41"/>
<path d="M227 168.604V212.189C227 214.114 226.238 215.96 224.882 217.321C223.526 218.683 221.687 219.447 219.77 219.447H-12.9398C-14.2816 219.447 -15.5685 218.912 -16.5174 217.96C-17.4663 217.008 -17.9996 215.716 -18 214.369V214.317C-18 178.014 94.4757 147.05 126.456 135.026C144.516 128.257 164.338 127.898 182.63 134.006C200.921 140.115 216.578 152.324 227 168.604H227Z" fill="#3F3D56"/>
<path d="M79 93.6253C79 134.392 54.5995 148.626 24.5 148.626C-5.59952 148.626 -30 134.392 -30 93.6253C-30 52.8589 24.5 0.997559 24.5 0.997559C24.5 0.997559 79 52.8589 79 93.6253Z" fill="#3E0382" fill-opacity="0.2"/>
<path d="M22.5729 142.181L23.1227 108.113L46 65.9671L23.2085 102.769L23.4557 87.451L39.2228 56.9586L23.5214 83.3973L23.9655 55.8471L40.8496 31.5715L24.0357 51.5148L24.3134 0.997559L22.5679 67.8735L22.7114 65.1145L5.54563 38.6558L22.4363 70.4104L20.8369 101.179L20.7892 100.363L1 72.5185L20.7293 103.248L20.5294 107.096L20.4935 107.154L20.5099 107.47L16.4519 185.533H21.8735L22.524 145.212L42.2049 114.558L22.5729 142.181Z" fill="#3F3D56"/>
<path d="M167 74.4777C167 107.256 147.524 118.701 123.5 118.701C99.4756 118.701 80 107.256 80 74.4777C80 41.6993 123.5 0 123.5 0C123.5 0 167 41.6993 167 74.4777Z" fill="#3E0382" fill-opacity="0.2"/>
<path d="M122.738 113.71L123.19 86.2715L142 52.3269L123.261 81.9676L123.464 69.6302L136.428 45.0713L123.518 66.3654L123.883 44.1761L137.765 24.6243L123.94 40.687L124.169 0L122.734 53.8622L122.852 51.6403L108.738 30.33L122.625 55.9057L121.31 80.687L121.271 80.0292L105 57.6033L121.222 82.3531L121.057 85.4521L121.028 85.4987L121.042 85.7533L117.705 148.626H122.163L122.697 116.151L138.88 91.4621L122.738 113.71Z" fill="#3F3D56"/>
<path d="M258 120.519C258 142.83 244.569 150.621 228 150.621C211.431 150.621 198 142.83 198 120.519C198 98.2078 228 69.8242 228 69.8242C228 69.8242 258 98.2078 258 120.519Z" fill="#3E0382" fill-opacity="0.2"/>
<path d="M226.985 146.903L227.29 128.304L240 105.294L227.338 125.386L227.475 117.023L236.235 100.376L227.512 114.81L227.759 99.7692L237.139 86.5161L227.797 97.4042L227.952 69.8242L226.982 106.335L227.062 104.829L217.525 90.3835L226.909 107.72L226.02 124.518L225.994 124.072L215 108.871L225.961 125.648L225.849 127.748L225.83 127.78L225.839 127.952L223.584 170.571H226.597L226.958 148.558L237.892 131.822L226.985 146.903Z" fill="#3F3D56"/>
<path d="M40.3466 161.918C39.0084 163.95 37.2721 163.902 35.7067 162.968C34.1413 162.034 33.3395 160.567 34.6777 158.534C36.016 156.502 40.5528 155.608 40.5528 155.608C40.5528 155.608 41.6849 159.885 40.3466 161.918Z" fill="#6C63FF"/>
<path d="M0.34663 166.905C-0.991591 168.938 -2.72787 168.89 -4.29329 167.956C-5.85872 167.021 -6.66049 165.554 -5.32227 163.522C-3.98405 161.489 0.55283 160.596 0.55283 160.596C0.55283 160.596 1.68485 164.873 0.34663 166.905Z" fill="#6C63FF"/>
<path d="M143.97 156.91C144.229 159.382 142.762 160.391 140.842 160.57C138.921 160.749 137.274 160.031 137.015 157.559C136.756 155.087 139.905 151.618 139.905 151.618C139.905 151.618 143.712 154.439 143.97 156.91Z" fill="#6C63FF"/>
<path d="M96.44 127.006C95.2929 129.038 93.8047 128.99 92.4629 128.056C91.1211 127.122 90.4339 125.655 91.5809 123.622C92.728 121.59 96.6167 120.696 96.6167 120.696C96.6167 120.696 97.587 124.973 96.44 127.006Z" fill="#6C63FF"/>
<path d="M204.347 159.134C203.008 160.913 201.272 160.871 199.707 160.053C198.141 159.236 197.34 157.952 198.678 156.174C200.016 154.395 204.553 153.613 204.553 153.613C204.553 153.613 205.685 157.356 204.347 159.134Z" fill="#6C63FF"/>
<path d="M284.855 222C308.997 222 328.568 219.907 328.568 217.324C328.568 214.742 308.997 212.648 284.855 212.648C260.712 212.648 241.141 214.742 241.141 217.324C241.141 219.907 260.712 222 284.855 222Z" fill="#3F3D56"/>
<path d="M322.38 159.256C322.552 160.994 321.579 161.702 320.305 161.828C319.032 161.954 317.939 161.449 317.768 159.712C317.596 157.974 319.684 155.536 319.684 155.536C319.684 155.536 322.209 157.519 322.38 159.256Z" fill="#6C63FF"/>
<path d="M304.485 154.27C303.558 155.749 302.355 155.714 301.271 155.034C300.186 154.354 299.631 153.286 300.558 151.807C301.485 150.328 304.628 149.677 304.628 149.677C304.628 149.677 305.412 152.791 304.485 154.27Z" fill="#6C63FF"/>
<path d="M303.479 194.251C303.479 194.251 305.549 203.263 308.773 205.205C311.998 207.147 300.903 210.83 300.903 210.83C300.903 210.83 296.074 213.825 294.82 214.907C293.565 215.99 288.19 218.307 289.076 216.586C289.962 214.866 291.519 211.593 293.977 208.875C296.435 206.156 299.666 201.289 296.851 197.499C294.036 193.708 303.479 194.251 303.479 194.251Z" fill="#FFB9B9"/>
<path d="M292.269 84.6247L291.184 84.237C291.184 84.237 288.394 83.8493 285.837 87.1058C283.279 90.3622 277.428 100.248 277.428 100.248L275.258 105.365L282.93 105.598L288.704 92.8821L292.269 84.6247Z" fill="#FF6584"/>
<path opacity="0.1" d="M292.269 84.6247L291.184 84.237C291.184 84.237 288.394 83.8493 285.837 87.1058C283.279 90.3622 277.428 100.248 277.428 100.248L275.258 105.365L282.93 105.598L288.704 92.8821L292.269 84.6247Z" fill="black"/>
<path d="M291.107 163.361C291.107 163.361 295.486 164.33 294.75 167.703C294.013 171.076 299.322 175.456 299.826 176.193C300.33 176.929 301.066 177.24 300.601 178.364C300.136 179.488 311.412 195.344 309.165 196.778C306.917 198.213 288.704 203.834 287.077 202.71C285.449 201.586 284.132 164.795 284.132 164.795L291.107 163.361Z" fill="#2F2E41"/>
<path opacity="0.1" d="M291.107 163.361C291.107 163.361 295.486 164.33 294.75 167.703C294.013 171.076 299.322 175.456 299.826 176.193C300.33 176.929 301.066 177.24 300.601 178.364C300.136 179.488 311.412 195.344 309.165 196.778C306.917 198.213 288.704 203.834 287.077 202.71C285.449 201.586 284.132 164.795 284.132 164.795L291.107 163.361Z" fill="black"/>
<path d="M281.148 204.367C281.148 204.367 278.436 213.206 280.257 216.501C282.078 219.796 270.629 217.433 270.629 217.433C270.629 217.433 264.951 217.611 263.323 217.921C261.696 218.231 255.883 217.547 257.51 216.501C259.138 215.454 262.122 213.399 265.609 212.275C269.097 211.151 274.328 208.553 273.785 203.863C273.243 199.172 281.148 204.367 281.148 204.367Z" fill="#FFB9B9"/>
<path d="M276.072 115.018C277.573 113.946 279.381 113.388 281.226 113.429C284.21 113.545 293.975 115.871 293.704 116.336C293.436 116.746 293.138 117.135 292.812 117.499C292.812 117.499 293.432 120.329 293.161 120.601C292.89 120.872 298.47 127.269 295.215 140.992C291.96 154.716 292.309 164.214 292.309 164.214C292.309 164.214 293.626 204.455 289.867 205.269C286.108 206.083 271.306 205.54 270.608 203.951C269.911 202.361 272.739 153.01 272.739 153.01C272.739 153.01 273.049 128.199 273.786 125.175C274.522 122.152 276.072 115.018 276.072 115.018Z" fill="#2F2E41"/>
<path d="M293.141 81.9867C298.299 81.9867 302.48 77.8037 302.48 72.6437C302.48 67.4838 298.299 63.3008 293.141 63.3008C287.983 63.3008 283.802 67.4838 283.802 72.6437C283.802 77.8037 287.983 81.9867 293.141 81.9867Z" fill="#FFB9B9"/>
<path d="M291.727 76.8322C291.727 76.8322 297.501 82.4922 290.371 86.873C285.35 89.9576 302.5 84.4694 302.5 84.4694C302.5 84.4694 298.935 75.3591 299.477 73.2656C300.02 71.1722 291.727 76.8322 291.727 76.8322Z" fill="#FFB9B9"/>
<path d="M293.161 85.6712C293.161 85.6712 301.182 81.9883 302.5 83.3064C303.817 84.6245 309.513 90.0519 303.313 99.6662C297.113 109.281 295.912 116.491 294.866 117.305C293.819 118.119 293.161 116.259 293.161 116.259C293.161 116.259 290.138 113.506 288.162 113.506C286.185 113.506 277.738 114.437 277.738 114.437L280.102 105.055C280.102 105.055 278.939 97.6503 282.892 93.9674C286.844 90.2845 291.184 84.2368 291.184 84.2368L293.423 83.8278L291.945 85.7107C291.945 85.7107 291.727 86.2915 293.161 85.6712Z" fill="#FF6584"/>
<path d="M314.317 148.788C298.123 142.87 295.984 131.173 300.322 119.291C304.659 107.41 313.83 99.8447 330.025 105.762C346.219 111.679 358.968 140.72 358.968 140.72C358.968 140.72 330.512 154.705 314.317 148.788Z" fill="#3E0382" fill-opacity="0.2"/>
<path d="M303.086 119.413L316.559 124.586L329.979 139.882L318.672 125.397L324.73 127.723L334.554 138.475L326.333 128.338L337.229 132.521L344.416 142.817L338.942 133.179L359 140.634L332.649 130.213L333.725 130.671L346.764 127.637L331.659 129.791L319.652 124.677L319.984 124.777L333.957 120.893L318.845 124.334L317.343 123.694L317.325 123.671L317.197 123.632L286.734 110.658L285.94 112.831L301.887 118.953L311.203 131.297L303.086 119.413Z" fill="#3F3D56"/>
<path d="M274.715 106.141C274.715 106.141 271.267 110.793 273.553 112.537C275.839 114.282 280.644 111.297 280.644 111.297C280.644 111.297 291.727 119.011 291.572 114.476C291.417 109.94 283.473 106.8 283.473 106.8L278.126 106.955L278.939 104.28L276.692 104.047L274.715 106.141Z" fill="#FFB9B9"/>
<path opacity="0.1" d="M274.715 106.141C274.715 106.141 271.267 110.793 273.553 112.537C275.839 114.282 280.644 111.297 280.644 111.297C280.644 111.297 291.727 119.011 291.572 114.476C291.417 109.94 283.473 106.8 283.473 106.8L278.126 106.955L278.939 104.28L276.692 104.047L274.715 106.141Z" fill="black"/>
<path d="M297.85 97.185C297.85 97.185 276.072 113.971 274.677 108.079C273.77 104.249 274.467 94.8192 275.067 88.686C275.495 84.2205 277.489 80.0505 280.694 76.9137C282.001 75.6403 283.213 74.8412 283.822 75.4365C285.527 77.1035 279.831 83.7715 279.831 83.7715C279.831 83.7715 278.901 97.3013 280.761 98.852C280.761 98.852 287.499 92.3424 288.896 92.4377C290.293 92.533 297.85 97.185 297.85 97.185Z" fill="#FFB9B9"/>
<path d="M312.275 80.3827C310.491 77.6961 309.018 73.3749 307.429 69.5692C306.913 68.3358 306.443 67.0863 305.982 65.8316C305.053 63.3026 301.01 60.0383 295.714 60.0383C289.662 60.0383 284.755 63.0855 284.755 65.6422C284.755 67.756 288.11 69.5375 292.693 70.0918C291.083 73.687 290.113 77.677 290.113 80.3828C290.113 86.5053 295.074 83.9156 301.194 83.9156C307.314 83.9156 315.661 85.4825 312.275 80.3827Z" fill="#2F2E41"/>
<path d="M302.5 86.7181C302.5 86.7181 306.375 96.6037 297.656 98.8522C297.656 98.8522 295.951 96.4874 293.161 96.0998C290.371 95.7121 287.891 92.8045 287.891 92.8045C287.891 92.8045 293.587 84.7797 298.044 84.6246C302.5 84.4695 302.5 86.7181 302.5 86.7181Z" fill="#FF6584"/>
</svg>
