<svg width="360" height="181" viewBox="0 0 360 181" fill="none" xmlns="http://www.w3.org/2000/svg">
<rect y="68" width="360" height="112" fill="#F4F4F4" fill-opacity="0.6"/>
<path opacity="0.1" d="M107.056 171.206C119.335 171.206 129.289 169.518 129.289 167.435C129.289 165.352 119.335 163.664 107.056 163.664C94.7762 163.664 84.8218 165.352 84.8218 167.435C84.8218 169.518 94.7762 171.206 107.056 171.206Z" fill="#3E0382" fill-opacity="0.4"/>
<path opacity="0.1" d="M188.041 180.441C200.32 180.441 210.275 178.752 210.275 176.67C210.275 174.587 200.32 172.899 188.041 172.899C175.762 172.899 165.807 174.587 165.807 176.67C165.807 178.752 175.762 180.441 188.041 180.441Z" fill="black"/>
<path d="M85.5566 94.927C87.165 97.0822 88.9001 99.5486 90.6125 102.237L90.857 89.8379L90.992 89.9245C89.1654 88.582 87.1596 87.5047 85.0337 86.7246L85.1686 86.7999L85.5566 94.927Z" fill="#3E0382" fill-opacity="0.4"/>
<path d="M84.8979 86.6771C82.6923 85.9214 80.5524 85.6707 78.5963 86.0212C78.4945 86.0394 78.3945 86.0604 78.2947 86.0817C78.7917 86.6174 81.6881 89.7814 85.2736 94.5496L84.8979 86.6771Z" fill="#3E0382" fill-opacity="0.4"/>
<path d="M97.8032 115.789C98.0669 116.421 98.3177 117.049 98.5556 117.673L103.082 104.245L103.212 104.37C102.678 103.36 102.111 102.378 101.512 101.424L97.8649 115.843L97.8032 115.789Z" fill="#3E0382" fill-opacity="0.4"/>
<path d="M95.1601 110.126L97.5256 96.048L97.6599 96.156C95.7315 93.8604 93.5394 91.8024 91.1292 90.0249L90.8799 102.66C92.4734 105.187 93.9002 107.675 95.1601 110.126Z" fill="#3E0382" fill-opacity="0.4"/>
<path d="M71.1224 100.164L71.0671 99.9924C71.2721 102.122 71.6906 104.225 72.3164 106.271L94.0668 108.525C92.9313 106.421 91.7592 104.447 90.6213 102.648L71.1224 100.164Z" fill="#3E0382" fill-opacity="0.4"/>
<path d="M72.4251 106.614L72.3677 106.442C72.5877 107.163 72.8344 107.892 73.1077 108.629L73.0491 108.458L95.0624 110.424C94.7965 109.901 94.5276 109.385 94.2557 108.876L72.4251 106.614Z" fill="#3E0382" fill-opacity="0.4"/>
<path d="M97.6474 115.423L101.264 101.124L101.397 101.241C100.305 99.5162 99.0994 97.8676 97.787 96.3062L95.3896 110.575C96.2205 112.214 96.9731 113.83 97.6474 115.423Z" fill="#3E0382" fill-opacity="0.4"/>
<path d="M98.5679 118.391L77.146 116.319C78.3108 117.895 79.5794 119.391 80.9433 120.797L80.8902 120.607L100.472 124.654C99.9623 122.53 99.3265 120.439 98.5679 118.391Z" fill="#3E0382" fill-opacity="0.4"/>
<path d="M78.1181 86.2178L78.1685 86.1091C75.2237 86.7808 73.1445 88.7938 72.0005 91.7075L85.1047 94.6824C81.2241 89.5245 78.1621 86.2645 78.1181 86.2178Z" fill="#3E0382" fill-opacity="0.4"/>
<path d="M98.9525 118.739C99.625 120.59 100.197 122.476 100.665 124.39L105.766 111.535L105.891 111.661C105.568 109.872 105.021 108.132 104.262 106.482C103.961 105.834 103.646 105.197 103.317 104.569L98.7368 118.157C98.8091 118.351 98.8827 118.546 98.9525 118.739Z" fill="#3E0382" fill-opacity="0.4"/>
<path d="M90.3933 102.29C88.6984 99.6338 86.9829 97.1971 85.3929 95.0672L71.988 92.024L71.9426 91.854C71.1058 94.0681 70.7998 96.7882 71.0533 99.8262L90.3933 102.29Z" fill="#3E0382" fill-opacity="0.4"/>
<path d="M76.8858 115.961L98.4301 118.045L98.4345 118.032C97.4999 115.557 96.4332 113.133 95.2392 110.773L73.1716 108.802C73.5463 109.799 73.9697 110.807 74.4419 111.825C75.1297 113.275 75.9477 114.66 76.8858 115.961Z" fill="#3E0382" fill-opacity="0.4"/>
<path d="M128.954 120.159L129.003 120.313C128.448 118.108 127.587 115.993 126.445 114.03L126.501 114.174L121.641 120.682C121.511 123.373 121.282 126.384 120.894 129.552L128.954 120.159Z" fill="#3E0382" fill-opacity="0.4"/>
<path d="M126.371 113.906C125.152 111.911 123.663 110.346 121.934 109.363C121.844 109.312 121.753 109.264 121.663 109.216C121.706 109.947 121.928 114.24 121.662 120.21L126.371 113.906Z" fill="#3E0382" fill-opacity="0.4"/>
<path d="M117.829 144.597C117.631 145.254 117.425 145.898 117.212 146.531L129.223 139.09L129.244 139.269C129.474 138.149 129.661 137.029 129.805 135.911L117.842 144.679L117.829 144.597Z" fill="#3E0382" fill-opacity="0.4"/>
<path d="M119.388 138.542L130.147 129.215L130.182 129.385C130.154 126.381 129.773 123.391 129.045 120.478L120.832 130.049C120.455 133.016 119.974 135.847 119.388 138.542Z" fill="#3E0382" fill-opacity="0.4"/>
<path d="M130.185 129.582L119.281 139.035C118.88 140.83 118.434 142.557 117.942 144.216L129.805 135.52L129.833 135.696C130.087 133.668 130.205 131.625 130.185 129.582Z" fill="#3E0382" fill-opacity="0.4"/>
<path d="M109.14 161.505C109.149 161.357 109.158 161.206 109.167 161.05C111.11 158.724 112.768 156.171 114.103 153.447L107.517 145.201C107.431 144.92 107.341 144.639 107.247 144.359L114.257 153.136C115.213 151.173 116.05 149.155 116.766 147.092L102.902 133.1C102.945 132.99 102.989 132.877 103.033 132.763L116.88 146.737L116.891 146.73C117.743 144.224 118.46 141.675 119.039 139.091L105.289 125.417C105.317 125.29 105.346 125.162 105.374 125.034L119.124 138.709C119.251 138.136 119.372 137.567 119.485 137.001L105.776 122.975C105.798 122.841 105.821 122.707 105.842 122.572L119.563 136.609C120.024 134.261 120.374 131.989 120.64 129.875L107.199 115.466L107.265 115.299C106.947 115.765 106.637 116.253 106.336 116.76C106.344 115.159 106.214 113.56 105.949 111.981L100.799 124.958C101.215 126.748 101.513 128.563 101.691 130.391C101.66 130.701 101.632 131.012 101.61 131.326L101.779 131.497C101.79 131.664 101.8 131.83 101.808 131.996L101.583 131.768C101.572 131.951 101.564 132.134 101.556 132.317C101.451 129.849 101.114 127.397 100.551 124.992L81.1128 120.974C82.092 121.984 83.1182 122.965 84.1669 123.912C82.1312 123.271 80.0188 122.908 77.8867 122.833L78.0382 122.863L80.9075 130.472C83.1002 132.022 85.5091 133.829 87.9646 135.853L84.4323 124.15C84.5632 124.267 84.6944 124.383 84.8259 124.499L88.3491 136.173C90.6419 138.081 92.7645 140.004 94.7167 141.944L93.0976 130.958C93.2111 131.038 93.3241 131.116 93.4364 131.194L95.0731 142.299C96.3675 143.6 97.5804 144.903 98.7117 146.209L97.9269 134.164C98.0383 134.234 98.1476 134.303 98.255 134.369L99.048 146.541L98.9725 146.508C99.4179 147.028 99.8497 147.548 100.268 148.067L100.42 135.683C100.536 135.752 100.644 135.815 100.743 135.873L100.589 148.471C100.717 148.633 100.847 148.795 100.973 148.957C102.182 150.509 103.306 152.125 104.34 153.8L104.413 152.673C104.504 153.007 104.594 153.335 104.684 153.658L104.643 154.299C104.793 154.551 104.94 154.802 105.084 155.054C105.196 155.438 105.308 155.811 105.418 156.174C105.099 155.579 104.765 154.99 104.417 154.408L84.6947 156.623C95.0648 162.104 107.933 164.702 108.753 164.864C108.559 163.999 108.322 163.143 108.05 162.294C108.121 162.219 108.191 162.144 108.261 162.069C108.294 162.17 108.329 162.272 108.361 162.373C108.325 162.412 108.289 162.453 108.252 162.492C108.292 162.472 108.335 162.452 108.379 162.431C108.569 163.028 108.739 163.622 108.889 164.215C108.949 163.734 109.029 163.002 109.099 162.077C112.651 160.291 121.85 155.07 126.52 146.885L114.315 153.58C112.924 156.427 111.186 159.089 109.14 161.505ZM105.096 142.169L105.126 141.704L105.435 142.091L105.405 142.556L105.096 142.169Z" fill="#3E0382" fill-opacity="0.4"/>
<path d="M121.44 109.208L121.548 109.156C118.854 107.787 115.974 108.005 113.244 109.516L121.448 120.204C121.733 113.745 121.445 109.272 121.44 109.208Z" fill="#3E0382" fill-opacity="0.4"/>
<path d="M116.842 147.606C116.184 149.463 115.427 151.282 114.573 153.056L126.662 146.425L126.679 146.601C127.565 145.017 128.249 143.325 128.713 141.568C128.892 140.877 129.054 140.184 129.199 139.49L117.045 147.02C116.977 147.216 116.91 147.413 116.842 147.606Z" fill="#3E0382" fill-opacity="0.4"/>
<path d="M121.426 120.685L113.033 109.751L113.106 109.591C111.056 110.76 109.094 112.659 107.36 115.162L120.692 129.453C121.073 126.321 121.298 123.345 121.426 120.685Z" fill="#3E0382" fill-opacity="0.4"/>
<path d="M77.743 122.83C75.413 122.796 73.3007 123.223 71.5483 124.163C71.4571 124.212 71.3684 124.263 71.28 124.315C71.9175 124.67 75.6455 126.779 80.5224 130.2L77.743 122.83Z" fill="#3E0382" fill-opacity="0.4"/>
<path d="M88.0997 136.242L68.7915 139.935L68.686 139.789C69.5361 141.75 70.5813 143.621 71.8056 145.371L93.1843 140.76C91.4572 139.112 89.7353 137.599 88.0997 136.242Z" fill="#3E0382" fill-opacity="0.4"/>
<path d="M94.7154 142.257C94.3017 141.842 93.8873 141.436 93.4722 141.036L72.0146 145.664L71.9072 145.519C72.3382 146.136 72.7971 146.752 73.2837 147.368L73.1752 147.224L94.7154 142.257Z" fill="#3E0382" fill-opacity="0.4"/>
<path d="M104.238 154.111C103.1 152.249 101.852 150.458 100.5 148.746L79.49 153.428C81.0827 154.565 82.7495 155.594 84.4792 156.508L84.37 156.343L104.238 154.111Z" fill="#3E0382" fill-opacity="0.4"/>
<path d="M71.154 124.499L71.1686 124.38C68.5746 125.933 67.2165 128.493 67.0249 131.62L80.4027 130.379C75.1253 126.679 71.2103 124.53 71.154 124.499Z" fill="#3E0382" fill-opacity="0.4"/>
<path d="M80.7952 130.656L67.1105 131.924L67.015 131.777C66.9003 134.142 67.4461 136.824 68.6218 139.635L87.7727 135.972C85.3437 133.972 82.9626 132.188 80.7952 130.656Z" fill="#3E0382" fill-opacity="0.4"/>
<path d="M100.263 148.446C98.6128 146.382 96.8529 144.409 94.9911 142.535L73.3979 147.513C74.0609 148.345 74.7736 149.172 75.5359 149.993C76.6362 151.159 77.8401 152.222 79.1326 153.168L100.263 148.46L100.263 148.446Z" fill="#3E0382" fill-opacity="0.4"/>
<path d="M85.5566 94.927C87.165 97.0822 88.9001 99.5486 90.6125 102.237L90.857 89.8379L90.992 89.9245C89.1654 88.582 87.1596 87.5047 85.0337 86.7246L85.1686 86.7999L85.5566 94.927Z" fill="#3E0382" fill-opacity="0.4"/>
<path d="M84.8979 86.6771C82.6923 85.9214 80.5524 85.6707 78.5963 86.0212C78.4945 86.0394 78.3945 86.0604 78.2947 86.0817C78.7917 86.6174 81.6881 89.7814 85.2736 94.5496L84.8979 86.6771Z" fill="#3E0382" fill-opacity="0.4"/>
<path d="M97.8032 115.789C98.0669 116.421 98.3177 117.049 98.5556 117.673L103.082 104.245L103.212 104.37C102.678 103.36 102.111 102.378 101.512 101.424L97.8649 115.843L97.8032 115.789Z" fill="#3E0382" fill-opacity="0.4"/>
<path d="M95.1601 110.126L97.5256 96.048L97.6599 96.156C95.7315 93.8604 93.5394 91.8024 91.1292 90.0249L90.8799 102.66C92.4734 105.187 93.9002 107.675 95.1601 110.126Z" fill="#3E0382" fill-opacity="0.4"/>
<path d="M71.1224 100.164L71.0671 99.9924C71.2721 102.122 71.6906 104.225 72.3164 106.271L94.0668 108.525C92.9313 106.421 91.7592 104.447 90.6213 102.648L71.1224 100.164Z" fill="#3E0382" fill-opacity="0.4"/>
<path d="M72.4251 106.614L72.3677 106.442C72.5877 107.163 72.8344 107.892 73.1077 108.629L73.0491 108.458L95.0624 110.424C94.7965 109.901 94.5276 109.385 94.2557 108.876L72.4251 106.614Z" fill="#3E0382" fill-opacity="0.4"/>
<path d="M97.6474 115.423L101.264 101.124L101.397 101.241C100.305 99.5162 99.0994 97.8676 97.787 96.3062L95.3896 110.575C96.2205 112.214 96.9731 113.83 97.6474 115.423Z" fill="#3E0382" fill-opacity="0.4"/>
<path d="M98.5679 118.391L77.146 116.319C78.3108 117.895 79.5794 119.391 80.9433 120.797L80.8902 120.607L100.472 124.654C99.9623 122.53 99.3265 120.439 98.5679 118.391Z" fill="#3E0382" fill-opacity="0.4"/>
<path d="M78.1181 86.2178L78.1685 86.1091C75.2237 86.7808 73.1445 88.7938 72.0005 91.7075L85.1047 94.6824C81.2241 89.5245 78.1621 86.2645 78.1181 86.2178Z" fill="#3E0382" fill-opacity="0.4"/>
<path d="M98.9525 118.739C99.625 120.59 100.197 122.476 100.665 124.39L105.766 111.535L105.891 111.661C105.568 109.872 105.021 108.132 104.262 106.482C103.961 105.834 103.646 105.197 103.317 104.569L98.7368 118.157C98.8091 118.351 98.8827 118.546 98.9525 118.739Z" fill="#3E0382" fill-opacity="0.4"/>
<path d="M90.3933 102.29C88.6984 99.6338 86.9829 97.1971 85.3929 95.0672L71.988 92.024L71.9426 91.854C71.1058 94.0681 70.7998 96.7882 71.0533 99.8262L90.3933 102.29Z" fill="#3E0382" fill-opacity="0.4"/>
<path d="M76.8858 115.961L98.4301 118.045L98.4345 118.032C97.4999 115.557 96.4332 113.133 95.2392 110.773L73.1716 108.802C73.5463 109.799 73.9697 110.807 74.4419 111.825C75.1297 113.275 75.9477 114.66 76.8858 115.961Z" fill="#3E0382" fill-opacity="0.4"/>
<path d="M128.954 120.159L129.003 120.313C128.448 118.108 127.587 115.993 126.445 114.03L126.501 114.174L121.641 120.682C121.511 123.373 121.282 126.384 120.894 129.552L128.954 120.159Z" fill="#3E0382" fill-opacity="0.4"/>
<path d="M126.371 113.906C125.152 111.911 123.663 110.346 121.934 109.363C121.844 109.312 121.753 109.264 121.663 109.216C121.706 109.947 121.928 114.24 121.662 120.21L126.371 113.906Z" fill="#3E0382" fill-opacity="0.4"/>
<path d="M117.829 144.597C117.631 145.254 117.425 145.898 117.212 146.531L129.223 139.09L129.244 139.269C129.474 138.149 129.661 137.029 129.805 135.911L117.842 144.679L117.829 144.597Z" fill="#3E0382" fill-opacity="0.4"/>
<path d="M119.388 138.542L130.147 129.215L130.182 129.385C130.154 126.381 129.773 123.391 129.045 120.478L120.832 130.049C120.455 133.016 119.974 135.847 119.388 138.542Z" fill="#3E0382" fill-opacity="0.4"/>
<path d="M130.185 129.582L119.281 139.035C118.88 140.83 118.434 142.557 117.942 144.216L129.805 135.52L129.833 135.696C130.087 133.668 130.205 131.625 130.185 129.582Z" fill="#3E0382" fill-opacity="0.4"/>
<path d="M109.14 161.505C109.149 161.357 109.158 161.206 109.167 161.05C111.11 158.724 112.768 156.171 114.103 153.447L107.517 145.201C107.431 144.92 107.341 144.639 107.247 144.359L114.257 153.136C115.213 151.173 116.05 149.155 116.766 147.092L102.902 133.1C102.945 132.99 102.989 132.877 103.033 132.763L116.88 146.737L116.891 146.73C117.743 144.224 118.46 141.675 119.039 139.091L105.289 125.417C105.317 125.29 105.346 125.162 105.374 125.034L119.124 138.709C119.251 138.136 119.372 137.567 119.485 137.001L105.776 122.975C105.798 122.841 105.821 122.707 105.842 122.572L119.563 136.609C120.024 134.261 120.374 131.989 120.64 129.875L107.199 115.466L107.265 115.299C106.947 115.765 106.637 116.253 106.336 116.76C106.344 115.159 106.214 113.56 105.949 111.981L100.799 124.958C101.215 126.748 101.513 128.563 101.691 130.391C101.66 130.701 101.632 131.012 101.61 131.326L101.779 131.497C101.79 131.664 101.8 131.83 101.808 131.996L101.583 131.768C101.572 131.951 101.564 132.134 101.556 132.317C101.451 129.849 101.114 127.397 100.551 124.992L81.1128 120.974C82.092 121.984 83.1182 122.965 84.1669 123.912C82.1312 123.271 80.0188 122.908 77.8867 122.833L78.0382 122.863L80.9075 130.472C83.1002 132.022 85.5091 133.829 87.9646 135.853L84.4323 124.15C84.5632 124.267 84.6944 124.383 84.8259 124.499L88.3491 136.173C90.6419 138.081 92.7645 140.004 94.7167 141.944L93.0976 130.958C93.2111 131.038 93.3241 131.116 93.4364 131.194L95.0731 142.299C96.3675 143.6 97.5804 144.903 98.7117 146.209L97.9269 134.164C98.0383 134.234 98.1476 134.303 98.255 134.369L99.048 146.541L98.9725 146.508C99.4179 147.028 99.8497 147.548 100.268 148.067L100.42 135.683C100.536 135.752 100.644 135.815 100.743 135.873L100.589 148.471C100.717 148.633 100.847 148.795 100.973 148.957C102.182 150.509 103.306 152.125 104.34 153.8L104.413 152.673C104.504 153.007 104.594 153.335 104.684 153.658L104.643 154.299C104.793 154.551 104.94 154.802 105.084 155.054C105.196 155.438 105.308 155.811 105.418 156.174C105.099 155.579 104.765 154.99 104.417 154.408L84.6947 156.623C95.0648 162.104 107.933 164.702 108.753 164.864C108.559 163.999 108.322 163.143 108.05 162.294C108.121 162.219 108.191 162.144 108.261 162.069C108.294 162.17 108.329 162.272 108.361 162.373C108.325 162.412 108.289 162.453 108.252 162.492C108.292 162.472 108.335 162.452 108.379 162.431C108.569 163.028 108.739 163.622 108.889 164.215C108.949 163.734 109.029 163.002 109.099 162.077C112.651 160.291 121.85 155.07 126.52 146.885L114.315 153.58C112.924 156.427 111.186 159.089 109.14 161.505ZM105.096 142.169L105.126 141.704L105.435 142.091L105.405 142.556L105.096 142.169Z" fill="#3E0382" fill-opacity="0.4"/>
<path d="M121.44 109.208L121.548 109.156C118.854 107.787 115.974 108.005 113.244 109.516L121.448 120.204C121.733 113.745 121.445 109.272 121.44 109.208Z" fill="#3E0382" fill-opacity="0.4"/>
<path d="M116.842 147.606C116.184 149.463 115.427 151.282 114.573 153.056L126.662 146.425L126.679 146.601C127.565 145.017 128.249 143.325 128.713 141.568C128.892 140.877 129.054 140.184 129.199 139.49L117.045 147.02C116.977 147.216 116.91 147.413 116.842 147.606Z" fill="#3E0382" fill-opacity="0.4"/>
<path d="M121.426 120.685L113.033 109.751L113.106 109.591C111.056 110.76 109.094 112.659 107.36 115.162L120.692 129.453C121.073 126.321 121.298 123.345 121.426 120.685Z" fill="#3E0382" fill-opacity="0.4"/>
<path d="M77.743 122.83C75.413 122.796 73.3007 123.223 71.5483 124.163C71.4571 124.212 71.3684 124.263 71.28 124.315C71.9175 124.67 75.6455 126.779 80.5224 130.2L77.743 122.83Z" fill="#3E0382" fill-opacity="0.4"/>
<path d="M88.0997 136.242L68.7915 139.935L68.686 139.789C69.5361 141.75 70.5813 143.621 71.8056 145.371L93.1843 140.76C91.4572 139.112 89.7353 137.599 88.0997 136.242Z" fill="#3E0382" fill-opacity="0.4"/>
<path d="M94.7154 142.257C94.3017 141.842 93.8873 141.436 93.4722 141.036L72.0146 145.664L71.9072 145.519C72.3382 146.136 72.7971 146.752 73.2837 147.368L73.1752 147.224L94.7154 142.257Z" fill="#3E0382" fill-opacity="0.4"/>
<path d="M104.238 154.111C103.1 152.249 101.852 150.458 100.5 148.746L79.49 153.428C81.0827 154.565 82.7495 155.594 84.4792 156.508L84.37 156.343L104.238 154.111Z" fill="#3E0382" fill-opacity="0.4"/>
<path d="M71.154 124.499L71.1686 124.38C68.5746 125.933 67.2165 128.493 67.0249 131.62L80.4027 130.379C75.1253 126.679 71.2103 124.53 71.154 124.499Z" fill="#3E0382" fill-opacity="0.4"/>
<path d="M80.7952 130.656L67.1105 131.924L67.015 131.777C66.9003 134.142 67.4461 136.824 68.6218 139.635L87.7727 135.972C85.3437 133.972 82.9626 132.188 80.7952 130.656Z" fill="#3E0382" fill-opacity="0.4"/>
<path d="M100.263 148.446C98.6128 146.382 96.8529 144.409 94.9911 142.535L73.3979 147.513C74.0609 148.345 74.7736 149.172 75.5359 149.993C76.6362 151.159 77.8401 152.222 79.1326 153.168L100.263 148.46L100.263 148.446Z" fill="#3E0382" fill-opacity="0.4"/>
<path d="M189.789 103.58H186.063V131.035H189.789V103.58Z" fill="#3F3D56"/>
<path d="M233.76 103.58H230.033V131.035H233.76V103.58Z" fill="#3F3D56"/>
<path d="M277.73 99.3369H142.092V105.577H277.73V99.3369Z" fill="#E6E6E6"/>
<path d="M277.73 119.055H142.092V125.294H277.73V119.055Z" fill="#E6E6E6"/>
<path d="M277.73 107.573H142.092V111.317H277.73V107.573Z" fill="#E6E6E6"/>
<path d="M277.73 113.314H142.092V117.058H277.73V113.314Z" fill="#E6E6E6"/>
<path d="M145.942 98.2139H141.719V131.16H145.942V98.2139Z" fill="#3F3D56"/>
<path d="M277.73 98.0891H273.507V131.035H277.73V98.0891Z" fill="#3F3D56"/>
<path d="M134.391 139.771H130.168V173.965H134.391V139.771Z" fill="#3F3D56"/>
<path d="M148.302 138.523H144.079V156.743H148.302V138.523Z" fill="#3F3D56"/>
<path d="M276.737 138.523H272.513V156.743H276.737V138.523Z" fill="#3F3D56"/>
<path d="M288.661 139.771H284.438V173.965H288.661V139.771Z" fill="#3F3D56"/>
<path d="M288.661 139.771H130.168V144.263H288.661V139.771Z" fill="#3F3D56"/>
<path d="M141.595 129.787L130.168 139.771H288.661L277.73 129.787H141.595Z" fill="#E6E6E6"/>
<path opacity="0.1" d="M116.624 6.92367L116.591 6.74397L113.533 5.11664H113.053L112.87 4.76318H106.568L105.106 5.11664H99.7236L98.2654 6.82633L98.2505 6.93116C98.1561 7.54266 96.047 21.9216 101.612 26.4966L103.932 27.5798H105.432L105.139 26.9914L106.443 27.5798H110.667L110.742 27.4667L113.248 26.524L113.312 26.4491C113.538 26.1796 118.865 19.6777 116.624 6.92367Z" fill="#6C63FF"/>
<path d="M109.052 21.2153H106.568V27.7047H109.052V21.2153Z" fill="#E6E6E6"/>
<path d="M109.921 36.0659H105.45V160.861H109.921V36.0659Z" fill="#3F3D56"/>
<path d="M111.039 33.9443H104.332V38.1874H111.039V33.9443Z" fill="#3F3D56"/>
<path d="M101.848 26.207L106.071 30.6997L104.332 33.9443L107.81 34.6931L111.039 33.9443L109.052 30.4501L113.027 26.207H101.848Z" fill="#3F3D56"/>
<path d="M98.6182 6.98841L96.6309 4.99168L98.1214 3.49414H117.001L118.492 5.24127L116.256 6.98841C116.256 6.98841 104.332 6.48923 98.6182 6.98841Z" fill="#3F3D56"/>
<path d="M116.624 6.92369L116.591 6.74399L113.533 5.11666L112.137 4.37288L104.3 3.86621L99.9049 4.90451L99.7236 5.11666L98.2654 6.82635L98.2505 6.93118C98.1561 7.54268 96.047 21.9216 101.612 26.4966L103.932 27.5798L105.884 28.4908L105.432 27.5798L104.69 26.0897C103.912 21.5422 102.203 9.59431 103.293 7.09841L107.8 5.6383L111.799 7.13085C112.075 8.92541 113.859 21.5073 110.734 25.9924L110.667 26.0897V27.4949L113.248 26.524L113.312 26.4492C113.538 26.1796 118.865 19.6778 116.624 6.92369ZM112.798 25.8926L111.412 26.4167V26.3219C114.84 21.1828 112.599 7.38294 112.502 6.79391L112.468 6.57926L108.548 5.11666L107.82 4.8446L106.98 5.11666L102.777 6.47942L102.705 6.60671C101.107 9.48449 103.847 25.5856 103.964 26.2694L103.974 26.3244L104.27 26.9184L102.046 25.8876C97.0903 21.7419 98.7895 8.46616 98.9709 7.15082L100.312 5.5784L102.265 5.11666L104.364 4.61997L107.82 4.8446L111.929 5.11167L111.938 5.11666L115.921 7.23319C117.893 18.8017 113.367 25.1538 112.798 25.8926Z" fill="#3F3D56"/>
<path d="M107.81 6.98853C111.514 6.98853 114.517 5.4241 114.517 3.49427C114.517 1.56444 111.514 0 107.81 0C104.106 0 101.103 1.56444 101.103 3.49427C101.103 5.4241 104.106 6.98853 107.81 6.98853Z" fill="#3F3D56"/>
<path d="M104.332 154.497L100.357 167.226C100.357 167.226 106.568 170.72 115.014 167.226L111.039 154.497H104.332Z" fill="#3E0382" fill-opacity="0.5"/>
<path d="M107.81 21.9639C108.907 21.9639 109.797 21.0699 109.797 19.9672C109.797 18.8644 108.907 17.9705 107.81 17.9705C106.712 17.9705 105.823 18.8644 105.823 19.9672C105.823 21.0699 106.712 21.9639 107.81 21.9639Z" fill="#3E0382" fill-opacity="0.4"/>
<path d="M182.877 88.7741C182.877 88.7741 190.835 85.3066 194.573 88.9695C198.311 92.6325 184.565 91.4267 182.877 88.7741Z" fill="#3F3D56"/>
<path d="M196.618 72.3293C193.944 67.8106 188.653 67.6001 188.653 67.6001C188.653 67.6001 183.497 66.9408 180.19 73.8228C177.107 80.2374 172.853 86.4309 179.505 87.9325L180.707 84.1926L181.451 88.2109C182.398 88.279 183.348 88.2953 184.297 88.2596C191.421 88.0296 198.205 88.3268 197.987 85.7705C197.697 82.3721 199.191 76.6772 196.618 72.3293Z" fill="#2F2E41"/>
<path d="M200.36 154.245C200.36 154.245 196.984 160.515 194.813 160.515C192.643 160.515 192.884 164.615 193.367 165.579C193.849 166.544 195.055 168.714 193.125 171.849C192.452 172.944 192.572 174.186 193.014 175.339C194.253 178.569 199.073 177.591 198.919 174.134C198.917 174.096 198.915 174.058 198.913 174.019C198.672 170.161 200.601 164.132 202.53 162.685C204.459 161.239 206.147 157.38 206.147 157.38L200.36 154.245Z" fill="#FFB8B8"/>
<path d="M177.21 152.799C177.21 152.799 180.586 159.069 182.756 159.069C184.927 159.069 184.685 163.168 184.203 164.133C183.721 165.097 182.515 167.268 184.444 170.402C185.118 171.498 184.998 172.74 184.555 173.893C183.316 177.123 178.497 176.144 178.651 172.688C178.652 172.65 178.654 172.611 178.657 172.573C178.898 168.714 176.969 162.686 175.04 161.239C173.11 159.792 171.422 155.934 171.422 155.934L177.21 152.799Z" fill="#FFB8B8"/>
<path d="M179.863 121.932L178.416 125.067C178.416 125.067 157.195 132.06 159.124 140.259C161.053 148.458 170.458 161.239 171.905 160.757C173.352 160.274 181.068 158.828 181.309 154.728C181.551 150.629 175.763 143.394 175.763 143.394L183.721 136.16L195.301 135.919L205.183 143.394C205.183 143.394 194.814 152.558 199.395 156.175C203.977 159.792 210.729 162.204 211.694 160.757C212.658 159.31 223.51 137.848 221.822 135.919C220.134 133.989 203.013 126.755 203.013 126.755L198.431 120.244L180.586 119.28L179.863 121.932Z" fill="#2F2E41"/>
<path d="M184.203 82.1428C184.203 82.1428 185.409 90.1006 182.998 91.0652C180.586 92.0298 187.82 96.1293 187.82 96.1293H191.92L194.573 90.5829C194.573 90.5829 192.161 86.2423 193.608 82.1428C195.055 78.0433 184.203 82.1428 184.203 82.1428Z" fill="#FFB8B8"/>
<path opacity="0.1" d="M184.203 82.1428C184.203 82.1428 185.409 90.1006 182.998 91.0652C180.586 92.0298 187.82 96.1293 187.82 96.1293H191.92L194.573 90.5829C194.573 90.5829 192.161 86.2423 193.608 82.1428C195.055 78.0433 184.203 82.1428 184.203 82.1428Z" fill="black"/>
<path d="M182.515 88.8948C182.515 88.8948 185.168 91.7885 185.65 92.2708C186.132 92.7531 188.303 95.4057 192.885 91.5474C197.466 87.689 197.949 92.2708 197.949 92.2708V121.208C197.949 121.208 194.09 119.52 190.955 121.208C187.82 122.896 181.309 120.726 181.309 120.726L180.104 90.824L182.515 88.8948Z" fill="white"/>
<path d="M184.286 88.8948C184.286 88.8948 182.033 87.9302 180.104 88.8948C178.174 89.8594 171.422 94.6823 171.905 96.8526C172.387 99.0229 178.657 114.215 174.316 121.45C169.975 128.684 169.252 130.613 169.252 130.613L179.862 125.067C179.862 125.067 188.061 120.003 187.338 116.868C186.614 113.733 184.286 88.8948 184.286 88.8948Z" fill="#FF7F8E"/>
<path d="M193.852 88.8948C193.852 88.8948 198.913 89.3771 199.155 89.8594C199.396 90.3417 206.751 92.3914 206.268 94.5617C205.786 96.732 199.155 116.144 202.048 119.761C204.942 123.379 209.765 128.443 208.077 128.925C206.389 129.407 203.495 128.202 200.602 128.925C197.708 129.649 190.956 123.62 191.679 117.109C192.403 110.598 191.685 90.5828 193.852 88.8948Z" fill="#FF7F8E"/>
<path d="M181.792 134.954V137.365C181.792 137.365 180.586 142.912 184.444 142.671C188.303 142.43 185.891 135.919 185.891 135.919L185.65 133.748L181.792 134.954Z" fill="#FFB8B8"/>
<path d="M192.643 135.195C192.643 135.195 189.991 140.741 192.643 141.224C195.296 141.706 197.225 138.089 197.225 137.124C197.225 136.16 192.643 135.195 192.643 135.195Z" fill="#FFB8B8"/>
<path d="M181.912 79.852C182.179 79.852 182.395 79.4202 182.395 78.8874C182.395 78.3547 182.179 77.9229 181.912 77.9229C181.646 77.9229 181.43 78.3547 181.43 78.8874C181.43 79.4202 181.646 79.852 181.912 79.852Z" fill="#FFB8B8"/>
<path d="M200.36 92.03C200.36 92.03 206.389 92.03 206.148 94.4415C205.907 96.853 197.949 138.33 197.949 138.33C197.949 138.33 194.573 135.195 191.679 135.919L200.36 92.03Z" fill="#FF7F8E"/>
<path d="M176.969 92.7532C176.969 92.7532 170.94 93.9589 170.94 97.5761C170.94 101.193 179.621 135.918 180.827 135.918C182.033 135.918 186.615 135.195 186.615 133.989C186.615 132.783 176.969 92.7532 176.969 92.7532Z" fill="#FF7F8E"/>
<path opacity="0.2" d="M178.295 99.8667L183.721 121.085C183.721 121.085 181.189 102.519 178.295 99.8667Z" fill="black"/>
<path opacity="0.2" d="M199.399 96.8855L193.912 124.628C193.912 124.628 195.666 98.4858 199.399 96.8855Z" fill="black"/>
<path d="M189.026 86.0011C192.888 86.0011 196.019 82.8702 196.019 79.0079C196.019 75.1456 192.888 72.0146 189.026 72.0146C185.164 72.0146 182.033 75.1456 182.033 79.0079C182.033 82.8702 185.164 86.0011 189.026 86.0011Z" fill="#FFB8B8"/>
<path d="M195.436 71.8935L190.209 69.1555L182.99 70.2755L181.497 76.8717L185.215 76.7287L186.253 74.3054V76.6888L187.968 76.6228L188.964 72.7645L189.586 76.8717L195.685 76.7474L195.436 71.8935Z" fill="#2F2E41"/>
</svg>
