<svg width="360" height="181" viewBox="0 0 360 181" fill="none" xmlns="http://www.w3.org/2000/svg">
<rect y="70" width="360" height="111" fill="#F4F4F4" fill-opacity="0.6"/>
<path opacity="0.1" d="M107.056 171.206C119.335 171.206 129.289 169.518 129.289 167.435C129.289 165.352 119.335 163.664 107.056 163.664C94.7762 163.664 84.8218 165.352 84.8218 167.435C84.8218 169.518 94.7762 171.206 107.056 171.206Z" fill="#3E0382" fill-opacity="0.4"/>
<path opacity="0.1" d="M188.041 180.441C200.32 180.441 210.275 178.752 210.275 176.67C210.275 174.587 200.32 172.899 188.041 172.899C175.762 172.899 165.807 174.587 165.807 176.67C165.807 178.752 175.762 180.441 188.041 180.441Z" fill="black"/>
<path d="M85.5565 94.927C87.1648 97.0822 88.9 99.5486 90.6124 102.237L90.8569 89.8379L90.9918 89.9245C89.1652 88.582 87.1594 87.5047 85.0336 86.7246L85.1685 86.7999L85.5565 94.927Z" fill="#3E0382" fill-opacity="0.4"/>
<path d="M84.8979 86.6771C82.6923 85.9214 80.5524 85.6707 78.5963 86.0212C78.4945 86.0394 78.3945 86.0604 78.2947 86.0817C78.7917 86.6174 81.6881 89.7814 85.2736 94.5496L84.8979 86.6771Z" fill="#3E0382" fill-opacity="0.4"/>
<path d="M97.8031 115.789C98.0668 116.421 98.3176 117.049 98.5554 117.673L103.082 104.245L103.212 104.37C102.678 103.36 102.111 102.378 101.512 101.424L97.8648 115.843L97.8031 115.789Z" fill="#3E0382" fill-opacity="0.4"/>
<path d="M95.16 110.126L97.5255 96.048L97.6598 96.156C95.7314 93.8604 93.5392 91.8024 91.129 90.0249L90.8798 102.66C92.4733 105.187 93.9001 107.675 95.16 110.126Z" fill="#3E0382" fill-opacity="0.4"/>
<path d="M71.1224 100.164L71.0671 99.9924C71.2721 102.122 71.6906 104.225 72.3164 106.271L94.0668 108.525C92.9313 106.421 91.7592 104.447 90.6213 102.648L71.1224 100.164Z" fill="#3E0382" fill-opacity="0.4"/>
<path d="M72.4252 106.614L72.3678 106.442C72.5878 107.163 72.8345 107.892 73.1078 108.629L73.0492 108.458L95.0625 110.424C94.7966 109.901 94.5277 109.385 94.2558 108.876L72.4252 106.614Z" fill="#3E0382" fill-opacity="0.4"/>
<path d="M97.6474 115.423L101.264 101.124L101.397 101.241C100.305 99.5162 99.0994 97.8676 97.787 96.3062L95.3896 110.575C96.2205 112.214 96.9731 113.83 97.6474 115.423Z" fill="#3E0382" fill-opacity="0.4"/>
<path d="M98.5679 118.391L77.146 116.319C78.3108 117.895 79.5794 119.391 80.9433 120.797L80.8902 120.607L100.472 124.654C99.9623 122.53 99.3265 120.439 98.5679 118.391Z" fill="#3E0382" fill-opacity="0.4"/>
<path d="M78.1181 86.2178L78.1685 86.1091C75.2237 86.7808 73.1445 88.7938 72.0005 91.7075L85.1047 94.6824C81.2241 89.5245 78.1621 86.2645 78.1181 86.2178Z" fill="#3E0382" fill-opacity="0.4"/>
<path d="M98.9523 118.739C99.6249 120.59 100.197 122.476 100.665 124.39L105.766 111.535L105.891 111.661C105.568 109.872 105.021 108.132 104.262 106.482C103.961 105.834 103.646 105.197 103.317 104.569L98.7367 118.157C98.809 118.351 98.8825 118.546 98.9523 118.739Z" fill="#3E0382" fill-opacity="0.4"/>
<path d="M90.3934 102.29C88.6985 99.6338 86.983 97.1971 85.3931 95.0672L71.9882 92.024L71.9427 91.854C71.1059 94.0681 70.7999 96.7882 71.0534 99.8262L90.3934 102.29Z" fill="#3E0382" fill-opacity="0.4"/>
<path d="M76.8858 115.961L98.4301 118.045L98.4345 118.032C97.4999 115.557 96.4332 113.133 95.2392 110.773L73.1716 108.802C73.5463 109.799 73.9697 110.807 74.4419 111.825C75.1297 113.275 75.9477 114.66 76.8858 115.961Z" fill="#3E0382" fill-opacity="0.4"/>
<path d="M128.954 120.159L129.003 120.313C128.448 118.108 127.587 115.993 126.445 114.03L126.501 114.174L121.641 120.682C121.511 123.373 121.282 126.384 120.894 129.552L128.954 120.159Z" fill="#3E0382" fill-opacity="0.4"/>
<path d="M126.371 113.906C125.152 111.911 123.663 110.346 121.934 109.363C121.844 109.312 121.753 109.264 121.663 109.216C121.706 109.947 121.928 114.24 121.662 120.21L126.371 113.906Z" fill="#3E0382" fill-opacity="0.4"/>
<path d="M117.829 144.597C117.631 145.254 117.425 145.898 117.212 146.531L129.223 139.09L129.244 139.269C129.473 138.149 129.661 137.029 129.805 135.911L117.842 144.679L117.829 144.597Z" fill="#3E0382" fill-opacity="0.4"/>
<path d="M119.388 138.542L130.147 129.215L130.182 129.385C130.154 126.381 129.773 123.391 129.045 120.478L120.832 130.049C120.455 133.016 119.974 135.847 119.388 138.542Z" fill="#3E0382" fill-opacity="0.4"/>
<path d="M130.185 129.582L119.28 139.035C118.88 140.83 118.434 142.557 117.942 144.216L129.805 135.52L129.832 135.696C130.087 133.668 130.204 131.625 130.185 129.582Z" fill="#3E0382" fill-opacity="0.4"/>
<path d="M109.14 161.505C109.149 161.357 109.158 161.206 109.167 161.05C111.11 158.724 112.768 156.171 114.103 153.447L107.517 145.201C107.431 144.92 107.341 144.639 107.247 144.359L114.257 153.136C115.213 151.173 116.05 149.155 116.766 147.092L102.902 133.1C102.945 132.99 102.989 132.877 103.033 132.763L116.88 146.737L116.891 146.73C117.743 144.224 118.46 141.675 119.039 139.091L105.289 125.417C105.317 125.29 105.346 125.162 105.374 125.034L119.124 138.709C119.251 138.136 119.372 137.567 119.485 137.001L105.776 122.975C105.798 122.841 105.821 122.707 105.842 122.572L119.563 136.609C120.024 134.261 120.374 131.989 120.64 129.875L107.199 115.466L107.265 115.299C106.947 115.765 106.637 116.253 106.336 116.76C106.344 115.159 106.214 113.56 105.949 111.981L100.799 124.958C101.215 126.748 101.513 128.563 101.691 130.391C101.66 130.701 101.632 131.012 101.61 131.326L101.779 131.497C101.79 131.664 101.8 131.83 101.808 131.996L101.583 131.768C101.572 131.951 101.564 132.134 101.556 132.317C101.451 129.849 101.114 127.397 100.551 124.992L81.1128 120.974C82.092 121.984 83.1182 122.965 84.1669 123.912C82.1312 123.271 80.0188 122.908 77.8867 122.833L78.0382 122.863L80.9075 130.472C83.1002 132.022 85.5091 133.829 87.9646 135.853L84.4323 124.15C84.5632 124.267 84.6944 124.383 84.8259 124.499L88.3491 136.173C90.6419 138.081 92.7645 140.004 94.7167 141.944L93.0976 130.958C93.2111 131.038 93.3241 131.116 93.4364 131.194L95.0731 142.299C96.3675 143.6 97.5804 144.903 98.7117 146.209L97.9269 134.164C98.0383 134.234 98.1476 134.303 98.255 134.369L99.048 146.541L98.9725 146.508C99.4179 147.028 99.8497 147.548 100.268 148.067L100.42 135.683C100.536 135.752 100.644 135.815 100.743 135.873L100.589 148.471C100.717 148.633 100.847 148.795 100.973 148.957C102.182 150.509 103.306 152.125 104.34 153.8L104.413 152.673C104.504 153.007 104.594 153.335 104.684 153.658L104.643 154.299C104.793 154.551 104.94 154.802 105.084 155.054C105.196 155.438 105.308 155.811 105.418 156.174C105.099 155.579 104.765 154.99 104.417 154.408L84.6947 156.623C95.0648 162.104 107.933 164.702 108.753 164.864C108.559 163.999 108.322 163.143 108.05 162.294C108.121 162.219 108.191 162.144 108.261 162.069C108.294 162.17 108.329 162.272 108.361 162.373C108.325 162.412 108.289 162.453 108.252 162.492C108.292 162.472 108.335 162.452 108.379 162.431C108.569 163.028 108.739 163.622 108.889 164.215C108.949 163.734 109.029 163.002 109.099 162.077C112.651 160.291 121.85 155.07 126.52 146.885L114.315 153.58C112.924 156.427 111.186 159.089 109.14 161.505ZM105.096 142.169L105.126 141.704L105.435 142.091L105.405 142.556L105.096 142.169Z" fill="#3E0382" fill-opacity="0.4"/>
<path d="M121.44 109.208L121.548 109.156C118.854 107.787 115.975 108.005 113.244 109.516L121.448 120.204C121.734 113.745 121.445 109.272 121.44 109.208Z" fill="#3E0382" fill-opacity="0.4"/>
<path d="M116.841 147.606C116.184 149.463 115.427 151.282 114.573 153.056L126.662 146.425L126.679 146.601C127.565 145.017 128.249 143.325 128.712 141.568C128.891 140.877 129.053 140.184 129.198 139.49L117.045 147.02C116.977 147.216 116.91 147.413 116.841 147.606Z" fill="#3E0382" fill-opacity="0.4"/>
<path d="M121.426 120.685L113.033 109.751L113.106 109.591C111.056 110.76 109.094 112.659 107.36 115.162L120.692 129.453C121.073 126.321 121.298 123.345 121.426 120.685Z" fill="#3E0382" fill-opacity="0.4"/>
<path d="M77.743 122.83C75.413 122.796 73.3007 123.223 71.5483 124.163C71.4571 124.212 71.3684 124.263 71.28 124.315C71.9175 124.67 75.6455 126.779 80.5224 130.2L77.743 122.83Z" fill="#3E0382" fill-opacity="0.4"/>
<path d="M88.0997 136.242L68.7915 139.935L68.686 139.789C69.5361 141.75 70.5813 143.621 71.8056 145.371L93.1843 140.76C91.4572 139.112 89.7353 137.599 88.0997 136.242Z" fill="#3E0382" fill-opacity="0.4"/>
<path d="M94.7154 142.257C94.3017 141.842 93.8873 141.436 93.4722 141.036L72.0146 145.664L71.9072 145.519C72.3382 146.136 72.7971 146.752 73.2837 147.368L73.1752 147.224L94.7154 142.257Z" fill="#3E0382" fill-opacity="0.4"/>
<path d="M104.238 154.111C103.1 152.249 101.852 150.458 100.5 148.746L79.49 153.428C81.0827 154.565 82.7495 155.594 84.4792 156.508L84.37 156.343L104.238 154.111Z" fill="#3E0382" fill-opacity="0.4"/>
<path d="M71.1539 124.499L71.1685 124.38C68.5745 125.933 67.2164 128.493 67.0248 131.62L80.4025 130.379C75.1251 126.679 71.2102 124.53 71.1539 124.499Z" fill="#3E0382" fill-opacity="0.4"/>
<path d="M80.7952 130.656L67.1105 131.924L67.015 131.777C66.9003 134.142 67.4461 136.824 68.6218 139.635L87.7727 135.972C85.3437 133.972 82.9626 132.188 80.7952 130.656Z" fill="#3E0382" fill-opacity="0.4"/>
<path d="M100.263 148.446C98.6127 146.382 96.8528 144.409 94.991 142.535L73.3978 147.513C74.0608 148.345 74.7734 149.172 75.5357 149.993C76.6361 151.159 77.84 152.222 79.1325 153.168L100.263 148.46L100.263 148.446Z" fill="#3E0382" fill-opacity="0.4"/>
<path d="M85.5565 94.927C87.1648 97.0822 88.9 99.5486 90.6124 102.237L90.8569 89.8379L90.9918 89.9245C89.1652 88.582 87.1594 87.5047 85.0336 86.7246L85.1685 86.7999L85.5565 94.927Z" fill="#3E0382" fill-opacity="0.4"/>
<path d="M84.8979 86.6771C82.6923 85.9214 80.5524 85.6707 78.5963 86.0212C78.4945 86.0394 78.3945 86.0604 78.2947 86.0817C78.7917 86.6174 81.6881 89.7814 85.2736 94.5496L84.8979 86.6771Z" fill="#3E0382" fill-opacity="0.4"/>
<path d="M97.8031 115.789C98.0668 116.421 98.3176 117.049 98.5554 117.673L103.082 104.245L103.212 104.37C102.678 103.36 102.111 102.378 101.512 101.424L97.8648 115.843L97.8031 115.789Z" fill="#3E0382" fill-opacity="0.4"/>
<path d="M95.16 110.126L97.5255 96.048L97.6598 96.156C95.7314 93.8604 93.5392 91.8024 91.129 90.0249L90.8798 102.66C92.4733 105.187 93.9001 107.675 95.16 110.126Z" fill="#3E0382" fill-opacity="0.4"/>
<path d="M71.1224 100.164L71.0671 99.9924C71.2721 102.122 71.6906 104.225 72.3164 106.271L94.0668 108.525C92.9313 106.421 91.7592 104.447 90.6213 102.648L71.1224 100.164Z" fill="#3E0382" fill-opacity="0.4"/>
<path d="M72.4252 106.614L72.3678 106.442C72.5878 107.163 72.8345 107.892 73.1078 108.629L73.0492 108.458L95.0625 110.424C94.7966 109.901 94.5277 109.385 94.2558 108.876L72.4252 106.614Z" fill="#3E0382" fill-opacity="0.4"/>
<path d="M97.6474 115.423L101.264 101.124L101.397 101.241C100.305 99.5162 99.0994 97.8676 97.787 96.3062L95.3896 110.575C96.2205 112.214 96.9731 113.83 97.6474 115.423Z" fill="#3E0382" fill-opacity="0.4"/>
<path d="M98.5679 118.391L77.146 116.319C78.3108 117.895 79.5794 119.391 80.9433 120.797L80.8902 120.607L100.472 124.654C99.9623 122.53 99.3265 120.439 98.5679 118.391Z" fill="#3E0382" fill-opacity="0.4"/>
<path d="M78.1181 86.2178L78.1685 86.1091C75.2237 86.7808 73.1445 88.7938 72.0005 91.7075L85.1047 94.6824C81.2241 89.5245 78.1621 86.2645 78.1181 86.2178Z" fill="#3E0382" fill-opacity="0.4"/>
<path d="M98.9523 118.739C99.6249 120.59 100.197 122.476 100.665 124.39L105.766 111.535L105.891 111.661C105.568 109.872 105.021 108.132 104.262 106.482C103.961 105.834 103.646 105.197 103.317 104.569L98.7367 118.157C98.809 118.351 98.8825 118.546 98.9523 118.739Z" fill="#3E0382" fill-opacity="0.4"/>
<path d="M90.3934 102.29C88.6985 99.6338 86.983 97.1971 85.3931 95.0672L71.9882 92.024L71.9427 91.854C71.1059 94.0681 70.7999 96.7882 71.0534 99.8262L90.3934 102.29Z" fill="#3E0382" fill-opacity="0.4"/>
<path d="M76.8858 115.961L98.4301 118.045L98.4345 118.032C97.4999 115.557 96.4332 113.133 95.2392 110.773L73.1716 108.802C73.5463 109.799 73.9697 110.807 74.4419 111.825C75.1297 113.275 75.9477 114.66 76.8858 115.961Z" fill="#3E0382" fill-opacity="0.4"/>
<path d="M128.954 120.159L129.003 120.313C128.448 118.108 127.587 115.993 126.445 114.03L126.501 114.174L121.641 120.682C121.511 123.373 121.282 126.384 120.894 129.552L128.954 120.159Z" fill="#3E0382" fill-opacity="0.4"/>
<path d="M126.371 113.906C125.152 111.911 123.663 110.346 121.934 109.363C121.844 109.312 121.753 109.264 121.663 109.216C121.706 109.947 121.928 114.24 121.662 120.21L126.371 113.906Z" fill="#3E0382" fill-opacity="0.4"/>
<path d="M117.829 144.597C117.631 145.254 117.425 145.898 117.212 146.531L129.223 139.09L129.244 139.269C129.473 138.149 129.661 137.029 129.805 135.911L117.842 144.679L117.829 144.597Z" fill="#3E0382" fill-opacity="0.4"/>
<path d="M119.388 138.542L130.147 129.215L130.182 129.385C130.154 126.381 129.773 123.391 129.045 120.478L120.832 130.049C120.455 133.016 119.974 135.847 119.388 138.542Z" fill="#3E0382" fill-opacity="0.4"/>
<path d="M130.185 129.582L119.28 139.035C118.88 140.83 118.434 142.557 117.942 144.216L129.805 135.52L129.832 135.696C130.087 133.668 130.204 131.625 130.185 129.582Z" fill="#3E0382" fill-opacity="0.4"/>
<path d="M109.14 161.505C109.149 161.357 109.158 161.206 109.167 161.05C111.11 158.724 112.768 156.171 114.103 153.447L107.517 145.201C107.431 144.92 107.341 144.639 107.247 144.359L114.257 153.136C115.213 151.173 116.05 149.155 116.766 147.092L102.902 133.1C102.945 132.99 102.989 132.877 103.033 132.763L116.88 146.737L116.891 146.73C117.743 144.224 118.46 141.675 119.039 139.091L105.289 125.417C105.317 125.29 105.346 125.162 105.374 125.034L119.124 138.709C119.251 138.136 119.372 137.567 119.485 137.001L105.776 122.975C105.798 122.841 105.821 122.707 105.842 122.572L119.563 136.609C120.024 134.261 120.374 131.989 120.64 129.875L107.199 115.466L107.265 115.299C106.947 115.765 106.637 116.253 106.336 116.76C106.344 115.159 106.214 113.56 105.949 111.981L100.799 124.958C101.215 126.748 101.513 128.563 101.691 130.391C101.66 130.701 101.632 131.012 101.61 131.326L101.779 131.497C101.79 131.664 101.8 131.83 101.808 131.996L101.583 131.768C101.572 131.951 101.564 132.134 101.556 132.317C101.451 129.849 101.114 127.397 100.551 124.992L81.1128 120.974C82.092 121.984 83.1182 122.965 84.1669 123.912C82.1312 123.271 80.0188 122.908 77.8867 122.833L78.0382 122.863L80.9075 130.472C83.1002 132.022 85.5091 133.829 87.9646 135.853L84.4323 124.15C84.5632 124.267 84.6944 124.383 84.8259 124.499L88.3491 136.173C90.6419 138.081 92.7645 140.004 94.7167 141.944L93.0976 130.958C93.2111 131.038 93.3241 131.116 93.4364 131.194L95.0731 142.299C96.3675 143.6 97.5804 144.903 98.7117 146.209L97.9269 134.164C98.0383 134.234 98.1476 134.303 98.255 134.369L99.048 146.541L98.9725 146.508C99.4179 147.028 99.8497 147.548 100.268 148.067L100.42 135.683C100.536 135.752 100.644 135.815 100.743 135.873L100.589 148.471C100.717 148.633 100.847 148.795 100.973 148.957C102.182 150.509 103.306 152.125 104.34 153.8L104.413 152.673C104.504 153.007 104.594 153.335 104.684 153.658L104.643 154.299C104.793 154.551 104.94 154.802 105.084 155.054C105.196 155.438 105.308 155.811 105.418 156.174C105.099 155.579 104.765 154.99 104.417 154.408L84.6947 156.623C95.0648 162.104 107.933 164.702 108.753 164.864C108.559 163.999 108.322 163.143 108.05 162.294C108.121 162.219 108.191 162.144 108.261 162.069C108.294 162.17 108.329 162.272 108.361 162.373C108.325 162.412 108.289 162.453 108.252 162.492C108.292 162.472 108.335 162.452 108.379 162.431C108.569 163.028 108.739 163.622 108.889 164.215C108.949 163.734 109.029 163.002 109.099 162.077C112.651 160.291 121.85 155.07 126.52 146.885L114.315 153.58C112.924 156.427 111.186 159.089 109.14 161.505ZM105.096 142.169L105.126 141.704L105.435 142.091L105.405 142.556L105.096 142.169Z" fill="#3E0382" fill-opacity="0.4"/>
<path d="M121.44 109.208L121.548 109.156C118.854 107.787 115.975 108.005 113.244 109.516L121.448 120.204C121.734 113.745 121.445 109.272 121.44 109.208Z" fill="#3E0382" fill-opacity="0.4"/>
<path d="M116.841 147.606C116.184 149.463 115.427 151.282 114.573 153.056L126.662 146.425L126.679 146.601C127.565 145.017 128.249 143.325 128.712 141.568C128.891 140.877 129.053 140.184 129.198 139.49L117.045 147.02C116.977 147.216 116.91 147.413 116.841 147.606Z" fill="#3E0382" fill-opacity="0.4"/>
<path d="M121.426 120.685L113.033 109.751L113.106 109.591C111.056 110.76 109.094 112.659 107.36 115.162L120.692 129.453C121.073 126.321 121.298 123.345 121.426 120.685Z" fill="#3E0382" fill-opacity="0.4"/>
<path d="M77.743 122.83C75.413 122.796 73.3007 123.223 71.5483 124.163C71.4571 124.212 71.3684 124.263 71.28 124.315C71.9175 124.67 75.6455 126.779 80.5224 130.2L77.743 122.83Z" fill="#3E0382" fill-opacity="0.4"/>
<path d="M88.0997 136.242L68.7915 139.935L68.686 139.789C69.5361 141.75 70.5813 143.621 71.8056 145.371L93.1843 140.76C91.4572 139.112 89.7353 137.599 88.0997 136.242Z" fill="#3E0382" fill-opacity="0.4"/>
<path d="M94.7154 142.257C94.3017 141.842 93.8873 141.436 93.4722 141.036L72.0146 145.664L71.9072 145.519C72.3382 146.136 72.7971 146.752 73.2837 147.368L73.1752 147.224L94.7154 142.257Z" fill="#3E0382" fill-opacity="0.4"/>
<path d="M104.238 154.111C103.1 152.249 101.852 150.458 100.5 148.746L79.49 153.428C81.0827 154.565 82.7495 155.594 84.4792 156.508L84.37 156.343L104.238 154.111Z" fill="#3E0382" fill-opacity="0.4"/>
<path d="M71.1539 124.499L71.1685 124.38C68.5745 125.933 67.2164 128.493 67.0248 131.62L80.4025 130.379C75.1251 126.679 71.2102 124.53 71.1539 124.499Z" fill="#3E0382" fill-opacity="0.4"/>
<path d="M80.7952 130.656L67.1105 131.924L67.015 131.777C66.9003 134.142 67.4461 136.824 68.6218 139.635L87.7727 135.972C85.3437 133.972 82.9626 132.188 80.7952 130.656Z" fill="#3E0382" fill-opacity="0.4"/>
<path d="M100.263 148.446C98.6127 146.382 96.8528 144.409 94.991 142.535L73.3978 147.513C74.0608 148.345 74.7734 149.172 75.5357 149.993C76.6361 151.159 77.84 152.222 79.1325 153.168L100.263 148.46L100.263 148.446Z" fill="#3E0382" fill-opacity="0.4"/>
<path d="M189.789 103.58H186.063V131.035H189.789V103.58Z" fill="#3F3D56"/>
<path d="M233.76 103.58H230.033V131.035H233.76V103.58Z" fill="#3F3D56"/>
<path d="M277.73 99.3369H142.092V105.577H277.73V99.3369Z" fill="#E6E6E6"/>
<path d="M277.73 119.055H142.092V125.294H277.73V119.055Z" fill="#E6E6E6"/>
<path d="M277.73 107.573H142.092V111.317H277.73V107.573Z" fill="#E6E6E6"/>
<path d="M277.73 113.314H142.092V117.058H277.73V113.314Z" fill="#E6E6E6"/>
<path d="M145.943 98.2139H141.719V131.16H145.943V98.2139Z" fill="#3F3D56"/>
<path d="M277.73 98.0891H273.507V131.035H277.73V98.0891Z" fill="#3F3D56"/>
<path d="M134.391 139.771H130.168V173.965H134.391V139.771Z" fill="#3F3D56"/>
<path d="M148.302 138.523H144.079V156.743H148.302V138.523Z" fill="#3F3D56"/>
<path d="M276.737 138.523H272.513V156.743H276.737V138.523Z" fill="#3F3D56"/>
<path d="M288.661 139.771H284.438V173.965H288.661V139.771Z" fill="#3F3D56"/>
<path d="M288.661 139.771H130.168V144.263H288.661V139.771Z" fill="#3F3D56"/>
<path d="M141.595 129.787L130.168 139.771H288.661L277.73 129.787H141.595Z" fill="#E6E6E6"/>
<path opacity="0.1" d="M116.624 6.92367L116.591 6.74397L113.533 5.11664H113.053L112.87 4.76318H106.568L105.106 5.11664H99.7236L98.2654 6.82633L98.2505 6.93116C98.1561 7.54266 96.047 21.9216 101.612 26.4966L103.932 27.5798H105.432L105.139 26.9914L106.443 27.5798H110.667L110.742 27.4667L113.248 26.524L113.312 26.4491C113.538 26.1796 118.865 19.6777 116.624 6.92367Z" fill="#6C63FF"/>
<path d="M109.052 21.2153H106.568V27.7047H109.052V21.2153Z" fill="#E6E6E6"/>
<path d="M109.921 36.0659H105.45V160.861H109.921V36.0659Z" fill="#3F3D56"/>
<path d="M111.039 33.9443H104.332V38.1874H111.039V33.9443Z" fill="#3F3D56"/>
<path d="M101.848 26.207L106.071 30.6997L104.332 33.9443L107.81 34.6931L111.039 33.9443L109.052 30.4501L113.027 26.207H101.848Z" fill="#3F3D56"/>
<path d="M98.6182 6.98841L96.6309 4.99168L98.1214 3.49414H117.001L118.492 5.24127L116.256 6.98841C116.256 6.98841 104.332 6.48923 98.6182 6.98841Z" fill="#3F3D56"/>
<path d="M116.624 6.92369L116.591 6.74399L113.533 5.11666L112.137 4.37288L104.3 3.86621L99.9049 4.90451L99.7236 5.11666L98.2654 6.82635L98.2505 6.93118C98.1561 7.54268 96.047 21.9216 101.612 26.4966L103.932 27.5798L105.884 28.4908L105.432 27.5798L104.69 26.0897C103.912 21.5422 102.203 9.59431 103.293 7.09841L107.8 5.6383L111.799 7.13085C112.075 8.92541 113.859 21.5073 110.734 25.9924L110.667 26.0897V27.4949L113.248 26.524L113.312 26.4492C113.538 26.1796 118.865 19.6778 116.624 6.92369ZM112.798 25.8926L111.412 26.4167V26.3219C114.84 21.1828 112.599 7.38294 112.502 6.79391L112.468 6.57926L108.548 5.11666L107.82 4.8446L106.98 5.11666L102.777 6.47942L102.705 6.60671C101.107 9.48449 103.847 25.5856 103.964 26.2694L103.974 26.3244L104.27 26.9184L102.046 25.8876C97.0903 21.7419 98.7895 8.46616 98.9709 7.15082L100.312 5.5784L102.265 5.11666L104.364 4.61997L107.82 4.8446L111.929 5.11167L111.938 5.11666L115.921 7.23319C117.893 18.8017 113.367 25.1538 112.798 25.8926Z" fill="#3F3D56"/>
<path d="M107.81 6.98853C111.514 6.98853 114.517 5.4241 114.517 3.49427C114.517 1.56444 111.514 0 107.81 0C104.105 0 101.102 1.56444 101.102 3.49427C101.102 5.4241 104.105 6.98853 107.81 6.98853Z" fill="#3F3D56"/>
<path d="M104.332 154.497L100.357 167.226C100.357 167.226 106.568 170.72 115.014 167.226L111.039 154.497H104.332Z" fill="#3E0382" fill-opacity="0.5"/>
<path d="M107.81 21.9639C108.907 21.9639 109.797 21.0699 109.797 19.9672C109.797 18.8644 108.907 17.9705 107.81 17.9705C106.712 17.9705 105.823 18.8644 105.823 19.9672C105.823 21.0699 106.712 21.9639 107.81 21.9639Z" fill="#3E0382" fill-opacity="0.4"/>
<path d="M174.712 89.6824C175.416 89.1795 176.192 88.7884 177.014 88.523C182.224 86.5752 187.683 85.3812 193.228 84.9768C198.049 84.6333 203.274 85.0413 207.04 88.0856C207.626 88.5174 208.105 89.0784 208.441 89.7256C208.915 90.7527 208.771 91.9466 208.618 93.0681C208.583 93.5031 208.474 93.9289 208.295 94.3264C207.788 95.2958 206.541 95.6354 205.457 95.5191C204.373 95.4029 203.357 94.9422 202.288 94.7287C201.626 94.6128 200.957 94.5444 200.286 94.5239L193.583 94.1592C189.414 93.9325 185.191 93.7095 181.102 94.5548C179.843 94.7821 178.627 95.2032 177.496 95.8032C176.562 96.3301 175.933 97.086 175.066 96.1129C173.544 94.4034 172.701 91.2614 174.712 89.6824Z" fill="#2F2E41"/>
<path d="M185.1 92.6609C185.1 92.6609 194.117 88.6 197.537 93.2856C200.957 97.9713 195.671 96.097 195.671 96.097L189.764 97.9713L183.235 96.7218L185.1 92.6609Z" fill="#F2F2F2"/>
<path d="M185.567 89.6932C185.567 89.6932 186.81 95.6284 185.877 97.1903C184.945 98.7522 191.163 100.939 191.163 100.939L197.07 98.4398C197.07 98.4398 195.516 88.7561 197.07 86.8818L185.567 89.6932Z" fill="#FFB9B9"/>
<path opacity="0.1" d="M185.567 89.6932C185.567 89.6932 186.81 95.6284 185.877 97.1903C184.945 98.7522 191.163 100.939 191.163 100.939L197.07 98.4398C197.07 98.4398 195.516 88.7561 197.07 86.8818L185.567 89.6932Z" fill="black"/>
<path d="M179.741 161.06C180.63 162.773 181.207 164.63 181.795 166.469C181.804 166.531 181.825 166.59 181.858 166.642C181.891 166.695 181.935 166.739 181.986 166.774C182.038 166.808 182.096 166.831 182.156 166.841C182.217 166.852 182.28 166.849 182.339 166.833L187.87 166.827C188.552 166.826 189.468 166.606 189.461 165.92C189.456 165.438 188.966 165.138 188.601 164.825C187.588 163.957 187.325 162.526 186.906 161.257C186.091 158.813 184.52 156.694 182.423 155.208C182.139 154.985 181.813 154.823 181.464 154.732C181.114 154.681 180.757 154.701 180.414 154.79C179.443 154.986 175.818 155.66 176.502 157.078C176.797 157.689 177.89 158.325 178.348 158.896C178.882 159.569 179.349 160.294 179.741 161.06Z" fill="#575A89"/>
<path d="M198.972 154.615C198.777 155.027 198.56 155.428 198.322 155.816C197.52 157.144 196.575 158.382 195.829 159.742C195.363 160.59 194.972 161.507 194.92 162.474C194.869 163.441 195.208 164.47 195.976 165.056C196.778 165.668 197.879 165.696 198.877 165.553C199.875 165.411 200.867 165.124 201.872 165.199C201.533 163.273 203.15 161.577 203.554 159.664C203.668 159.126 203.685 158.569 203.837 158.041C204.001 157.559 204.21 157.093 204.463 156.651C205.268 155.075 205.837 153.389 206.152 151.646C206.19 151.435 201.236 151.4 200.771 151.501C199.321 151.816 199.533 153.407 198.972 154.615Z" fill="#575A89"/>
<path d="M160.788 124.351C159.374 126.575 159.7 129.522 160.693 131.964C161.686 134.407 163.267 136.567 164.349 138.971C165.039 140.504 165.523 142.13 166.299 143.62C167.261 145.465 168.666 147.092 169.311 149.072C169.723 150.334 169.817 151.717 170.484 152.863C170.886 153.476 171.346 154.049 171.857 154.575C173.292 156.227 174.37 158.162 175.022 160.255C175.631 158.432 177.455 157.237 179.329 156.842C181.202 156.448 183.143 156.716 185.039 156.985C183.981 155.339 182.914 153.673 182.284 151.819C181.674 150.027 181.494 148.12 181.084 146.271C180.242 142.479 178.443 138.982 176.662 135.534L185.815 134.805C187.309 134.654 188.81 134.598 190.311 134.637C192.674 134.749 194.988 135.331 197.338 135.6C199.687 135.869 202.173 135.798 204.267 134.694C200.263 140.466 198.178 147.363 198.309 154.397C199.204 153.701 200.243 153.214 201.349 152.973C202.456 152.731 203.602 152.742 204.704 153.003C205.806 153.264 206.835 153.77 207.718 154.483C208.6 155.195 209.313 156.097 209.803 157.123C213.39 152.198 212.963 145.343 215.805 139.95C216.39 138.841 217.106 137.808 217.737 136.725C218.984 134.583 219.889 132.261 220.789 129.95C221.584 127.907 222.384 125.633 221.622 123.578C221.305 122.798 220.844 122.086 220.263 121.479C218.623 119.662 216.341 118.319 213.901 118.263C210.155 118.177 207.06 120.966 203.774 122.775C199.904 124.906 195.389 125.753 190.986 125.44C186.473 125.119 182.162 123.634 177.862 122.327C175.71 121.643 173.524 121.076 171.312 120.63C169.467 120.282 167.711 120.667 165.894 121.141C163.915 121.657 161.927 122.561 160.788 124.351Z" fill="#2F2E41"/>
<path d="M199.869 83.7581C199.867 86.2429 198.883 88.6253 197.135 90.3824C195.386 92.1394 193.014 93.1274 190.541 93.1294C189.985 93.1304 189.431 93.0802 188.884 92.9795C187.138 92.6628 185.519 91.8525 184.215 90.6437C182.912 89.435 181.979 87.8778 181.525 86.1549C181.071 84.432 181.116 82.6149 181.653 80.9166C182.191 79.2183 183.2 77.7093 184.561 76.5666C185.922 75.4239 187.58 74.6948 189.339 74.465C191.098 74.2351 192.886 74.514 194.492 75.2689C196.099 76.0238 197.458 77.2234 198.411 78.727C199.363 80.2306 199.869 81.9759 199.869 83.7581V83.7581Z" fill="#FFB9B9"/>
<path d="M185.1 92.6608C185.1 92.6608 186.81 93.4418 187.432 94.0665C188.054 94.6913 189.919 98.1274 193.028 95.9408C196.138 93.7541 196.449 92.5046 197.381 92.5046C198.314 92.5046 199.558 94.3789 199.558 94.3789L208.108 120.15C205.803 122.763 203.133 125.026 200.18 126.866C195.205 129.99 189.297 131.552 186.499 130.302C183.701 129.053 178.415 128.116 177.483 125.617C176.55 123.118 174.995 115.621 174.995 115.621L179.348 96.5656L185.1 92.6608Z" fill="#F2F2F2"/>
<path d="M183.9 118.725C184.578 117.254 184.676 115.589 184.734 113.969C184.825 112.364 184.783 110.755 184.607 109.158C184.331 107.068 183.654 105.055 183.226 102.991C182.852 101.182 182.669 99.3367 182.683 97.4881C182.689 96.6446 182.75 95.7566 183.207 95.0493C183.526 94.5559 184.026 94.1737 184.225 93.6204C184.616 92.5355 183.65 91.3995 182.591 90.9527C181.331 90.4212 179.892 90.4569 178.566 90.7904C177.241 91.1239 176.005 91.7374 174.78 92.3464C173.896 92.7864 172.993 93.2399 172.307 93.953C171.342 94.9564 170.917 96.3539 170.575 97.7062C170.3 98.7885 170.057 99.917 170.265 101.014C170.604 102.795 172.049 104.135 172.82 105.775C173.715 107.68 173.654 109.899 173.299 111.974C172.943 114.05 172.311 116.079 172.116 118.176C171.921 120.273 172.22 122.527 173.528 124.173C174.061 124.844 175.506 126.433 176.482 126.253C177.248 126.112 178.359 124.417 178.976 123.88C180.76 122.328 182.876 120.947 183.9 118.725Z" fill="#2F2E41"/>
<path d="M200.189 91.6421C200.217 93.3843 199.452 95.0404 198.553 96.5305C197.654 98.0206 196.598 99.4298 195.936 101.04C195.113 103.056 194.945 105.282 195.456 107.399C195.646 108.12 195.875 108.831 196.142 109.527L197.845 114.222C198.074 114.96 198.407 115.661 198.833 116.305C199.218 116.799 199.67 117.235 200.176 117.603C201.47 118.653 202.959 119.433 204.556 119.899C206.159 120.324 207.912 120.298 209.427 119.62C209.591 113.255 210.609 106.942 212.452 100.851C212.793 99.727 213.165 98.5432 212.902 97.3979C212.608 96.115 211.582 95.1519 210.608 94.2723C207.626 91.5822 204.347 88.7565 200.356 88.3939C198.046 88.184 200.17 90.3825 200.189 91.6421Z" fill="#2F2E41"/>
<path d="M179.786 127.961C180.022 128.426 180.169 128.932 180.403 129.399C180.748 130.024 181.175 130.601 181.672 131.113C183.751 133.429 186.292 135.736 189.393 135.875C189.701 135.904 190.012 135.865 190.303 135.76C190.845 135.534 191.166 134.95 191.271 134.369C191.491 133.159 190.96 131.952 190.428 130.845C189.274 128.445 187.976 125.984 185.817 124.436C183.688 122.91 180.836 122.539 178.353 123.308C177.228 123.656 175.363 124.264 176.852 125.295C177.982 126.077 179.131 126.673 179.786 127.961Z" fill="#FFB9B9"/>
<path d="M193.19 97.4033C192.811 96.5509 192.414 95.6738 191.731 95.0395C191.087 94.4919 190.323 94.1034 189.503 93.905C188.439 93.5998 187.339 93.4414 186.233 93.4342C184.916 93.426 183.389 93.7809 182.83 94.9786C182.386 95.9298 182.73 97.0561 183.177 98.0058C183.368 98.4977 183.687 98.9296 184.099 99.2568C184.667 99.6422 185.401 99.63 186.075 99.7591C187.13 99.9616 188.075 100.53 188.994 101.088L191.3 102.489L195.262 104.895C195.157 104.831 195.195 102.102 195.073 101.655C194.681 100.214 193.799 98.7678 193.19 97.4033Z" fill="#FFB9B9"/>
<path d="M181.651 165.762C180.724 167.028 180.91 168.837 180.089 170.174C179.377 171.333 178.036 171.941 177.146 172.968C176.861 173.31 176.608 173.676 176.389 174.062C175.563 175.452 174.892 177.233 175.705 178.63C176.359 179.754 177.735 180.194 178.996 180.493C180.59 180.871 182.246 181.174 183.859 180.885C185.471 180.596 187.047 179.604 187.622 178.063C187.735 177.675 187.87 177.294 188.025 176.922C188.899 175.193 191.64 175.174 192.535 173.456C193.161 172.254 192.585 170.8 192.01 169.573L190.253 165.823C189.67 164.579 187.307 165.294 186.075 164.996C184.468 164.607 182.807 164.179 181.651 165.762Z" fill="#2F2E41"/>
<path d="M195.239 162.541C194.494 163.066 194.012 163.89 193.65 164.729C192.78 166.744 192.482 168.953 192.192 171.13C192.076 172.003 191.96 172.895 192.142 173.756C192.516 175.534 194.12 176.843 195.846 177.387C197.572 177.931 199.423 177.847 201.23 177.758C201.81 177.729 202.413 177.694 202.922 177.413C203.83 176.91 204.185 175.727 204.029 174.697C203.873 173.667 203.313 172.751 202.765 171.867C202.217 170.982 201.657 170.067 201.5 169.037C201.235 167.305 201.981 164.762 200.922 163.195C199.86 161.625 196.656 161.544 195.239 162.541Z" fill="#2F2E41"/>
<path d="M199.634 78.8743C199.468 78.3139 199.103 77.8345 198.607 77.5276C198.633 76.9273 198.56 76.3269 198.39 75.7505C197.826 74.0727 196.487 74.1689 195.225 73.4271C194.677 73.1053 194.711 72.8208 194.426 72.2922C194.052 71.5993 193.492 71.0255 192.81 70.6363C192 70.1177 191.145 69.5837 190.187 69.5181C188.173 69.3802 186.629 71.2832 184.705 71.894C183.856 72.1632 182.945 72.1743 182.092 72.4288C181.239 72.6833 180.388 73.2909 180.261 74.1756C180.202 74.5841 180.306 75.0031 180.246 75.4114C180.128 76.2229 179.419 76.7913 178.945 77.4588C177.896 78.9349 178.016 81.0202 178.855 82.6263C179.031 82.9586 179.234 83.2766 179.46 83.5774C179.53 84.3365 179.747 85.0745 180.098 85.75C180.937 87.3561 182.381 88.5562 183.889 89.5533C183.765 89.0207 183.691 88.4778 183.665 87.9315C183.644 87.7494 183.668 87.5649 183.734 87.3941C183.902 87.0414 184.346 86.9476 184.684 86.7544C185.385 86.3543 185.66 85.4688 185.68 84.6592C185.7 83.8496 185.529 83.0387 185.614 82.2333C185.617 82.0481 185.659 81.8656 185.737 81.6977C185.815 81.5297 185.927 81.38 186.065 81.2582C186.324 81.11 186.62 81.0392 186.917 81.0543C188.353 80.9954 189.853 80.9689 191.12 80.2867C191.552 80.0539 191.953 79.7461 192.428 79.6218C193.504 79.3398 194.604 80.0978 195.225 81.0255C195.845 81.9532 196.154 83.0571 196.727 84.0154C197.299 84.9737 198.288 85.8283 199.394 85.7148C199.457 85.7149 199.518 85.7019 199.575 85.6764C199.632 85.651 199.683 85.6137 199.725 85.5672C199.772 85.481 199.794 85.3825 199.786 85.2843L199.847 81.0344C199.899 80.3074 199.827 79.5769 199.634 78.8743Z" fill="#2F2E41"/>
<path d="M170.116 101.105C169.226 102.424 168.199 103.692 167.71 105.208C167.423 106.099 167.333 107.041 167.125 107.954C166.432 110.995 164.429 113.696 164.228 116.809C164.157 117.501 164.258 118.2 164.522 118.842C165.097 120.098 166.472 120.76 167.783 121.176C169.095 121.593 170.504 121.893 171.551 122.789C172.078 123.297 172.556 123.853 172.978 124.452C174.687 126.586 176.985 128.166 179.584 128.992C179.378 127.571 179.282 125.858 180.413 124.979C181.025 124.504 181.843 124.419 182.614 124.352L186.257 124.036C183.828 121.668 181.15 119.573 178.271 117.785C177.264 117.16 176.168 116.501 175.708 115.405C175.42 114.719 175.424 113.952 175.417 113.208C175.392 110.486 175.163 107.77 174.731 105.082C174.431 103.216 174.034 101.367 173.58 99.5326C173.452 99.0177 172.699 96.7079 171.771 97.2484C171.553 97.3757 171.348 98.8409 171.221 99.1449C170.917 99.8329 170.547 100.489 170.116 101.105Z" fill="#2F2E41"/>
<path d="M212.074 96.1198L213.561 99.2283C214.278 100.506 214.604 101.968 214.499 103.432L214.588 112.756C214.599 114.002 214.609 115.267 214.282 116.469C214.19 116.871 214.015 117.248 213.769 117.578C213.517 117.862 213.22 118.103 212.889 118.29C210.074 120.058 206.423 121.062 203.448 119.581C202.767 119.216 202.119 118.791 201.513 118.312C200.327 117.43 199.124 116.53 198.237 115.346C197.309 114.106 196.777 112.622 196.152 111.203C195.032 108.658 193.583 106.272 191.845 104.105C191.592 103.791 191.321 103.447 191.312 103.043C191.293 102.226 192.258 101.823 193.011 101.512C194.297 100.981 195.509 99.9561 195.724 98.5762C198.458 102.178 201.475 105.984 205.789 107.3C205.857 107.344 205.935 107.368 206.015 107.371C206.095 107.373 206.175 107.354 206.245 107.314C206.315 107.275 206.374 107.218 206.414 107.148C206.454 107.078 206.475 106.999 206.474 106.918C206.719 105.889 206.805 104.829 206.985 103.786C207.313 101.886 207.946 100.053 208.858 98.357C209.369 97.4061 211.024 93.9256 212.074 96.1198Z" fill="#2F2E41"/>
<path opacity="0.1" d="M175.157 105.109C175.198 107.316 174.731 109.502 173.793 111.498C173.549 111.939 173.37 112.413 173.26 112.905C173.096 113.956 173.691 114.972 174.371 115.787C175.712 117.388 177.452 118.604 179.413 119.311" fill="black"/>
<path opacity="0.1" d="M207.462 103.25C207.242 103.842 207.441 104.497 207.61 105.105C208.1 106.871 208.328 108.699 208.289 110.531C208.296 110.563 208.295 110.596 208.286 110.628C208.277 110.66 208.26 110.688 208.237 110.712C208.215 110.735 208.186 110.753 208.155 110.763C208.124 110.772 208.091 110.774 208.059 110.768C207.341 110.812 206.519 110.817 206.033 110.285" fill="black"/>
</svg>
