<svg width="189" height="159" viewBox="0 0 189 159" fill="none" xmlns="http://www.w3.org/2000/svg">
<path d="M75.7556 93.828C75.7556 122.257 58.7971 132.183 37.8778 132.183C16.9585 132.183 0 122.257 0 93.828C0 65.3994 37.8778 29.2336 37.8778 29.2336C37.8778 29.2336 75.7556 65.3994 75.7556 93.828Z" fill="#3E0382" fill-opacity="0.05"/>
<path d="M36.4981 127.834L36.8858 104.042L53.0302 74.6077L36.9467 100.31L37.1209 89.6118L48.2479 68.3162L37.1671 86.7807L37.4809 67.54L49.3955 50.5861L37.5301 64.5145L37.726 29.2336L36.4946 75.9389L36.5957 74.0123L24.482 55.5335L36.4016 77.7109L35.2729 99.1995L35.2392 98.6291L21.2742 79.1831L35.1969 100.644L35.0557 103.331L35.0306 103.372L35.0421 103.592L32.1784 158.111H36.0044L36.4635 129.951L50.3521 108.543L36.4981 127.834Z" fill="#3F3D56"/>
<path d="M188.002 78.9134C188.002 113.644 167.284 125.771 141.728 125.771C116.171 125.771 95.4531 113.644 95.4531 78.9134C95.4531 44.1828 141.728 0 141.728 0C141.728 0 188.002 44.1828 188.002 78.9134Z" fill="#3E0382" fill-opacity="0.05"/>
<path d="M140.042 120.458L140.515 91.3916L160.239 55.4323L140.59 86.8319L140.803 73.7625L154.396 47.7464L140.859 70.3039L141.242 46.7979L155.798 26.0858L141.303 43.1016L141.542 0L140.038 57.0588L140.161 54.7049L125.362 32.1301L139.924 59.2234L138.545 85.4755L138.504 84.7788L121.443 61.0221L138.452 87.2404L138.28 90.5234L138.249 90.5729L138.263 90.8424L134.764 157.446H139.439L140 123.044L156.967 96.8899L140.042 120.458Z" fill="#3F3D56"/>
<path d="M96.4572 79.7957H88.1492V157.531H96.4572V79.7957Z" fill="#2F2E41" fill-opacity="0.5"/>
<path d="M130.381 97.5048H79.3797V83.2456H130.381L145.151 90.3752L130.381 97.5048Z" fill="#3F3D56" fill-opacity="0.5"/>
<path opacity="0.1" d="M130.381 96.3547H79.3797V97.5046H130.381L145.151 90.375L143.96 89.8L130.381 96.3547Z" fill="black"/>
<path d="M54.4558 116.364H105.458V102.104H54.4558L39.686 109.234L54.4558 116.364Z" fill="#3F3D56" fill-opacity="0.5"/>
<path opacity="0.1" d="M40.8771 108.659L39.686 109.234L54.4558 116.364H105.458V115.214H54.4558L40.8771 108.659Z" fill="black"/>
<path d="M116.766 86.0054H107.996V94.7449H116.766V86.0054Z" fill="#3F3D56"/>
<path d="M72.6871 113.604C75.1088 113.604 77.0719 111.647 77.0719 109.234C77.0719 106.821 75.1088 104.864 72.6871 104.864C70.2655 104.864 68.3024 106.821 68.3024 109.234C68.3024 111.647 70.2655 113.604 72.6871 113.604Z" fill="#3F3D56"/>
<path d="M92.3032 92.445C93.7052 92.445 94.8418 91.3123 94.8418 89.9151C94.8418 88.5179 93.7052 87.3853 92.3032 87.3853C90.9012 87.3853 89.7646 88.5179 89.7646 89.9151C89.7646 91.3123 90.9012 92.445 92.3032 92.445Z" fill="#2F2E41"/>
<path d="M92.3032 111.304C93.7052 111.304 94.8418 110.171 94.8418 108.774C94.8418 107.377 93.7052 106.244 92.3032 106.244C90.9012 106.244 89.7646 107.377 89.7646 108.774C89.7646 110.171 90.9012 111.304 92.3032 111.304Z" fill="#2F2E41"/>
</svg>
