<svg width="270" height="240" viewBox="0 0 270 240" fill="none" xmlns="http://www.w3.org/2000/svg">
<g clip-path="url(#clip0)">
<path opacity="0.1" d="M120.959 92.8576C110.407 89.4315 99.2496 86.5592 87.8469 86.8552C71.0833 87.2919 54.9653 95.129 47.0159 106.712C40.2964 116.527 39.3995 128.063 36.4663 138.977C32.8524 152.424 25.9927 165.185 18.6714 177.664C14.7391 184.367 10.5905 191.21 9.90688 198.576C8.96907 208.801 15.1451 219.024 24.8825 225.876C34.6199 232.729 47.5768 236.38 60.5951 237.233C67.522 237.685 74.7615 237.336 80.9288 234.833C87.4525 232.195 92.2233 227.368 98.7734 224.76C104.844 222.345 111.92 222.034 118.73 222.389C127.55 222.836 136.284 224.338 144.749 226.861C154.241 229.71 163.061 233.81 172.533 236.7C182.004 239.59 192.592 241.225 202.297 238.901C211.409 236.72 218.637 231.345 225.155 225.9C235.658 217.147 245.425 207.54 254.355 197.178C260.242 190.322 265.726 183.083 268.355 175.073C273.377 159.757 266.649 142.415 251.595 131.867C239.123 123.124 222.344 119.264 205.914 116.92C190.929 114.76 173.593 114.546 159.821 109.045C146.686 103.784 134.737 97.33 120.959 92.8576Z" fill="#3E0382" fill-opacity="0.2"/>
<path opacity="0.1" d="M255.472 145.052C259.2 145.052 262.223 144.636 262.223 144.123C262.223 143.61 259.2 143.194 255.472 143.194C251.743 143.194 248.72 143.61 248.72 144.123C248.72 144.636 251.743 145.052 255.472 145.052Z" fill="#6C63FF"/>
<path opacity="0.1" d="M229.607 147.684C233.336 147.684 236.359 147.268 236.359 146.755C236.359 146.242 233.336 145.826 229.607 145.826C225.879 145.826 222.856 146.242 222.856 146.755C222.856 147.268 225.879 147.684 229.607 147.684Z" fill="#6C63FF"/>
<path opacity="0.1" d="M199.142 144.124C202.871 144.124 205.893 143.708 205.893 143.195C205.893 142.682 202.871 142.266 199.142 142.266C195.413 142.266 192.39 142.682 192.39 143.195C192.39 143.708 195.413 144.124 199.142 144.124Z" fill="#6C63FF"/>
<path opacity="0.1" d="M239.958 154.909C242.609 154.909 244.758 154.613 244.758 154.247C244.758 153.881 242.609 153.584 239.958 153.584C237.307 153.584 235.158 153.881 235.158 154.247C235.158 154.613 237.307 154.909 239.958 154.909Z" fill="#6C63FF"/>
<path opacity="0.1" d="M213.115 154.247C215.766 154.247 217.915 153.95 217.915 153.585C217.915 153.219 215.766 152.922 213.115 152.922C210.464 152.922 208.315 153.219 208.315 153.585C208.315 153.95 210.464 154.247 213.115 154.247Z" fill="#6C63FF"/>
<path d="M229.461 146.545C229.461 146.545 238.933 115.402 227.98 102.928C219.8 93.5963 210.486 94.7218 206.323 95.8677C205.245 96.1554 204.243 96.6748 203.385 97.3899C202.527 98.105 201.835 98.9987 201.356 100.009C199.895 103.16 200.164 108.274 210.442 114.244C227.653 124.241 228.725 137.955 228.725 137.955L229.461 146.545Z" fill="#C4C4C4"/>
<path d="M207.804 100.284C207.804 100.284 235.722 109.041 229.461 146.544" stroke="#565987" stroke-miterlimit="10"/>
<path d="M224.106 103.423C224.106 103.423 220.261 106.023 221.477 109.927" stroke="#565987" stroke-miterlimit="10"/>
<path d="M210.606 105.735C210.606 105.735 212.943 103.338 215.815 104.66" stroke="#565987" stroke-miterlimit="10"/>
<path d="M221.64 117.796C221.64 117.796 225.765 115.698 226.832 118.327" stroke="#565987" stroke-miterlimit="10"/>
<path d="M231.851 122.174C231.851 122.174 228.751 121.928 228.696 123.414" stroke="#565987" stroke-miterlimit="10"/>
<path d="M229.844 146.794C229.844 146.794 218.742 124.159 215.707 124.654C214.246 124.889 213.592 126.319 213.291 127.752C212.917 129.607 213.128 131.533 213.895 133.262C215.47 136.885 219.697 143.763 229.844 146.794Z" fill="#C4C4C4"/>
<path d="M215.788 128.951C215.788 128.951 227.431 145.885 229.68 146.63" stroke="#565987" stroke-miterlimit="10"/>
<path d="M214.719 131.594H217.436" stroke="#565987" stroke-miterlimit="10"/>
<path d="M217.974 137.79L222.233 137.972" stroke="#565987" stroke-miterlimit="10"/>
<path d="M220.565 132.834L220.104 135.058" stroke="#565987" stroke-miterlimit="10"/>
<path d="M225.093 139.607L225.012 141.629" stroke="#565987" stroke-miterlimit="10"/>
<path d="M229.516 146.794C229.516 146.794 240.618 124.159 243.653 124.654C245.114 124.889 245.769 126.319 246.07 127.752C246.443 129.607 246.232 131.533 245.465 133.262C243.89 136.885 239.663 143.763 229.516 146.794Z" fill="#C4C4C4"/>
<path d="M243.572 128.951C243.572 128.951 231.93 145.885 229.68 146.63" stroke="#565987" stroke-miterlimit="10"/>
<path d="M244.641 131.594H241.924" stroke="#565987" stroke-miterlimit="10"/>
<path d="M241.387 137.79L237.127 137.972" stroke="#565987" stroke-miterlimit="10"/>
<path d="M238.795 132.834L239.257 135.058" stroke="#565987" stroke-miterlimit="10"/>
<path d="M234.264 139.607L234.349 141.629" stroke="#565987" stroke-miterlimit="10"/>
<path d="M210.471 152.081C210.17 151.833 209.95 151.5 209.84 151.126C209.791 150.937 209.808 150.737 209.889 150.559C209.969 150.382 210.107 150.237 210.281 150.15C210.687 149.994 211.12 150.276 211.45 150.563C211.78 150.85 212.154 151.17 212.583 151.111C212.363 150.91 212.198 150.655 212.105 150.371C212.011 150.087 211.993 149.783 212.052 149.49C212.069 149.368 212.12 149.254 212.198 149.159C212.423 148.919 212.832 149.024 213.1 149.212C213.956 149.818 214.196 150.985 214.202 152.034C214.244 151.644 214.244 151.251 214.202 150.862C214.185 150.668 214.216 150.472 214.292 150.293C214.368 150.114 214.486 149.956 214.637 149.833C214.84 149.721 215.069 149.667 215.3 149.675C215.491 149.647 215.686 149.661 215.872 149.714C216.058 149.767 216.23 149.858 216.378 149.982C216.703 150.334 216.618 150.923 216.335 151.31C216.016 151.664 215.639 151.962 215.221 152.189C214.901 152.379 214.629 152.64 214.424 152.951C214.401 152.995 214.381 153.04 214.365 153.086H211.952C211.416 152.82 210.917 152.481 210.471 152.081Z" fill="#D2CED7"/>
<path d="M252.737 142.963C252.434 142.717 252.214 142.383 252.106 142.008C252.057 141.819 252.074 141.62 252.155 141.443C252.235 141.266 252.373 141.122 252.547 141.035C252.953 140.879 253.385 141.161 253.715 141.445C254.045 141.729 254.422 142.055 254.852 141.993C254.63 141.793 254.465 141.538 254.371 141.254C254.277 140.97 254.259 140.666 254.317 140.372C254.335 140.251 254.387 140.137 254.466 140.044C254.691 139.804 255.097 139.906 255.366 140.097C256.222 140.701 256.462 141.855 256.467 142.919C256.51 142.53 256.51 142.136 256.467 141.747C256.451 141.553 256.482 141.358 256.558 141.178C256.633 140.999 256.752 140.841 256.903 140.718C257.107 140.609 257.335 140.556 257.566 140.563C257.756 140.533 257.95 140.543 258.136 140.594C258.322 140.644 258.495 140.734 258.644 140.856C258.971 141.205 258.886 141.794 258.6 142.181C258.283 142.542 257.907 142.845 257.487 143.078C257.167 143.267 256.894 143.528 256.689 143.84C256.665 143.882 256.646 143.928 256.631 143.974H254.218C253.681 143.705 253.183 143.365 252.737 142.963Z" fill="#D2CED7"/>
<path d="M238.649 152.081C238.348 151.833 238.128 151.5 238.018 151.126C237.969 150.937 237.987 150.737 238.067 150.559C238.147 150.382 238.286 150.237 238.459 150.15C238.865 149.994 239.298 150.276 239.628 150.563C239.958 150.85 240.332 151.17 240.761 151.111C240.541 150.91 240.375 150.655 240.282 150.371C240.188 150.087 240.169 149.784 240.227 149.49C240.247 149.369 240.298 149.255 240.376 149.159C240.601 148.919 241.01 149.024 241.279 149.212C242.135 149.818 242.374 150.985 242.38 152.034C242.427 151.645 242.431 151.252 242.395 150.862C242.378 150.668 242.409 150.472 242.485 150.293C242.561 150.114 242.679 149.956 242.83 149.833C243.033 149.721 243.262 149.667 243.493 149.675C243.684 149.647 243.879 149.661 244.065 149.714C244.25 149.767 244.423 149.858 244.571 149.982C244.895 150.334 244.811 150.923 244.527 151.31C244.209 151.664 243.832 151.962 243.414 152.189C243.094 152.379 242.821 152.64 242.617 152.951C242.594 152.995 242.574 153.04 242.558 153.086H240.145C239.603 152.821 239.1 152.483 238.649 152.081Z" fill="#D2CED7"/>
<path d="M198.703 133.652C198.703 133.652 197.798 134.839 199.121 136.63C200.445 138.421 201.531 139.936 201.093 141.053C201.093 141.053 199.098 137.726 197.474 137.679C195.849 137.632 196.916 135.654 198.703 133.652Z" fill="#C4C4C4"/>
<path opacity="0.1" d="M198.703 133.652C198.623 133.767 198.56 133.892 198.517 134.025C196.933 135.892 196.089 137.635 197.611 137.679C199.031 137.72 200.734 140.264 201.14 140.903C201.14 140.953 201.111 141.003 201.093 141.05C201.093 141.05 199.098 137.723 197.474 137.676C195.849 137.629 196.916 135.654 198.703 133.652Z" fill="black"/>
<path d="M197.021 135.164C197.021 135.583 197.067 135.92 197.126 135.92C197.184 135.92 197.228 135.583 197.228 135.164C197.228 134.745 197.17 134.944 197.114 134.944C197.058 134.944 197.021 134.747 197.021 135.164Z" fill="#FFD037"/>
<path d="M196.442 135.663C196.807 135.865 197.129 135.985 197.155 135.935C197.181 135.886 196.91 135.68 196.544 135.481C196.179 135.282 196.322 135.426 196.293 135.481C196.264 135.537 196.077 135.464 196.442 135.663Z" fill="#FFD037"/>
<path d="M203.48 133.652C203.48 133.652 204.386 134.839 203.062 136.63C201.739 138.421 200.652 139.936 201.093 141.053C201.093 141.053 203.086 137.726 204.71 137.679C206.334 137.632 205.268 135.654 203.48 133.652Z" fill="#C4C4C4"/>
<path opacity="0.1" d="M203.48 133.652C203.56 133.767 203.623 133.892 203.667 134.025C205.251 135.892 206.095 137.635 204.573 137.679C203.153 137.72 201.45 140.264 201.044 140.903C201.057 140.953 201.074 141.002 201.093 141.05C201.093 141.05 203.086 137.723 204.71 137.676C206.335 137.629 205.268 135.654 203.48 133.652Z" fill="black"/>
<path d="M205.163 135.164C205.163 135.583 205.116 135.92 205.058 135.92C204.999 135.92 204.956 135.583 204.956 135.164C204.956 134.745 205.014 134.944 205.069 134.944C205.125 134.944 205.163 134.747 205.163 135.164Z" fill="#FFD037"/>
<path d="M205.742 135.663C205.376 135.865 205.055 135.985 205.029 135.935C205.002 135.886 205.274 135.68 205.639 135.481C206.004 135.282 205.861 135.426 205.891 135.481C205.92 135.537 206.107 135.464 205.742 135.663Z" fill="#FFD037"/>
<path d="M204.874 140.897C204.874 140.897 202.347 140.821 201.584 140.276C200.822 139.73 197.693 139.08 197.494 139.953C197.295 140.827 193.696 144.297 196.547 144.32C199.399 144.344 203.185 143.875 203.945 143.409C204.704 142.943 204.874 140.897 204.874 140.897Z" fill="#A8A8A8"/>
<path opacity="0.2" d="M196.507 144.015C199.361 144.039 203.141 143.57 203.904 143.104C204.488 142.752 204.713 141.48 204.78 140.894H204.862C204.862 140.894 204.704 142.946 203.942 143.406C203.179 143.866 199.402 144.341 196.544 144.317C195.721 144.317 195.437 144.024 195.452 143.582C195.577 143.848 195.893 144.012 196.507 144.015Z" fill="black"/>
<path opacity="0.1" d="M37.6847 24.077C41.1747 24.077 44.0039 21.2387 44.0039 17.7376C44.0039 14.2364 41.1747 11.3982 37.6847 11.3982C34.1947 11.3982 31.3655 14.2364 31.3655 17.7376C31.3655 21.2387 34.1947 24.077 37.6847 24.077Z" fill="#3E0382" fill-opacity="0.47"/>
<path opacity="0.1" d="M247.233 39.1148C250.723 39.1148 253.552 36.2766 253.552 32.7754C253.552 29.2743 250.723 26.436 247.233 26.436C243.743 26.436 240.913 29.2743 240.913 32.7754C240.913 36.2766 243.743 39.1148 247.233 39.1148Z" fill="#3E0382" fill-opacity="0.47"/>
<path opacity="0.1" d="M10.5905 86.489C16.4394 86.489 21.1809 81.7324 21.1809 75.8648C21.1809 69.9971 16.4394 65.2405 10.5905 65.2405C4.74151 65.2405 0 69.9971 0 75.8648C0 81.7324 4.74151 86.489 10.5905 86.489Z" fill="#3E0382" fill-opacity="0.47"/>
<path opacity="0.1" d="M20.7427 138.951C26.5916 138.951 31.3332 134.194 31.3332 128.326C31.3332 122.459 26.5916 117.702 20.7427 117.702C14.8937 117.702 10.1522 122.459 10.1522 128.326C10.1522 134.194 14.8937 138.951 20.7427 138.951Z" fill="#3E0382" fill-opacity="0.47"/>
<path opacity="0.1" d="M219.09 92.676C224.939 92.676 229.68 87.9194 229.68 82.0518C229.68 76.1841 224.939 71.4275 219.09 71.4275C213.241 71.4275 208.499 76.1841 208.499 82.0518C208.499 87.9194 213.241 92.676 219.09 92.676Z" fill="#3E0382" fill-opacity="0.47"/>
<path d="M216.51 170.997C216.732 170.889 216.976 170.836 217.223 170.845C217.469 170.853 217.71 170.921 217.924 171.044C218.138 171.167 218.318 171.34 218.45 171.549C218.582 171.758 218.661 171.996 218.681 172.242L219.204 179.045L216.101 179.608L214.465 174.69L216.51 170.997Z" fill="#3F3D56"/>
<path d="M107.962 125.402L60.4784 149.575C59.9338 149.854 59.477 150.279 59.1587 150.802C58.8405 151.326 58.6733 151.928 58.6757 152.541C58.6781 153.154 58.8501 153.755 59.1725 154.276C59.4948 154.797 59.955 155.218 60.5017 155.492L162.769 206.978C164.589 207.892 166.604 208.344 168.638 208.293C170.673 208.241 172.663 207.689 174.435 206.685L217.509 182.318C218.032 182.019 218.463 181.583 218.757 181.056C219.05 180.529 219.194 179.931 219.174 179.328C219.154 178.725 218.97 178.139 218.642 177.633C218.314 177.127 217.855 176.72 217.314 176.457L110.88 125.369C110.424 125.15 109.923 125.039 109.417 125.045C108.911 125.05 108.413 125.172 107.962 125.402Z" fill="#3F3D56"/>
<path d="M60.1598 145.369L58.6727 146.477L58.5559 151.782C58.5464 152.196 58.6532 152.604 58.864 152.959C59.0748 153.315 59.3811 153.603 59.7479 153.793L163.762 207.339C163.998 207.461 164.262 207.52 164.527 207.511C164.793 207.501 165.051 207.424 165.278 207.285C165.505 207.146 165.692 206.951 165.822 206.719C165.952 206.487 166.021 206.225 166.021 205.958V198.253L60.1598 145.369Z" fill="#3F3D56"/>
<path d="M107.961 119.252L60.4782 143.423C59.9332 143.701 59.4758 144.125 59.1568 144.648C58.8377 145.171 58.6696 145.773 58.6712 146.386C58.6727 146.999 58.8437 147.6 59.1653 148.122C59.4869 148.643 59.9465 149.065 60.4928 149.34L162.769 200.826C164.589 201.74 166.604 202.191 168.638 202.139C170.672 202.088 172.663 201.537 174.435 200.533L217.509 176.163C218.032 175.864 218.463 175.428 218.757 174.901C219.05 174.374 219.194 173.776 219.174 173.173C219.154 172.57 218.97 171.984 218.642 171.478C218.314 170.972 217.855 170.565 217.314 170.302L110.88 119.217C110.423 118.999 109.923 118.888 109.417 118.894C108.911 118.9 108.413 119.023 107.961 119.252Z" fill="#E3E8F4"/>
<path d="M117.79 123.64L65.4712 150.29L155.392 195.396L209.347 167.922L117.79 123.64Z" fill="#3F3D56"/>
<path d="M188.297 187.195C191.345 187.195 193.816 185.726 193.816 183.915C193.816 182.104 191.345 180.635 188.297 180.635C185.249 180.635 182.778 182.104 182.778 183.915C182.778 185.726 185.249 187.195 188.297 187.195Z" fill="#3F3D56"/>
<path d="M87.6452 132.661C87.9275 132.661 88.1564 132.432 88.1564 132.148C88.1564 131.865 87.9275 131.635 87.6452 131.635C87.3628 131.635 87.1339 131.865 87.1339 132.148C87.1339 132.432 87.3628 132.661 87.6452 132.661Z" fill="#3F3D56"/>
<path d="M86.1146 136.762C86.4535 136.762 86.7281 136.486 86.7281 136.146C86.7281 135.806 86.4535 135.531 86.1146 135.531C85.7758 135.531 85.5011 135.806 85.5011 136.146C85.5011 136.486 85.7758 136.762 86.1146 136.762Z" fill="#3F3D56"/>
<path d="M88.3612 135.12L94.4935 132.251" stroke="#3F3D56" stroke-miterlimit="10"/>
</g>
<defs>
<clipPath id="clip0">
<rect width="270" height="240" fill="white"/>
</clipPath>
</defs>
</svg>
