<svg width="360" height="365" viewBox="0 0 360 365" fill="none" xmlns="http://www.w3.org/2000/svg">
<path d="M308 248.477C308 305.626 282.208 350.71 250.445 351.954C209.024 353.577 154.888 312.028 192.89 248.477C222.173 199.506 218.658 145 250.445 145C282.232 145 308 191.328 308 248.477Z" fill="#F2F2F2"/>
<path d="M154 206.311C154 269.824 116.168 292 69.5 292C22.8319 292 -15 269.824 -15 206.311C-15 142.798 69.5 62 69.5 62C69.5 62 154 142.798 154 206.311Z" fill="#F2F2F2"/>
<path d="M66.5578 281.576L67.413 228.592L103 163.044L67.5472 220.281L67.9312 196.457L92.4582 149.034L68.0332 190.153L68.7247 147.305L94.9883 109.55L68.8333 140.567L69.2653 62L66.5507 166.009L66.7732 161.718L40.071 120.568L66.3453 169.955L63.8574 217.809L63.7832 216.538L33 173.234L63.69 221.025L63.379 227.01L63.3232 227.1L63.3487 227.591L57.0362 349H65.4699L66.4818 286.29L97.0964 238.615L66.5578 281.576Z" fill="#3F3D56"/>
<g clip-path="url(#clip0)">
<path d="M264.221 256.241L241.864 242.454V349.067H264.221V256.241Z" fill="#F2F2F2"/>
<path d="M207.563 349.067H229.92V235.088L207.563 221.301V349.067Z" fill="#F2F2F2"/>
<path d="M276.166 263.607V349.067H287.803L319.348 290.237L276.166 263.607Z" fill="#F2F2F2"/>
<path d="M319.597 308.282C301.044 322.157 295.813 346.533 295.813 346.533C295.813 346.533 320.662 348.414 339.216 334.539C357.769 320.664 363 296.287 363 296.287C363 296.287 338.151 294.406 319.597 308.282Z" fill="#3F3D56"/>
<path d="M295.827 346.298C295.827 346.298 295.555 346.146 295.062 345.843C294.669 345.601 294.13 345.264 293.478 344.833C287.647 340.99 272.544 329.685 266.35 312.243C258.599 290.404 267.751 267.214 267.751 267.214C267.751 267.214 287.715 278.442 296.195 298.611C296.565 299.479 296.907 300.366 297.229 301.269C303.973 320.271 297.92 340.295 296.235 345.176C295.981 345.907 295.827 346.298 295.827 346.298Z" fill="#6C63FF"/>
<path d="M295.918 346.988L295.633 346.781C295.43 346.635 275.294 331.834 270.121 309.4C264.946 286.967 276.565 264.836 276.683 264.615L276.848 264.305L277.132 264.511C277.335 264.657 297.471 279.458 302.645 301.892C307.819 324.326 296.201 346.457 296.083 346.678L295.918 346.988ZM277.06 265.223C275.663 268.01 265.933 288.518 270.717 309.263C275.502 330.007 293.23 344.176 295.706 346.069C297.102 343.282 306.833 322.774 302.048 302.03C297.264 281.285 279.536 267.116 277.06 265.223Z" fill="#3F3D56"/>
<path opacity="0.1" d="M296.234 345.177C295.782 345.44 295.387 345.662 295.062 345.843C294.347 346.234 293.95 346.431 293.95 346.431C293.95 346.431 293.763 345.866 293.478 344.833C291.907 339.182 287.41 319.484 294.936 301.393C295.332 300.445 295.752 299.518 296.195 298.611C296.565 299.479 296.907 300.366 297.229 301.269C303.973 320.271 297.92 340.296 296.234 345.177Z" fill="black"/>
<path d="M327.342 314.774C318.445 336.171 296.105 347.221 296.105 347.221C296.105 347.221 288.191 323.579 297.089 302.182C305.986 280.785 328.326 269.736 328.326 269.736C328.326 269.736 336.239 293.377 327.342 314.774Z" fill="#6C63FF"/>
<path d="M327.873 270.561L296.04 346.483L296.604 346.72L328.438 270.798L327.873 270.561Z" fill="#3F3D56"/>
<path d="M359.621 353.507C359.621 356.376 343.123 359.001 315.847 361.016C310.888 361.381 305.572 361.725 299.936 362.05C295.063 362.33 289.958 362.594 284.62 362.84C279.447 363.075 274.076 363.294 268.507 363.495C250.917 364.135 231.474 364.595 210.817 364.825C205.805 364.88 200.725 364.923 195.576 364.955C190.216 364.985 184.795 365 179.311 365C79.7271 365 -1 359.856 -1 353.507C-1 347.158 79.7271 342.014 179.311 342.014C222.182 342.014 261.555 342.969 292.5 344.559C293.639 344.619 294.766 344.677 295.883 344.734C295.889 344.738 295.897 344.739 295.904 344.739C334.884 346.848 359.621 349.993 359.621 353.507Z" fill="#3F3D56"/>
<path opacity="0.15" d="M359.621 353.507C359.621 356.376 343.123 359.001 315.847 361.016C310.888 361.381 305.572 361.725 299.936 362.05C295.063 362.33 289.958 362.594 284.62 362.84C279.447 363.075 274.076 363.294 268.507 363.495C250.917 364.135 231.474 364.595 210.817 364.825C205.805 364.88 200.725 364.923 195.576 364.955C190.216 364.985 184.795 365 179.311 365C79.7271 365 -1 359.856 -1 353.507C-1 347.158 79.7271 342.014 179.311 342.014C222.182 342.014 261.555 342.969 292.5 344.559C293.639 344.619 294.766 344.677 295.883 344.734C295.889 344.738 295.897 344.739 295.904 344.739C334.884 346.848 359.621 349.993 359.621 353.507Z" fill="black"/>
<path d="M345.763 351.484C345.763 353.884 330.383 356.077 304.954 357.763C300.333 358.066 295.374 358.354 290.122 358.627C285.58 358.86 280.821 359.079 275.844 359.285C271.02 359.485 266.013 359.667 260.822 359.834C244.422 360.37 226.294 360.753 207.037 360.946C202.366 360.992 197.63 361.028 192.829 361.053C187.831 361.081 182.777 361.094 177.666 361.093C84.8264 361.093 9.56604 356.791 9.56604 351.484C9.56604 346.177 84.8264 341.875 177.666 341.875C198.195 341.875 217.863 342.087 236.049 342.473H236.094C253.294 342.838 269.168 343.358 283.188 344.005C284.251 344.054 285.302 344.102 286.343 344.149C286.349 344.154 286.356 344.156 286.364 344.155C292.786 344.468 298.795 344.805 304.332 345.166C304.394 345.169 304.455 345.175 304.516 345.179C330.208 346.867 345.763 349.07 345.763 351.484Z" fill="#3F3D56"/>
<path opacity="0.1" d="M304.332 345.166C302.057 359.969 287.708 355.008 270.347 355.008C252.005 355.008 237.029 360.545 236.094 342.473C253.294 342.838 269.167 343.358 283.188 344.005C284.251 344.054 285.302 344.102 286.343 344.149C286.349 344.154 286.356 344.156 286.364 344.155C292.786 344.468 298.795 344.805 304.332 345.166Z" fill="black"/>
<path d="M96.1692 340.663C96.1692 346 92.9986 347.863 89.0869 347.863C88.9962 347.863 88.9056 347.862 88.8157 347.86C88.6345 347.856 88.4546 347.847 88.2773 347.835C84.7468 347.585 82.0045 345.626 82.0045 340.663C82.0045 335.528 88.5634 329.047 89.0575 328.567L89.0582 328.566C89.0771 328.547 89.0869 328.538 89.0869 328.538C89.0869 328.538 96.1692 335.327 96.1692 340.663Z" fill="#6C63FF"/>
<path d="M88.8288 347.046L91.4192 343.426L88.8223 347.444L88.8158 347.86C88.6345 347.856 88.4546 347.847 88.2773 347.835L88.5563 342.496L88.5544 342.455L88.5589 342.447L88.5857 341.943L85.9822 337.914L88.5935 341.564L88.6 341.671L88.8106 337.638L86.5819 333.475L88.8379 336.93L89.0576 328.567L89.0583 328.538V328.566L89.0218 335.161L91.2407 332.546L89.0126 335.729L88.954 339.34L91.0262 335.874L88.9455 339.872L88.9129 341.88L91.9199 337.055L88.9011 342.58L88.8288 347.046Z" fill="#3F3D56"/>
<path d="M236.045 336.931C236.045 316.624 251.403 300.162 270.347 300.162C289.291 300.162 304.648 316.624 304.648 336.931C304.648 357.238 289.291 351.332 270.347 351.332C251.403 351.332 236.045 357.238 236.045 336.931Z" fill="#3F3D56"/>
<path d="M45.9753 312.706H45.3628V354.126H45.9753V312.706Z" fill="#3F3D56"/>
<path d="M45.669 318.563C48.9024 318.563 51.5236 315.941 51.5236 312.706C51.5236 309.471 48.9024 306.849 45.669 306.849C42.4356 306.849 39.8145 309.471 39.8145 312.706C39.8145 315.941 42.4356 318.563 45.669 318.563Z" fill="#3F3D56"/>
<path d="M45.6691 338.234C45.6691 338.234 44.8327 320.237 27.6871 322.329L45.6691 338.234Z" fill="#3F3D56"/>
<path d="M216.143 319.521C216.296 320.062 216.466 320.599 216.648 321.132C215.831 320.328 215.028 319.502 214.211 318.703C214.539 318.805 214.866 318.907 215.175 319.028C215.512 319.162 215.836 319.327 216.143 319.521ZM212.182 316.836C207.363 312.643 201.779 309.398 196.841 305.333C199.538 306.661 202.161 308.208 204.763 309.691C207.849 311.45 210.973 313.141 214.133 314.763C213.618 315.57 212.956 316.273 212.182 316.836ZM214.243 306.279C214.32 306.201 214.397 306.122 214.474 306.043C214.476 306.638 214.481 307.195 214.488 307.701C214.056 307.557 213.626 307.41 213.196 307.26C213.566 306.955 213.915 306.628 214.243 306.279ZM171.794 317.629C173.78 315.385 175.505 312.923 176.936 310.29C178.849 313.634 181.958 316.045 184.603 318.845C180.342 318.283 176.075 317.819 171.794 317.629Z" fill="url(#paint0_linear)"/>
<path d="M34.9172 348.63C34.9172 353.966 31.7466 355.829 27.8349 355.829C27.7443 355.829 27.6537 355.828 27.5637 355.826C27.3825 355.822 27.2026 355.814 27.0253 355.801C23.4949 355.552 20.7526 353.593 20.7526 348.63C20.7526 343.494 27.3115 337.014 27.8056 336.533L27.8062 336.533C27.8251 336.514 27.8349 336.505 27.8349 336.505C27.8349 336.505 34.9172 343.294 34.9172 348.63Z" fill="#6C63FF"/>
<path d="M27.5767 355.013L30.1672 351.392L27.5702 355.411L27.5637 355.826C27.3825 355.822 27.2026 355.814 27.0253 355.801L27.3043 350.463L27.3023 350.421L27.3069 350.414L27.3336 349.909L24.7301 345.881L27.3414 349.531L27.3479 349.638L27.5585 345.604L25.3298 341.442L27.5858 344.897L27.8055 336.533L27.8062 336.505V336.533L27.7697 343.127L29.9886 340.513L27.7605 343.695L27.7019 347.307L29.7741 343.841L27.6934 347.839L27.6608 349.847L30.6678 345.022L27.6491 350.547L27.5767 355.013Z" fill="#3F3D56"/>
<path d="M38.5075 306.17C40.199 306.17 41.5701 304.798 41.5701 303.106C41.5701 301.414 40.199 300.042 38.5075 300.042C36.8161 300.042 35.4449 301.414 35.4449 303.106C35.4449 304.798 36.8161 306.17 38.5075 306.17Z" fill="#6C63FF"/>
<path d="M235.429 260.218C235.429 260.218 246.54 257.758 247.765 267.563C248.99 277.368 241.864 279.218 241.864 279.218L237.352 280.432L219.895 275.836L222.345 268.788L235.429 260.218Z" fill="#2F2E41"/>
<path d="M231.426 260.759C239.718 260.759 246.44 254.034 246.44 245.738C246.44 237.442 239.718 230.717 231.426 230.717C223.134 230.717 216.412 237.442 216.412 245.738C216.412 254.034 223.134 260.759 231.426 260.759Z" fill="#2F2E41"/>
<path d="M178.668 276.93L181.718 277.544L192.09 292.888L187.514 293.502L178.668 276.93Z" fill="#2F2E41"/>
<path d="M104.881 339.185C105.703 341.893 106.716 344.54 107.912 347.105C111.35 346.385 114.733 345.421 118.033 344.219C118.135 344.182 116.14 341.572 115.931 341.359C115.141 340.554 114.118 339.614 113.073 339.159C112.019 338.701 110.722 339.051 109.594 339.108C108.024 339.189 106.453 339.214 104.881 339.185Z" fill="#FBBEBE"/>
<path d="M113.091 343.284C111.371 342.745 110.326 341.014 109.627 339.345C108.928 337.676 108.364 335.855 107.037 334.63C106.529 334.654 106.119 335.068 105.868 335.513C105.617 335.958 105.467 336.459 105.176 336.879C104.623 337.679 103.651 338.066 102.955 338.744C102.226 339.455 101.827 340.461 101.072 341.144C100.124 342.003 98.7841 342.216 97.5403 342.5C95.6164 342.939 93.7581 343.629 92.0127 344.55C91.3698 344.938 90.6823 345.246 89.9651 345.468C89.176 345.62 88.3679 345.647 87.5704 345.548L82.0708 345.156C81.5814 345.093 81.0848 345.115 80.6028 345.22C79.4722 345.538 78.7703 346.8 78.8533 347.978C78.9364 349.156 79.6688 350.211 80.5937 350.938C81.551 351.624 82.6072 352.159 83.7257 352.526C88.5164 354.335 93.4485 355.745 98.4716 356.74L98.4743 357.829C101.967 359.548 105.807 360.442 109.699 360.444C109.987 360.466 110.276 360.416 110.54 360.299C110.926 360.089 111.104 359.638 111.247 359.221C112.566 355.36 113.339 351.334 113.541 347.259C113.638 346.226 113.558 345.184 113.304 344.178C113.005 343.188 114.036 343.604 113.082 343.216" fill="#2F2E41"/>
<path d="M218.568 322.541C202.263 323.518 186.147 318.743 169.821 318.233C167.791 318.169 165.74 318.174 163.758 318.619C161.661 319.09 159.707 320.04 157.757 320.947C149.001 325.023 139.942 328.399 130.895 331.771L120.502 335.643C118.425 336.417 116.273 337.203 114.062 337.068C113.071 337.008 111.855 336.858 111.297 337.684C109.606 340.19 110.405 343.872 111.522 346.685C111.885 347.597 112.498 348.582 113.47 348.686C114.154 348.759 114.79 348.363 115.455 348.185C117.347 347.678 119.233 348.951 121.18 349.159C123.585 349.415 125.819 348.044 128.089 347.204C131.854 345.812 135.971 345.856 139.929 345.196C146.565 344.091 152.716 341.008 158.466 337.495C160.655 336.158 162.87 334.725 165.385 334.236C168.277 333.673 171.247 334.419 174.083 335.221C180.843 337.135 187.499 339.403 194.022 342.014C197.457 343.39 200.867 344.864 204.441 345.815C212.171 347.852 220.348 347.375 227.79 344.453C230.4 343.421 233.235 341.597 233.385 338.78C233.47 337.174 232.225 335.759 231.393 334.385C230.86 333.505 230.326 332.623 229.745 331.773C226.933 327.661 223.521 322.245 218.568 322.541Z" fill="#2F2E41"/>
<path opacity="0.1" d="M218.568 322.541C202.263 323.518 186.147 318.743 169.821 318.233C167.791 318.169 165.74 318.174 163.758 318.619C161.661 319.09 159.707 320.04 157.757 320.947C149.001 325.023 139.942 328.399 130.895 331.771L120.502 335.643C118.425 336.417 116.273 337.203 114.062 337.068C113.071 337.008 111.855 336.858 111.297 337.684C109.606 340.19 110.405 343.872 111.522 346.685C111.885 347.597 112.498 348.582 113.47 348.686C114.154 348.759 114.79 348.363 115.455 348.185C117.347 347.678 119.233 348.951 121.18 349.159C123.585 349.415 125.819 348.044 128.089 347.204C131.854 345.812 135.971 345.856 139.929 345.196C146.565 344.091 152.716 341.008 158.466 337.495C160.655 336.158 162.87 334.725 165.385 334.236C168.277 333.673 171.247 334.419 174.083 335.221C180.843 337.135 187.499 339.403 194.022 342.014C197.457 343.39 200.867 344.864 204.441 345.815C212.171 347.852 220.348 347.375 227.79 344.453C230.4 343.421 233.235 341.597 233.385 338.78C233.47 337.174 232.225 335.759 231.393 334.385C230.86 333.505 230.326 332.623 229.745 331.773C226.933 327.661 223.521 322.245 218.568 322.541Z" fill="black"/>
<path d="M136.186 339.979C138.738 340.85 141.313 341.651 143.91 342.382C145.364 339.994 148.083 338.333 148.703 335.603C148.741 335.484 148.742 335.356 148.703 335.237C148.637 335.12 148.535 335.028 148.411 334.975C146.551 333.944 144.485 333.339 142.363 333.202C140.687 333.096 139.922 334.847 139.162 336.078C138.855 336.576 136.869 340.212 136.186 339.979Z" fill="#FBBEBE"/>
<path d="M139.763 338.236C138.256 337.92 136.781 337.109 136.011 335.767C135.651 335.139 135.267 334.292 134.548 334.339C133.879 334.383 133.572 335.181 133.422 335.837C132.859 338.295 132.305 340.773 131.317 343.091C130.329 345.409 128.866 347.586 126.804 349.021C125.859 349.679 124.804 350.171 123.88 350.859C123.049 351.477 122.325 352.253 121.407 352.731C120.793 353.012 120.159 353.249 119.511 353.438C118.557 353.771 117.646 354.214 116.796 354.761C116.048 355.195 115.415 355.801 114.947 356.528C114.717 356.895 114.583 357.313 114.556 357.745C114.529 358.178 114.611 358.609 114.794 359.002C114.991 359.325 115.255 359.602 115.566 359.816C115.878 360.03 116.232 360.175 116.604 360.242C117.347 360.37 118.105 360.389 118.854 360.298C121.827 360.079 124.796 359.814 127.765 359.549C129.021 359.468 130.27 359.295 131.5 359.03C132.151 358.873 132.788 358.665 133.436 358.498C134.547 358.211 135.685 358.045 136.831 358.003C137.164 357.975 137.499 358.005 137.822 358.093C138.51 358.318 138.998 359.003 139.708 359.142C140.163 359.186 140.623 359.124 141.051 358.962C143.19 358.377 145.438 358.393 147.652 358.273C148.627 358.221 149.769 358.035 150.217 357.162C150.775 356.072 149.849 354.854 149.48 353.686C149.296 352.94 149.194 352.176 149.175 351.407C149.004 349.508 148.447 347.664 147.537 345.989C146.78 344.598 145.747 343.061 146.279 341.569C146.459 341.063 146.818 340.591 146.783 340.055C146.626 337.698 141.13 338.522 139.763 338.236Z" fill="#2F2E41"/>
<path d="M194.117 296.37C191.227 295.096 188.912 292.796 187.62 289.914C187.347 289.294 187.124 288.648 186.861 288.022C186.006 285.945 184.677 284.098 182.979 282.628C182.554 282.267 182.056 281.923 181.537 282.018C181.04 282.108 180.648 282.601 180.477 283.154C180.331 283.722 180.295 284.314 180.37 284.897C180.515 286.27 180.751 287.632 181.076 288.974L181.866 292.576C181.964 293.13 182.129 293.67 182.358 294.184C182.699 294.79 183.149 295.328 183.685 295.772C184.406 296.437 185.14 297.084 185.885 297.714C186.92 298.708 188.27 299.308 189.701 299.411C192.939 300.012 196.232 300.877 198.965 302.992C198.934 302.968 198.953 300.575 198.906 300.301C198.781 299.576 198.683 298.858 198.212 298.368C197.152 297.267 195.407 296.944 194.117 296.37Z" fill="#FBBEBE"/>
<path opacity="0.1" d="M194.117 296.37C191.227 295.096 188.912 292.796 187.62 289.914C187.347 289.294 187.124 288.648 186.861 288.022C186.006 285.945 184.677 284.098 182.979 282.628C182.554 282.267 182.056 281.923 181.537 282.018C181.04 282.108 180.648 282.601 180.477 283.154C180.331 283.722 180.295 284.314 180.37 284.897C180.515 286.27 180.751 287.632 181.076 288.974L181.866 292.576C181.964 293.13 182.129 293.67 182.358 294.184C182.699 294.79 183.149 295.328 183.685 295.772C184.406 296.437 185.14 297.084 185.885 297.714C186.92 298.708 188.27 299.308 189.701 299.411C192.939 300.012 196.232 300.877 198.965 302.992C198.934 302.968 198.953 300.575 198.906 300.301C198.781 299.576 198.683 298.858 198.212 298.368C197.152 297.267 195.407 296.944 194.117 296.37Z" fill="black"/>
<path d="M227.323 268.798C229.514 268.798 231.289 267.012 231.289 264.808C231.289 262.605 229.514 260.819 227.323 260.819C225.133 260.819 223.358 262.605 223.358 264.808C223.358 267.012 225.133 268.798 227.323 268.798Z" fill="#2F2E41"/>
<path d="M224.869 262.398C223.792 262.279 222.596 262.19 221.734 262.849C221.276 263.254 220.91 263.752 220.661 264.31C219.832 265.868 219.015 267.455 218.597 269.171C218.243 270.627 218.184 272.149 217.746 273.582C216.933 276.24 214.849 278.483 214.611 281.253C214.505 282.493 214.712 283.944 213.808 284.794C213.585 284.981 213.347 285.151 213.096 285.299C212.469 285.719 211.937 286.266 211.535 286.905C211.196 287.443 210.936 288.061 210.426 288.439C209.62 289.037 208.281 288.976 207.883 289.901C207.475 290.852 208.511 291.91 208.271 292.917C208.076 293.737 207.162 294.113 206.532 294.67C205.726 295.384 205.357 296.461 205.021 297.488C203.695 297.739 202.329 297.7 201.019 297.373C199.709 297.046 198.486 296.439 197.432 295.594C198.54 298.322 198.563 301.333 198.611 304.279C198.627 305.235 198.597 306.307 197.915 306.973C201.073 307.041 204.152 307.896 207.233 308.593C208.579 308.897 210.041 309.162 211.297 308.585C212.001 308.208 212.632 307.706 213.158 307.104C214.834 305.404 216.592 303.549 217.003 301.19C217.232 299.868 217.01 298.512 217.071 297.171C217.146 295.511 217.653 293.906 218.088 292.302C218.977 289.019 219.573 285.663 219.869 282.274C220.052 280.183 221.857 278.5 222.807 276.632C224.601 273.104 226.434 269.429 226.57 265.469C226.615 264.144 226.178 262.543 224.869 262.398Z" fill="#2F2E41"/>
<path opacity="0.1" d="M224.869 262.398C223.792 262.279 222.596 262.19 221.734 262.849C221.276 263.254 220.91 263.752 220.661 264.31C219.832 265.868 219.015 267.455 218.597 269.171C218.243 270.627 218.184 272.149 217.746 273.582C216.933 276.24 214.849 278.483 214.611 281.253C214.505 282.493 214.712 283.944 213.808 284.794C213.585 284.981 213.347 285.151 213.096 285.299C212.469 285.719 211.937 286.266 211.535 286.905C211.196 287.443 210.936 288.061 210.426 288.439C209.62 289.037 208.281 288.976 207.883 289.901C207.475 290.852 208.511 291.91 208.271 292.917C208.076 293.737 207.162 294.113 206.532 294.67C205.726 295.384 205.357 296.461 205.021 297.488C203.695 297.739 202.329 297.7 201.019 297.373C199.709 297.046 198.486 296.439 197.432 295.594C198.54 298.322 198.563 301.333 198.611 304.279C198.627 305.235 198.597 306.307 197.915 306.973C201.073 307.041 204.152 307.896 207.233 308.593C208.579 308.897 210.041 309.162 211.297 308.585C212.001 308.208 212.632 307.706 213.158 307.104C214.834 305.404 216.592 303.549 217.003 301.19C217.232 299.868 217.01 298.512 217.071 297.171C217.146 295.511 217.653 293.906 218.088 292.302C218.977 289.019 219.573 285.663 219.869 282.274C220.052 280.183 221.857 278.5 222.807 276.632C224.601 273.104 226.434 269.429 226.57 265.469C226.615 264.144 226.178 262.543 224.869 262.398Z" fill="black"/>
<path d="M221.154 325.977C217.758 324.36 215.274 321.346 212.528 318.767C207.286 313.842 200.876 310.356 195.365 305.739C191.711 302.679 188.444 299.115 184.43 296.553C180.894 294.301 176.886 292.896 172.718 292.448C172.241 292.366 171.751 292.39 171.284 292.519C170.758 292.752 170.299 293.115 169.951 293.574C168.173 295.582 166.592 297.757 165.231 300.068C158.245 311.933 148.322 321.909 140.101 332.943C139.839 333.202 139.683 333.551 139.665 333.92C139.647 334.289 139.767 334.651 140.003 334.935L141.676 338.213C142.611 340.048 144.11 342.185 146.128 341.82C147.05 341.654 147.784 340.975 148.463 340.326L155.97 333.146L163.841 325.619C168.453 321.208 173.144 316.695 176.15 311.053C178.5 315.13 182.668 317.799 185.528 321.531C186.616 322.951 187.505 324.512 188.476 326.015C190.033 328.424 191.803 330.685 193.571 332.942L202.599 344.472C203.831 346.044 205.096 347.648 206.78 348.714C208.918 350.069 211.519 350.426 214.036 350.651C217.427 350.955 220.833 351.078 224.237 351.02C226.833 350.976 229.51 350.805 231.84 349.652C234.169 348.498 236.082 346.131 235.961 343.522C235.898 342.165 235.309 340.893 234.66 339.702C231.435 333.782 227.22 328.864 221.154 325.977Z" fill="#2F2E41"/>
<path d="M229.764 270.639C231.449 270.639 232.814 269.265 232.814 267.57C232.814 265.875 231.449 264.501 229.764 264.501C228.079 264.501 226.713 265.875 226.713 267.57C226.713 269.265 228.079 270.639 229.764 270.639Z" fill="#2F2E41"/>
<path d="M229.089 265.264C229.833 266.578 229.833 268.213 229.424 269.668C229.015 271.123 228.234 272.438 227.461 273.735C226.7 275.011 225.931 276.298 224.91 277.375C229.619 277.601 234.184 275.753 238.339 273.514C241.682 271.713 245.018 269.489 246.802 266.123C245.758 266.436 244.608 266.127 243.685 265.546C242.788 264.921 241.984 264.172 241.297 263.321L238.933 260.661C238.378 260.081 237.89 259.441 237.479 258.751C236.967 257.808 236.75 256.733 236.855 255.665C235.916 256.648 234.866 257.52 233.727 258.262C232.038 259.361 230.177 260.159 228.485 261.252C227.885 261.639 226.551 262.263 226.894 263.047C227.229 263.812 228.614 264.424 229.089 265.264Z" fill="#FBBEBE"/>
<path opacity="0.1" d="M229.089 265.264C229.833 266.578 229.833 268.213 229.424 269.668C229.015 271.123 228.234 272.438 227.461 273.735C226.7 275.011 225.931 276.298 224.91 277.375C229.619 277.601 234.184 275.753 238.339 273.514C241.682 271.713 245.018 269.489 246.802 266.123C245.758 266.436 244.608 266.127 243.685 265.546C242.788 264.921 241.984 264.172 241.297 263.321L238.933 260.661C238.378 260.081 237.89 259.441 237.479 258.751C236.967 257.808 236.75 256.733 236.855 255.665C235.916 256.648 234.866 257.52 233.727 258.262C232.038 259.361 230.177 260.159 228.485 261.252C227.885 261.639 226.551 262.263 226.894 263.047C227.229 263.812 228.614 264.424 229.089 265.264Z" fill="black"/>
<path d="M229.154 265.729C228.269 267.218 228.079 268.976 229.154 270.332C229.287 270.501 229.784 271.549 229.999 271.559C230.206 271.541 230.399 271.444 230.536 271.287C231.68 270.241 232.517 268.907 233.522 267.725C234.527 266.544 235.794 265.467 237.321 265.229C239.164 264.942 240.944 265.919 242.557 266.862C243.227 267.254 243.922 267.669 244.344 268.323C244.684 268.937 244.884 269.619 244.931 270.319C245.488 274.519 245.476 278.771 245.463 283.008C245.453 286.071 245.442 289.155 244.863 292.162C244.564 293.716 244.114 295.241 243.901 296.809C243.745 298.194 243.682 299.587 243.712 300.98L243.708 306.81C243.669 307.881 243.744 308.953 243.934 310.008C244.21 311.285 244.815 312.465 245.219 313.708C245.635 315.136 245.92 316.6 246.07 318.081L246.868 324.119C247.119 326.02 247.304 328.1 246.155 329.631C245.636 330.323 244.953 330.877 244.426 331.563C242.453 334.134 243.086 337.801 242.263 340.942C241.614 343.241 240.279 345.288 238.437 346.81C237.027 348.008 235.206 348.951 233.391 348.614C230.941 348.159 229.469 345.602 228.801 343.187C228.133 340.772 227.889 338.143 226.442 336.103C225.26 334.437 223.429 333.389 221.773 332.2C220.117 331.01 218.499 329.477 218.139 327.463C217.981 326.583 218.079 325.677 217.986 324.788C217.854 323.662 217.422 322.591 216.736 321.689C216.049 320.787 215.132 320.086 214.082 319.659C212.828 319.171 211.279 318.997 210.572 317.846C212.396 316.817 213.607 314.917 214.245 312.914C214.882 310.911 215.012 308.786 215.138 306.687L215.557 299.67C215.744 296.535 215.829 293.427 217.209 290.61C217.826 289.35 218.594 288.171 219.236 286.924C220.086 285.175 220.811 283.368 221.407 281.517C222.408 278.642 223.409 275.766 224.3 272.856C224.725 271.469 225.134 270.055 225.891 268.82C226.649 267.585 227.736 265.996 229.154 265.729Z" fill="#6C63FF"/>
<path d="M213.581 311.31L215.436 311.377L215.831 308.572C215.883 308.01 216.016 307.459 216.224 306.936C216.53 306.382 216.887 305.859 217.291 305.372C219.117 302.79 218.984 299.363 219.437 296.227C220.04 292.045 221.786 288.129 223.514 284.277L227.116 276.244C227.834 274.88 228.178 273.35 228.112 271.81C228.144 270.568 228.512 266.05 228.544 264.808C228.555 264.349 227.531 264.604 227.323 264.195C226.872 263.303 226.254 265.721 225.41 266.252C224.566 266.783 224.101 267.744 223.742 268.678C222.966 270.701 222.491 272.829 221.768 274.872C221.045 276.916 220.033 278.923 218.405 280.346C217.666 280.992 216.814 281.505 216.115 282.196C213.874 284.413 213.656 287.915 213.577 291.076C213.53 292.955 213.167 311.31 213.581 311.31Z" fill="#2F2E41"/>
<path d="M240.296 262.379C238.493 263.088 237.505 265.044 236.999 266.923C236.492 268.802 236.286 270.804 235.318 272.49C233.055 276.43 227.285 277.579 225.688 281.837C225.166 283.23 225.188 284.759 225.048 286.241C224.758 289.292 223.755 292.24 223.459 295.29C223.229 297.654 223.427 300.035 223.626 302.401L225.642 326.465C225.934 329.941 225.926 333.675 225.038 337.047C227.08 337.445 229.203 336.912 231.097 336.048C232.991 335.184 234.72 333.997 236.543 332.991C239.679 331.261 243.136 330.035 245.882 327.73C246.378 327.342 246.804 326.872 247.14 326.338C247.69 325.387 247.735 324.236 247.997 323.167C248.234 322.315 248.536 321.481 248.901 320.675C249.905 318.25 250.781 315.773 251.524 313.256C252.034 311.585 252.437 309.883 252.73 308.161C252.95 306.789 253.069 305.403 253.188 304.019C253.334 301.852 253.764 299.713 254.468 297.658C256.222 292.758 257.215 287.618 257.413 282.416C257.473 281.665 257.421 280.909 257.262 280.172C257.023 279.259 256.484 278.46 256.042 277.627C255.204 276.048 254.7 274.31 253.909 272.706C252.122 269.082 248.966 266.334 245.66 264.031C244.036 262.901 242.135 261.656 240.296 262.379Z" fill="#2F2E41"/>
<path d="M198.135 301.636C196.739 300.823 195.344 299.947 194.294 298.716C193.79 298.126 193.375 297.464 192.863 296.882C191.619 295.465 189.856 294.586 188.032 294.127C186.209 293.668 184.313 293.598 182.434 293.582C181.177 293.572 179.888 293.59 178.711 294.034C177.534 294.479 176.473 295.438 176.245 296.682C175.972 298.178 176.949 299.637 178.123 300.597C179.214 301.489 180.499 302.113 181.875 302.419C182.997 302.616 184.13 302.749 185.267 302.817C191.945 303.516 197.902 307.153 203.753 310.464C208.893 313.372 214.132 316.09 219.471 318.62C219.683 317.02 219.771 315.406 219.735 313.793C219.707 312.588 219.648 310.751 218.51 310.044C217.185 309.22 215.003 309.03 213.508 308.54C210.067 307.412 206.707 306.052 203.45 304.469C201.644 303.592 199.872 302.647 198.135 301.636Z" fill="#FBBEBE"/>
<path d="M227.323 263.888C233.894 263.888 239.22 258.529 239.22 251.919C239.22 245.31 233.894 239.951 227.323 239.951C220.753 239.951 215.426 245.31 215.426 251.919C215.426 258.529 220.753 263.888 227.323 263.888Z" fill="#FBBEBE"/>
<path d="M243.697 275.948C242.634 277.188 242.102 278.785 241.388 280.256C239.919 283.282 237.615 285.88 236.462 289.042C235.244 292.377 235.285 296.345 232.899 298.965C232.484 299.421 231.983 299.86 231.863 300.466C231.792 300.826 231.866 301.211 231.742 301.556C231.4 302.507 229.843 302.555 229.552 303.524C229.467 303.808 229.515 304.122 229.41 304.399C229.171 305.025 228.344 305.121 227.791 305.496C226.636 306.28 226.869 308.102 226.045 309.232C225.393 310.126 224.164 310.425 223.072 310.274C221.98 310.122 220.98 309.599 219.986 309.121C219.644 308.928 219.266 308.81 218.876 308.772C218.415 308.788 217.969 308.94 217.595 309.21C215.397 310.608 214.366 313.377 214.381 315.993C214.396 318.608 215.294 321.129 216.214 323.575C216.34 323.988 216.546 324.372 216.821 324.705C217.549 325.475 218.818 325.351 219.786 324.922C220.754 324.493 221.633 323.819 222.673 323.63C224.514 323.296 226.313 324.562 228.181 324.458C229.549 324.381 230.76 323.585 231.897 322.816C233.712 321.587 235.559 320.327 236.893 318.583C237.71 317.515 238.309 316.298 239.021 315.156C239.937 313.756 240.94 312.415 242.026 311.142L248.886 302.741C250.534 300.945 251.669 298.739 252.171 296.354C252.824 294.115 253.48 291.85 253.593 289.52C253.686 287.601 253.408 285.686 253.095 283.791C252.787 281.927 252.437 280.041 251.618 278.339C250.127 275.243 246.499 272.68 243.697 275.948Z" fill="#2F2E41"/>
<path d="M247.691 240.982C255.983 240.982 262.705 234.257 262.705 225.961C262.705 217.665 255.983 210.94 247.691 210.94C239.399 210.94 232.677 217.665 232.677 225.961C232.677 234.257 239.399 240.982 247.691 240.982Z" fill="#2F2E41"/>
<path d="M260.641 238.399C258.698 239.804 256.446 240.724 254.075 241.08C251.704 241.436 249.282 241.219 247.012 240.447C244.742 239.674 242.69 238.369 241.027 236.641C239.365 234.913 238.14 232.811 237.456 230.512C237.714 232.572 238.398 234.556 239.462 236.339C240.526 238.122 241.948 239.665 243.638 240.87C245.328 242.075 247.25 242.917 249.281 243.342C251.313 243.767 253.411 243.765 255.442 243.338C257.473 242.911 259.394 242.067 261.082 240.86C262.771 239.653 264.191 238.108 265.253 236.324C266.315 234.54 266.996 232.555 267.253 230.494C267.509 228.434 267.336 226.342 266.744 224.352C267.08 227.026 266.691 229.741 265.617 232.212C264.543 234.684 262.824 236.821 260.641 238.399Z" fill="#2F2E41"/>
<path d="M235.429 259.257C241.51 259.257 246.44 254.326 246.44 248.242C246.44 242.158 241.51 237.227 235.429 237.227C229.349 237.227 224.419 242.158 224.419 248.242C224.419 254.326 229.349 259.257 235.429 259.257Z" fill="#2F2E41"/>
<path d="M226.171 251.747C231.56 251.747 235.93 248.328 235.93 244.111C235.93 239.894 231.56 236.475 226.171 236.475C220.781 236.475 216.412 239.894 216.412 244.111C216.412 248.328 220.781 251.747 226.171 251.747Z" fill="#2F2E41"/>
<path d="M229.92 257.855C230.576 257.322 230.459 256.091 229.658 255.106C228.858 254.121 227.677 253.756 227.021 254.29C226.365 254.823 226.482 256.054 227.282 257.039C228.083 258.024 229.263 258.389 229.92 257.855Z" fill="#FBBEBE"/>
<path d="M217.755 353.532C217.755 358.869 214.584 360.732 210.672 360.732C210.582 360.732 210.491 360.731 210.401 360.729C210.22 360.725 210.04 360.716 209.863 360.704C206.332 360.454 203.59 358.495 203.59 353.532C203.59 348.397 210.149 341.917 210.643 341.436L210.644 341.435C210.662 341.416 210.672 341.407 210.672 341.407C210.672 341.407 217.755 348.196 217.755 353.532Z" fill="#6C63FF"/>
<path d="M210.414 359.916L213.005 356.295L210.408 360.313L210.401 360.729C210.22 360.725 210.04 360.716 209.863 360.704L210.142 355.365L210.14 355.324L210.144 355.316L210.171 354.812L207.567 350.783L210.179 354.433L210.185 354.54L210.396 350.507L208.167 346.344L210.423 349.799L210.643 341.436L210.644 341.407V341.435L210.607 348.03L212.826 345.415L210.598 348.598L210.539 352.21L212.611 348.743L210.531 352.741L210.498 354.749L213.505 349.924L210.486 355.45L210.414 359.916Z" fill="#3F3D56"/>
</g>
<g style="mix-blend-mode:multiply">
<rect width="360" height="360" fill="url(#paint1_linear)"/>
</g>
<defs>
<linearGradient id="paint0_linear" x1="194.221" y1="321.132" x2="194.221" y2="305.333" gradientUnits="userSpaceOnUse">
<stop stop-color="#808080" stop-opacity="0.25"/>
<stop offset="0.53514" stop-color="#808080" stop-opacity="0.12"/>
<stop offset="1" stop-color="#808080" stop-opacity="0.1"/>
</linearGradient>
<linearGradient id="paint1_linear" x1="0" y1="0" x2="147.718" y2="432.503" gradientUnits="userSpaceOnUse">
<stop stop-color="#3E0382" stop-opacity="0.2"/>
<stop offset="1" stop-color="#FAC4BA" stop-opacity="0.37"/>
</linearGradient>
<clipPath id="clip0">
<rect width="364" height="220" fill="white" transform="translate(-1 145)"/>
</clipPath>
</defs>
</svg>
