<svg width="360" height="365" viewBox="0 0 360 365" fill="none" xmlns="http://www.w3.org/2000/svg">
<path opacity="0.5" d="M360 111.977V349.358C360 352.181 358.879 354.887 356.885 356.883C354.89 358.879 352.184 360 349.363 360H7.49777C6.51314 360 5.53817 359.806 4.6285 359.429C3.71883 359.052 2.89228 358.499 2.19605 357.803C1.49982 357.106 0.947535 356.279 0.570737 355.369C0.193939 354.459 0 353.484 0 352.499V141.295C0 128.486 5.0857 116.202 14.1383 107.145C23.1909 98.0882 35.4689 93 48.2712 93H341.032C343.523 93 345.99 93.4909 348.291 94.4446C350.592 95.3982 352.683 96.7961 354.444 98.5583C356.206 100.32 357.603 102.413 358.556 104.715C359.509 107.017 360 109.485 360 111.977Z" fill="#F2F2F2"/>
<path opacity="0.1" d="M153.858 134.493C114.749 120.222 69.3775 141.349 41.2448 178.062C32.9536 188.899 25.954 201.699 22.8607 216.17C19.1169 233.695 21.3555 252.557 26.6077 269.471C34.529 294.976 49.6126 317.334 69.2499 329.57C88.8873 341.807 113.027 343.314 132.904 331.668C143.966 325.186 153.986 314.767 166.136 313.038C184.734 310.392 200.468 328.505 217.299 338.705C228.82 345.686 241.493 349.09 254.032 352.391C268.248 356.136 283.293 359.771 297.047 353.94C308.438 349.108 317.683 338.083 323.812 325.189C329.941 312.295 333.213 297.601 335.349 282.868C336.689 273.621 337.607 264.143 336.52 254.856C335.388 245.156 332.094 235.979 327.798 227.78C318.104 209.253 303.412 195.43 287.532 185.528C271.651 175.627 254.498 169.361 237.408 163.338C206.689 152.487 185.544 140.019 153.935 134.432L153.858 134.493Z" fill="#6159D5"/>
<path opacity="0.4" d="M268.5 204C272.642 204 276 200.866 276 197C276 193.134 272.642 190 268.5 190C264.358 190 261 193.134 261 197C261 200.866 264.358 204 268.5 204Z" fill="#6159D5"/>
<path opacity="0.4" d="M110 205C113.866 205 117 201.642 117 197.5C117 193.358 113.866 190 110 190C106.134 190 103 193.358 103 197.5C103 201.642 106.134 205 110 205Z" fill="#6159D5"/>
<path opacity="0.1" d="M245.5 168C249.642 168 253 164.866 253 161C253 157.134 249.642 154 245.5 154C241.358 154 238 157.134 238 161C238 164.866 241.358 168 245.5 168Z" fill="#6159D5"/>
<path opacity="0.4" d="M248.5 232C254.851 232 260 226.851 260 220.5C260 214.149 254.851 209 248.5 209C242.149 209 237 214.149 237 220.5C237 226.851 242.149 232 248.5 232Z" fill="#6159D5"/>
<path opacity="0.4" d="M120.5 235C126.851 235 132 230.075 132 224C132 217.925 126.851 213 120.5 213C114.149 213 109 217.925 109 224C109 230.075 114.149 235 120.5 235Z" fill="#6159D5"/>
<path opacity="0.5" d="M122 232.821C122 283.355 92.0031 301 55 301C17.9969 301 -12 283.355 -12 232.821C-12 182.287 55 118 55 118C55 118 122 182.287 122 232.821Z" fill="#CBBFDA"/>
<path d="M360.621 353.507C360.621 356.376 344.123 359.001 316.847 361.016C311.888 361.381 306.572 361.725 300.936 362.05C296.063 362.33 290.958 362.594 285.62 362.84C280.447 363.075 275.076 363.294 269.507 363.495C251.917 364.135 232.474 364.595 211.817 364.825C206.805 364.88 201.725 364.923 196.576 364.955C191.216 364.985 185.795 365 180.311 365C80.7271 365 0 359.856 0 353.507C0 347.158 80.7271 342.014 180.311 342.014C223.182 342.014 262.555 342.969 293.5 344.559C294.639 344.619 295.766 344.677 296.883 344.734C296.889 344.738 296.897 344.739 296.904 344.739C335.884 346.848 360.621 349.993 360.621 353.507Z" fill="#3F3D56"/>
<path opacity="0.5" d="M52.8462 293.202L53.5304 250.926L82 198.624L53.6373 244.294L53.9449 225.285L73.5661 187.445L54.0266 220.254L54.5793 186.066L75.5907 155.941L54.6666 180.69L55.0123 118L52.8401 200.99L53.0186 197.566L31.6568 164.732L52.6763 204.138L50.6859 242.321L50.6265 241.308L26 206.754L50.552 244.888L50.3032 249.663L50.2586 249.735L50.279 250.127L45.229 347H51.9759L52.7855 296.963L77.2772 258.923L52.8462 293.202Z" fill="#3F3D56"/>
<path opacity="0.5" d="M366 291.116C366 318.455 349.658 328 329.5 328C309.342 328 293 318.455 293 291.116C293 263.778 329.5 229 329.5 229C329.5 229 366 263.778 366 291.116Z" fill="#C4C3D4"/>
<path opacity="0.5" d="M328.382 323.869L328.748 300.978L344 272.657L328.806 297.386L328.97 287.093L339.482 266.604L329.014 284.369L329.31 265.857L340.567 249.545L329.357 262.946L329.542 229L328.379 273.938L328.474 272.084L317.03 254.305L328.291 275.643L327.225 296.318L327.193 295.769L314 277.059L327.153 297.708L327.019 300.294L326.996 300.333L327.007 300.545L324.301 353H327.916L328.349 325.906L341.47 305.308L328.382 323.869Z" fill="#3F3D56"/>
<path opacity="0.5" d="M224.966 277.485C225.262 280.513 223.586 281.749 221.391 281.968C219.196 282.188 217.313 281.308 217.017 278.279C216.722 275.25 220.32 271 220.32 271C220.32 271 224.67 274.456 224.966 277.485Z" fill="#6C63FF"/>
<path d="M295.944 98.1156C294.947 96.7162 293.887 95.3625 292.765 94.0543C287.089 87.4144 280.021 82.1041 272.062 78.4999C269.888 77.5143 267.655 76.6627 265.377 75.9499C263.794 75.454 262.185 75.0265 260.549 74.6674L257.462 74.0625C249.687 72.762 241.731 73.0181 234.055 74.8161C226.38 76.614 219.139 79.9179 212.751 84.5362C211.216 84.3495 209.662 84.2248 208.09 84.1621C208.03 83.9975 207.968 83.8329 207.904 83.6662C207.379 82.2783 206.817 80.9103 206.217 79.5622C202.865 72.0126 198.365 65.0273 192.875 58.8544C192.623 58.5722 192.371 58.2901 192.114 58.0122C188.456 54.0128 184.405 50.3915 180.021 47.203C166.396 37.3088 149.988 31.9786 133.147 31.9756H133.034C131.785 31.9756 130.544 32.0048 129.311 32.0632L124.55 32.4223C124.159 32.4629 123.767 32.5057 123.378 32.5548L118.565 33.2816C117.291 33.5124 116.028 33.7753 114.775 34.0703C97.7467 38.0768 82.4955 47.5383 71.3446 61.0132C69.9933 62.642 68.7105 64.3256 67.4961 66.0641C66.9167 66.8891 66.3522 67.7206 65.807 68.5671C65.544 68.9732 65.2853 69.3793 65.0288 69.7897C64.1821 71.1449 63.3796 72.5264 62.6213 73.9343C61.8131 75.4262 61.052 76.9453 60.3379 78.4914C60.3313 78.5038 60.3256 78.5166 60.3208 78.5298C58.0277 83.4982 56.2557 88.6908 55.0334 94.0244C54.7098 95.4266 54.4248 96.8416 54.1782 98.2694C54.0812 98.8166 53.9914 99.3653 53.9088 99.9153L53.8831 100.099C53.6693 101.595 53.479 103.092 53.3401 104.616L53.154 104.633C53.169 104.678 53.184 104.722 53.1947 104.77C53.2349 104.794 53.2762 104.816 53.3187 104.836C53.3016 105.03 53.2866 105.225 53.2716 105.417C53.2824 105.59 53.2687 105.763 53.231 105.932C53.0771 107.927 53.0001 109.946 53.0001 111.99C52.9789 124.903 56.1004 137.628 62.0954 149.067L62.1787 149.225C68.2511 160.735 77.0293 170.598 87.7583 177.965C96.2892 183.839 105.886 187.99 116.008 190.185L117.777 190.546C120.22 191.02 122.702 191.376 125.223 191.615C127.789 191.863 130.392 191.988 133.034 191.989C136.705 191.991 140.371 191.741 144.008 191.241H238.166L238.931 191.359C250.459 193.058 262.232 191.331 272.785 186.391C283.338 181.452 292.205 173.519 298.282 163.579C304.359 153.639 307.377 142.132 306.961 130.491C306.546 118.849 302.714 107.586 295.944 98.1049V98.1156Z" fill="url(#paint0_linear)"/>
<path opacity="0.3" d="M264.453 141.902C264.442 141.203 264.419 140.512 264.38 139.82C264.335 138.951 264.271 138.085 264.19 137.223C263.956 134.778 263.568 132.351 263.029 129.955C263.006 129.849 262.98 129.742 262.954 129.633C262.527 127.787 262.016 125.975 261.421 124.197C261.019 123.003 260.581 121.831 260.106 120.681C259.938 120.266 259.764 119.857 259.585 119.452C258.758 117.551 257.83 115.696 256.805 113.894L256.67 113.659C256.36 113.121 256.029 112.591 255.713 112.054L255.582 111.84C255.52 111.74 255.458 111.654 255.405 111.558V111.545C254.986 110.88 254.554 110.225 254.109 109.581C252.713 107.557 251.192 105.623 249.555 103.788C247.143 101.088 244.488 98.614 241.625 96.397C240.913 95.852 240.193 95.3176 239.455 94.8003C231.546 89.2349 222.379 85.7185 212.776 84.5661C211.241 84.3794 209.688 84.2547 208.115 84.192C207.728 84.1749 207.341 84.1642 206.954 84.1578C206.527 84.145 206.099 84.1429 205.672 84.1429C203.161 84.1428 200.653 84.3012 198.163 84.6174C194.004 85.1486 189.914 86.1246 185.963 87.5286C180.788 78.6283 173.367 71.2416 164.441 66.1066C155.516 60.9717 145.399 58.2683 135.101 58.2666C133.004 58.2648 130.909 58.3769 128.824 58.6021C128.593 58.6214 128.362 58.6492 128.131 58.677C125.304 59.0106 122.505 59.55 119.756 60.2907C118.94 58.9484 118.069 57.6339 117.148 56.3621C116.226 55.0903 115.29 53.8847 114.289 52.7091C113.434 51.7116 112.552 50.7412 111.642 49.7979C111.614 49.7664 111.584 49.7364 111.553 49.7081C110.133 48.2519 108.639 46.8706 107.076 45.5699C106.242 44.8731 105.389 44.1977 104.51 43.5522C103.411 42.7314 102.283 41.9519 101.125 41.2138C100.313 40.6922 99.4877 40.1935 98.6496 39.7175C88.1093 44.75 78.7917 52.0169 71.3446 61.0132C69.9933 62.642 68.7105 64.3256 67.4961 66.0641C66.9167 66.8891 66.3522 67.7206 65.807 68.5671C65.544 68.9732 65.2853 69.3793 65.0288 69.7897C64.1821 71.1449 63.3796 72.5264 62.6213 73.9343C61.8131 75.4262 61.052 76.9453 60.3379 78.4914C60.3313 78.5038 60.3256 78.5166 60.3208 78.5298C58.0277 83.4982 56.2557 88.6908 55.0334 94.0244C54.7098 95.4266 54.4248 96.8416 54.1782 98.2694C54.0812 98.8166 53.9914 99.3653 53.9088 99.9153L53.8831 100.099C53.6693 101.595 53.479 103.092 53.3401 104.616L53.154 104.633C53.169 104.678 53.184 104.722 53.1947 104.77C53.2349 104.794 53.2762 104.816 53.3187 104.836C53.3016 105.03 53.2866 105.225 53.2716 105.417C53.2824 105.59 53.2687 105.763 53.231 105.932C53.0771 107.927 53.0001 109.946 53.0001 111.99C52.9789 124.903 56.1004 137.628 62.0954 149.067C62.1659 149.077 62.2386 149.088 62.3092 149.094C69.8401 150.012 77.4775 149.471 84.8036 147.5C85.4706 148.6 86.1733 149.676 86.9117 150.727C87.4576 151.508 88.022 152.274 88.605 153.023C93.4462 159.268 99.4914 164.479 106.383 168.347C106.684 168.518 106.99 168.682 107.296 168.847C110.044 170.325 112.908 171.579 115.859 172.596C116.999 172.994 118.161 173.356 119.346 173.684C119.412 173.701 119.478 173.722 119.545 173.737C123.258 174.752 127.063 175.396 130.904 175.661C132.29 175.762 133.688 175.813 135.099 175.813C138.274 175.813 141.444 175.558 144.579 175.052C146.536 174.733 148.476 174.314 150.39 173.797C151.887 173.397 153.359 172.939 154.805 172.423C155.212 173.12 155.631 173.806 156.065 174.483C157.541 176.803 159.181 179.014 160.971 181.101C161.868 182.153 162.802 183.171 163.774 184.155C166.358 186.779 169.182 189.155 172.209 191.252H238.166L238.931 191.369C242.022 189.245 244.905 186.832 247.541 184.164C255.967 175.627 261.571 164.711 263.598 152.891C263.793 151.751 263.955 150.606 264.083 149.458C264.327 147.284 264.451 145.098 264.453 142.911C264.453 142.569 264.453 142.235 264.453 141.902Z" fill="#534168"/>
<path d="M307 132.623C306.993 143.081 304.227 153.352 298.983 162.401C293.739 171.45 286.201 178.956 277.129 184.164H161.363C161.22 183.145 161.091 182.127 160.976 181.11C160.884 180.349 160.798 179.59 160.717 178.829C160.576 177.508 160.452 176.176 160.356 174.834C159.843 167.648 160.142 160.299 163.007 153.867C163.369 153.044 163.774 152.241 164.221 151.461C164.883 150.311 165.63 149.213 166.456 148.175C167.188 147.259 167.973 146.386 168.807 145.561C169.929 144.457 171.123 143.429 172.38 142.483C172.981 142.028 173.599 141.585 174.227 141.16L174.343 141.083C177.565 138.916 181.11 137.142 184.68 135.628L185.42 135.321L185.613 135.241C185.961 135.096 186.31 134.957 186.658 134.814L186.797 134.758C188.68 134.009 190.576 133.313 192.486 132.672C195.73 131.579 199.021 130.639 202.358 129.853C203.187 129.656 204.02 129.47 204.855 129.295C205.663 129.123 206.473 128.96 207.286 128.808C209.083 128.466 210.888 128.169 212.699 127.918C212.888 127.893 213.074 127.867 213.262 127.846L214.446 127.69L214.66 127.664C215 127.621 215.342 127.583 215.684 127.544C217.08 127.384 218.479 127.247 219.877 127.117C219.932 127.117 219.986 127.117 220.039 127.098H220.052C221.533 126.972 223.015 126.855 224.499 126.747L225.538 126.67L226.394 126.61C228.087 126.491 229.78 126.371 231.474 126.251C232.846 126.146 234.217 126.037 235.587 125.916C235.82 125.896 236.051 125.877 236.284 125.854L236.757 125.809C236.8 125.808 236.843 125.803 236.885 125.796H236.945L237.738 125.717C237.754 125.716 237.769 125.716 237.785 125.717C238.014 125.695 238.238 125.672 238.465 125.646C240.282 125.458 242.1 125.236 243.904 124.964L244.456 124.883C247.585 124.404 250.681 123.735 253.729 122.878C254.424 122.68 255.115 122.471 255.802 122.25C256.591 121.995 257.375 121.724 258.154 121.438L258.484 121.316C259.027 121.102 259.565 120.888 260.1 120.675C260.878 120.354 261.648 120.01 262.405 119.649L262.503 119.604C263.404 119.176 264.288 118.717 265.154 118.227C265.556 118.001 265.956 117.765 266.349 117.524C268.344 116.323 270.223 114.94 271.964 113.394C272.097 113.275 272.227 113.157 272.355 113.037L272.398 112.999C274.097 111.387 275.698 109.673 277.191 107.869C279.317 105.372 281.373 102.805 283.719 100.52C284.403 99.8534 285.116 99.2121 285.857 98.5965C286.712 97.8912 287.585 97.2264 288.491 96.6023L288.626 96.5082C289.953 95.5988 291.335 94.7728 292.765 94.0352C293.884 95.3419 294.944 96.6956 295.944 98.0964C303.157 108.163 307.025 120.24 307 132.623Z" fill="#6C63FF"/>
<path opacity="0.2" d="M307 132.623C306.993 143.081 304.227 153.352 298.983 162.401C293.739 171.45 286.201 178.956 277.129 184.164H161.363C161.22 183.145 161.091 182.127 160.976 181.11C160.884 180.349 160.798 179.59 160.717 178.829C160.576 177.508 160.452 176.176 160.356 174.834C159.843 167.648 160.142 160.299 163.007 153.867C163.369 153.044 163.774 152.241 164.221 151.461C164.883 150.311 165.63 149.213 166.456 148.175C167.188 147.259 167.973 146.386 168.807 145.561C169.929 144.457 171.123 143.429 172.38 142.483C172.981 142.028 173.599 141.585 174.227 141.16L174.343 141.083C177.565 138.916 181.11 137.142 184.68 135.628L185.42 135.321L185.613 135.241C185.961 135.096 186.31 134.957 186.658 134.814L186.797 134.758C188.68 134.009 190.576 133.313 192.486 132.672C195.73 131.579 199.021 130.639 202.358 129.853C203.187 129.656 204.02 129.47 204.855 129.295C205.663 129.123 206.473 128.96 207.286 128.808C209.083 128.466 210.888 128.169 212.699 127.918C212.888 127.893 213.074 127.867 213.262 127.846L214.446 127.69L214.66 127.664C215 127.621 215.342 127.583 215.684 127.544C217.08 127.384 218.479 127.247 219.877 127.117C219.932 127.117 219.986 127.117 220.039 127.098H220.052C221.533 126.972 223.015 126.855 224.499 126.747L225.538 126.67L226.394 126.61C228.087 126.491 229.78 126.371 231.474 126.251C232.846 126.146 234.217 126.037 235.587 125.916C235.82 125.896 236.051 125.877 236.284 125.854L236.757 125.809C236.8 125.808 236.843 125.803 236.885 125.796H236.945L237.738 125.717C237.754 125.716 237.769 125.716 237.785 125.717C238.014 125.695 238.238 125.672 238.465 125.646C240.282 125.458 242.1 125.236 243.904 124.964L244.456 124.883C247.585 124.404 250.681 123.735 253.729 122.878C254.424 122.68 255.115 122.471 255.802 122.25C256.591 121.995 257.375 121.724 258.154 121.438L258.484 121.316C259.027 121.102 259.565 120.888 260.1 120.675C260.878 120.354 261.648 120.01 262.405 119.649L262.503 119.604C263.404 119.176 264.288 118.717 265.154 118.227C265.556 118.001 265.956 117.765 266.349 117.524C268.344 116.323 270.223 114.94 271.964 113.394C272.097 113.275 272.227 113.157 272.355 113.037L272.398 112.999C274.097 111.387 275.698 109.673 277.191 107.869C279.317 105.372 281.373 102.805 283.719 100.52C284.403 99.8534 285.116 99.2121 285.857 98.5965C286.712 97.8912 287.585 97.2264 288.491 96.6023L288.626 96.5082C289.953 95.5988 291.335 94.7728 292.765 94.0352C293.884 95.3419 294.944 96.6956 295.944 98.0964C303.157 108.163 307.025 120.24 307 132.623Z" fill="black"/>
<path d="M95.1816 131.411C95.8205 131.411 96.3383 130.733 96.3383 129.896C96.3383 129.059 95.8205 128.38 95.1816 128.38C94.5428 128.38 94.025 129.059 94.025 129.896C94.025 130.733 94.5428 131.411 95.1816 131.411Z" fill="#3F3D56"/>
<path d="M95.1816 129.56C95.8205 129.56 96.3383 128.881 96.3383 128.045C96.3383 127.208 95.8205 126.529 95.1816 126.529C94.5428 126.529 94.025 127.208 94.025 128.045C94.025 128.881 94.5428 129.56 95.1816 129.56Z" fill="#3F3D56"/>
<path d="M95.1816 127.709C95.8205 127.709 96.3383 127.03 96.3383 126.193C96.3383 125.356 95.8205 124.678 95.1816 124.678C94.5428 124.678 94.025 125.356 94.025 126.193C94.025 127.03 94.5428 127.709 95.1816 127.709Z" fill="#3F3D56"/>
<path d="M95.1816 125.858C95.8205 125.858 96.3383 125.179 96.3383 124.342C96.3383 123.505 95.8205 122.827 95.1816 122.827C94.5428 122.827 94.025 123.505 94.025 124.342C94.025 125.179 94.5428 125.858 95.1816 125.858Z" fill="#3F3D56"/>
<path d="M95.1816 124.007C95.8205 124.007 96.3383 123.328 96.3383 122.491C96.3383 121.654 95.8205 120.976 95.1816 120.976C94.5428 120.976 94.025 121.654 94.025 122.491C94.025 123.328 94.5428 124.007 95.1816 124.007Z" fill="#3F3D56"/>
<path d="M95.1816 122.156C95.8205 122.156 96.3383 121.477 96.3383 120.64C96.3383 119.803 95.8205 119.125 95.1816 119.125C94.5428 119.125 94.025 119.803 94.025 120.64C94.025 121.477 94.5428 122.156 95.1816 122.156Z" fill="#3F3D56"/>
<path d="M95.1816 120.305C95.8205 120.305 96.3383 119.626 96.3383 118.789C96.3383 117.952 95.8205 117.274 95.1816 117.274C94.5428 117.274 94.025 117.952 94.025 118.789C94.025 119.626 94.5428 120.305 95.1816 120.305Z" fill="#3F3D56"/>
<path d="M99.5133 106.12C99.6704 105.917 99.8132 105.702 99.9409 105.479L96.9006 104.981L100.189 105.005C100.504 104.318 100.675 103.575 100.694 102.82C100.712 102.065 100.575 101.315 100.294 100.614L95.8808 102.901L99.9431 99.9089C99.5627 99.249 99.0503 98.6746 98.438 98.2216C97.8257 97.7685 97.1265 97.4464 96.3841 97.2754C95.6418 97.1045 94.8721 97.0884 94.1232 97.228C93.3743 97.3676 92.6623 97.6601 92.0315 98.0871C91.4007 98.5141 90.8646 99.0665 90.4569 99.7098C90.0491 100.353 89.7783 101.074 89.6615 101.826C89.5446 102.579 89.5841 103.347 89.7775 104.084C89.971 104.821 90.3142 105.509 90.7858 106.108C90.5361 106.42 90.321 106.759 90.1444 107.119L94.0934 109.168L89.8835 107.756C89.5877 108.629 89.5144 109.562 89.6705 110.471C89.8266 111.38 90.207 112.236 90.7773 112.96C90.134 113.778 89.7338 114.76 89.6225 115.794C89.5111 116.828 89.6931 117.873 90.1477 118.808C90.6022 119.744 91.311 120.533 92.1928 121.085C93.0747 121.637 94.0942 121.93 95.1346 121.93C96.175 121.93 97.1945 121.637 98.0763 121.085C98.9582 120.533 99.6669 119.744 100.121 118.808C100.576 117.873 100.758 116.828 100.647 115.794C100.535 114.76 100.135 113.778 99.4919 112.96C100.261 111.984 100.679 110.777 100.679 109.534C100.679 108.291 100.261 107.084 99.4919 106.108L99.5133 106.12Z" fill="#6C63FF"/>
<path opacity="0.03" d="M89.6121 109.547C89.6123 110.788 90.0302 111.992 90.7987 112.967C90.1554 113.784 89.7552 114.766 89.6439 115.8C89.5326 116.835 89.7146 117.879 90.1691 118.815C90.6237 119.751 91.3324 120.539 92.2143 121.091C93.0962 121.643 94.1156 121.936 95.156 121.936C96.1965 121.936 97.2159 121.643 98.0978 121.091C98.9797 120.539 99.6884 119.751 100.143 118.815C100.597 117.879 100.779 116.835 100.668 115.8C100.557 114.766 100.157 113.784 99.5134 112.967C100.251 112.03 89.6121 108.925 89.6121 109.547Z" fill="black"/>
<path d="M107.369 136.327C108.007 136.327 108.525 135.649 108.525 134.812C108.525 133.975 108.007 133.296 107.369 133.296C106.73 133.296 106.212 133.975 106.212 134.812C106.212 135.649 106.73 136.327 107.369 136.327Z" fill="#3F3D56"/>
<path d="M107.369 134.476C108.007 134.476 108.525 133.798 108.525 132.961C108.525 132.124 108.007 131.445 107.369 131.445C106.73 131.445 106.212 132.124 106.212 132.961C106.212 133.798 106.73 134.476 107.369 134.476Z" fill="#3F3D56"/>
<path d="M107.369 132.625C108.007 132.625 108.525 131.947 108.525 131.11C108.525 130.273 108.007 129.594 107.369 129.594C106.73 129.594 106.212 130.273 106.212 131.11C106.212 131.947 106.73 132.625 107.369 132.625Z" fill="#3F3D56"/>
<path d="M107.369 130.774C108.007 130.774 108.525 130.096 108.525 129.259C108.525 128.422 108.007 127.743 107.369 127.743C106.73 127.743 106.212 128.422 106.212 129.259C106.212 130.096 106.73 130.774 107.369 130.774Z" fill="#3F3D56"/>
<path d="M107.369 128.923C108.007 128.923 108.525 128.245 108.525 127.408C108.525 126.571 108.007 125.892 107.369 125.892C106.73 125.892 106.212 126.571 106.212 127.408C106.212 128.245 106.73 128.923 107.369 128.923Z" fill="#3F3D56"/>
<path d="M107.369 127.072C108.007 127.072 108.525 126.393 108.525 125.556C108.525 124.72 108.007 124.041 107.369 124.041C106.73 124.041 106.212 124.72 106.212 125.556C106.212 126.393 106.73 127.072 107.369 127.072Z" fill="#3F3D56"/>
<path d="M107.369 125.221C108.007 125.221 108.525 124.542 108.525 123.705C108.525 122.868 108.007 122.19 107.369 122.19C106.73 122.19 106.212 122.868 106.212 123.705C106.212 124.542 106.73 125.221 107.369 125.221Z" fill="#3F3D56"/>
<path d="M111.7 111.037C111.857 110.833 112 110.619 112.128 110.395L109.088 109.897L112.376 109.921C112.691 109.235 112.862 108.491 112.88 107.736C112.898 106.982 112.762 106.231 112.481 105.531L108.068 107.818L112.13 104.825C111.75 104.165 111.237 103.591 110.625 103.138C110.013 102.685 109.313 102.363 108.571 102.192C107.829 102.021 107.059 102.005 106.31 102.144C105.561 102.284 104.849 102.576 104.218 103.003C103.588 103.43 103.052 103.983 102.644 104.626C102.236 105.269 101.965 105.99 101.848 106.742C101.731 107.495 101.771 108.264 101.964 109C102.158 109.737 102.501 110.426 102.973 111.024C102.723 111.337 102.508 111.676 102.331 112.035L106.28 114.085L102.07 112.672C101.775 113.545 101.701 114.479 101.857 115.387C102.013 116.296 102.394 117.152 102.964 117.877C102.321 118.694 101.921 119.676 101.809 120.71C101.698 121.744 101.88 122.789 102.335 123.725C102.789 124.66 103.498 125.449 104.38 126.001C105.262 126.553 106.281 126.846 107.321 126.846C108.362 126.846 109.381 126.553 110.263 126.001C111.145 125.449 111.854 124.66 112.308 123.725C112.763 122.789 112.945 121.744 112.834 120.71C112.722 119.676 112.322 118.694 111.679 117.877C112.448 116.9 112.866 115.693 112.866 114.45C112.866 113.207 112.448 112.001 111.679 111.024L111.7 111.037Z" fill="#6C63FF"/>
<path opacity="0.03" d="M101.799 114.463C101.799 115.704 102.217 116.909 102.986 117.883C102.342 118.7 101.942 119.682 101.831 120.717C101.719 121.751 101.901 122.795 102.356 123.731C102.81 124.667 103.519 125.456 104.401 126.008C105.283 126.56 106.302 126.852 107.343 126.852C108.383 126.852 109.403 126.56 110.285 126.008C111.166 125.456 111.875 124.667 112.33 123.731C112.784 122.795 112.966 121.751 112.855 120.717C112.744 119.682 112.343 118.7 111.7 117.883C112.438 116.947 101.799 113.841 101.799 114.463Z" fill="black"/>
<path d="M185.835 140.816C186.474 140.816 186.992 140.137 186.992 139.3C186.992 138.463 186.474 137.785 185.835 137.785C185.196 137.785 184.678 138.463 184.678 139.3C184.678 140.137 185.196 140.816 185.835 140.816Z" fill="#3F3D56"/>
<path d="M185.835 138.965C186.474 138.965 186.992 138.287 186.992 137.45C186.992 136.613 186.474 135.934 185.835 135.934C185.196 135.934 184.678 136.613 184.678 137.45C184.678 138.287 185.196 138.965 185.835 138.965Z" fill="#3F3D56"/>
<path d="M185.835 137.114C186.474 137.114 186.992 136.435 186.992 135.598C186.992 134.762 186.474 134.083 185.835 134.083C185.196 134.083 184.678 134.762 184.678 135.598C184.678 136.435 185.196 137.114 185.835 137.114Z" fill="#3F3D56"/>
<path d="M185.835 135.263C186.474 135.263 186.992 134.584 186.992 133.747C186.992 132.91 186.474 132.232 185.835 132.232C185.196 132.232 184.678 132.91 184.678 133.747C184.678 134.584 185.196 135.263 185.835 135.263Z" fill="#3F3D56"/>
<path d="M185.835 133.412C186.474 133.412 186.992 132.733 186.992 131.896C186.992 131.059 186.474 130.381 185.835 130.381C185.196 130.381 184.678 131.059 184.678 131.896C184.678 132.733 185.196 133.412 185.835 133.412Z" fill="#3F3D56"/>
<path d="M185.835 131.561C186.474 131.561 186.992 130.882 186.992 130.045C186.992 129.208 186.474 128.53 185.835 128.53C185.196 128.53 184.678 129.208 184.678 130.045C184.678 130.882 185.196 131.561 185.835 131.561Z" fill="#3F3D56"/>
<path d="M185.835 129.71C186.474 129.71 186.992 129.031 186.992 128.194C186.992 127.357 186.474 126.679 185.835 126.679C185.196 126.679 184.678 127.357 184.678 128.194C184.678 129.031 185.196 129.71 185.835 129.71Z" fill="#3F3D56"/>
<path d="M190.167 115.525C190.324 115.322 190.466 115.107 190.594 114.884L187.554 114.386L190.842 114.41C191.157 113.723 191.329 112.98 191.347 112.225C191.365 111.47 191.229 110.72 190.947 110.019L186.534 112.306L190.596 109.314C190.216 108.654 189.704 108.08 189.091 107.627C188.479 107.173 187.78 106.851 187.037 106.68C186.295 106.51 185.525 106.493 184.776 106.633C184.028 106.773 183.315 107.065 182.685 107.492C182.054 107.919 181.518 108.472 181.11 109.115C180.702 109.758 180.432 110.479 180.315 111.231C180.198 111.984 180.237 112.752 180.431 113.489C180.624 114.226 180.967 114.914 181.439 115.513C181.189 115.825 180.974 116.164 180.798 116.524L184.747 118.573L180.537 117.161C180.241 118.034 180.168 118.967 180.324 119.876C180.48 120.785 180.86 121.641 181.43 122.365C180.787 123.183 180.387 124.165 180.276 125.199C180.164 126.233 180.346 127.278 180.801 128.214C181.255 129.149 181.964 129.938 182.846 130.49C183.728 131.042 184.747 131.335 185.788 131.335C186.828 131.335 187.848 131.042 188.73 130.49C189.611 129.938 190.32 129.149 190.775 128.214C191.229 127.278 191.411 126.233 191.3 125.199C191.189 124.165 190.788 123.183 190.145 122.365C190.914 121.389 191.332 120.182 191.332 118.939C191.332 117.696 190.914 116.489 190.145 115.513L190.167 115.525Z" fill="#6C63FF"/>
<path opacity="0.03" d="M180.265 118.952C180.265 120.193 180.683 121.397 181.452 122.372C180.809 123.189 180.408 124.171 180.297 125.205C180.186 126.24 180.368 127.284 180.822 128.22C181.277 129.156 181.986 129.944 182.867 130.496C183.749 131.048 184.769 131.341 185.809 131.341C186.85 131.341 187.869 131.048 188.751 130.496C189.633 129.944 190.342 129.156 190.796 128.22C191.251 127.284 191.433 126.24 191.321 125.205C191.21 124.171 190.81 123.189 190.167 122.372C190.904 121.436 180.265 118.33 180.265 118.952Z" fill="black"/>
<path d="M198.022 148.297C198.66 148.297 199.178 147.619 199.178 146.782C199.178 145.945 198.66 145.266 198.022 145.266C197.383 145.266 196.865 145.945 196.865 146.782C196.865 147.619 197.383 148.297 198.022 148.297Z" fill="#3F3D56"/>
<path d="M198.022 146.446C198.66 146.446 199.178 145.767 199.178 144.931C199.178 144.094 198.66 143.415 198.022 143.415C197.383 143.415 196.865 144.094 196.865 144.931C196.865 145.767 197.383 146.446 198.022 146.446Z" fill="#3F3D56"/>
<path d="M198.022 144.595C198.66 144.595 199.178 143.916 199.178 143.079C199.178 142.242 198.66 141.564 198.022 141.564C197.383 141.564 196.865 142.242 196.865 143.079C196.865 143.916 197.383 144.595 198.022 144.595Z" fill="#3F3D56"/>
<path d="M198.022 142.744C198.66 142.744 199.178 142.065 199.178 141.228C199.178 140.391 198.66 139.713 198.022 139.713C197.383 139.713 196.865 140.391 196.865 141.228C196.865 142.065 197.383 142.744 198.022 142.744Z" fill="#3F3D56"/>
<path d="M198.022 140.893C198.66 140.893 199.178 140.215 199.178 139.378C199.178 138.541 198.66 137.862 198.022 137.862C197.383 137.862 196.865 138.541 196.865 139.378C196.865 140.215 197.383 140.893 198.022 140.893Z" fill="#3F3D56"/>
<path d="M198.022 139.042C198.66 139.042 199.178 138.363 199.178 137.526C199.178 136.689 198.66 136.011 198.022 136.011C197.383 136.011 196.865 136.689 196.865 137.526C196.865 138.363 197.383 139.042 198.022 139.042Z" fill="#3F3D56"/>
<path d="M198.022 137.191C198.66 137.191 199.178 136.512 199.178 135.675C199.178 134.838 198.66 134.16 198.022 134.16C197.383 134.16 196.865 134.838 196.865 135.675C196.865 136.512 197.383 137.191 198.022 137.191Z" fill="#3F3D56"/>
<path d="M202.353 123.007C202.51 122.803 202.653 122.589 202.781 122.365L199.741 121.867L203.029 121.891C203.344 121.205 203.516 120.461 203.534 119.706C203.552 118.952 203.416 118.201 203.134 117.5L198.721 119.788L202.783 116.795C202.403 116.135 201.89 115.561 201.278 115.108C200.666 114.655 199.967 114.333 199.224 114.162C198.482 113.991 197.712 113.975 196.963 114.114C196.214 114.254 195.502 114.546 194.872 114.973C194.241 115.4 193.705 115.953 193.297 116.596C192.889 117.239 192.618 117.96 192.502 118.712C192.385 119.465 192.424 120.234 192.618 120.97C192.811 121.707 193.154 122.396 193.626 122.994C193.376 123.307 193.161 123.646 192.984 124.005L196.933 126.055L192.724 124.642C192.428 125.515 192.355 126.449 192.511 127.357C192.667 128.266 193.047 129.122 193.617 129.847C192.974 130.664 192.574 131.646 192.463 132.68C192.351 133.714 192.533 134.759 192.988 135.695C193.442 136.63 194.151 137.419 195.033 137.971C195.915 138.523 196.934 138.816 197.975 138.816C199.015 138.816 200.035 138.523 200.916 137.971C201.798 137.419 202.507 136.63 202.962 135.695C203.416 134.759 203.598 133.714 203.487 132.68C203.375 131.646 202.975 130.664 202.332 129.847C203.101 128.87 203.519 127.663 203.519 126.42C203.519 125.177 203.101 123.97 202.332 122.994L202.353 123.007Z" fill="#6C63FF"/>
<path opacity="0.03" d="M192.452 126.433C192.452 127.674 192.87 128.878 193.639 129.853C192.995 130.67 192.595 131.652 192.484 132.686C192.373 133.721 192.555 134.765 193.009 135.701C193.464 136.637 194.172 137.425 195.054 137.977C195.936 138.529 196.956 138.822 197.996 138.822C199.037 138.822 200.056 138.529 200.938 137.977C201.82 137.425 202.528 136.637 202.983 135.701C203.438 134.765 203.62 133.721 203.508 132.686C203.397 131.652 202.997 130.67 202.353 129.853C203.091 128.916 192.452 125.811 192.452 126.433Z" fill="black"/>
<path d="M210.422 157.916C211.061 157.916 211.579 157.237 211.579 156.4C211.579 155.563 211.061 154.885 210.422 154.885C209.784 154.885 209.266 155.563 209.266 156.4C209.266 157.237 209.784 157.916 210.422 157.916Z" fill="#3F3D56"/>
<path d="M210.422 156.065C211.061 156.065 211.579 155.386 211.579 154.549C211.579 153.712 211.061 153.034 210.422 153.034C209.784 153.034 209.266 153.712 209.266 154.549C209.266 155.386 209.784 156.065 210.422 156.065Z" fill="#3F3D56"/>
<path d="M210.422 154.214C211.061 154.214 211.579 153.535 211.579 152.698C211.579 151.861 211.061 151.183 210.422 151.183C209.784 151.183 209.266 151.861 209.266 152.698C209.266 153.535 209.784 154.214 210.422 154.214Z" fill="#3F3D56"/>
<path d="M210.422 152.363C211.061 152.363 211.579 151.684 211.579 150.847C211.579 150.01 211.061 149.332 210.422 149.332C209.784 149.332 209.266 150.01 209.266 150.847C209.266 151.684 209.784 152.363 210.422 152.363Z" fill="#3F3D56"/>
<path d="M210.422 150.512C211.061 150.512 211.579 149.833 211.579 148.996C211.579 148.159 211.061 147.481 210.422 147.481C209.784 147.481 209.266 148.159 209.266 148.996C209.266 149.833 209.784 150.512 210.422 150.512Z" fill="#3F3D56"/>
<path d="M210.422 148.66C211.061 148.66 211.579 147.982 211.579 147.145C211.579 146.308 211.061 145.629 210.422 145.629C209.784 145.629 209.266 146.308 209.266 147.145C209.266 147.982 209.784 148.66 210.422 148.66Z" fill="#3F3D56"/>
<path d="M210.422 146.809C211.061 146.809 211.579 146.131 211.579 145.294C211.579 144.457 211.061 143.779 210.422 143.779C209.784 143.779 209.266 144.457 209.266 145.294C209.266 146.131 209.784 146.809 210.422 146.809Z" fill="#3F3D56"/>
<path d="M214.754 132.625C214.911 132.421 215.054 132.207 215.182 131.984L212.141 131.486L215.43 131.509C215.745 130.823 215.916 130.08 215.934 129.325C215.952 128.57 215.816 127.819 215.534 127.119L211.122 129.406L215.184 126.414C214.803 125.754 214.291 125.179 213.679 124.726C213.066 124.273 212.367 123.951 211.625 123.78C210.882 123.609 210.113 123.593 209.364 123.733C208.615 123.872 207.903 124.165 207.272 124.592C206.641 125.019 206.105 125.571 205.698 126.214C205.29 126.858 205.019 127.578 204.902 128.331C204.785 129.083 204.825 129.852 205.018 130.589C205.212 131.325 205.555 132.014 206.027 132.612C205.777 132.925 205.562 133.264 205.385 133.623L209.334 135.673L205.124 134.26C204.828 135.134 204.755 136.067 204.911 136.976C205.067 137.885 205.448 138.74 206.018 139.465C205.375 140.282 204.975 141.264 204.863 142.299C204.752 143.333 204.934 144.377 205.388 145.313C205.843 146.249 206.552 147.038 207.434 147.59C208.315 148.142 209.335 148.434 210.375 148.434C211.416 148.434 212.435 148.142 213.317 147.59C214.199 147.038 214.908 146.249 215.362 145.313C215.817 144.377 215.999 143.333 215.887 142.299C215.776 141.264 215.376 140.282 214.733 139.465C215.502 138.488 215.92 137.281 215.92 136.039C215.92 134.796 215.502 133.589 214.733 132.612L214.754 132.625Z" fill="#6C63FF"/>
<path opacity="0.03" d="M204.853 136.051C204.853 137.292 205.271 138.497 206.039 139.471C205.396 140.289 204.996 141.271 204.885 142.305C204.773 143.339 204.955 144.384 205.41 145.32C205.864 146.255 206.573 147.044 207.455 147.596C208.337 148.148 209.356 148.441 210.397 148.441C211.437 148.441 212.457 148.148 213.338 147.596C214.22 147.044 214.929 146.255 215.384 145.32C215.838 144.384 216.02 143.339 215.909 142.305C215.798 141.271 215.397 140.289 214.754 139.471C215.492 138.535 204.853 135.429 204.853 136.051Z" fill="black"/>
<path d="M220.044 141.243C220.682 141.243 221.2 140.565 221.2 139.728C221.2 138.891 220.682 138.212 220.044 138.212C219.405 138.212 218.887 138.891 218.887 139.728C218.887 140.565 219.405 141.243 220.044 141.243Z" fill="#3F3D56"/>
<path d="M220.044 139.393C220.682 139.393 221.2 138.714 221.2 137.877C221.2 137.04 220.682 136.362 220.044 136.362C219.405 136.362 218.887 137.04 218.887 137.877C218.887 138.714 219.405 139.393 220.044 139.393Z" fill="#3F3D56"/>
<path d="M220.044 137.541C220.682 137.541 221.2 136.863 221.2 136.026C221.2 135.189 220.682 134.51 220.044 134.51C219.405 134.51 218.887 135.189 218.887 136.026C218.887 136.863 219.405 137.541 220.044 137.541Z" fill="#3F3D56"/>
<path d="M220.044 135.69C220.682 135.69 221.2 135.012 221.2 134.175C221.2 133.338 220.682 132.659 220.044 132.659C219.405 132.659 218.887 133.338 218.887 134.175C218.887 135.012 219.405 135.69 220.044 135.69Z" fill="#3F3D56"/>
<path d="M220.044 133.839C220.682 133.839 221.2 133.161 221.2 132.324C221.2 131.487 220.682 130.808 220.044 130.808C219.405 130.808 218.887 131.487 218.887 132.324C218.887 133.161 219.405 133.839 220.044 133.839Z" fill="#3F3D56"/>
<path d="M220.044 131.988C220.682 131.988 221.2 131.31 221.2 130.473C221.2 129.636 220.682 128.957 220.044 128.957C219.405 128.957 218.887 129.636 218.887 130.473C218.887 131.31 219.405 131.988 220.044 131.988Z" fill="#3F3D56"/>
<path d="M220.044 130.137C220.682 130.137 221.2 129.459 221.2 128.622C221.2 127.785 220.682 127.106 220.044 127.106C219.405 127.106 218.887 127.785 218.887 128.622C218.887 129.459 219.405 130.137 220.044 130.137Z" fill="#3F3D56"/>
<path d="M224.375 115.953C224.532 115.749 224.675 115.535 224.803 115.311L221.763 114.813L225.051 114.837C225.366 114.151 225.537 113.407 225.555 112.653C225.573 111.898 225.437 111.147 225.156 110.447L220.743 112.734L224.805 109.741C224.425 109.081 223.912 108.507 223.3 108.054C222.688 107.601 221.988 107.279 221.246 107.108C220.504 106.937 219.734 106.921 218.985 107.06C218.236 107.2 217.524 107.492 216.893 107.919C216.263 108.346 215.727 108.899 215.319 109.542C214.911 110.185 214.64 110.906 214.523 111.658C214.407 112.411 214.446 113.18 214.64 113.916C214.833 114.653 215.176 115.342 215.648 115.94C215.398 116.253 215.183 116.592 215.006 116.951L218.955 119.001L214.746 117.588C214.45 118.461 214.376 119.395 214.533 120.303C214.689 121.212 215.069 122.068 215.639 122.793C214.996 123.61 214.596 124.592 214.484 125.626C214.373 126.661 214.555 127.705 215.01 128.641C215.464 129.576 216.173 130.365 217.055 130.917C217.937 131.469 218.956 131.762 219.997 131.762C221.037 131.762 222.056 131.469 222.938 130.917C223.82 130.365 224.529 129.576 224.983 128.641C225.438 127.705 225.62 126.661 225.509 125.626C225.397 124.592 224.997 123.61 224.354 122.793C225.123 121.816 225.541 120.609 225.541 119.366C225.541 118.123 225.123 116.917 224.354 115.94L224.375 115.953Z" fill="#6C63FF"/>
<path opacity="0.03" d="M214.474 119.379C214.474 120.62 214.892 121.825 215.661 122.799C215.017 123.617 214.617 124.599 214.506 125.633C214.395 126.667 214.577 127.712 215.031 128.647C215.486 129.583 216.194 130.372 217.076 130.924C217.958 131.476 218.978 131.768 220.018 131.768C221.058 131.768 222.078 131.476 222.96 130.924C223.842 130.372 224.55 129.583 225.005 128.647C225.459 127.712 225.641 126.667 225.53 125.633C225.419 124.599 225.019 123.617 224.375 122.799C225.113 121.863 214.474 118.757 214.474 119.379Z" fill="black"/>
<path d="M290.813 117.945C291.452 117.945 291.97 117.267 291.97 116.43C291.97 115.593 291.452 114.914 290.813 114.914C290.174 114.914 289.656 115.593 289.656 116.43C289.656 117.267 290.174 117.945 290.813 117.945Z" fill="#3F3D56"/>
<path d="M290.813 116.094C291.452 116.094 291.97 115.415 291.97 114.578C291.97 113.741 291.452 113.063 290.813 113.063C290.174 113.063 289.656 113.741 289.656 114.578C289.656 115.415 290.174 116.094 290.813 116.094Z" fill="#3F3D56"/>
<path d="M290.813 114.243C291.452 114.243 291.97 113.564 291.97 112.727C291.97 111.89 291.452 111.212 290.813 111.212C290.174 111.212 289.656 111.89 289.656 112.727C289.656 113.564 290.174 114.243 290.813 114.243Z" fill="#3F3D56"/>
<path d="M290.813 112.392C291.452 112.392 291.97 111.713 291.97 110.876C291.97 110.039 291.452 109.361 290.813 109.361C290.174 109.361 289.656 110.039 289.656 110.876C289.656 111.713 290.174 112.392 290.813 112.392Z" fill="#3F3D56"/>
<path d="M290.813 110.541C291.452 110.541 291.97 109.862 291.97 109.025C291.97 108.188 291.452 107.51 290.813 107.51C290.174 107.51 289.656 108.188 289.656 109.025C289.656 109.862 290.174 110.541 290.813 110.541Z" fill="#3F3D56"/>
<path d="M290.813 108.69C291.452 108.69 291.97 108.011 291.97 107.174C291.97 106.337 291.452 105.659 290.813 105.659C290.174 105.659 289.656 106.337 289.656 107.174C289.656 108.011 290.174 108.69 290.813 108.69Z" fill="#3F3D56"/>
<path d="M290.813 106.839C291.452 106.839 291.97 106.16 291.97 105.323C291.97 104.486 291.452 103.808 290.813 103.808C290.174 103.808 289.656 104.486 289.656 105.323C289.656 106.16 290.174 106.839 290.813 106.839Z" fill="#3F3D56"/>
<path d="M296.331 102.94C296.331 103.023 296.331 103.111 296.331 103.192C296.331 103.273 296.331 103.301 296.331 103.355C296.331 103.408 296.331 103.436 296.331 103.476C296.331 103.517 296.331 103.543 296.331 103.575C296.331 103.607 296.316 103.692 296.308 103.752C296.308 103.776 296.308 103.799 296.308 103.825C296.308 103.889 296.286 103.947 296.274 104.009C296.268 104.045 296.261 104.08 296.252 104.115C296.237 104.195 296.218 104.269 296.197 104.346C296.175 104.423 296.156 104.502 296.132 104.575C296.08 104.753 296.016 104.927 295.942 105.097C295.908 105.182 295.872 105.263 295.831 105.345C295.79 105.426 295.758 105.492 295.72 105.558C295.681 105.625 295.658 105.674 295.626 105.729C295.594 105.785 295.562 105.836 295.525 105.89C295.489 105.943 295.5 105.932 295.485 105.956C295.47 105.979 295.425 106.048 295.395 106.091C295.365 106.133 295.376 106.118 295.363 106.133C295.326 106.189 295.286 106.244 295.243 106.298C295.032 106.575 294.795 106.832 294.535 107.065C294.48 107.116 294.424 107.164 294.366 107.211L294.347 107.226L294.195 107.347L294.114 107.405C294.065 107.444 294.012 107.48 293.96 107.514C293.718 107.681 293.462 107.828 293.195 107.952C293.125 107.987 293.054 108.018 292.981 108.044C292.913 108.074 292.844 108.102 292.767 108.125C292.69 108.149 292.68 108.162 292.635 108.175L292.558 108.202L292.344 108.262L292.13 108.32C292.103 108.328 292.076 108.333 292.049 108.337L291.867 108.375C291.734 108.403 291.602 108.427 291.467 108.442H291.446C291.399 108.442 291.35 108.455 291.303 108.457C291.247 108.464 291.192 108.468 291.136 108.47H291.027C290.952 108.47 290.875 108.47 290.798 108.47C290.721 108.47 290.648 108.47 290.584 108.47H290.501C290.446 108.469 290.391 108.464 290.336 108.457C290.29 108.456 290.245 108.451 290.199 108.444C290.06 108.429 289.924 108.412 289.789 108.384C289.716 108.371 289.646 108.354 289.575 108.337C289.559 108.336 289.543 108.333 289.528 108.326C289.228 108.256 288.935 108.161 288.651 108.042C288.498 107.979 288.348 107.907 288.202 107.828C288.134 107.792 288.063 107.753 287.989 107.713L287.839 107.621C287.741 107.561 287.644 107.495 287.55 107.426C287.512 107.399 287.473 107.371 287.435 107.339C287.407 107.32 287.379 107.299 287.354 107.277C287.313 107.243 287.272 107.213 287.232 107.176C287.219 107.169 287.208 107.16 287.2 107.149C287.146 107.106 287.095 107.057 287.044 107.012C286.87 106.851 286.706 106.68 286.554 106.499C286.503 106.439 286.454 106.377 286.406 106.317C286.359 106.257 286.338 106.227 286.308 106.182C286.278 106.138 286.257 106.112 286.233 106.078C286.21 106.043 286.167 105.981 286.135 105.93C286.103 105.879 286.056 105.802 286.017 105.738C285.94 105.61 285.87 105.477 285.804 105.342C285.774 105.28 285.746 105.221 285.72 105.156C285.671 105.05 285.626 104.943 285.585 104.821C285.556 104.744 285.53 104.665 285.506 104.586C285.483 104.507 285.455 104.415 285.434 104.327C285.433 104.324 285.433 104.32 285.434 104.316C285.414 104.239 285.395 104.16 285.38 104.086C285.365 104.011 285.352 103.953 285.344 103.887C285.335 103.821 285.322 103.767 285.314 103.707C285.313 103.692 285.313 103.676 285.314 103.66C285.301 103.59 285.295 103.515 285.288 103.446C285.282 103.378 285.273 103.28 285.271 103.198C285.269 103.117 285.271 103.03 285.271 102.944C285.271 101.703 285.689 100.499 286.458 99.5242C286.364 99.4045 286.274 99.2826 286.193 99.1565C286.165 99.1159 286.139 99.0774 286.116 99.0368C286.092 98.9962 286.045 98.9214 286.013 98.8637C285.981 98.806 285.934 98.7269 285.895 98.6499C285.891 98.644 285.888 98.6375 285.885 98.6307C285.811 98.4916 285.744 98.3489 285.684 98.2032C285.662 98.1519 285.643 98.1028 285.624 98.0536C285.57 97.9104 285.523 97.7672 285.481 97.6261C285.432 97.458 285.393 97.2875 285.363 97.1152C285.352 97.0639 285.344 97.0105 285.337 96.9592C285.336 96.955 285.336 96.9506 285.337 96.9464C285.337 96.8951 285.32 96.8459 285.314 96.7946C285.299 96.6728 285.288 96.5467 285.282 96.4206C285.282 96.3842 285.282 96.35 285.282 96.3137C285.282 96.2453 285.282 96.179 285.282 96.1128C285.282 95.5087 285.381 94.9087 285.575 94.3365L289.785 95.7494L285.836 93.6953C286.013 93.337 286.228 92.9988 286.477 92.6864C285.864 91.9046 285.471 90.9728 285.34 89.9879C285.209 89.0029 285.345 88.0009 285.733 87.0862C288.284 89.2183 290.652 91.5599 292.812 94.0864C293.931 95.3931 294.991 96.7469 295.991 98.1476C295.798 98.6398 295.535 99.1013 295.209 99.5178L295.192 99.5391C295.94 100.514 296.341 101.711 296.331 102.94Z" fill="#6C63FF"/>
<path opacity="0.03" d="M285.243 96.0807C285.244 97.3215 285.662 98.5262 286.43 99.5006C285.787 100.318 285.387 101.3 285.275 102.334C285.164 103.369 285.346 104.413 285.8 105.349C286.255 106.284 286.964 107.073 287.846 107.625C288.727 108.177 289.747 108.47 290.787 108.47C291.828 108.47 292.847 108.177 293.729 107.625C294.611 107.073 295.32 106.284 295.774 105.349C296.229 104.413 296.411 103.369 296.299 102.334C296.188 101.3 295.788 100.318 295.145 99.5006C295.882 98.5644 285.243 95.4587 285.243 96.0807Z" fill="black"/>
<path opacity="0.3" d="M192.875 58.8629C190.421 59.6837 187.939 60.4183 185.431 61.0667C187.656 60.025 189.884 59.0097 192.114 58.0208C192.371 58.2986 192.615 58.5808 192.875 58.8629Z" fill="#6C63FF"/>
<path opacity="0.3" d="M129.311 32.0655C130.544 32.0056 131.785 31.9764 133.034 31.9778H133.147C131.625 32.9803 130.094 33.9422 128.552 34.8442C128.165 35.0579 127.778 35.2931 127.389 35.5089C127.096 35.6757 126.802 35.8388 126.508 35.9984C124.194 37.2595 121.863 38.4857 119.517 39.677C117.735 40.5805 115.947 41.4625 114.153 42.3232C111.808 43.4461 109.449 44.5284 107.076 45.5701C101.32 48.0901 95.513 50.358 89.6462 52.3052C94.5994 49.3128 99.5561 46.3916 104.516 43.5416C108.03 41.5309 111.548 39.5502 115.07 37.5994C115.453 37.3857 115.836 37.1719 116.218 36.9582C118.792 35.5332 121.371 34.1267 123.953 32.7388L124.55 32.416L129.311 32.0655Z" fill="#6C63FF"/>
<path opacity="0.3" d="M206.217 79.5708C206.817 80.9188 207.379 82.2868 207.904 83.6748C207.579 83.8308 207.262 83.9826 206.929 84.1365C199.409 87.6441 191.809 90.8075 184.148 93.5563C188.813 90.5168 193.48 87.5301 198.148 84.596C200.836 82.9046 203.526 81.2295 206.217 79.5708Z" fill="#6C63FF"/>
<path d="M208.827 184.164C208.789 178.91 208.066 173.731 205.973 169.043C205.611 168.22 205.206 167.417 204.759 166.637C204.106 165.504 203.371 164.421 202.559 163.396C201.928 162.598 201.255 161.834 200.542 161.107C198.781 159.322 196.841 157.721 194.753 156.332C191.278 153.981 187.423 152.087 183.56 150.492C178.764 148.51 173.834 146.867 168.807 145.576C168.212 145.425 167.614 145.277 167.014 145.132C166.828 145.084 166.642 145.042 166.453 144.997L165.848 144.858C165.502 144.777 165.16 144.702 164.814 144.625C163.782 144.398 162.747 144.185 161.709 143.984C159.912 143.642 158.107 143.345 156.296 143.094C152.379 142.556 148.436 142.22 144.491 141.932L142.591 141.795C140.897 141.675 139.204 141.555 137.511 141.436C135.815 141.308 134.122 141.173 132.431 141.008L132.022 140.987L131.229 140.908C130.528 140.835 129.824 140.762 129.123 140.681C127.768 140.527 126.414 140.35 125.061 140.149C123.557 139.925 122.056 139.662 120.558 139.358L120.312 139.307C119.915 139.226 119.517 139.138 119.121 139.05C118.886 138.999 118.653 138.946 118.42 138.89C116.983 138.552 115.558 138.17 114.144 137.744C112.17 137.149 110.231 136.445 108.335 135.635C107.703 135.365 107.079 135.08 106.462 134.78L106.21 134.654C102.695 132.979 99.4458 130.796 96.5671 128.175L96.3255 127.961L95.8124 127.47C95.5109 127.177 95.2158 126.875 94.9251 126.574C94.6343 126.273 94.3628 125.986 94.0848 125.687C92.4706 123.941 90.9611 122.089 89.4175 120.27C88.0812 118.699 86.7214 117.154 85.2461 115.713C84.9746 115.448 84.6988 115.192 84.4187 114.937C83.143 113.764 81.7847 112.683 80.3543 111.703C80.1533 111.565 79.9502 111.43 79.7471 111.297C78.946 110.767 78.1243 110.269 77.2819 109.801C76.4588 109.344 75.6164 108.916 74.7612 108.519C73.6209 107.989 72.4613 107.512 71.2825 107.089C69.2874 106.376 67.243 105.809 65.1656 105.394C62.1624 104.78 59.1035 104.481 56.0383 104.5C55.136 104.511 54.2338 104.547 53.3379 104.618L53.1519 104.635C53.1669 104.68 53.1818 104.725 53.1925 104.772C53.2327 104.796 53.2741 104.818 53.3165 104.838C53.2994 105.032 53.2845 105.227 53.2695 105.419C53.2808 105.591 53.2678 105.764 53.231 105.932C53.0771 107.927 53.0001 109.946 53.0001 111.99C52.9789 124.903 56.1004 137.628 62.0954 149.067L62.1787 149.225C68.2511 160.735 77.0293 170.598 87.7583 177.965C96.2892 183.839 105.886 187.99 116.008 190.185L117.777 190.547C120.22 191.02 122.702 191.376 125.223 191.615C127.789 191.863 130.392 191.988 133.034 191.989C136.705 191.991 140.371 191.741 144.008 191.241H208.526C208.723 188.899 208.844 186.515 208.827 184.164Z" fill="#3F3D56"/>
<path opacity="0.1" d="M68.1909 78.3204C67.9451 78.2729 67.6951 78.25 67.4448 78.252C66.925 78.2552 66.4114 78.3643 65.9353 78.5726C65.8883 78.5918 65.8412 78.6132 65.792 78.6303C65.4091 78.7799 65.0016 78.8567 64.5905 78.8569C64.2533 78.8564 63.9182 78.8052 63.5963 78.7051C63.5407 78.6859 63.483 78.6666 63.4274 78.6431C63.3718 78.6196 63.2948 78.594 63.2307 78.564L63.0639 78.4956L62.9035 78.4401C62.0673 78.1628 61.1608 78.1832 60.3379 78.4978C61.0506 76.9502 61.8117 75.4312 62.6213 73.9407C63.0357 74.2734 63.39 74.6747 63.669 75.127C63.8947 75.4897 64.2099 75.7883 64.5843 75.9942C64.9587 76.2 65.3797 76.3062 65.807 76.3026H65.8391C65.9618 76.3028 66.0843 76.315 66.2047 76.3389C66.43 76.3826 66.6466 76.4627 66.8461 76.5762C67.4837 76.9835 67.9593 77.6003 68.1909 78.3204Z" fill="#6C63FF"/>
<path opacity="0.1" d="M72.6702 75.1869C72.6702 77.2175 71.4921 78.8634 70.0404 78.8634C69.7246 78.8623 69.4136 78.7853 69.1338 78.6389C68.6129 78.3806 68.0368 78.253 67.4555 78.267C66.9477 78.2705 66.4456 78.3743 65.9781 78.5727C65.9118 78.6005 65.8477 78.6282 65.7792 78.6518C65.4124 78.7909 65.0235 78.8633 64.6311 78.8655C64.3232 78.8656 64.0167 78.8231 63.7203 78.7394L63.5963 78.7009C63.5407 78.6817 63.483 78.6624 63.4274 78.6389C63.3713 78.6199 63.3164 78.5978 63.2628 78.5727L63.2221 78.5577C63.1666 78.5321 63.1131 78.5128 63.0554 78.4893L62.895 78.4337L62.7475 78.391C61.9406 78.166 61.082 78.2149 60.3058 78.5299C60.3107 78.5167 60.3164 78.5039 60.323 78.4915C61.0356 76.9439 61.7968 75.4249 62.6064 73.9343C63.3675 72.5279 64.17 71.1464 65.0138 69.7898C65.2704 69.3794 65.5291 68.9733 65.7921 68.5671C66.4441 68.822 67.0182 69.2427 67.4576 69.7876L66.6601 71.2368L67.9237 70.4353C68.2262 70.8716 68.6598 71.2003 69.1616 71.3736L68.858 71.9273L69.5657 71.4762C69.707 71.5003 69.8501 71.5117 69.9933 71.5104H70.0275C70.4863 71.5155 70.9302 71.6735 71.289 71.9593L70.4338 73.5304L70.0318 74.2635L71.7423 73.182L72.1228 72.9404C72.1583 73.0013 72.1904 73.0641 72.219 73.1285C72.5227 73.7719 72.677 74.4756 72.6702 75.1869Z" fill="#6C63FF"/>
<path d="M264.412 149.468C268.638 149.468 272.064 144.985 272.064 139.454C272.064 133.924 268.638 129.44 264.412 129.44C260.186 129.44 256.76 133.924 256.76 139.454C256.76 144.985 260.186 149.468 264.412 149.468Z" fill="#2F2E41"/>
<path d="M264.412 137.227C268.638 137.227 272.064 132.744 272.064 127.213C272.064 121.682 268.638 117.199 264.412 117.199C260.186 117.199 256.76 121.682 256.76 127.213C256.76 132.744 260.186 137.227 264.412 137.227Z" fill="#2F2E41"/>
<path d="M264.412 124.988C268.638 124.988 272.064 120.504 272.064 114.974C272.064 109.443 268.638 104.96 264.412 104.96C260.186 104.96 256.76 109.443 256.76 114.974C256.76 120.504 260.186 124.988 264.412 124.988Z" fill="#2F2E41"/>
<path d="M264.412 112.749C268.638 112.749 272.064 108.265 272.064 102.735C272.064 97.2042 268.638 92.7207 264.412 92.7207C260.186 92.7207 256.76 97.2042 256.76 102.735C256.76 108.265 260.186 112.749 264.412 112.749Z" fill="#2F2E41"/>
<path d="M264.412 100.507C268.638 100.507 272.064 96.024 272.064 90.4933C272.064 84.9627 268.638 80.4792 264.412 80.4792C260.186 80.4792 256.76 84.9627 256.76 90.4933C256.76 96.024 260.186 100.507 264.412 100.507Z" fill="#2F2E41"/>
<path d="M257.462 74.0625C256.99 75.4103 256.752 76.8284 256.756 78.2562C256.734 80.4016 257.285 82.5139 258.351 84.3758C259.749 86.7441 261.943 88.2703 264.408 88.2703C266.873 88.2703 269.065 86.7441 270.465 84.3758C271.491 82.5861 272.04 80.5627 272.058 78.4999C269.884 77.5149 267.651 76.664 265.372 75.952C263.79 75.4561 262.181 75.0286 260.545 74.6695L257.462 74.0625Z" fill="#2F2E41"/>
<path d="M260.549 74.6631C262.184 75.025 263.793 75.4525 265.377 75.9456C265.058 75.9978 264.735 76.0243 264.412 76.0247C263.009 76.0132 261.649 75.534 260.549 74.6631Z" fill="#2F2E41"/>
<path d="M121.805 147.759C126.031 147.759 129.457 143.275 129.457 137.745C129.457 132.214 126.031 127.73 121.805 127.73C117.578 127.73 114.153 132.214 114.153 137.745C114.153 143.275 117.578 147.759 121.805 147.759Z" fill="#3F3D56"/>
<path d="M121.805 135.517C126.031 135.517 129.457 131.034 129.457 125.503C129.457 119.972 126.031 115.489 121.805 115.489C117.578 115.489 114.153 119.972 114.153 125.503C114.153 131.034 117.578 135.517 121.805 135.517Z" fill="#3F3D56"/>
<path d="M121.805 123.278C126.031 123.278 129.457 118.794 129.457 113.264C129.457 107.733 126.031 103.25 121.805 103.25C117.578 103.25 114.153 107.733 114.153 113.264C114.153 118.794 117.578 123.278 121.805 123.278Z" fill="#3F3D56"/>
<path d="M121.805 111.039C126.031 111.039 129.457 106.555 129.457 101.025C129.457 95.4942 126.031 91.0107 121.805 91.0107C117.578 91.0107 114.153 95.4942 114.153 101.025C114.153 106.555 117.578 111.039 121.805 111.039Z" fill="#3F3D56"/>
<path d="M121.805 98.7975C126.031 98.7975 129.457 94.314 129.457 88.7834C129.457 83.2527 126.031 78.7693 121.805 78.7693C117.578 78.7693 114.153 83.2527 114.153 88.7834C114.153 94.314 117.578 98.7975 121.805 98.7975Z" fill="#3F3D56"/>
<path d="M121.805 86.5582C126.031 86.5582 129.457 82.0747 129.457 76.5441C129.457 71.0135 126.031 66.53 121.805 66.53C117.578 66.53 114.153 71.0135 114.153 76.5441C114.153 82.0747 117.578 86.5582 121.805 86.5582Z" fill="#3F3D56"/>
<path d="M121.805 74.3192C126.031 74.3192 129.457 69.8357 129.457 64.3051C129.457 58.7745 126.031 54.291 121.805 54.291C117.578 54.291 114.153 58.7745 114.153 64.3051C114.153 69.8357 117.578 74.3192 121.805 74.3192Z" fill="#3F3D56"/>
<path d="M121.805 64.6107C126.031 64.6107 129.457 60.1272 129.457 54.5966C129.457 49.066 126.031 44.5825 121.805 44.5825C117.578 44.5825 114.153 49.066 114.153 54.5966C114.153 60.1272 117.578 64.6107 121.805 64.6107Z" fill="#3F3D56"/>
<path d="M118.563 33.2838C117.398 34.025 116.432 35.0389 115.748 36.2378C115.489 36.6744 115.262 37.1295 115.07 37.5994C114.46 39.0996 114.149 40.704 114.153 42.3232V42.3574C114.131 44.5027 114.681 46.6151 115.748 48.477C117.146 50.8453 119.339 52.3715 121.805 52.3715C124.27 52.3715 126.461 50.8453 127.862 48.477C128.908 46.6068 129.457 44.5 129.457 42.3574C129.457 40.2148 128.908 38.108 127.862 36.2378C127.712 35.9856 127.554 35.7419 127.389 35.5089C126.539 34.2718 125.344 33.3109 123.953 32.7452C123.765 32.6712 123.573 32.6077 123.378 32.5549L118.563 33.2838Z" fill="#3F3D56"/>
<path d="M72.6295 117.62C76.8557 117.62 80.2816 113.137 80.2816 107.606C80.2816 102.075 76.8557 97.592 72.6295 97.592C68.4034 97.592 64.9775 102.075 64.9775 107.606C64.9775 113.137 68.4034 117.62 72.6295 117.62Z" fill="#3F3D56"/>
<path d="M72.6295 105.379C76.8557 105.379 80.2816 100.895 80.2816 95.3647C80.2816 89.834 76.8557 85.3506 72.6295 85.3506C68.4034 85.3506 64.9775 89.834 64.9775 95.3647C64.9775 100.895 68.4034 105.379 72.6295 105.379Z" fill="#3F3D56"/>
<path d="M72.6295 93.1395C76.8557 93.1395 80.2816 88.656 80.2816 83.1254C80.2816 77.5948 76.8557 73.1113 72.6295 73.1113C68.4034 73.1113 64.9775 77.5948 64.9775 83.1254C64.9775 88.656 68.4034 93.1395 72.6295 93.1395Z" fill="#3F3D56"/>
<path d="M80.2816 70.8778C80.3031 73.0231 79.7526 75.1354 78.6866 76.9974C77.2862 79.3657 75.0947 80.894 72.6295 80.894C70.6348 80.894 68.8196 79.8937 67.4555 78.2585V78.2435C67.1312 77.8527 66.8394 77.4359 66.5832 76.9974C66.4527 76.7836 66.3309 76.5549 66.2154 76.3241C65.3898 74.6277 64.9648 72.7644 64.9732 70.8778C64.9732 70.5073 64.9882 70.1418 65.0181 69.7813C65.2747 69.3709 65.5334 68.9647 65.7964 68.5586C66.3416 67.7036 66.906 66.8807 67.4854 66.0556C68.7012 64.32 69.9841 62.6364 71.3339 61.0048C71.7549 60.9097 72.1851 60.8617 72.6167 60.8616C75.0819 60.8616 77.2734 62.3877 78.6738 64.7582C79.7439 66.6191 80.2989 68.7314 80.2816 70.8778Z" fill="#3F3D56"/>
<path d="M80.2816 58.647C80.3023 60.7922 79.7518 62.9042 78.6866 64.7666C77.2862 67.1349 75.0926 68.6589 72.6295 68.6589C70.6497 68.6589 68.8473 67.6778 67.4982 66.064C68.7141 64.3284 69.9969 62.6448 71.3467 61.0132C73.6951 58.1716 76.2383 55.4968 78.9582 53.0083C79.8439 54.755 80.2977 56.6887 80.2816 58.647Z" fill="#3F3D56"/>
<path d="M117.783 190.549C120.226 191.022 122.708 191.378 125.23 191.617C127.795 191.868 130.399 191.994 133.04 191.994C136.711 191.994 140.378 191.743 144.015 191.243H238.166C238.42 191.284 238.675 191.325 238.931 191.361C252.082 193.291 265.501 190.76 277.045 184.174C288.589 177.588 297.594 167.325 302.621 155.024C300.952 153.94 299.271 152.886 297.571 151.854C295.872 150.822 294.133 149.845 292.355 148.915C292.087 148.772 291.818 148.633 291.546 148.487C288.268 146.791 284.861 145.354 281.359 144.189C279.84 143.691 278.31 143.259 276.77 142.906C276.042 142.737 275.311 142.586 274.579 142.453C273.658 142.284 272.732 142.145 271.799 142.039C269.357 141.746 266.892 141.693 264.44 141.88C263.99 141.915 263.538 141.96 263.085 142.015C262.214 142.116 261.345 142.253 260.478 142.425C259.409 142.639 258.357 142.901 257.323 143.212C248.407 145.86 240.684 151.779 232.688 156.717L232.382 156.907C224.094 161.982 215.228 166.047 205.973 169.016C204.247 169.571 202.509 170.089 200.761 170.568C198.765 171.115 196.762 171.613 194.753 172.064C194.37 172.149 193.985 172.233 193.602 172.312C192.064 172.641 190.521 172.939 188.971 173.205C179.527 174.847 169.924 175.387 160.356 174.813C158.93 174.727 157.501 174.615 156.069 174.477C154.172 174.295 152.28 174.066 150.395 173.791L150.005 173.735C148.374 173.494 146.743 173.218 145.114 172.942C143.159 172.613 141.205 172.288 139.249 172.023C138.586 171.931 137.925 171.85 137.263 171.775C135.18 171.533 133.084 171.417 130.988 171.429C130.656 171.429 130.325 171.442 129.991 171.457C126.414 171.596 122.786 172.29 119.549 173.725L119.365 173.806C117.654 174.566 116.061 175.567 114.634 176.779C114.226 177.127 113.833 177.496 113.453 177.886C110.691 180.736 109.038 184.23 107.681 187.885C110.416 188.8 113.2 189.563 116.019 190.172L117.783 190.549Z" fill="#5A5972"/>
<path opacity="0.6" d="M136.17 75.7832C136.406 75.7832 136.598 75.5918 136.598 75.3557C136.598 75.1196 136.406 74.9282 136.17 74.9282C135.934 74.9282 135.743 75.1196 135.743 75.3557C135.743 75.5918 135.934 75.7832 136.17 75.7832Z" fill="white"/>
<path opacity="0.6" d="M92.7678 76.2107C93.004 76.2107 93.1954 76.0193 93.1954 75.7832C93.1954 75.5471 93.004 75.3557 92.7678 75.3557C92.5317 75.3557 92.3402 75.5471 92.3402 75.7832C92.3402 76.0193 92.5317 76.2107 92.7678 76.2107Z" fill="white"/>
<path opacity="0.6" d="M184.49 98.4404C184.726 98.4404 184.918 98.249 184.918 98.0129C184.918 97.7768 184.726 97.5854 184.49 97.5854C184.254 97.5854 184.062 97.7768 184.062 98.0129C184.062 98.249 184.254 98.4404 184.49 98.4404Z" fill="white"/>
<path opacity="0.6" d="M216.988 83.478C217.224 83.478 217.416 83.2866 217.416 83.0505C217.416 82.8144 217.224 82.623 216.988 82.623C216.752 82.623 216.561 82.8144 216.561 83.0505C216.561 83.2866 216.752 83.478 216.988 83.478Z" fill="white"/>
<path d="M117.783 190.549C118.295 188.61 118.553 186.613 118.551 184.608C118.551 184.091 118.531 183.578 118.499 183.07C119.162 180.875 119.497 178.595 119.493 176.302C119.493 175.473 119.45 174.645 119.363 173.821C119.363 173.776 119.352 173.729 119.348 173.684C119.043 170.944 118.246 168.282 116.996 165.824L107.307 168.842L103.554 170.01L106.383 168.347L115.363 163.071C113.381 160.209 110.782 157.828 107.757 156.105C104.733 154.381 101.359 153.359 97.8863 153.113C97.3341 152.275 96.7285 151.473 96.0732 150.712L88.6136 153.032L76.7325 156.721L86.9267 150.736L92.5754 147.399C88.1616 144.018 82.6821 142.33 77.1303 142.641C71.5785 142.952 66.3219 145.242 62.3135 149.094L62.1809 149.225C68.2528 160.737 77.0309 170.603 87.7605 177.974C96.2913 183.845 105.887 187.994 116.008 190.187L117.783 190.549Z" fill="#2F2E41"/>
<path d="M162.081 191.252H144.162C146.257 187.804 149.492 185.592 153.123 185.592C156.753 185.592 159.988 187.798 162.081 191.252Z" fill="#3F3D56"/>
<path opacity="0.1" d="M162.081 191.252H144.162C146.257 187.804 149.492 185.592 153.123 185.592C156.753 185.592 159.988 187.798 162.081 191.252Z" fill="black"/>
<path d="M117.783 190.549C120.226 191.022 122.708 191.378 125.23 191.617C127.795 191.868 130.399 191.994 133.04 191.994C136.711 191.994 140.378 191.743 144.015 191.243H185.64C187.213 188.046 188.031 184.53 188.031 180.966C188.031 180.449 188.011 179.936 187.979 179.427C188.593 177.413 188.929 175.325 188.98 173.22C188.98 173.036 188.98 172.852 188.98 172.669C188.984 169.03 188.131 165.442 186.489 162.195L173.019 166.38L184.834 159.435C182.853 156.573 180.254 154.193 177.229 152.469C174.204 150.745 170.831 149.723 167.358 149.477C167.073 149.037 166.768 148.609 166.445 148.194C166.357 148.079 166.267 147.964 166.178 147.85C165.972 147.59 165.759 147.334 165.536 147.083L164.993 147.252L146.219 153.087L161.694 143.979L162.062 143.766C159.548 141.842 156.668 140.452 153.597 139.681C150.527 138.909 147.332 138.771 144.207 139.277C143.852 139.33 143.499 139.397 143.149 139.471C140.016 140.125 137.053 141.42 134.447 143.276C130.048 146.402 126.87 150.956 125.456 156.163L130.374 161.817L132.157 163.871L136.142 168.458L139.251 172.034L142.02 175.221L137.261 171.79L130.579 166.966L124.028 162.236C121.693 163.892 119.682 165.963 118.097 168.347C116.391 170.904 115.213 173.777 114.631 176.796C113.767 181.299 114.246 185.956 116.008 190.189L117.783 190.549Z" fill="#2F2E41"/>
<path d="M197.549 183.412C198.928 181.122 197.624 178.179 196.068 176.01C194.511 173.84 192.6 171.566 192.766 168.903C193.008 165.072 197.184 162.999 200.53 161.12C203.012 159.724 205.321 158.04 207.408 156.101C208.244 155.323 209.056 154.487 209.571 153.47C210.313 152.004 210.375 150.298 210.41 148.652C210.519 143.177 210.503 137.701 210.36 132.223L197.549 183.412Z" fill="#2F2E41"/>
<path d="M286.441 122.846C287.246 124.667 288.036 126.495 288.812 128.329C290.167 131.541 291.475 134.772 292.735 138.022C293.329 139.555 293.922 141.156 293.804 142.795C293.714 143.935 293.282 145.016 292.803 146.053L292.759 146.151C292.387 146.951 291.986 147.734 291.557 148.502C290.841 149.788 290.046 151.029 289.177 152.217C288.911 152.585 288.636 152.947 288.354 153.303C287.255 154.695 286.002 156.193 285.107 157.76C284.384 159.012 283.884 160.31 283.858 161.633C283.844 162.252 283.939 162.868 284.138 163.454C284.993 165.983 287.632 167.355 289.898 168.77C290.976 169.421 291.947 170.235 292.776 171.183" stroke="#2F2E41" stroke-width="4" stroke-miterlimit="10"/>
<path d="M286.629 128.741C289.935 128.741 292.615 126.062 292.615 122.756C292.615 119.451 289.935 116.771 286.629 116.771C283.323 116.771 280.642 119.451 280.642 122.756C280.642 126.062 283.323 128.741 286.629 128.741Z" fill="#2F2E41"/>
<path d="M297.21 138.717C300.516 138.717 303.197 136.037 303.197 132.732C303.197 129.427 300.516 126.747 297.21 126.747C293.904 126.747 291.223 129.427 291.223 132.732C291.223 136.037 293.904 138.717 297.21 138.717Z" fill="#2F2E41"/>
<path d="M286.787 152.715C290.093 152.715 292.774 150.036 292.774 146.73C292.774 143.425 290.093 140.745 286.787 140.745C283.481 140.745 280.8 143.425 280.8 146.73C280.8 150.036 283.481 152.715 286.787 152.715Z" fill="#2F2E41"/>
<path d="M289.832 167.41C293.138 167.41 295.818 164.731 295.818 161.425C295.818 158.12 293.138 155.44 289.832 155.44C286.525 155.44 283.845 158.12 283.845 161.425C283.845 164.731 286.525 167.41 289.832 167.41Z" fill="#2F2E41"/>
<path d="M236.99 163.086C237.392 160.446 235.066 158.221 232.801 156.806C230.537 155.391 227.892 154.025 227.037 151.488C225.803 147.855 228.874 144.351 231.253 141.34C233.019 139.102 234.513 136.662 235.703 134.072C236.182 133.035 236.613 131.954 236.703 130.817C236.832 129.177 236.239 127.576 235.634 126.044C233.657 120.935 231.559 115.876 229.34 110.868" stroke="#2F2E41" stroke-width="4" stroke-miterlimit="10"/>
<path d="M229.543 116.772C232.849 116.772 235.529 114.092 235.529 110.787C235.529 107.481 232.849 104.802 229.543 104.802C226.237 104.802 223.556 107.481 223.556 110.787C223.556 114.092 226.237 116.772 229.543 116.772Z" fill="#2F2E41"/>
<path d="M240.124 126.747C243.43 126.747 246.111 124.067 246.111 120.762C246.111 117.457 243.43 114.777 240.124 114.777C236.818 114.777 234.138 117.457 234.138 120.762C234.138 124.067 236.818 126.747 240.124 126.747Z" fill="#2F2E41"/>
<path d="M229.701 140.745C233.007 140.745 235.688 138.066 235.688 134.76C235.688 131.455 233.007 128.775 229.701 128.775C226.395 128.775 223.715 131.455 223.715 134.76C223.715 138.066 226.395 140.745 229.701 140.745Z" fill="#2F2E41"/>
<path d="M232.746 155.441C236.052 155.441 238.732 152.761 238.732 149.456C238.732 146.15 236.052 143.471 232.746 143.471C229.439 143.471 226.759 146.15 226.759 149.456C226.759 152.761 229.439 155.441 232.746 155.441Z" fill="#2F2E41"/>
<path d="M132.292 142.947C132.916 142.009 132.424 140.743 131.811 139.799C131.197 138.854 130.434 137.862 130.556 136.742C130.729 135.132 132.529 134.339 133.977 133.611C135.049 133.071 136.054 132.406 136.97 131.629C137.351 131.332 137.678 130.97 137.934 130.56C138.274 129.955 138.332 129.237 138.379 128.547C138.533 126.241 138.631 123.933 138.674 121.624" stroke="#3F3D56" stroke-width="4" stroke-miterlimit="10"/>
<path d="M138.761 124.148C140.156 124.148 141.287 123.018 141.287 121.623C141.287 120.229 140.156 119.099 138.761 119.099C137.367 119.099 136.236 120.229 136.236 121.623C136.236 123.018 137.367 124.148 138.761 124.148Z" fill="#3F3D56"/>
<path d="M141.03 129.847C142.424 129.847 143.555 128.716 143.555 127.322C143.555 125.928 142.424 124.798 141.03 124.798C139.635 124.798 138.505 125.928 138.505 127.322C138.505 128.716 139.635 129.847 141.03 129.847Z" fill="#3F3D56"/>
<path d="M134.552 133.343C135.946 133.343 137.077 132.213 137.077 130.819C137.077 129.425 135.946 128.295 134.552 128.295C133.157 128.295 132.027 129.425 132.027 130.819C132.027 132.213 133.157 133.343 134.552 133.343Z" fill="#3F3D56"/>
<path d="M133.098 139.504C134.492 139.504 135.623 138.373 135.623 136.979C135.623 135.585 134.492 134.455 133.098 134.455C131.703 134.455 130.573 135.585 130.573 136.979C130.573 138.373 131.703 139.504 133.098 139.504Z" fill="#3F3D56"/>
<g opacity="0.1">
<path opacity="0.1" d="M239.237 72.7139C238.7 73.4342 238.221 74.2699 238.275 75.1655C238.292 75.276 238.286 75.3887 238.258 75.4969C238.209 75.6056 238.136 75.7015 238.044 75.7769C237.301 76.4622 236.722 77.305 236.348 78.2435C236.273 78.4053 236.235 78.5822 236.237 78.7608C236.267 79.1092 236.543 79.3272 236.879 79.5025C237.203 78.9734 237.599 78.4915 238.054 78.0704C238.147 77.9958 238.22 77.9006 238.268 77.7925C238.296 77.6844 238.302 77.5716 238.285 77.4612C238.232 76.5656 238.713 75.7277 239.247 75.0095C239.782 74.2913 240.4 73.6052 240.701 72.7609C240.961 71.9363 240.988 71.056 240.778 70.2173C240.755 70.3006 240.729 70.384 240.701 70.4652C240.389 71.3053 239.771 71.9935 239.237 72.7139Z" fill="black"/>
<path opacity="0.1" d="M227.003 66.7888C227.108 66.7691 227.207 66.7217 227.288 66.6515C227.369 66.5813 227.43 66.4907 227.465 66.3891C227.471 66.348 227.471 66.3062 227.465 66.2651C227.42 66.2993 227.375 66.3293 227.33 66.3656C227.187 66.4767 227.074 66.6223 227.003 66.7888Z" fill="black"/>
<path opacity="0.1" d="M217.489 86.988C216.752 86.883 216.029 86.701 215.331 86.4451L208.973 84.3611C208.727 85.0497 208.441 85.7234 208.118 86.3789L215.321 88.7301C216.018 88.9879 216.741 89.17 217.478 89.273C218.18 89.3315 218.886 89.2977 219.58 89.1725C219.558 88.418 219.541 87.6507 219.524 86.8854C218.853 87.0072 218.169 87.0417 217.489 86.988Z" fill="black"/>
<path opacity="0.1" d="M234.907 93.9624C234.46 94.1762 233.964 94.3514 233.483 94.2446C232.714 94.0714 232.297 93.2549 231.987 92.5346L229.152 85.9618C228.53 84.5169 227.899 83.0121 227.668 81.4731C227.651 81.5822 227.634 81.6869 227.621 81.798C227.36 84.0232 228.262 86.2012 229.152 88.2596L231.987 94.8324C232.299 95.5591 232.716 96.3735 233.483 96.5424C233.964 96.6514 234.46 96.4697 234.907 96.2624C237.514 95.0397 239.611 92.7462 242.39 92.0109C242.284 91.2927 241.933 90.6386 241.535 89.9995C239.158 90.9251 237.24 92.8766 234.907 93.9624Z" fill="black"/>
<path opacity="0.1" d="M229.767 73.2866C228.662 74.4943 227.016 75.0094 225.568 75.7746C224.7 76.2342 223.888 76.7942 223.003 77.2452C222.118 77.6962 221.17 78.0361 220.187 78.0083C219.759 77.9955 219.274 77.9271 218.943 78.2007C219.011 78.9167 219.218 79.6093 219.336 80.3189C219.619 80.2808 219.906 80.275 220.191 80.3018C221.175 80.3317 222.135 79.9897 223.007 79.5387C223.879 79.0877 224.694 78.5277 225.573 78.0703C226.526 77.5659 227.565 77.1683 228.48 76.6125C228.938 75.5203 229.464 74.443 229.767 73.2866Z" fill="black"/>
</g>
<path d="M30.8778 349C30.7965 348.863 28.8797 345.568 28.2151 338.726C27.6056 332.449 27.9976 321.869 33.3276 307.11C43.4253 279.15 31.0006 256.591 30.8736 256.366L31.4866 256C31.5188 256.057 34.7248 261.809 36.6188 270.968C39.1213 283.11 38.2101 295.736 33.9918 307.364C23.9115 335.276 31.4057 348.49 31.4825 348.62L30.8778 349Z" fill="#3F3D56"/>
<path d="M26.5 254C28.9853 254 31 251.985 31 249.5C31 247.015 28.9853 245 26.5 245C24.0147 245 22 247.015 22 249.5C22 251.985 24.0147 254 26.5 254Z" fill="#6C63FF"/>
<path d="M41.5 272C43.9853 272 46 269.761 46 267C46 264.239 43.9853 262 41.5 262C39.0147 262 37 264.239 37 267C37 269.761 39.0147 272 41.5 272Z" fill="#3F3D56"/>
<path d="M31 284C33.7614 284 36 281.761 36 279C36 276.239 33.7614 274 31 274C28.2386 274 26 276.239 26 279C26 281.761 28.2386 284 31 284Z" fill="#6C63FF"/>
<path d="M43.5 294C45.9853 294 48 291.761 48 289C48 286.239 45.9853 284 43.5 284C41.0147 284 39 286.239 39 289C39 291.761 41.0147 294 43.5 294Z" fill="#6C63FF"/>
<path d="M27.5 309C29.9853 309 32 306.761 32 304C32 301.239 29.9853 299 27.5 299C25.0147 299 23 301.239 23 304C23 306.761 25.0147 309 27.5 309Z" fill="#3F3D56"/>
<path d="M33.7407 349C33.7407 349 29.1111 337.571 43 329L33.7407 349Z" fill="#3F3D56"/>
<path d="M28 349C28 349 25.826 336.897 9 337.001L28 349Z" fill="#3F3D56"/>
<path d="M303.372 345C303.421 344.917 304.583 342.921 304.985 338.777C305.354 334.974 305.117 328.565 301.888 319.624C295.771 302.687 303.298 289.021 303.375 288.885L303.003 288.664C302.984 288.698 301.042 292.182 299.894 297.73C298.378 305.086 298.93 312.734 301.486 319.778C307.592 336.687 303.052 344.691 303.006 344.77L303.372 345Z" fill="#3F3D56"/>
<path d="M306.024 287.452C304.519 287.452 303.298 286.231 303.298 284.726C303.298 283.22 304.519 282 306.024 282C307.53 282 308.75 283.22 308.75 284.726C308.75 286.231 307.53 287.452 306.024 287.452Z" fill="#6C63FF"/>
<path d="M296.937 298.356C295.432 298.356 294.212 297 294.212 295.327C294.212 293.654 295.432 292.298 296.937 292.298C298.443 292.298 299.663 293.654 299.663 295.327C299.663 297 298.443 298.356 296.937 298.356Z" fill="#3F3D56"/>
<path d="M303.298 305.625C301.625 305.625 300.269 304.269 300.269 302.596C300.269 300.923 301.625 299.567 303.298 299.567C304.971 299.567 306.327 300.923 306.327 302.596C306.327 304.269 304.971 305.625 303.298 305.625Z" fill="#6C63FF"/>
<path d="M295.726 311.683C294.22 311.683 293 310.327 293 308.654C293 306.981 294.22 305.625 295.726 305.625C297.231 305.625 298.452 306.981 298.452 308.654C298.452 310.327 297.231 311.683 295.726 311.683Z" fill="#6C63FF"/>
<path d="M305.418 320.769C303.913 320.769 302.692 319.413 302.692 317.74C302.692 316.067 303.913 314.711 305.418 314.711C306.924 314.711 308.144 316.067 308.144 317.74C308.144 319.413 306.924 320.769 305.418 320.769Z" fill="#3F3D56"/>
<path d="M301.638 345C301.638 345 304.442 338.077 296.029 332.885L301.638 345Z" fill="#3F3D56"/>
<path d="M305.115 345C305.115 345 306.432 337.668 316.625 337.731L305.115 345Z" fill="#3F3D56"/>
<path d="M128 281.358C128 281.358 144.771 273.516 152.648 281.8C160.525 290.084 131.557 287.357 128 281.358Z" fill="#3F3D56"/>
<path d="M156.803 246.633C151.256 237.462 140.282 237.035 140.282 237.035C140.282 237.035 129.588 235.697 122.728 249.664C116.334 262.682 107.509 275.251 121.307 278.299L123.8 270.709L125.343 278.864C127.308 279.002 129.279 279.035 131.247 278.963C146.023 278.496 160.096 279.099 159.643 273.911C159.041 267.014 162.141 255.457 156.803 246.633Z" fill="#2F2E41"/>
<path d="M157.9 346.764C158.273 346.633 158.64 346.495 159 346.343L158.918 346.218L157.9 346.156L151.311 345.769H151.305L150.198 345.707L144.957 345.396L133.544 344.719L127.429 344.359L127.12 344.339H127.044L122.738 344.083L121.334 344L120 349.348C122.692 349.967 125.416 350.41 128.157 350.675C128.266 350.694 128.375 350.705 128.485 350.71C130.515 350.903 132.576 351 134.65 351C138.518 351.004 142.379 350.662 146.196 349.977C147.448 349.763 148.687 349.507 149.914 349.21C150.135 349.162 150.357 349.107 150.572 349.051L150.673 349.031L150.717 349.017H150.723C152.367 348.602 153.99 348.125 155.592 347.586L157.9 346.764Z" fill="#2F2E41"/>
<path d="M130.658 267.688C130.658 267.688 133.256 283.797 128.06 285.749C122.865 287.702 138.452 296 138.452 296H147.285L153 284.773C153 284.773 147.804 275.986 150.922 267.688C154.039 259.39 130.658 267.688 130.658 267.688Z" fill="#D19FA6"/>
<path d="M160 347.176V288.964C160 288.964 159.348 282.985 154.175 284.54C153.646 284.704 153.133 284.911 152.64 285.16C151.784 285.608 150.967 286.124 150.198 286.702C149.904 286.919 149.603 287.155 149.29 287.409C149.264 287.427 149.239 287.452 149.213 287.471C139.456 295.432 134.839 289.961 133.81 288.964C133.433 288.604 132.448 287.582 131.342 286.43V286.424C130.862 285.928 130.363 285.407 129.89 284.899C128.426 283.369 127.134 282 127.134 282L122 285.978L123.253 316.137L123.547 323.249V323.256L123.643 325.467V325.48L124.443 344.772L124.564 347.684C126.302 348.22 128.067 348.671 129.852 349.035C130.376 349.14 130.933 349.245 131.502 349.345C135.952 350.125 141.553 350.528 145.108 348.675C145.826 348.302 146.58 347.997 147.359 347.765C148.905 347.315 150.514 347.099 152.129 347.127C152.474 347.133 152.813 347.145 153.152 347.164H153.158C154.683 347.268 156.193 347.519 157.666 347.913L160 347.176Z" fill="#3F3D56"/>
<path d="M134.936 345.704C133.81 347.136 132.555 348.465 131.186 349.673C130.765 350.054 130.344 350.422 129.916 350.785C129.829 350.859 129.742 350.926 129.656 351C124.2 350.511 118.822 349.391 113.629 347.664C112.86 347.406 112.092 347.135 111.336 346.847C111.814 345.645 112.19 344.406 112.458 343.142C115.885 327.216 105.919 303.046 105.052 299.169C104.736 297.774 105.901 295.839 107.766 293.78C111.838 289.301 119.244 284.239 121.977 282.887C124.049 281.968 126.37 281.756 128.577 282.285H128.583C129.276 282.425 129.954 282.627 130.61 282.887V282.893C130.616 282.985 130.684 283.686 130.802 284.884C130.864 285.541 130.938 286.34 131.031 287.274V287.28C131.199 289.025 131.409 291.2 131.657 293.682V293.688C133.151 308.981 135.853 335.597 136.907 340.125C137.297 341.802 136.429 343.744 134.936 345.704Z" fill="#D0CDE1"/>
<path d="M159.934 347.122C160.296 347.004 160.653 346.88 161.003 346.744C163.206 345.944 165.367 345.028 167.476 344.002C164.319 334.704 173.649 305.145 176.321 295.996V295.984C176.634 294.913 176.855 294.121 176.953 293.681C177.942 289.205 162.895 284.984 162.403 283.987C162.022 283.232 155.911 282.47 153.031 282.155C152.14 282.056 151.557 282 151.557 282C150.795 282.594 150.211 284.303 149.757 286.785C149.714 286.983 149.677 287.194 149.646 287.404C149.321 289.323 149.069 291.644 148.866 294.251C147.749 308.463 148.129 330.922 147.11 340.17C146.903 342.08 146.988 344.011 147.362 345.896C147.474 346.508 147.617 347.113 147.792 347.71C148.006 348.487 148.264 349.252 148.565 350C149.782 349.808 150.985 349.579 152.177 349.313C152.392 349.27 152.607 349.22 152.816 349.17L152.914 349.152L152.957 349.14H152.963C154.56 348.768 156.136 348.341 157.692 347.858L159.934 347.122Z" fill="#D0CDE1"/>
<path d="M156 262C157.105 262 158 261.328 158 260.5C158 259.672 157.105 259 156 259C154.895 259 154 259.672 154 260.5C154 261.328 154.895 262 156 262Z" fill="#D19FA6"/>
<path d="M126.5 262C126.776 262 127 261.328 127 260.5C127 259.672 126.776 259 126.5 259C126.224 259 126 259.672 126 260.5C126 261.328 126.224 262 126.5 262Z" fill="#D19FA6"/>
<path d="M160.046 347.938C160.412 347.818 160.772 347.691 161.125 347.552C163.351 346.734 165.533 345.799 167.663 344.75C167.663 344.753 167.663 344.757 167.664 344.76C167.665 344.764 167.667 344.767 167.669 344.769C167.668 344.76 167.67 344.751 167.675 344.744C171.397 324.705 175.342 303.269 176.595 295.698V295.685C176.812 294.37 176.948 293.478 176.986 293.079C177.482 288 165.027 288 165.027 288L163.042 298.228L160.046 313.68L159.017 318.987L153.577 347.027L153.403 347.925L153 350H153.006C154.619 349.62 156.211 349.184 157.782 348.691L160.046 347.938Z" fill="#D0CDE1"/>
<path d="M129.677 350.969C124.205 350.473 118.809 349.34 113.6 347.591C113.208 346.079 112.816 344.549 112.425 343.013C107.569 323.946 103 303.773 103 299.99C103 296.861 105.182 294.603 107.719 293.036C110.133 291.625 112.753 290.6 115.484 290C115.484 290 117.075 296.625 119.363 306.18C120.588 311.281 122.005 317.215 123.478 323.424V323.43C125.194 330.633 126.991 338.198 128.657 345.265C128.924 346.409 129.19 347.537 129.453 348.649V348.673C129.457 348.681 129.459 348.69 129.459 348.698C129.509 348.904 129.559 349.109 129.608 349.314C129.72 349.799 129.832 350.278 129.938 350.751C129.963 350.832 129.981 350.913 130 351C129.892 350.996 129.784 350.985 129.677 350.969Z" fill="#D0CDE1"/>
<path opacity="0.2" d="M119 304L130 349C130 349 124.867 309.626 119 304Z" fill="black"/>
<path opacity="0.2" d="M162 299L159.234 314.176L158.283 319.388L153.266 346.925H153.26L153.105 347.807H153.1L152.733 349.845H152.727L152.687 349.857L152.596 349.876L152 350C152.052 349.304 152.115 348.559 152.183 347.77C152.206 347.478 152.229 347.18 152.258 346.869C153.334 334.178 155.631 312.256 159.234 303.075C160.081 300.913 161.003 299.46 162 299Z" fill="black"/>
<path d="M141 276C148.732 276 155 269.508 155 261.5C155 253.492 148.732 247 141 247C133.268 247 127 253.492 127 261.5C127 269.508 133.268 276 141 276Z" fill="#D19FA6"/>
<path d="M153.509 247.677L143.193 242L128.947 244.322L126 258L133.337 257.704L135.387 252.679V257.621L138.772 257.484L140.737 249.484L141.965 258L154 257.742L153.509 247.677Z" fill="#2F2E41"/>
<path d="M215.745 265C215.745 265 216.229 277.78 213.326 280.729C210.424 283.678 227.84 294 227.84 294L238 277.78C238 277.78 234.13 270.898 235.097 265L215.745 265Z" fill="#D19FA6"/>
<path d="M224 272C233.389 272 241 264.613 241 255.5C241 246.387 233.389 239 224 239C214.611 239 207 246.387 207 255.5C207 264.613 214.611 272 224 272Z" fill="#D19FA6"/>
<path d="M253.148 347.991C253.255 349.295 253.358 350.599 253.46 351.903C253.113 352.036 252.76 352.17 252.406 352.296C243.689 355.411 234.492 357.003 225.226 357C219.141 357.004 213.076 356.322 207.146 354.967C204.067 354.26 201.033 353.37 198.061 352.303L198.054 352.366C198.046 352.345 198.046 352.323 198.054 352.303C198.162 350.873 198.432 349.459 198.86 348.089V348.082C199.256 346.638 199.793 344.97 200.408 343.126C201.073 341.156 201.115 336.851 200.974 332.806C200.96 332.497 200.953 332.182 200.938 331.881C200.882 330.57 200.811 329.315 200.74 328.2C200.578 325.683 200.408 323.895 200.408 323.895L190 296.224L215.136 278.024C216.621 282.798 219.803 282.63 219.803 282.63C233.294 283.549 235.776 274.308 235.854 274.007V274L260 289.662L250.073 313.576C250.073 313.576 250.476 317.628 251.049 323.811C251.133 324.723 251.218 325.683 251.317 326.686C251.869 332.757 252.54 340.321 253.148 347.991Z" fill="#D0CDE1"/>
<path d="M201 327.398L200.511 331.046L200.392 331.965L198.318 347.548L198.304 347.612V347.62L197.515 351.935L197.508 352C197.501 351.979 197.501 351.956 197.508 351.935C193.781 350.548 190.163 348.872 186.682 346.923C185.774 346.42 184.88 345.896 184 345.351C184.58 343.492 185.266 341.669 186.053 339.893L187.478 328.49L187.918 325L200.162 327.248L201 327.398Z" fill="#D19FA6"/>
<path d="M196.618 295L189.485 295.689C189.485 295.689 184.812 328.095 186.288 328.095C187.764 328.095 204.488 331.772 204.98 330.852C205.472 329.933 196.618 295 196.618 295Z" fill="#D0CDE1"/>
<path d="M210.866 237.906L207.839 236.79C207.839 236.79 214.167 230.371 222.972 230.929L220.496 228.417C220.496 228.417 226.548 226.185 232.051 232.046C234.944 235.126 238.291 238.748 240.377 242.827H243.618L242.265 245.571L247 248.316L242.14 247.823C242.601 250.192 242.442 252.642 241.681 254.93L240.58 258C240.58 258 236.178 249.069 236.178 247.953V250.744C236.178 250.744 233.152 248.232 233.152 246.558L231.501 248.511L230.675 245.441L220.495 248.511L222.146 246L215.818 246.837L218.294 243.767C218.294 243.767 211.141 247.395 210.866 250.465C210.591 253.535 207.014 257.442 207.014 257.442L205.363 254.651C205.363 254.651 202.887 242.092 210.866 237.906Z" fill="#2F2E41"/>
<path d="M265.892 345.052C264.518 345.922 263.117 346.743 261.689 347.527C259.561 348.697 257.37 349.767 255.132 350.716V350.723C254.418 351.03 253.704 351.322 252.983 351.601C252.646 351.736 252.303 351.872 251.959 352L252.68 347.62L249.412 326.042L249 323.338L250.641 323.017L265.995 320V339.567C265.995 339.567 266.036 341.685 265.892 345.052Z" fill="#D19FA6"/>
<path d="M250.654 288L259.56 289.159C259.56 289.159 270.293 322.293 267.552 323.683C264.812 325.073 247 326 247 326L250.654 288Z" fill="#D0CDE1"/>
<g style="mix-blend-mode:multiply">
<rect width="360" height="360" fill="url(#paint1_linear)"/>
</g>
<defs>
<linearGradient id="paint0_linear" x1="180" y1="192" x2="180" y2="31.9756" gradientUnits="userSpaceOnUse">
<stop stop-color="#B4B0EF"/>
<stop offset="1" stop-color="#7118D8"/>
</linearGradient>
<linearGradient id="paint1_linear" x1="0" y1="0" x2="147.718" y2="432.503" gradientUnits="userSpaceOnUse">
<stop stop-color="#3E0382" stop-opacity="0.2"/>
<stop offset="1" stop-color="#FAC4BA" stop-opacity="0.37"/>
</linearGradient>
</defs>
</svg>
