<svg width="360" height="360" viewBox="0 0 360 360" fill="none" xmlns="http://www.w3.org/2000/svg">
<g clip-path="url(#clip0)">
<rect width="360" height="360" fill="white" fill-opacity="0.74"/>
<g style="mix-blend-mode:luminosity" opacity="0.5">
<path opacity="0.7" fill-rule="evenodd" clip-rule="evenodd" d="M210.746 268.385C215.176 268.156 220.655 270.742 221.127 275.557C221.471 279.056 221.365 282.545 221.896 286.039C222.321 288.831 223.219 291.512 224.445 294.055C225.623 296.501 228.068 298.583 228.704 301.196C229.109 302.86 228.882 305.202 228.323 306.831C227.644 308.811 228.005 308.654 229.359 310.316C232.013 313.572 234.402 316.91 236.092 320.799C238.526 326.4 240.121 332.947 239.218 339.078C239.103 339.856 238.967 342.65 237.895 342.845C236.697 343.064 237.257 341.466 237.321 340.95C237.729 337.656 238.091 334.777 237.599 331.433C235.703 318.527 226.445 310.024 220.416 299.071C220.085 298.506 219.385 297.161 218.899 296.273C218.131 294.872 217.359 292.207 216.319 291.168C214.361 289.211 216.161 293.145 216.543 293.896C217.025 294.846 217.556 295.856 218.05 296.689C220.312 300.547 222.836 304.76 225.172 308.737C215.07 311.039 207.955 298.894 205.243 290.909C203.01 284.33 200.337 268.948 210.746 268.385Z" fill="#69A1AC"/>
<path opacity="0.7" fill-rule="evenodd" clip-rule="evenodd" d="M270.124 256.168C262.718 256.756 257.964 261.643 255.75 268.478C254.557 272.162 254.421 275.946 253.758 279.731C252.761 285.426 250.615 289.742 246.422 293.8C245.123 295.057 244.166 296.347 243.486 297.727C242.135 299.105 240.96 300.665 240.096 302.572C238.992 305.007 238.68 307.929 239.954 310.356C240.297 311.009 241.151 312.319 242.037 312.914C238.721 319.976 236.898 327.709 237.104 335.433C237.228 340.095 237.455 344.759 237.721 349.416C237.793 350.666 238.2 352.731 238.811 350.634C239.371 348.716 238.669 345.705 238.604 343.701C238.288 333.94 238.018 325.065 242.036 315.945C242.457 314.989 242.904 314.041 243.37 313.1C243.397 313.084 243.422 313.065 243.448 313.047C243.466 313.06 243.482 313.075 243.499 313.088C243.529 313.035 243.57 312.972 243.617 312.902C243.751 312.764 243.867 312.59 243.978 312.396C244.335 311.902 244.738 311.322 244.74 311.004C244.74 311.002 244.739 310.998 244.739 310.995C247.226 306.935 250.075 303.098 252.986 299.336C252.964 299.364 256.142 295.036 255.651 297.429C255.414 298.583 253.076 300.779 252.132 302.001C250.043 304.718 247.59 308.162 245.552 311.492C245.277 311.65 244.89 312.424 244.61 313C244.455 313.292 244.311 313.587 244.169 313.843C251.391 316.229 257.009 311.423 260.84 305.832C260.845 305.826 260.849 305.819 260.853 305.812C262.019 304.267 263.213 302.734 264.705 301.512C267.194 299.475 269.86 299.115 272.795 298.112C280.798 295.378 284.201 285.006 285.282 277.309C286.501 268.626 280.537 255.312 270.124 256.168Z" fill="#89C5CC"/>
<path opacity="0.7" fill-rule="evenodd" clip-rule="evenodd" d="M255.495 231.853C247.894 239.764 244.221 250.737 241.314 261.052C238.066 272.574 235.921 284.273 235.838 296.251C235.785 304.121 235.57 312.04 236.03 319.901C236.193 322.693 236.471 325.49 236.914 328.251C236.95 328.478 237.94 334.645 238.887 333.208C239.426 332.391 237.872 326.811 237.755 325.882C237.095 320.647 236.941 315.374 236.973 310.102C237.026 301.421 236.77 292.785 237.65 284.137C237.781 282.845 237.885 281.489 238.192 280.226C238.518 278.883 238.103 279.469 239.164 278.937C240.194 278.421 241.468 278.494 242.538 277.846C246.78 275.274 248.95 268.666 250.639 264.331C252.57 259.373 253.744 254.087 254.682 248.869C255.371 245.036 255.863 241.226 256.142 237.344C256.229 236.12 256.235 234.84 256.475 233.637C256.54 233.313 256.865 232.738 256.853 232.451C256.828 231.843 256.461 231.485 256.431 230.974C256.113 231.26 255.8 231.554 255.495 231.853Z" fill="#89C5CC"/>
<path opacity="0.7" fill-rule="evenodd" clip-rule="evenodd" d="M214.048 337.255C214.048 350.337 224.654 360.943 237.737 360.943C250.82 360.943 261.426 350.337 261.426 337.255" fill="#89C5CC"/>
<path opacity="0.7" fill-rule="evenodd" clip-rule="evenodd" d="M239.638 337.33H238.386C238.473 335.76 238.588 334.192 238.85 332.639C239.854 326.7 242.994 317.976 249.88 317.012C250.134 316.976 251.068 316.97 252.2 317.037C252.737 316.737 253.338 316.556 253.971 316.514C259.834 316.082 266.381 320.812 269.209 325.734C271.489 329.702 271.105 334.913 269.697 339.129C268.754 341.952 266.696 345.977 263.264 346.016C258.97 346.065 258.763 340.758 258.68 337.656C258.57 333.531 258.048 329.938 254.798 327.127C254.041 326.472 253.213 325.895 252.448 325.25C251.25 324.239 249.926 323.204 249.772 321.531C249.558 319.224 250.861 318.809 252.849 319.237C253.188 319.31 256.603 320.843 256.098 319.631C255.943 319.261 255.379 318.968 254.668 318.749C252.827 318.548 250.631 318.316 249.999 318.455C243.186 319.95 240.533 329.387 239.829 335.383C239.753 336.03 239.691 336.68 239.638 337.33V337.33Z" fill="#69A1AC"/>
</g>
<g style="mix-blend-mode:luminosity" opacity="0.5">
<path d="M-21.3733 481.007C-137.892 487.259 -233.56 422.333 -240.714 336.44C-250.043 224.429 -173.196 73.2581 -38.1026 169.232C65.9978 243.187 176.618 227.705 181.238 313.799C185.858 399.893 95.1454 474.755 -21.3733 481.007Z" fill="url(#paint0_linear)"/>
</g>
<g style="mix-blend-mode:luminosity">
<path opacity="0.5" fill-rule="evenodd" clip-rule="evenodd" d="M319.127 201.975C320.71 199.718 323.647 193.987 325.875 193.18C327.31 192.661 326.892 198.034 326.909 199.058C326.978 203.022 326.593 206.961 326.116 210.891C325.257 217.98 322.45 224.293 318.6 230.326C316.618 233.43 314.294 236.572 311.076 238.509C309.594 239.401 307.811 239.551 306.348 240.319C304.644 241.214 305.572 240.491 304.804 242.266C303.737 244.732 303.396 247.913 302.903 250.543C300.637 262.619 295.152 326.457 296.103 338.741C296.187 339.83 294.669 340.09 294.593 338.761C294.191 331.714 297.676 282.909 299.435 266.948C301.194 250.987 302.973 236.887 304.758 231.365C306.922 224.666 310.832 216.609 314.087 210.362C315.598 207.46 317.246 204.657 319.127 201.975Z" fill="#69A1AC"/>
<path opacity="0.5" fill-rule="evenodd" clip-rule="evenodd" d="M330.875 280.255C334.994 277.232 339.452 282.938 335.725 285.962C333.665 287.634 331.511 287.039 330.298 285.646C329.511 286.606 328.774 287.609 328.066 288.457C325.909 291.039 323.871 293.683 321.922 296.389C317.875 302.009 314.406 307.948 310.78 313.777C307.201 319.531 303.65 325.314 300.406 331.213C297.658 336.211 293.995 342.091 293.055 347.571C294.482 335.95 299.899 324.78 306.349 314.535C312.748 304.374 320.09 293.278 329.997 285.259C328.988 283.777 328.96 281.66 330.875 280.255Z" fill="#C1DEE2"/>
<path opacity="0.5" fill-rule="evenodd" clip-rule="evenodd" d="M261.816 165.166C270.498 180.222 277.632 196.761 282.239 213.513C285.03 223.662 286.982 234.077 288.921 244.417C291.924 260.426 294.764 276.435 295.572 292.729C296.385 309.117 297.992 328.019 292.626 343.804C295.306 327.778 292.754 310.72 292.302 294.595C292.086 286.897 291.46 279.274 290.64 271.622C289.843 264.198 288.542 256.809 287.33 249.444C286.74 245.857 286.12 242.275 285.488 238.695C285.3 237.627 285.22 234.458 284.543 233.729C283.861 232.994 280.382 232.695 279.29 232.156C277.09 231.071 275.022 229.529 273.191 227.9C269.681 224.777 266.627 220.697 264.217 216.675C258.641 207.369 256.411 196.011 256.524 185.233C256.545 183.141 259.911 160.606 258.559 160.296C258.641 160.201 258.718 160.102 258.79 160C259.814 161.713 260.818 163.438 261.816 165.166Z" fill="#89C5CC"/>
<path opacity="0.5" fill-rule="evenodd" clip-rule="evenodd" d="M355.52 219.468C355.654 219.275 356.526 217.931 356.087 218.017C356.981 217.842 354.858 219.499 357.085 218.482C356.027 219.481 356.638 220.778 356.652 222.123C356.675 224.305 356.31 226.469 355.899 228.605C355.249 231.981 354.281 235.263 352.877 238.403C349.816 245.245 344.618 251.832 338.448 256.11C335.401 258.222 332.416 258.941 328.941 259.913C326.747 260.528 326.573 261.663 325.408 263.792C322.983 268.228 320.601 272.647 318.462 277.232C315.908 282.707 313.429 288.188 311.091 293.76C303.213 312.526 296.801 331.969 293.433 352.09C293.351 340.233 296.094 328.021 299.554 316.719C302.074 308.484 305.355 300.547 308.855 292.689C309.703 290.786 310.988 288.337 311.348 286.235C311.6 284.763 310.829 283.347 310.477 281.796C309.1 275.755 309.199 268.988 310.407 262.915C311.74 256.219 315.593 253.111 322.111 252.162C324.495 251.815 327.525 251.942 329.711 250.926C332.092 249.819 333.075 246.181 334.429 243.845C338.066 237.572 342.388 231.555 347.35 226.269C348.724 224.806 350.202 223.455 351.77 222.203C352.758 221.414 354.847 220.441 355.52 219.468Z" fill="#89C5CC"/>
<path opacity="0.5" fill-rule="evenodd" clip-rule="evenodd" d="M282.43 339.284H305.563C306.603 339.284 307.446 340.128 307.446 341.168C307.446 341.26 307.439 341.351 307.426 341.442L305.638 353.566C305.093 357.262 301.921 360 298.185 360H289.807C286.071 360 282.9 357.262 282.355 353.566L280.567 341.442C280.415 340.413 281.126 339.456 282.155 339.305C282.246 339.291 282.338 339.284 282.43 339.284Z" fill="#C1DEE2"/>
</g>
<g style="mix-blend-mode:luminosity">
<path fill-rule="evenodd" clip-rule="evenodd" d="M86.2044 215.457C83.9505 212.812 82.4251 209.569 82.68 205.936C83.4144 195.469 97.9857 197.771 100.82 203.055C103.655 208.338 103.318 221.739 99.6545 222.683C98.1936 223.06 95.0815 222.137 91.9141 220.228L93.9022 234.293H82.1631L86.2044 215.457Z" fill="#B28B67"/>
<path fill-rule="evenodd" clip-rule="evenodd" d="M94.1291 196.966C92.5819 196.712 88.4161 196.537 87.6478 196.538C87.1568 196.538 86.6248 196.65 86.334 196.199C86.0959 195.83 86.1831 195.205 86.1121 194.777C86.0295 194.279 85.9123 193.788 85.7938 193.298C85.4564 191.904 84.9463 190.577 84.2325 189.332C82.8931 186.995 80.931 185.165 78.4538 184.1C75.7184 182.924 72.623 182.655 69.6807 182.894C66.532 183.149 63.6817 184.188 60.7088 185.166C57.8758 186.099 54.9085 186.465 51.9455 186.01C48.9601 185.552 46.7044 183.934 44.1863 182.398C41.6085 180.826 38.6626 179.797 35.6151 180.034C32.7705 180.254 30.1486 181.429 27.7964 182.998C25.5955 184.466 23.7796 186.232 22.7543 188.718C21.6514 191.392 21.6524 194.328 23.4661 196.691C26.095 200.116 30.9755 201.002 35.0358 200.914C37.3844 200.863 39.691 200.434 41.9083 199.655C44.8653 198.615 47.4207 196.852 50.1871 195.421C51.4854 194.75 52.8274 194.199 54.234 193.802C55.599 193.416 56.9434 193.24 58.1792 194.064C59.4866 194.936 60.6581 195.793 62.1538 196.339C63.5886 196.863 65.1084 197.156 66.637 197.144C69.6113 197.121 72.5432 196.195 75.4319 195.574C77.7875 195.068 80.308 194.564 82.7095 195.05C83.7116 195.253 85.1754 195.672 85.5374 196.714C79.4455 197.818 77.0529 205.352 78.7703 210.882C79.6972 213.867 85.2689 217.357 87.4353 215.788C88.8077 214.793 87.9745 213.488 87.4353 212.627C86.4026 210.977 86.0493 208.857 87.9601 207.708C89.6084 206.717 91.3414 209.07 91.3741 209.068C91.8271 209.032 95.7415 206.818 98.4384 203.588C101.099 203.746 101.503 201.991 100.867 200.557C100.232 199.122 96.2668 197.316 94.1291 196.966Z" fill="#191847"/>
<path d="M77.2719 360C98.0727 360 114.935 343.904 114.935 324.049C114.935 304.194 98.0727 288.098 77.2719 288.098C56.4712 288.098 39.6089 304.194 39.6089 324.049C39.6089 343.904 56.4712 360 77.2719 360Z" fill="#B3C3CD"/>
<path fill-rule="evenodd" clip-rule="evenodd" d="M148.445 354.453C142.178 340.582 137.645 328.504 135.826 322.132C132.711 311.22 130.341 301.619 129.742 298.033C128.314 289.483 140.729 288.985 142.37 293.235C144.854 299.666 149.19 320.797 154.4 352.716L148.445 354.453ZM75.7498 310.922C81.4998 308.65 101.636 301.537 111.348 299.525C114.139 298.946 116.844 298.409 119.387 297.924C126.946 296.481 130.862 310.117 123.582 311.165C105.451 313.774 79.7481 316.469 77.5485 316.771C74.4656 317.195 72.136 312.351 75.7498 310.922Z" fill="#B28B67"/>
<path fill-rule="evenodd" clip-rule="evenodd" d="M124.026 294.171L92.9241 278.338V274.891H96.623C126.713 282.559 142.089 287.473 142.751 289.633C142.758 289.656 142.765 289.679 142.771 289.702C142.786 289.722 142.801 289.742 142.815 289.762C148.779 297.964 152.35 338.002 153.522 341L142.095 342.705C137.724 326.496 123.739 315.204 124.111 295.791C124.01 295.222 123.985 294.682 124.026 294.171Z" fill="#1F28CF"/>
<path fill-rule="evenodd" clip-rule="evenodd" d="M95.5084 303.574C92.6626 303.004 90.0419 302.496 87.7994 302.103C73.3146 299.562 69.0907 291.808 71.5881 274.891L98.2761 274.891C102.636 276.144 125.292 285.645 137.047 290.698C144.827 294.043 142.375 306.1 137.969 309.238C137.945 309.43 137.865 309.561 137.724 309.62C114.024 319.443 95.2745 314.288 89.0112 315.935L86.1141 306.796L95.5084 303.574Z" fill="#2B44FF"/>
<path fill-rule="evenodd" clip-rule="evenodd" d="M77.7158 309.47C76.163 309.618 75.0607 309.852 74.4089 310.169C73.6161 310.556 72.5237 311.252 71.1316 312.258C71.5801 313.178 75.6113 321.443 83.2253 337.054C85.6698 336.66 86.6384 335.727 86.1311 334.256C85.6239 332.784 85.2147 331.556 84.9038 330.571L84.4206 316.541C84.4113 316.271 84.1849 316.059 83.9149 316.069C83.9103 316.069 83.9056 316.069 83.901 316.069L81.7427 316.205C80.5162 315.212 79.7071 314.314 79.3152 313.511C78.9968 312.858 78.8207 311.828 78.787 310.42L78.787 310.42C78.774 309.88 78.3257 309.453 77.7856 309.466C77.7623 309.466 77.739 309.468 77.7158 309.47Z" fill="#2B2B2B"/>
<path fill-rule="evenodd" clip-rule="evenodd" d="M145.593 351.881C145.046 353.342 144.772 354.435 144.772 355.16C144.772 356.042 144.919 357.33 145.213 359.022C146.236 359.022 155.432 359.022 172.801 359.022C173.518 356.652 173.104 355.372 171.559 355.183C170.015 354.994 168.731 354.824 167.71 354.671L154.887 348.955C154.64 348.845 154.351 348.956 154.241 349.203C154.239 349.207 154.238 349.211 154.236 349.215L153.412 351.215C151.982 351.882 150.82 352.215 149.926 352.215C149.199 352.215 148.196 351.922 146.917 351.335L146.917 351.335C146.425 351.11 145.845 351.326 145.62 351.817C145.61 351.838 145.601 351.86 145.593 351.881Z" fill="#2B2B2B"/>
<path fill-rule="evenodd" clip-rule="evenodd" d="M123.25 261.497L140.973 253.714C144.078 250.62 147.076 248.269 149.968 246.66C150.832 246.384 152.309 246.301 150.733 248.603C149.157 250.905 147.603 253.397 148.233 254.204C148.863 255.01 150.687 254.12 151.408 255.432C151.888 256.306 148.813 257.353 142.183 258.57L128.909 268.747L123.25 261.497ZM51.5965 263.641L61.6196 265.63C51.5397 284.415 46.134 294.371 45.4025 295.498C43.7568 298.034 45.2923 302.682 45.8595 305.13C42.3011 305.958 43.7044 300.602 39.2014 301.721C35.0912 302.741 31.6063 305.361 27.7737 301.828C27.3025 301.394 26.9576 300.036 28.5641 299.34C32.5666 297.605 38.4799 294.357 39.4387 293.096C40.7463 291.376 44.7989 281.558 51.5965 263.641Z" fill="#B28B67"/>
<path fill-rule="evenodd" clip-rule="evenodd" d="M88.8619 226.141L93.0915 225.415C102.304 234.352 106.063 255.821 112.203 258.663C118.007 261.35 126.236 258.75 136.016 255.239L139.012 261.932C130.125 271.546 111.193 279.669 103.519 275.031C91.2496 267.618 88.4172 241.138 88.8619 226.141Z" fill="#DB2721"/>
<path fill-rule="evenodd" clip-rule="evenodd" d="M70.424 279.293C87.383 279.293 99.8577 279.293 107.848 279.293C109.558 279.293 109.236 276.824 108.989 275.578C106.136 261.197 94.9985 245.696 94.9985 225.225L84.2036 223.533C75.2749 237.893 72.1872 255.573 70.424 279.293Z" fill="#DDE3E9"/>
<path fill-rule="evenodd" clip-rule="evenodd" d="M66.6913 264.734C59.0622 278.495 52.6494 288.403 47.4532 294.456L39.6088 292.92C44.6618 261.582 59.2946 238.453 83.5073 223.533H83.6305L87.7815 223.533C97.4724 256.567 100.144 278.578 95.7963 289.565H62.1088C62.6417 281.526 64.3506 273.023 66.6913 264.734H66.6913Z" fill="#FF4133"/>
</g>
<g style="mix-blend-mode:color-dodge">
<path d="M0 0H360V361H0V0Z" fill="url(#paint1_linear)"/>
</g>
</g>
<defs>
<linearGradient id="paint0_linear" x1="180.301" y1="296.343" x2="-241.744" y2="318.989" gradientUnits="userSpaceOnUse">
<stop stop-color="#7D19F1" stop-opacity="0.19"/>
<stop offset="1" stop-color="#FBBEBE" stop-opacity="0.49"/>
</linearGradient>
<linearGradient id="paint1_linear" x1="1.1351e-06" y1="157.5" x2="208.319" y2="505.17" gradientUnits="userSpaceOnUse">
<stop stop-color="#3E0382" stop-opacity="0.2"/>
<stop offset="1" stop-color="#FAC4BA" stop-opacity="0.37"/>
</linearGradient>
<clipPath id="clip0">
<rect width="360" height="360" fill="white"/>
</clipPath>
</defs>
</svg>
