<svg width="360" height="640" viewBox="0 0 360 640" fill="none" xmlns="http://www.w3.org/2000/svg">
<g clip-path="url(#clip0)">
<rect width="360" height="640" fill="white"/>
<g style="mix-blend-mode:multiply" opacity="0.4">
<path d="M208.818 725.904C93.7096 745.027 -8.56259 691.099 -25.1881 606.528C-46.8692 496.24 12.756 337.486 157.651 417.902C269.304 479.869 377.528 452.226 391.658 537.278C405.787 622.331 323.927 706.781 208.818 725.904Z" fill="url(#paint0_linear)" fill-opacity="0.6"/>
</g>
<g style="mix-blend-mode:multiply" opacity="0.4">
<path d="M196.48 700.28C321.108 707.648 423.555 643.625 431.354 557.782C441.524 445.837 359.581 293.9 214.908 388.601C103.426 461.575 -14.8774 445.031 -19.9662 531.098C-25.0549 617.166 71.8513 692.911 196.48 700.28Z" fill="url(#paint1_linear)" fill-opacity="0.6"/>
</g>
<g style="mix-blend-mode:luminosity">
<path fill-rule="evenodd" clip-rule="evenodd" d="M63.8207 342.492C60.5533 338.085 53.4316 337.619 52.9325 344.601C52.399 352.078 62.0002 357.082 67.5067 359.743C66.9764 359.436 68.1019 352.905 67.9364 351.746C67.4488 348.329 65.8283 345.205 63.8207 342.492ZM57.9381 478.43C58.5597 479.939 57.9827 478.565 57.9381 478.43V478.43ZM45.3979 368.127C41.8356 368.776 39.9463 372.17 40.8424 375.58C41.9098 379.639 46.511 381.863 50.0456 383.328C51.6446 383.99 60.1827 387.526 58.9246 385.19C59.0453 385.323 59.2875 385.62 59.5265 385.977C59.3704 386.726 59.2245 387.478 59.088 388.23C59.0254 388.234 58.9688 388.243 58.9029 388.245C58.9712 388.249 59.0239 388.243 59.0858 388.243C57.7268 395.768 57.3623 403.409 58.071 411.093C56.9724 409.849 55.7574 408.71 54.4057 407.789C50.4033 405.06 39.7016 403.784 41.5755 411.928C43.3729 419.736 53.5135 417.529 59.1353 419.384C60.583 429.018 62.6988 438.623 65.1975 448.139C64.7825 448.068 64.3492 448.141 63.9835 448.412C62.249 446.027 60.6775 443.08 58.7453 441.512C55.9567 439.25 49.7489 435.569 45.9538 437.16C41.2866 439.116 42.9739 443.506 46.0714 445.922C50.5628 449.426 58.3271 450.325 63.9603 451.131C64.459 451.508 65.1395 451.654 65.7212 451.398C65.8448 451.417 65.9682 451.437 66.0882 451.457C68.6771 460.979 71.6019 470.402 74.5598 479.668C74.4966 479.631 74.4337 479.594 74.3678 479.556C73.31 477.699 72.0408 475.97 70.42 474.576C66.6732 471.344 61.64 468.765 56.5836 470.086C51.5474 471.401 47.5649 476.168 49.3741 481.46C52.9954 492.054 71.6299 481.646 75.581 482.834C78.6204 492.185 82.2232 501.312 85.9885 510.375C85.3501 509.758 84.6611 509.192 83.8985 508.707C77.6889 504.744 58.2718 504.914 62.2587 516.886C65.733 527.318 80.5675 518.24 88.5562 516.498C92.1341 524.98 95.7648 533.443 99.1138 542.02C96.2237 539.422 93.0588 537.64 88.9202 536.89C84.6369 536.116 77.2196 535.857 77.0042 542.064C76.7856 548.377 85.158 549.734 89.7283 550.03C92.2209 550.192 97.8364 549.308 102.072 549.892C107.134 564.131 110.407 578.637 110.696 593.902C110.876 603.433 109.829 612.982 107.767 622.293C106.452 628.235 104.639 638.42 100.611 644.971C110.164 632.619 113.91 613.835 115.153 599.065C116.296 585.484 114.454 572.106 110.93 559.111C116.063 554.061 137.575 553.99 130.286 543.134C126.409 537.383 118.338 539.512 114.472 544.16C111.815 547.354 110.733 552.521 110.255 556.695C109.102 552.693 107.804 548.728 106.382 544.808C104.417 539.39 102.309 534.028 100.143 528.69C109.609 525.952 124.441 511.871 117.302 504.679C106.756 494.071 100.876 520.614 99.5152 525.456C99.7584 525.599 99.9926 525.623 100.219 525.534C99.9427 525.9 99.6403 526.288 99.3185 526.67C95.156 516.487 90.8191 506.373 86.8728 496.107C87.7777 495.958 89.7699 494.637 91.095 494.069C94.0844 492.79 97.0445 491.371 99.6703 489.43C103.819 486.361 109.146 480.807 104.961 475.615C100.413 469.965 93.8163 475.954 91.5117 480.361C89.9183 483.409 89.2652 486.744 88.1652 489.968C87.8224 490.973 85.1425 494.926 87.3457 493.762C86.9434 494.401 86.6869 494.881 86.5411 495.24C85.8356 493.391 85.1467 491.535 84.4705 489.674C84.6078 489.553 84.7366 489.41 84.8447 489.223C85.5887 487.939 84.5203 486.751 83.3912 486.662C82.5157 484.173 81.6672 481.673 80.8655 479.156C79.1656 473.822 77.4664 468.36 75.8315 462.834C76.9356 462.567 77.097 461.499 78.1721 461.166C79.2452 460.834 80.8533 461.169 82.0271 460.951C84.9797 460.402 87.9518 458.923 90.4183 457.233C94.4921 454.439 101.349 447.715 96.1632 442.74C90.8199 437.609 83.6233 443.777 80.722 448.45C80.1596 449.355 76.5121 458.237 75.4726 461.608C72.4628 451.353 69.6932 440.893 67.5924 430.618C69.3685 431.505 76.2315 430.445 77.7498 429.975C81.4541 428.828 88.1065 425.511 85.2134 420.477C82.6379 416.007 76.037 417.2 72.5902 419.876C72.0231 420.317 68.311 425.222 66.9995 427.604C66.1679 423.277 65.4569 418.989 64.9112 414.772C64.544 411.967 64.2984 409.154 64.1619 406.34C64.5496 406.324 64.9843 406.171 65.4402 405.938C72.4248 408.133 85.7451 402.294 79.9795 394.946C77.2334 391.449 71.5848 392.881 68.3908 394.785C67.7369 395.174 65.6784 397.759 64.0401 399.791C64.1321 390.747 65.2875 381.714 67.1974 372.822C67.8279 372.97 68.5202 372.784 68.9585 372.081C72.9882 371.897 76.2094 371.676 80.1364 369.369C82.5758 367.936 87.4944 364.327 84.1211 361.115C79.7311 356.936 72.4405 363.177 70.0271 366.854C69.7468 367.28 69.0768 368.596 68.4781 369.809C68.311 369.692 68.128 369.602 67.9338 369.543C69.2218 364.091 70.7815 358.699 72.5396 353.399C75.8285 353.934 83.8993 339.351 83.0984 336.278C81.3127 329.4 74.8552 334.715 73.234 338.44C71.3228 342.833 71.2722 347.692 71.8124 352.303C71.8728 352.792 71.8115 352.739 72.1345 352.264C72.0417 352.533 72.031 352.761 72.0869 352.958C70.8228 355.139 69.419 357.315 68.5163 359.354C65.9315 365.195 63.6732 371.245 61.7681 377.341C61.3048 378.824 60.8811 380.313 60.4957 381.807C59.2144 378.713 57.0321 375.43 56.1092 374.28C53.7131 371.298 49.6919 367.345 45.3979 368.127ZM100.966 645.176C99.8092 647.083 98.525 648.713 97.0934 649.867C98.464 648.421 99.7524 646.848 100.966 645.176Z" fill="#D0C0E1"/>
</g>
<g style="mix-blend-mode:luminosity">
<path fill-rule="evenodd" clip-rule="evenodd" d="M242.309 395.879C244.52 392.896 249.339 392.581 249.677 397.305C250.038 402.365 243.541 405.751 239.814 407.552C240.173 407.344 239.412 402.925 239.524 402.141C239.854 399.828 240.95 397.714 242.309 395.879ZM246.289 487.867C245.869 488.888 246.259 487.958 246.289 487.867V487.867ZM254.775 413.225C257.186 413.664 258.464 415.961 257.858 418.268C257.136 421.015 254.022 422.52 251.63 423.512C250.548 423.96 244.77 426.353 245.622 424.772C245.54 424.862 245.376 425.063 245.214 425.304C245.32 425.811 245.419 426.32 245.511 426.829C245.554 426.832 245.592 426.838 245.636 426.839C245.59 426.842 245.555 426.837 245.513 426.838C246.432 431.93 246.679 437.1 246.199 442.3C246.943 441.458 247.765 440.688 248.68 440.064C251.388 438.218 258.63 437.354 257.362 442.865C256.145 448.149 249.283 446.655 245.479 447.91C244.5 454.43 243.068 460.929 241.377 467.369C241.658 467.321 241.951 467.37 242.198 467.554C243.372 465.94 244.436 463.945 245.743 462.884C247.63 461.354 251.831 458.863 254.399 459.94C257.557 461.263 256.415 464.233 254.319 465.869C251.28 468.239 246.026 468.848 242.214 469.393C241.877 469.649 241.416 469.747 241.023 469.574C240.939 469.587 240.855 469.601 240.774 469.614C239.022 476.057 237.043 482.434 235.042 488.704C235.084 488.68 235.127 488.654 235.171 488.629C235.887 487.372 236.746 486.202 237.843 485.258C240.378 483.072 243.784 481.326 247.206 482.22C250.614 483.11 253.309 486.336 252.084 489.917C249.634 497.085 237.024 490.043 234.35 490.847C232.294 497.174 229.856 503.35 227.308 509.483C227.74 509.066 228.206 508.683 228.722 508.354C232.924 505.673 246.063 505.788 243.366 513.889C241.015 520.949 230.976 514.806 225.57 513.627C223.149 519.366 220.692 525.093 218.426 530.897C220.382 529.14 222.523 527.933 225.324 527.426C228.222 526.902 233.242 526.727 233.387 530.927C233.535 535.199 227.87 536.117 224.777 536.318C223.09 536.427 219.29 535.829 216.424 536.224C212.999 545.86 210.784 555.676 210.588 566.006C210.467 572.455 211.175 578.917 212.57 585.217C213.461 589.239 214.687 596.13 217.413 600.563C210.949 592.205 208.413 579.494 207.572 569.499C206.799 560.309 208.045 551.257 210.43 542.463C206.957 539.046 192.4 538.997 197.332 531.651C199.956 527.759 205.417 529.2 208.034 532.345C209.831 534.507 210.563 538.003 210.887 540.828C211.667 538.12 212.545 535.436 213.508 532.784C214.838 529.118 216.264 525.489 217.729 521.877C211.324 520.024 201.288 510.496 206.118 505.629C213.255 498.451 217.233 516.412 218.154 519.689C217.99 519.785 217.831 519.802 217.678 519.741C217.865 519.989 218.07 520.251 218.288 520.51C221.104 513.619 224.039 506.775 226.709 499.829C226.097 499.727 224.749 498.833 223.852 498.449C221.829 497.584 219.826 496.624 218.049 495.31C215.242 493.233 211.637 489.475 214.469 485.962C217.547 482.138 222.011 486.191 223.57 489.173C224.649 491.236 225.091 493.493 225.835 495.674C226.067 496.354 227.88 499.029 226.389 498.242C226.662 498.674 226.835 498.999 226.934 499.242C227.411 497.991 227.877 496.734 228.335 495.475C228.242 495.393 228.155 495.297 228.082 495.17C227.578 494.301 228.301 493.497 229.065 493.437C229.658 491.753 230.232 490.061 230.775 488.358C231.925 484.748 233.075 481.053 234.181 477.313C233.434 477.132 233.325 476.409 232.597 476.184C231.871 475.96 230.783 476.186 229.988 476.039C227.99 475.667 225.979 474.666 224.31 473.522C221.553 471.632 216.914 467.082 220.423 463.715C224.038 460.243 228.908 464.417 230.872 467.579C231.252 468.192 233.72 474.202 234.424 476.483C236.461 469.543 238.335 462.465 239.756 455.512C238.554 456.113 233.91 455.396 232.883 455.077C230.376 454.301 225.875 452.057 227.832 448.65C229.575 445.626 234.042 446.433 236.374 448.244C236.758 448.542 239.27 451.861 240.158 453.473C240.72 450.545 241.201 447.643 241.571 444.79C241.819 442.891 241.985 440.988 242.078 439.084C241.815 439.073 241.521 438.97 241.213 438.812C236.486 440.297 227.473 436.346 231.374 431.373C233.232 429.007 237.055 429.976 239.216 431.265C239.659 431.528 241.052 433.277 242.16 434.652C242.098 428.532 241.316 422.419 240.024 416.403C239.597 416.502 239.128 416.377 238.832 415.901C236.105 415.777 233.925 415.627 231.268 414.066C229.617 413.096 226.289 410.654 228.572 408.481C231.542 405.652 236.476 409.876 238.109 412.364C238.298 412.653 238.752 413.542 239.157 414.363C239.27 414.285 239.394 414.224 239.525 414.183C238.654 410.494 237.598 406.846 236.409 403.259C234.183 403.621 228.722 393.753 229.264 391.673C230.472 387.019 234.842 390.616 235.939 393.137C237.232 396.109 237.266 399.397 236.901 402.517C236.86 402.849 236.901 402.812 236.683 402.491C236.746 402.673 236.753 402.827 236.715 402.961C237.57 404.436 238.52 405.909 239.131 407.289C240.88 411.242 242.408 415.335 243.698 419.461C244.011 420.464 244.298 421.472 244.559 422.482C245.426 420.389 246.902 418.167 247.527 417.389C249.148 415.371 251.869 412.696 254.775 413.225ZM217.173 600.702C217.955 601.993 218.824 603.096 219.793 603.877C218.866 602.898 217.994 601.833 217.173 600.702Z" fill="#A996BF"/>
</g>
<g style="mix-blend-mode:luminosity">
<path fill-rule="evenodd" clip-rule="evenodd" d="M360.583 541.139C364.043 539.793 368.289 542.094 366.058 546.272C363.667 550.746 356.365 550.15 352.252 549.688C352.667 549.704 354.377 545.558 354.89 544.954C356.401 543.173 358.455 541.969 360.583 541.139ZM314.938 621.103C314.038 621.742 314.864 621.164 314.938 621.103V621.103ZM361.89 562.461C363.696 564.117 363.554 566.742 361.811 568.371C359.736 570.311 356.299 569.925 353.747 569.49C352.593 569.292 346.429 568.239 347.991 567.355C347.874 567.387 347.629 567.47 347.363 567.588C347.182 568.074 346.995 568.557 346.802 569.037C346.836 569.061 346.865 569.087 346.902 569.112C346.862 569.089 346.834 569.067 346.798 569.045C344.863 573.844 342.317 578.351 339.141 582.495C340.218 582.179 341.325 581.965 342.431 581.925C345.707 581.806 352.295 584.933 348.285 588.921C344.441 592.744 339.43 587.824 335.542 586.859C331.239 591.854 326.564 596.591 321.703 601.139C321.966 601.249 322.187 601.446 322.299 601.734C324.152 600.993 326.115 599.872 327.787 599.671C330.199 599.381 335.081 599.512 336.68 601.791C338.648 604.594 336.099 606.499 333.454 606.766C329.619 607.153 324.848 604.869 321.332 603.299C320.911 603.335 320.468 603.173 320.228 602.817C320.15 602.783 320.072 602.75 319.996 602.718C315.08 607.237 310.008 611.579 304.973 615.818C305.023 615.82 305.072 615.822 305.123 615.823C306.399 615.141 307.749 614.609 309.18 614.395C312.49 613.896 316.303 614.233 318.722 616.813C321.132 619.382 321.693 623.547 318.749 625.925C312.856 630.686 305.938 618.008 303.247 617.263C298.135 621.522 292.781 625.449 287.357 629.281C287.945 629.158 288.544 629.083 289.155 629.08C294.14 629.049 305.197 636.148 298.598 641.566C292.847 646.287 287.625 635.74 283.679 631.862C278.572 635.429 273.441 638.966 268.431 642.67C271.023 642.224 273.478 642.345 276.118 643.408C278.85 644.509 283.19 647.035 281.076 650.667C278.925 654.361 273.641 652.119 270.917 650.641C269.432 649.835 266.535 647.304 263.899 646.111C255.866 652.44 248.761 659.566 243.092 668.203C239.552 673.596 236.709 679.441 234.533 685.516C233.143 689.394 230.509 695.879 230.454 701.083C229.437 690.566 234.064 678.458 238.678 669.553C242.921 661.363 248.799 654.367 255.502 648.196C254.384 643.454 242.091 635.657 250.179 632.068C254.473 630.173 258.327 634.302 258.865 638.358C259.235 641.145 257.991 644.494 256.76 647.056C258.863 645.181 261.036 643.377 263.264 641.646C266.343 639.252 269.483 636.941 272.648 634.665C268.215 629.684 264.799 616.274 271.479 614.729C281.344 612.457 275.14 629.776 274.174 633.04C273.983 633.034 273.84 632.964 273.742 632.831C273.769 633.14 273.802 633.471 273.848 633.806C279.904 629.476 286.034 625.248 291.995 620.792C291.531 620.38 290.866 618.906 290.312 618.103C289.061 616.293 287.878 614.413 287.074 612.354C285.805 609.101 284.757 604 289.025 602.536C293.668 600.94 295.285 606.749 295.016 610.103C294.83 612.423 294.001 614.568 293.469 616.811C293.302 617.51 293.412 620.74 292.57 619.279C292.57 619.79 292.544 620.157 292.498 620.415C293.568 619.611 294.632 618.796 295.69 617.975C295.655 617.856 295.633 617.728 295.638 617.582C295.676 616.578 296.715 616.283 297.394 616.639C298.793 615.53 300.18 614.404 301.547 613.251C304.444 610.81 307.386 608.295 310.314 605.72C309.779 605.169 310.071 604.499 309.576 603.921C309.081 603.344 308.039 602.956 307.446 602.408C305.953 601.029 304.784 599.11 303.981 597.253C302.656 594.185 301.154 587.862 305.917 586.883C310.827 585.871 312.724 591.998 312.7 595.72C312.696 596.441 311.582 602.842 310.962 605.147C316.383 600.36 321.741 595.369 326.649 590.243C325.312 590.11 321.764 587.029 321.064 586.212C319.356 584.22 316.743 579.922 320.215 578.082C323.301 576.451 326.651 579.514 327.66 582.29C327.825 582.747 328.182 586.894 328.075 588.731C330.111 586.553 332.064 584.354 333.897 582.136C335.119 580.662 336.274 579.14 337.366 577.578C337.15 577.428 336.957 577.184 336.779 576.886C331.989 575.625 326.466 567.478 332.417 565.35C335.25 564.338 337.969 567.194 339.111 569.436C339.345 569.895 339.592 572.117 339.798 573.871C343.006 568.659 345.601 563.07 347.713 557.29C347.299 557.147 346.97 556.791 346.972 556.23C344.731 554.672 342.966 553.384 341.55 550.647C340.669 548.947 339.154 545.107 342.244 544.484C346.264 543.673 348.189 549.876 348.245 552.852C348.252 553.197 348.161 554.192 348.067 555.102C348.204 555.096 348.342 555.11 348.474 555.146C349.702 551.56 350.753 547.91 351.658 544.241C349.582 543.361 350.218 532.101 351.785 530.63C355.287 527.335 357.068 532.707 356.654 535.425C356.164 538.629 354.441 541.43 352.469 543.875C352.258 544.134 352.313 544.126 352.299 543.737C352.255 543.925 352.179 544.059 352.076 544.152C352.014 545.856 352.033 547.609 351.814 549.102C351.188 553.379 350.3 557.657 349.193 561.835C348.924 562.851 348.63 563.857 348.312 564.851C350.161 563.541 352.594 562.448 353.537 562.122C355.985 561.279 359.713 560.465 361.89 562.461ZM230.176 701.073C230.151 702.581 230.299 703.978 230.702 705.155C230.439 703.833 230.269 702.467 230.176 701.073Z" fill="#805FA7"/>
</g>
<g style="mix-blend-mode:luminosity">
<path opacity="0.7" fill-rule="evenodd" clip-rule="evenodd" d="M243.505 523.099C250.852 522.717 259.939 527.006 260.723 534.993C261.293 540.796 261.116 546.583 261.998 552.377C262.702 557.008 264.193 561.454 266.225 565.672C268.18 569.729 272.234 573.182 273.289 577.515C273.961 580.276 273.585 584.16 272.658 586.861C271.531 590.145 272.13 589.886 274.376 592.641C278.777 598.041 282.74 603.578 285.542 610.028C289.579 619.317 292.225 630.175 290.727 640.343C290.536 641.634 290.31 646.268 288.532 646.592C286.546 646.954 287.475 644.304 287.581 643.448C288.257 637.986 288.857 633.211 288.042 627.664C284.897 606.259 269.542 592.157 259.544 573.991C258.994 573.054 257.834 570.823 257.027 569.351C255.753 567.028 254.473 562.607 252.748 560.884C249.501 557.638 252.487 564.163 253.119 565.409C253.919 566.985 254.8 568.659 255.619 570.04C259.371 576.44 263.558 583.426 267.432 590.023C250.676 593.841 238.876 573.697 234.379 560.454C230.675 549.543 226.242 524.032 243.505 523.099Z" fill="#69A1AC"/>
<path opacity="0.7" fill-rule="evenodd" clip-rule="evenodd" d="M341.985 502.836C329.702 503.811 321.816 511.916 318.146 523.252C316.167 529.362 315.94 535.638 314.841 541.916C313.187 551.362 309.629 558.52 302.674 565.249C300.52 567.333 298.933 569.473 297.805 571.763C295.565 574.048 293.615 576.635 292.182 579.798C290.352 583.836 289.835 588.682 291.947 592.708C292.515 593.791 293.933 595.964 295.401 596.951C289.903 608.662 286.879 621.488 287.22 634.298C287.426 642.031 287.803 649.766 288.244 657.489C288.362 659.563 289.038 662.987 290.052 659.51C290.98 656.329 289.816 651.335 289.708 648.012C289.184 631.822 288.736 617.102 295.4 601.977C296.099 600.392 296.84 598.819 297.612 597.259C297.657 597.233 297.699 597.201 297.742 597.17C297.771 597.193 297.798 597.217 297.827 597.24C297.877 597.152 297.944 597.047 298.023 596.93C298.244 596.702 298.437 596.413 298.621 596.091C299.212 595.272 299.881 594.31 299.885 593.783C299.885 593.779 299.883 593.772 299.883 593.768C304.008 587.034 308.734 580.67 313.56 574.431C313.524 574.477 318.796 567.299 317.98 571.268C317.588 573.181 313.71 576.824 312.144 578.85C308.68 583.358 304.612 589.069 301.231 594.592C300.776 594.854 300.133 596.137 299.669 597.093C299.412 597.578 299.173 598.066 298.937 598.491C310.916 602.449 320.234 594.477 326.587 585.205C326.595 585.194 326.602 585.183 326.609 585.172C328.543 582.61 330.523 580.066 332.998 578.04C337.126 574.661 341.547 574.065 346.415 572.402C359.688 567.866 365.332 550.663 367.124 537.899C369.147 523.498 359.255 501.416 341.985 502.836Z" fill="#89C5CC"/>
<path opacity="0.7" fill-rule="evenodd" clip-rule="evenodd" d="M317.722 462.509C305.115 475.63 299.025 493.828 294.202 510.937C288.816 530.045 285.258 549.448 285.122 569.315C285.032 582.367 284.677 595.501 285.439 608.539C285.709 613.169 286.171 617.807 286.905 622.388C286.965 622.764 288.607 632.991 290.178 630.608C291.072 629.253 288.495 619.999 288.3 618.457C287.205 609.776 286.951 601.031 287.004 592.287C287.092 577.89 286.667 563.566 288.127 549.222C288.344 547.081 288.516 544.831 289.025 542.736C289.565 540.509 288.877 541.481 290.636 540.599C292.346 539.742 294.458 539.865 296.232 538.789C303.268 534.523 306.867 523.564 309.668 516.374C312.872 508.152 314.819 499.384 316.374 490.731C317.516 484.373 318.333 478.055 318.795 471.615C318.94 469.586 318.949 467.464 319.348 465.468C319.455 464.93 319.994 463.977 319.975 463.501C319.933 462.492 319.324 461.899 319.275 461.051C318.747 461.526 318.229 462.012 317.722 462.509Z" fill="#89C5CC"/>
<path opacity="0.7" fill-rule="evenodd" clip-rule="evenodd" d="M291.423 637.445H289.347C289.491 634.84 289.681 632.24 290.116 629.664C291.782 619.814 296.989 605.346 308.41 603.747C308.831 603.688 310.381 603.678 312.258 603.788C313.148 603.291 314.145 602.99 315.195 602.921C324.918 602.204 335.777 610.048 340.468 618.212C344.249 624.794 343.612 633.436 341.276 640.429C339.712 645.11 336.299 651.785 330.607 651.85C323.486 651.932 323.142 643.13 323.005 637.985C322.822 631.144 321.957 625.185 316.567 620.522C315.311 619.436 313.938 618.48 312.669 617.409C310.682 615.732 308.486 614.016 308.23 611.242C307.876 607.415 310.037 606.727 313.335 607.438C313.897 607.559 319.56 610.1 318.722 608.091C318.466 607.478 317.531 606.991 316.351 606.627C313.297 606.295 309.655 605.91 308.607 606.14C297.307 608.619 292.908 624.271 291.74 634.216C291.614 635.289 291.512 636.366 291.423 637.445V637.445Z" fill="#69A1AC"/>
</g>
<g style="mix-blend-mode:luminosity">
<path opacity="0.7" fill-rule="evenodd" clip-rule="evenodd" d="M111.88 514.099C104.532 513.717 95.4453 518.006 94.6614 525.993C94.092 531.796 94.2683 537.583 93.3871 543.377C92.6824 548.008 91.1921 552.454 89.1594 556.672C87.2049 560.729 83.1505 564.182 82.096 568.515C81.424 571.276 81.8002 575.16 82.727 577.861C83.8542 581.145 83.2551 580.886 81.0092 583.641C76.6081 589.041 72.6452 594.578 69.8428 601.028C65.8061 610.317 63.1596 621.175 64.6578 631.343C64.8484 632.634 65.0744 637.268 66.8525 637.592C68.8383 637.954 67.9097 635.304 67.8037 634.448C67.1281 628.986 66.5277 624.211 67.3427 618.664C70.4876 597.259 85.8428 583.157 95.8411 564.991C96.3907 564.054 97.551 561.823 98.3578 560.351C99.6315 558.028 100.912 553.607 102.636 551.884C105.884 548.638 102.898 555.163 102.265 556.409C101.465 557.985 100.585 559.659 99.7654 561.04C96.0141 567.44 91.827 574.426 87.9528 581.023C104.709 584.841 116.509 564.697 121.005 551.454C124.71 540.543 129.143 515.032 111.88 514.099Z" fill="#69A1AC"/>
<path opacity="0.7" fill-rule="evenodd" clip-rule="evenodd" d="M13.3999 493.836C25.683 494.811 33.5684 502.916 37.2391 514.252C39.2175 520.362 39.4443 526.638 40.5437 532.916C42.1975 542.362 45.756 549.52 52.7104 556.249C54.8644 558.333 56.4517 560.473 57.5801 562.763C59.8201 565.048 61.7699 567.635 63.2024 570.798C65.0324 574.836 65.5502 579.682 63.4374 583.708C62.8693 584.791 61.4522 586.964 59.9835 587.951C65.4823 599.662 68.5057 612.488 68.1649 625.298C67.959 633.031 67.5815 640.766 67.1411 648.489C67.0225 650.563 66.3472 653.987 65.3329 650.51C64.4046 647.329 65.5687 642.335 65.6764 639.012C66.2006 622.822 66.6486 608.102 59.9844 592.977C59.2855 591.392 58.5446 589.819 57.7729 588.259C57.7276 588.233 57.6855 588.201 57.643 588.17C57.6136 588.193 57.5869 588.217 57.5574 588.24C57.5081 588.152 57.4407 588.047 57.3619 587.93C57.1406 587.702 56.9473 587.413 56.7636 587.091C56.1724 586.272 55.5035 585.31 55.4999 584.783C55.4999 584.779 55.5021 584.772 55.5021 584.768C51.3765 578.034 46.6512 571.67 41.8246 565.431C41.8608 565.477 36.5892 558.299 37.4043 562.268C37.7972 564.181 41.6748 567.824 43.2408 569.85C46.7051 574.358 50.7732 580.069 54.1538 585.592C54.6087 585.854 55.2514 587.137 55.7162 588.093C55.9728 588.578 56.2123 589.066 56.4476 589.491C44.4692 593.449 35.1512 585.477 28.7974 576.205C28.7897 576.194 28.7829 576.183 28.7757 576.172C26.8421 573.61 24.8615 571.066 22.3871 569.04C18.2588 565.661 13.8376 565.065 8.97021 563.402C-4.30361 558.866 -9.94727 541.663 -11.7396 528.899C-13.7619 514.498 -3.87001 492.416 13.3999 493.836Z" fill="#89C5CC"/>
<path fill-rule="evenodd" clip-rule="evenodd" d="M37.663 453.509C50.2696 466.63 56.3601 484.828 61.1827 501.937C66.5689 521.045 70.1266 540.448 70.2632 560.315C70.3527 573.367 70.7078 586.501 69.9459 599.539C69.6756 604.169 69.214 608.807 68.4802 613.388C68.4197 613.764 66.7778 623.991 65.2067 621.608C64.3132 620.253 66.8898 610.999 67.0845 609.457C68.1797 600.776 68.4342 592.031 68.3808 583.287C68.2929 568.89 68.7174 554.566 67.2582 540.222C67.0407 538.081 66.8685 535.831 66.3598 533.736C65.8198 531.509 66.5076 532.481 64.7483 531.599C63.0388 530.742 60.9263 530.865 59.1526 529.789C52.1171 525.523 48.518 514.564 45.7169 507.374C42.513 499.152 40.5658 490.384 39.0105 481.731C37.8686 475.373 37.0521 469.055 36.59 462.615C36.4445 460.586 36.4358 458.464 36.0369 456.468C35.9295 455.93 35.3904 454.977 35.4099 454.501C35.4514 453.492 36.0603 452.899 36.1102 452.051C36.6379 452.526 37.156 453.012 37.663 453.509Z" fill="#89C5CC"/>
<path opacity="0.7" fill-rule="evenodd" clip-rule="evenodd" d="M63.9621 628.445H66.0381C65.894 625.84 65.7038 623.24 65.2684 620.664C63.603 610.814 58.3958 596.346 46.9751 594.747C46.5538 594.688 45.004 594.678 43.1266 594.788C42.2368 594.291 41.2401 593.99 40.19 593.921C30.4664 593.204 19.6075 601.048 14.9172 609.212C11.1361 615.794 11.7731 624.436 14.1085 631.429C15.6724 636.11 19.0856 642.785 24.7776 642.85C31.8989 642.932 32.2423 634.13 32.38 628.985C32.5631 622.144 33.4275 616.185 38.8177 611.522C40.074 610.436 41.4471 609.48 42.7161 608.409C44.7031 606.732 46.899 605.016 47.155 602.242C47.5084 598.415 45.3483 597.727 42.0501 598.438C41.4879 598.559 35.8245 601.1 36.6631 599.091C36.919 598.478 37.8541 597.991 39.0343 597.627C42.0882 597.295 45.7302 596.91 46.7776 597.14C58.0773 599.619 62.4767 615.271 63.6451 625.216C63.7712 626.289 63.8732 627.366 63.9621 628.445V628.445Z" fill="#69A1AC"/>
</g>
<g style="mix-blend-mode:luminosity">
<path opacity="0.5" fill-rule="evenodd" clip-rule="evenodd" d="M101.78 438.185C104.087 434.895 108.368 426.541 111.616 425.365C113.707 424.608 113.097 432.44 113.123 433.933C113.224 439.711 112.661 445.452 111.967 451.182C110.715 461.514 106.623 470.716 101.01 479.51C98.1224 484.035 94.7349 488.615 90.043 491.439C87.8833 492.739 85.2847 492.957 83.1518 494.077C80.6679 495.381 82.0206 494.327 80.9012 496.915C79.3466 500.509 78.8494 505.145 78.1301 508.98C74.8275 526.583 66.832 619.636 68.2181 637.542C68.3412 639.129 66.1282 639.508 66.0178 637.571C65.4306 627.298 70.5116 556.157 73.075 532.892C75.6385 509.627 78.2325 489.074 80.8336 481.025C83.9891 471.26 89.6882 459.516 94.4322 450.41C96.6358 446.18 99.0377 442.095 101.78 438.185Z" fill="#69A1AC"/>
<path opacity="0.5" fill-rule="evenodd" clip-rule="evenodd" d="M118.904 552.29C124.908 547.882 131.406 556.201 125.973 560.609C122.97 563.045 119.83 562.179 118.063 560.148C116.915 561.547 115.841 563.009 114.809 564.244C111.665 568.009 108.694 571.862 105.854 575.806C99.9539 583.999 94.898 592.655 89.6117 601.153C84.3948 609.539 79.2196 617.969 74.491 626.568C70.4853 633.854 65.1461 642.425 63.7747 650.412C65.8555 633.472 73.7514 617.191 83.154 602.258C92.48 587.447 103.183 571.272 117.623 559.584C116.153 557.423 116.113 554.338 118.904 552.29Z" fill="#C1DEE2"/>
<path opacity="0.5" fill-rule="evenodd" clip-rule="evenodd" d="M18.2397 384.53C30.8946 406.477 41.2938 430.585 48.0087 455.003C52.0771 469.797 54.9223 484.978 57.7492 500.05C62.1261 523.386 66.2662 546.721 67.4438 570.472C68.6286 594.36 70.9715 621.913 63.1492 644.921C67.0565 621.562 63.3365 596.697 62.6779 573.192C62.3631 561.971 61.451 550.86 60.2545 539.705C59.0934 528.884 57.1965 518.114 55.4301 507.378C54.5696 502.149 53.6659 496.928 52.7458 491.71C52.4712 490.153 52.3551 485.534 51.3676 484.47C50.3737 483.4 45.3025 482.963 43.7104 482.178C40.5044 480.596 37.4888 478.349 34.8199 475.974C29.7035 471.423 25.2525 465.475 21.7395 459.612C13.6111 446.047 10.3614 429.492 10.5257 413.781C10.5572 410.731 15.4628 377.884 13.4927 377.432C13.6113 377.293 13.7235 377.149 13.8293 377C15.3209 379.497 16.7845 382.012 18.2397 384.53Z" fill="#89C5CC"/>
<path opacity="0.5" fill-rule="evenodd" clip-rule="evenodd" d="M154.827 463.683C155.023 463.402 156.293 461.443 155.653 461.568C156.956 461.313 153.861 463.728 157.108 462.246C155.566 463.702 156.456 465.593 156.477 467.553C156.51 470.734 155.978 473.889 155.379 477.002C154.432 481.923 153.022 486.707 150.974 491.283C146.513 501.257 138.936 510.859 129.941 517.094C125.501 520.173 121.149 521.221 116.085 522.638C112.886 523.534 112.632 525.189 110.934 528.293C107.399 534.758 103.927 541.2 100.81 547.883C97.0873 555.864 93.4735 563.853 90.0648 571.974C78.5812 599.33 69.2347 627.67 64.3261 657C64.2059 639.716 68.2043 621.915 73.2478 605.441C76.9218 593.438 81.7045 581.867 86.8058 570.414C88.0419 567.639 89.9152 564.07 90.4401 561.007C90.8077 558.86 89.6839 556.796 89.1694 554.535C87.1635 545.73 87.3071 535.866 89.0686 527.014C91.0107 517.253 96.6274 512.723 106.129 511.34C109.603 510.834 114.02 511.02 117.206 509.538C120.678 507.925 122.11 502.621 124.084 499.217C129.385 490.072 135.685 481.302 142.918 473.597C144.921 471.464 147.075 469.495 149.36 467.671C150.801 466.519 153.845 465.101 154.827 463.683Z" fill="#89C5CC"/>
</g>
<g style="mix-blend-mode:luminosity">
<path fill-rule="evenodd" clip-rule="evenodd" d="M128.356 633.528C129.236 622.753 130.198 612.036 132.348 601.414C133.616 595.155 135.322 589.007 136.845 582.807C136.718 583.582 136.61 584.361 136.52 585.142C137.064 583.289 138.288 581.486 138.957 579.634C139.703 577.568 140.282 575.431 140.828 573.308C141.894 569.165 142.89 565.018 144.114 560.914C145.479 556.343 147.082 551.835 148.562 547.298C149.819 543.448 150.976 539.412 152.669 535.716C153.591 533.701 154.403 531.545 155.305 529.493C155.607 528.807 158.123 521.173 158.101 521.174C157.632 521.195 156.014 524.61 155.744 525.113C154.953 526.582 154.292 528.104 153.625 529.629C153.231 527.87 152.655 526.156 151.795 524.56C151.53 524.067 149.659 520.43 149.103 520.455C148.825 520.467 151.698 527.363 152.05 527.964C152.335 528.452 152.857 529.065 153.052 529.589C153.367 530.435 153.215 530.227 153.019 531.012C152.66 532.45 151.79 533.881 151.263 535.269C150.974 536.011 150.291 538.568 149.569 539.732C147.753 543.697 146.548 548.489 145.219 552.738C144.805 550.697 144.157 548.74 143.295 546.839C143.09 546.388 141.436 542.19 141.013 542.209C140.538 542.229 142.657 548.976 142.93 549.554C143.437 550.63 144.206 551.658 144.637 552.756C145.11 553.962 144.421 555.095 144.005 556.367C142.478 561.046 141.165 565.761 139.986 570.534C131.796 567.363 129.748 557.073 128.891 549.456C128.274 543.966 128.883 538.322 129.987 532.922C131.46 525.716 134.161 518.704 137.057 511.94C140.43 504.058 145.231 496.941 151.119 490.629C154.198 487.328 157.742 484.429 161.351 481.7C163.114 480.366 164.936 479.244 167.028 478.454C167.97 478.098 168.942 477.828 169.927 477.611C170.676 477.446 172.184 476.679 172.817 476.831C177.984 478.021 181.924 480.204 185.09 484.442C188.087 488.454 190.05 493.321 191.233 498.127C192.55 503.48 193.047 508.912 192.355 514.387C191.826 518.564 190.781 522.681 189.731 526.759C186 541.263 179.037 556.942 165.686 565.39C161.364 568.124 156.511 569.824 151.497 570.831C150.315 571.068 149.135 571.297 147.934 571.417C147.124 571.498 144.433 571.075 143.861 571.45C143.076 571.965 142.732 574.706 142.424 575.708C140.084 583.324 138.03 591.012 136.199 598.758C134.251 606.999 132.781 615.299 131.619 623.677C131.125 627.241 130.648 630.798 130.265 634.376C130.176 635.208 130.418 637.804 129.643 638.569C129.152 639.054 128.423 638.896 128.095 638.343C127.524 637.383 128.266 634.631 128.356 633.528Z" fill="#80A1A6"/>
</g>
<g style="mix-blend-mode:luminosity">
<path fill-rule="evenodd" clip-rule="evenodd" d="M366.621 416.682C362.318 413.765 356.596 413 351.446 413C331.335 413 312.43 420.462 296.099 431.58C287.151 437.672 279.146 445.431 272.078 453.508C267.999 458.171 264.361 463.215 261.786 468.825C260.048 472.612 258.856 476.557 258.047 480.626C257.062 485.586 256.279 490.646 255.925 495.688C255.786 497.673 254.632 508.208 257.933 508.387C257.914 508.646 257.91 508.894 257.93 509.116C250.762 520.323 246.334 533.458 242.227 545.911C238.654 556.748 235.47 567.676 233.403 578.887C230.682 593.646 228.895 608.628 228.045 623.6C227.863 626.817 227.737 630.036 227.629 633.258C227.538 636.006 227.445 638.754 227.355 641.502C227.254 644.582 226.712 648.128 227.202 651.189C227.628 653.856 229.936 653.452 230.038 650.799C230.161 647.595 230.141 644.384 230.281 641.177C230.468 636.922 230.66 632.666 230.868 628.412C232.318 598.857 237.757 569.737 247.794 541.819C251.856 530.522 256.511 519.827 262.493 509.376C267.752 500.187 274.079 491.292 280.546 483.007C286.831 474.955 293.366 467.09 301.068 460.269C307.317 454.734 314.192 449.911 321.259 445.424C330.234 439.725 339.192 434.165 348.915 429.79C353.968 427.516 359.118 425.481 364.211 423.299C365.127 422.906 366.11 422.525 366.991 422.071C369.931 420.555 368.963 418.271 366.621 416.682Z" fill="#C1DEE2"/>
</g>
<g style="mix-blend-mode:luminosity">
<path fill-rule="evenodd" clip-rule="evenodd" d="M123.164 541.11C124.993 540.887 126.944 540.966 128.645 541.688C132.261 543.223 133.288 547.494 133.239 550.966C133.185 554.703 132.392 558.785 135.233 561.796C136.539 563.18 138.163 564.239 139.446 565.649C140.816 567.155 141.891 568.879 142.687 570.73C144.149 574.13 144.867 578.128 143.53 581.694C142.353 584.834 139.392 587.668 140.032 591.239C140.699 594.964 144.454 597.811 146.802 600.585C149.459 603.725 151.906 607.738 152.308 611.855C152.693 615.801 150.975 619.792 148.339 622.774C143.073 628.735 135.156 631.656 127.174 631.638C123.785 631.63 119.948 631.477 117.023 629.656C116.119 629.093 115.642 628.462 115.105 627.584C114.623 626.796 113.987 626.284 113.25 625.727C111.632 624.504 110.463 622.855 109.717 621.009C106.82 613.839 109.135 604.969 113.19 598.602C114.151 597.093 114.937 595.642 114.471 593.844C113.983 591.967 112.786 590.274 111.728 588.661C110.681 587.066 109.487 585.545 108.669 583.821C107.813 582.015 107.572 580.124 107.723 578.148C108.007 574.435 109.61 571.009 111.879 568.023C114.065 565.147 116.631 562.395 116.637 558.626C116.643 554.632 113.973 551.079 115.11 547.018C115.581 545.337 116.527 543.612 118.052 542.604C119.514 541.637 121.445 541.321 123.164 541.11Z" fill="#DDE3E9"/>
<path fill-rule="evenodd" clip-rule="evenodd" d="M121.97 547.496C122.004 546.959 122.64 546.637 123.141 546.777C123.801 546.962 123.788 547.578 123.77 548.127C123.717 549.814 123.961 551.453 124.367 553.09C125.21 556.494 126.768 559.629 128.002 562.899C129.235 566.165 129.814 569.538 129.09 572.994C128.408 576.253 127.337 579.428 126.639 582.691C126.024 585.567 125.369 588.6 126.306 591.468C127.208 594.229 129.2 596.478 130.635 598.974C133.606 604.139 134.924 609.87 135.1 615.767C135.182 618.506 135.108 621.269 134.473 623.955C134.108 625.502 133.616 627.592 132.291 628.659C131.68 629.152 130.635 629.322 130.12 628.593C129.637 627.909 130.061 626.85 130.214 626.121C130.878 622.966 131.012 619.741 130.853 616.537C130.699 613.434 130.332 610.335 129.355 607.371C128.449 604.621 127.072 602.15 125.451 599.744C123.799 597.292 122.082 594.835 121.4 591.929C120.706 588.978 121.269 585.976 122.023 583.081C122.819 580.02 123.863 577.046 124.941 574.067C125.993 571.165 126.365 568.418 125.785 565.381C124.638 559.379 121.57 553.746 121.97 547.496Z" fill="#C5CFD6"/>
<path fill-rule="evenodd" clip-rule="evenodd" d="M171.442 548.393C173.705 549.08 175.952 550.188 177.565 551.927C180.994 555.623 179.942 561.209 178.049 565.289C176.011 569.681 172.923 574.095 174.664 579.134C175.464 581.45 176.809 583.548 177.568 585.883C178.379 588.377 178.729 590.975 178.685 593.578C178.602 598.359 177.33 603.46 173.878 606.983C170.837 610.084 165.867 611.895 164.73 616.451C163.544 621.203 166.443 626.524 167.731 631.026C169.187 636.122 169.936 642.14 168.231 647.218C166.597 652.085 162.474 655.911 157.805 658.068C148.478 662.376 137.648 661.713 128.295 657.539C124.324 655.767 119.905 653.59 117.437 649.914C116.674 648.778 116.449 647.783 116.283 646.466C116.134 645.284 115.658 644.347 115.088 643.305C113.837 641.016 113.337 638.458 113.438 635.887C113.831 625.901 121.234 616.615 129.355 611.195C131.279 609.911 132.969 608.603 133.372 606.234C133.793 603.761 133.283 601.136 132.894 598.677C132.51 596.247 131.913 593.827 131.865 591.363C131.815 588.782 132.532 586.42 133.754 584.161C136.05 579.918 139.741 576.7 143.981 574.349C148.064 572.085 152.529 570.165 154.527 565.712C156.646 560.992 155.392 555.401 158.873 551.19C160.314 549.446 162.335 547.898 164.656 547.499C166.882 547.117 169.314 547.747 171.442 548.393Z" fill="#DDE3E9"/>
<path fill-rule="evenodd" clip-rule="evenodd" d="M166.82 556.198C167.141 555.581 168.054 555.534 168.566 555.962C169.24 556.526 168.903 557.249 168.595 557.89C167.649 559.86 167.076 561.929 166.693 564.08C165.896 568.553 166.075 573.082 165.806 577.601C165.537 582.115 164.448 586.413 161.792 590.127C159.288 593.629 156.372 596.827 153.847 600.325C151.622 603.408 149.268 606.657 148.861 610.545C148.469 614.288 149.621 617.995 149.993 621.702C150.761 629.377 149.301 636.854 146.418 643.93C145.079 647.216 143.546 650.45 141.396 653.298C140.159 654.938 138.49 657.155 136.381 657.725C135.408 657.988 134.097 657.642 133.878 656.509C133.671 655.446 134.721 654.414 135.282 653.631C137.711 650.242 139.556 646.493 141.048 642.616C142.494 638.86 143.687 634.999 144.098 630.977C144.478 627.244 144.162 623.597 143.526 619.898C142.879 616.128 142.158 612.318 142.882 608.52C143.617 604.662 145.848 601.401 148.245 598.368C150.78 595.16 153.557 592.185 156.379 589.223C159.128 586.337 161.002 583.28 161.914 579.378C163.717 571.67 163.079 563.39 166.82 556.198Z" fill="#C5CFD6"/>
<path fill-rule="evenodd" clip-rule="evenodd" d="M101.493 576.745C105.255 576.745 108.563 578.739 110.842 581.569C113.51 584.882 114.049 588.927 115.133 592.876C115.672 594.841 116.599 596.791 118.224 598.126C119.702 599.34 121.578 599.583 123.347 600.176C126.882 601.362 129.737 604.217 130.864 607.702C132.24 611.952 130.783 616.238 131.034 620.546C131.264 624.501 135.164 626.969 138.302 628.866C141.397 630.735 144.184 632.486 145.116 636.129C146.104 639.992 146.436 644.304 145.067 648.121C142.788 654.476 136.119 657.274 129.674 657.708C123.825 658.102 116.471 657.483 112.079 653.238C109.451 650.698 108.499 647.145 108.617 643.61C108.691 641.411 109.126 639.234 109.689 637.109C110.088 635.604 110.627 634.105 110.781 632.549C111.189 628.41 107.363 627.615 104.107 626.479C99.9691 625.034 97.0723 622.306 95.0579 618.506C93.1819 614.967 92.3948 610.995 93.5194 607.098C94.0937 605.109 95.1355 603.304 96.5483 601.769C97.1702 601.093 98.0468 600.53 98.6081 599.82C99.1321 599.157 99.018 598.298 98.8375 597.521C98.0025 593.934 95.4013 590.964 94.471 587.384C93.6311 584.152 94.1276 580.13 97.0822 578.045C98.3587 577.145 99.9329 576.755 101.493 576.745Z" fill="#C5CFD6"/>
<path fill-rule="evenodd" clip-rule="evenodd" d="M106.62 586.09C110.607 590.338 111.691 596.101 112.009 601.687C112.188 604.819 112.002 608.123 112.922 611.161C113.71 613.762 115.556 615.749 117.458 617.628C121.288 621.41 125.56 625.255 126.68 630.728C127.338 633.94 126.894 637.258 127.802 640.434C128.628 643.322 130.082 646.159 131.851 648.597C133.275 650.56 135.13 652.064 136.687 653.894C137.162 654.453 137.842 655.275 137.646 656.064C137.417 656.988 136.24 657.28 135.405 657.135C133.459 656.797 131.821 654.938 130.548 653.587C128.687 651.611 127.106 649.486 125.82 647.102C124.393 644.455 123.245 641.646 122.754 638.676C122.244 635.595 122.498 632.384 121.335 629.427C119.377 624.451 114.629 621.515 111.197 617.637C106.92 612.805 107.558 606.79 107.996 600.846C108.236 597.58 108.475 593.891 106.825 590.908C106.195 589.77 104.79 588.708 104.519 587.414C104.271 586.229 105.625 585.03 106.62 586.09Z" fill="#AFB9C5"/>
</g>
<g style="mix-blend-mode:luminosity">
<path fill-rule="evenodd" clip-rule="evenodd" d="M139.406 455.508C143.966 454.121 149.183 455.004 153.692 456.402C171.301 461.86 185.828 473.524 197.109 487.691C203.291 495.454 208.195 504.419 212.19 513.41C214.497 518.599 216.313 524.003 217.045 529.614C217.539 533.401 217.512 537.179 217.116 540.962C216.632 545.571 215.944 550.214 214.886 554.725C214.469 556.501 212.62 566.038 209.682 565.299C209.628 565.531 209.564 565.749 209.486 565.938C212.721 577.696 213.033 590.399 213.249 602.417C213.437 612.875 213.259 623.307 212.026 633.684C210.403 647.345 207.901 660.948 204.582 674.287C203.869 677.154 203.105 680.006 202.325 682.857C201.659 685.288 200.995 687.719 200.328 690.149C199.58 692.873 199.093 696.125 197.833 698.673C196.736 700.891 194.825 699.912 195.456 697.561C196.218 694.722 197.107 691.916 197.854 689.071C198.846 685.294 199.832 681.516 200.805 677.734C207.556 651.463 210.698 624.491 209.486 597.323C208.995 586.329 207.822 575.701 205.421 564.927C203.309 555.455 200.184 545.949 196.771 536.94C193.452 528.184 189.865 519.524 184.973 511.462C181.003 504.919 176.293 498.831 171.324 492.984C165.012 485.559 158.677 478.259 151.352 471.79C147.544 468.427 143.588 465.247 139.721 461.955C139.025 461.362 138.268 460.762 137.62 460.125C135.457 458 136.924 456.263 139.406 455.508Z" fill="#93C6CD"/>
</g>
<g style="mix-blend-mode:luminosity">
<path fill-rule="evenodd" clip-rule="evenodd" d="M142.182 610C134.705 610 128.051 610.972 121.162 613.943C115.215 616.508 109.795 619.903 104.533 623.599C97.1316 628.798 91.3016 634.848 87.2208 642.865C84.7828 647.654 82.9944 654.431 84.6317 659.655C86.5604 665.807 91.8561 670.939 98.8307 669.855C103.144 669.185 107.097 666.33 110.375 663.643C114.297 660.428 117.436 656.563 120.028 652.27C124.256 645.267 126.74 637.351 130.332 630.033C132.036 626.56 133.683 623.063 135.725 619.762C136.735 618.128 137.811 616.509 139.344 615.294C140.164 614.644 143.623 613.52 142.3 612.061C161.69 612.315 178.868 627.207 182.591 645.641C182.937 647.359 183.208 649.091 183.495 650.82C183.675 651.911 183.602 655.937 184.578 656.634C186.73 658.172 185.826 653.499 185.733 652.826C185.495 651.087 185.24 649.35 184.973 647.615C183.519 638.181 179.319 629.411 172.315 622.683C164.306 614.99 153.499 610 142.182 610Z" fill="#89C5CC"/>
</g>
<g style="mix-blend-mode:luminosity">
<path fill-rule="evenodd" clip-rule="evenodd" d="M293.98 519.66C290.57 518.915 286.803 518.972 283.329 519.033C264.695 519.287 246.397 528.109 234.489 542.205C224.351 554.205 221.563 569.125 219.56 584.207C219.362 585.704 219.277 587.192 219.165 588.693C219.141 589.015 219.105 589.302 219.066 589.573C218.279 590.277 217.865 591.098 218.332 592C216.597 595.797 215.129 599.69 213.869 603.706C210.162 615.526 206.392 627.571 208.714 640C209.257 633.16 210.399 626.166 211.764 619.438C211.842 619.052 211.927 618.669 212.015 618.287C212.025 618.247 212.033 618.206 212.042 618.166C212.525 616.106 213.153 614.108 213.917 612.141C213.925 612.119 213.933 612.098 213.941 612.077C214.042 611.818 214.149 611.56 214.255 611.303C214.474 610.77 214.699 610.238 214.937 609.708C215.018 609.528 215.095 609.346 215.17 609.163C216.282 606.437 216.751 603.365 217.748 600.545C217.986 599.904 218.235 599.265 218.496 598.629C218.512 598.592 218.527 598.555 218.543 598.518C219.249 596.807 220.028 595.118 220.853 593.446C221.301 593.109 221.54 592.274 221.927 591.515C222.006 591.365 222.631 590.368 222.817 589.793C223.303 588.854 223.786 587.915 224.275 586.977C224.26 586.983 224.246 586.988 224.231 586.994C224.72 586.093 225.211 585.197 225.698 584.304C225.805 584.108 225.913 583.912 226.021 583.715C226.196 583.402 226.371 583.089 226.545 582.777C228.177 579.856 229.908 576.994 231.705 574.167C232.347 573.158 233.879 571.711 234.173 570.579C234.184 570.536 234.186 570.497 234.193 570.457C238.093 564.979 242.582 559.927 247.966 555.924C247.316 556.628 245.932 559.015 245.567 559.488C244.447 560.935 243.232 562.282 242.013 563.646C239.828 566.089 237.696 568.609 235.801 571.274C232.335 576.148 229.346 581.277 226.519 586.51C226.493 586.54 226.463 586.569 226.438 586.601C225.017 588.352 224.123 590.998 223.101 593.001C227.147 591.127 231.622 589.906 235.774 588.242C239.916 586.583 243.945 584.735 247.834 582.566C253.003 579.682 258.366 576.427 263.25 572.743C268.848 569.271 273.551 564.492 277.703 559.477C282.615 553.543 287.117 547.558 289.901 540.353C291.269 536.813 292.345 533.121 292.983 529.386C293.011 529.224 293.046 529.047 293.085 528.864C293.738 527.574 294.321 526.255 294.811 524.906C295.588 522.766 297.425 520.412 293.98 519.66Z" fill="#69A1AC"/>
</g>
<g style="mix-blend-mode:luminosity">
<path fill-rule="evenodd" clip-rule="evenodd" d="M194.447 652.217C187.396 641.726 180.295 631.341 172.035 621.732C167.167 616.07 161.916 610.772 156.821 605.316C157.393 606.034 157.949 606.767 158.485 607.512C156.873 605.932 154.594 604.792 152.854 603.284C150.914 601.603 149.102 599.753 147.333 597.899C143.879 594.281 140.495 590.618 136.902 587.131C132.9 583.245 128.69 579.563 124.589 575.779C121.108 572.568 117.622 569.111 113.785 566.307C111.693 564.778 109.634 563.042 107.542 561.464C106.841 560.936 99.9155 554.584 99.9379 554.573C100.429 554.326 104.029 556.886 104.593 557.245C106.239 558.292 107.782 559.468 109.334 560.643C108.731 558.623 108.34 556.545 108.306 554.426C108.295 553.772 108.126 548.993 108.708 548.7C108.998 548.554 110.005 557.231 109.99 558.045C109.977 558.706 109.795 559.628 109.895 560.274C110.057 561.318 110.093 561.018 110.741 561.707C111.929 562.969 113.633 563.932 114.964 565.049C115.683 565.64 117.84 567.859 119.24 568.634C123.358 571.643 127.323 575.844 131.106 579.42C130.363 577.101 129.906 574.734 129.701 572.302C129.652 571.725 128.942 566.498 129.384 566.275C129.881 566.024 131.572 574.118 131.624 574.864C131.72 576.251 131.523 577.74 131.71 579.106C131.916 580.606 133.267 581.368 134.417 582.429C138.647 586.33 142.679 590.392 146.607 594.588C153.153 586.676 149.366 575.007 145.89 566.747C143.385 560.793 139.541 555.382 135.331 550.504C129.713 543.993 122.952 538.381 116.136 533.133C108.193 527.019 99.2301 522.499 89.619 519.421C84.5922 517.812 79.3206 516.878 74.0798 516.154C71.5197 515.801 69.02 515.696 66.435 516.084C65.2699 516.26 64.124 516.539 62.995 516.88C62.1371 517.139 60.1607 517.219 59.6012 517.734C55.0091 521.9 52.2355 526.377 51.4263 532.509C50.66 538.313 51.436 544.4 52.9741 549.979C54.6871 556.192 57.2817 562.019 61.1146 567.209C64.0389 571.168 67.4572 574.772 70.8563 578.334C82.9458 591.001 99.004 603.021 117.45 604.015C123.42 604.338 129.343 603.3 135.033 601.464C136.374 601.032 137.709 600.59 139.003 600.027C139.876 599.648 142.38 597.679 143.178 597.735C144.272 597.813 146.189 600.413 147.075 601.259C153.811 607.693 160.298 614.363 166.589 621.221C173.282 628.517 179.523 636.145 185.492 644.03C188.031 647.384 190.55 650.74 192.983 654.172C193.55 654.97 194.785 657.757 196.013 658.095C196.79 658.309 197.444 657.731 197.463 656.98C197.497 655.675 195.169 653.291 194.447 652.217Z" fill="#AC7FE0"/>
</g>
<g style="mix-blend-mode:luminosity">
<path fill-rule="evenodd" clip-rule="evenodd" d="M184.954 600.207C185.95 598.987 186.816 597.652 187.355 596.152C187.492 595.773 188.368 592.969 188.07 592.837C187.376 592.529 185.275 599.837 184.954 600.207ZM194.37 611.581C194.32 611.579 192.903 612.709 192.463 613.024C191.527 613.695 190.566 614.328 189.599 614.933C191.326 613.996 192.918 613.059 194.37 611.581ZM172.769 549.652C172.363 548.815 173.327 547.602 173.763 548.701C174.113 549.591 174.159 549.539 174.959 549.847C175.609 550.098 176.373 550.2 177.047 550.406C178.476 550.841 179.855 551.369 181.176 552.069C184.008 553.571 186.543 555.53 188.769 557.815C192.653 561.802 196.333 566.368 198.576 571.446C202.143 579.521 203.645 589.074 203.189 597.732C202.907 603.093 201.809 608.113 198.098 612.172C196.244 614.201 193.976 615.908 191.352 616.885C190.666 617.141 189.875 617.223 189.209 617.515C188.186 617.964 188.451 617.793 188.42 619.068C188.386 620.461 188.348 621.854 188.305 623.246C188.193 626.893 188.046 630.566 187.538 634.175C187.371 635.363 187.127 636.536 186.815 637.693C186.579 638.568 185.936 642.009 184.921 642.56C183.232 643.476 183.725 641.136 184.015 640.389C184.27 639.735 184.499 639.069 184.702 638.396C185.212 636.703 185.547 634.967 185.76 633.21C185.99 631.311 186.092 629.392 186.194 627.481C186.29 625.698 186.353 623.914 186.403 622.129C186.431 621.137 186.454 620.145 186.477 619.154C186.484 618.815 186.688 618.19 186.264 618.295C186.369 616.202 186 614.007 185.815 611.916C185.587 609.355 185.335 606.789 184.895 604.249C184.577 602.418 184.196 600.594 183.689 598.799C183.394 597.75 183.033 596.727 182.617 595.716C182.389 595.16 181.755 592.932 181.208 592.689C181.443 592.793 181.589 595.331 181.646 595.649C181.875 596.919 182.181 598.168 182.503 599.42C183.101 601.744 183.573 604.086 183.888 606.457C183.471 606.507 182.502 604.994 182.17 604.638C181.427 603.84 180.633 603.088 179.782 602.401C178.282 601.192 176.433 599.751 174.754 599.005C175.248 599.225 176.038 600.543 176.456 600.991C177.126 601.709 177.83 602.406 178.57 603.055C179.252 603.654 179.975 604.2 180.711 604.734C181.446 605.269 182.912 605.927 183.459 606.688C183.492 606.734 183.26 607.133 183.385 607.323C183.511 607.514 184.032 607.701 184.059 607.751C184.463 608.474 184.301 609.98 184.378 610.789C184.577 612.89 184.746 614.992 184.926 617.093C184.982 617.744 185.207 618.272 184.765 618.584C184.294 618.916 182.891 618.628 182.318 618.571C180.191 618.359 178.221 617.727 176.43 616.547C173.074 614.337 170.626 611.373 168.777 607.894C161.694 594.571 157.539 579.918 160.852 565.128C162.224 559.005 164.906 549.696 172.769 549.652Z" fill="#89C5CC"/>
</g>
<g style="mix-blend-mode:luminosity">
<path fill-rule="evenodd" clip-rule="evenodd" d="M343.328 596.623C342.679 596.151 341.14 595.984 340.424 595.842C337.448 595.255 334.382 595 331.347 595C321.991 595.014 312.482 595.932 303.281 597.522C297.439 598.531 290.377 601.927 284.565 600.083C274.441 596.869 264.209 597.027 254.603 601.615C245.821 605.81 239.155 613.777 235.264 622.386C234.677 623.686 232.296 628.468 231.622 631.693C231.333 632.352 231.057 633.016 230.807 633.689C230.099 635.602 229.463 637.549 228.873 639.499C228.621 640.331 227.986 642.168 228.74 642.523C227.536 644.744 226.469 647.033 225.58 649.397C222.996 656.271 220.17 663.811 219.262 671.096C218.926 673.794 218.913 676.507 219.225 679.21C219.38 680.546 219.316 683.232 220.222 684.248C222.144 686.403 223.131 683.386 222.914 681.949C221.259 670.995 224.454 660.709 228.241 650.412C230.69 643.754 234.713 637.663 239.22 632.146C242.868 627.681 246.781 624.165 251.781 621.204C257.895 617.584 264.433 614.657 270.91 611.721C275.17 609.79 279.435 607.91 283.814 606.246C284.787 605.875 286.319 604.926 287.399 604.922C289.682 604.914 292.918 606.599 295.123 607.226C302.377 609.288 309.723 611.928 317.22 612.982C322.028 613.658 326.533 612.897 331.03 611.295C331.49 611.131 332.26 610.711 333.203 610.11C336.542 608.826 339.701 607.209 342.45 604.877C344.035 603.534 345.473 601.797 346.784 600.208C347.176 599.733 347.349 599.188 347.355 598.671C347.652 598.516 347.85 598.334 347.894 598.122C348.221 596.558 345.238 596.529 343.328 596.623Z" fill="#89C5CC"/>
</g>
<g style="mix-blend-mode:luminosity">
<path fill-rule="evenodd" clip-rule="evenodd" d="M10.1748 570C8.5188 570 6.86781 570.033 5.21386 570.119C3.95312 570.185 2.02653 569.924 0.959734 570.71C-0.148644 571.526 -0.0723166 573.197 0.10083 574.377C1.01616 580.616 3.25014 586.149 7.92362 590.569C15.1195 597.376 23.3687 600.835 33.1303 602.375C39.9873 603.457 46.3174 601.955 51.3651 597.079C55.0531 603.924 57.8511 611.499 59.255 619.144C59.9476 622.916 60.159 626.643 60.0373 630.485C59.9589 632.945 59.8231 635.4 59.5594 637.848C59.4451 638.912 58.9025 640.523 59.3191 641.529C59.808 642.709 61.4566 642.824 62.1967 641.817C62.8127 640.979 62.6995 639.333 62.826 638.341C63.0357 636.694 63.2299 635.045 63.3689 633.39C63.5946 630.711 63.7616 628.025 63.7494 625.336C63.7212 619.294 62.3779 613.228 60.5404 607.493C57.0154 596.49 51.2959 586.712 42.4006 579.039C36.9312 574.321 30.6715 572.411 23.5695 571.385C19.1479 570.747 14.6541 570 10.1748 570Z" fill="#599CA4"/>
<path fill-rule="evenodd" clip-rule="evenodd" d="M35.7141 613.75C17.8405 613.75 5.80256 628.155 0.110852 643.127C-2.0347 648.77 -2.53757 654.967 -3.36447 660.893C-3.62996 662.795 -3.53161 665.692 -4.30348 667.387C-4.5836 668.001 -5.2258 668.222 -4.91875 669.059C-4.73288 669.566 -4.36816 669.876 -3.82051 669.977C-2.69622 670.184 -1.10652 668.959 -0.142633 668.476C7.85239 664.466 13.1053 658.267 17.3906 650.681C20.0469 645.98 22.7421 641.099 24.3201 635.937C25.284 632.784 25.8451 629.464 26.1747 626.192C26.3044 624.904 26.43 623.586 26.4224 622.289C26.4148 621.004 25.8165 620.324 25.3865 619.205C31.3504 616.947 38.0821 616.332 44.1233 618.671C49.7108 620.835 54.3523 625.016 56.9512 630.269C57.6265 631.635 58.1472 633.075 58.5266 634.545C58.7748 635.507 58.7868 636.756 59.2469 637.625C60.3627 639.735 62.7102 638.325 62.4849 636.361C61.8564 630.884 58.7233 625.386 54.7187 621.578C49.6681 616.776 42.8219 613.75 35.7141 613.75Z" fill="#599CA4"/>
</g>
<g style="mix-blend-mode:luminosity">
<path fill-rule="evenodd" clip-rule="evenodd" d="M206.11 583.074C207.329 582.925 208.63 582.977 209.763 583.458C212.174 584.482 212.859 587.329 212.826 589.644C212.79 592.135 212.261 594.856 214.155 596.864C215.026 597.787 216.109 598.493 216.964 599.433C217.877 600.437 218.594 601.586 219.125 602.82C220.099 605.086 220.578 607.752 219.687 610.129C218.902 612.223 216.928 614.112 217.355 616.493C217.799 618.976 220.303 620.874 221.868 622.724C223.64 624.817 225.27 627.492 225.538 630.237C225.795 632.867 224.65 635.528 222.893 637.516C219.382 641.49 214.104 643.438 208.783 643.425C206.523 643.42 203.965 643.318 202.015 642.104C201.413 641.729 201.095 641.308 200.737 640.722C200.415 640.198 199.991 639.856 199.5 639.485C198.421 638.669 197.642 637.57 197.145 636.339C195.214 631.559 196.757 625.646 199.46 621.401C200.1 620.396 200.625 619.428 200.314 618.229C199.989 616.978 199.191 615.849 198.485 614.774C197.788 613.711 196.991 612.697 196.446 611.547C195.875 610.343 195.714 609.083 195.815 607.765C196.005 605.29 197.073 603.006 198.586 601.015C200.043 599.098 201.754 597.263 201.758 594.751C201.762 592.088 199.982 589.719 200.74 587.012C201.054 585.891 201.685 584.741 202.701 584.069C203.676 583.425 204.963 583.214 206.11 583.074Z" fill="#988DA0"/>
<path fill-rule="evenodd" clip-rule="evenodd" d="M205.313 587.33C205.336 586.973 205.76 586.758 206.094 586.852C206.534 586.974 206.525 587.385 206.514 587.751C206.478 588.876 206.641 589.969 206.911 591.06C207.473 593.329 208.512 595.42 209.335 597.599C210.157 599.777 210.542 602.025 210.06 604.329C209.606 606.502 208.891 608.618 208.426 610.794C208.016 612.711 207.58 614.733 208.204 616.645C208.805 618.486 210.134 619.985 211.09 621.649C213.071 625.093 213.949 628.913 214.067 632.845C214.121 634.67 214.072 636.513 213.649 638.303C213.405 639.334 213.078 640.728 212.194 641.44C211.787 641.768 211.09 641.881 210.747 641.395C210.425 640.939 210.707 640.233 210.81 639.748C211.252 637.644 211.341 635.494 211.235 633.358C211.133 631.289 210.888 629.224 210.237 627.248C209.633 625.414 208.715 623.767 207.634 622.163C206.533 620.528 205.388 618.89 204.933 616.953C204.471 614.986 204.846 612.984 205.349 611.054C205.88 609.013 206.575 607.03 207.294 605.045C207.995 603.11 208.244 601.279 207.857 599.254C207.092 595.253 205.047 591.497 205.313 587.33Z" fill="#C5CFD6"/>
<path fill-rule="evenodd" clip-rule="evenodd" d="M238.295 587.929C239.803 588.387 241.301 589.126 242.376 590.284C244.663 592.748 243.961 596.473 242.699 599.193C241.341 602.121 239.282 605.063 240.442 608.423C240.976 609.967 241.873 611.366 242.379 612.922C242.919 614.585 243.153 616.317 243.123 618.052C243.068 621.239 242.22 624.64 239.918 626.989C237.892 629.056 234.578 630.264 233.82 633.301C233.029 636.469 234.962 640.016 235.82 643.018C236.792 646.415 237.291 650.427 236.154 653.812C235.065 657.057 232.316 659.608 229.203 661.045C222.985 663.917 215.765 663.475 209.53 660.693C206.883 659.511 203.936 658.06 202.291 655.61C201.783 654.852 201.632 654.189 201.522 653.31C201.422 652.523 201.105 651.898 200.725 651.203C199.891 649.677 199.558 647.972 199.625 646.258C199.887 639.6 204.823 633.41 210.237 629.796C211.519 628.94 212.646 628.069 212.915 626.489C213.195 624.841 212.856 623.091 212.596 621.452C212.34 619.832 211.942 618.218 211.91 616.575C211.877 614.854 212.355 613.28 213.169 611.774C214.7 608.945 217.161 606.8 219.987 605.233C222.709 603.723 225.686 602.444 227.018 599.474C228.43 596.328 227.595 592.6 229.915 589.793C230.876 588.631 232.223 587.599 233.771 587.333C235.255 587.078 236.876 587.498 238.295 587.929Z" fill="#8296AB"/>
<path fill-rule="evenodd" clip-rule="evenodd" d="M235.213 593.132C235.427 592.721 236.036 592.689 236.377 592.975C236.827 593.351 236.602 593.833 236.397 594.26C235.766 595.573 235.384 596.953 235.129 598.387C234.597 601.368 234.717 604.388 234.538 607.401C234.358 610.41 233.632 613.275 231.861 615.751C230.192 618.086 228.248 620.218 226.565 622.55C225.081 624.606 223.512 626.771 223.241 629.363C222.979 631.858 223.748 634.33 223.995 636.802C224.507 641.918 223.534 646.903 221.612 651.62C220.72 653.811 219.697 655.967 218.264 657.865C217.439 658.959 216.327 660.437 214.921 660.817C214.272 660.992 213.398 660.761 213.252 660.006C213.114 659.297 213.814 658.609 214.188 658.087C215.807 655.828 217.037 653.329 218.032 650.744C218.996 648.24 219.792 645.666 220.065 642.984C220.319 640.496 220.108 638.064 219.684 635.598C219.253 633.085 218.772 630.545 219.255 628.013C219.745 625.441 221.232 623.267 222.83 621.245C224.52 619.106 226.372 617.123 228.252 615.149C230.085 613.224 231.335 611.186 231.943 608.585C233.145 603.447 232.72 597.927 235.213 593.132Z" fill="#C5CFD6"/>
<path fill-rule="evenodd" clip-rule="evenodd" d="M191.662 606.83C194.17 606.83 196.375 608.159 197.895 610.046C199.674 612.254 200.033 614.952 200.755 617.584C201.115 618.894 201.733 620.194 202.816 621.084C203.801 621.894 205.052 622.055 206.231 622.451C208.588 623.241 210.491 625.145 211.243 627.468C212.16 630.301 211.189 633.159 211.356 636.03C211.509 638.668 214.11 640.313 216.202 641.577C218.264 642.824 220.123 643.991 220.744 646.419C221.403 648.995 221.624 651.87 220.711 654.414C219.192 658.651 214.746 660.516 210.449 660.805C206.55 661.068 201.648 660.656 198.719 657.825C196.967 656.132 196.333 653.763 196.411 651.406C196.46 649.941 196.751 648.489 197.126 647.073C197.392 646.069 197.751 645.07 197.854 644.033C198.126 641.273 195.576 640.743 193.405 639.986C190.646 639.023 188.715 637.204 187.372 634.67C186.121 632.311 185.597 629.663 186.346 627.066C186.729 625.739 187.424 624.536 188.366 623.513C188.78 623.062 189.365 622.686 189.739 622.213C190.088 621.771 190.012 621.198 189.892 620.681C189.335 618.29 187.601 616.31 186.981 613.923C186.421 611.768 186.752 609.087 188.721 607.697C189.572 607.096 190.622 606.836 191.662 606.83Z" fill="#596772"/>
<path fill-rule="evenodd" clip-rule="evenodd" d="M195.08 613.06C197.738 615.892 198.461 619.734 198.673 623.458C198.792 625.546 198.668 627.749 199.281 629.774C199.806 631.508 201.037 632.833 202.306 634.085C204.859 636.607 207.707 639.17 208.453 642.819C208.892 644.96 208.596 647.172 209.201 649.29C209.752 651.215 210.721 653.106 211.9 654.731C212.85 656.04 214.087 657.042 215.125 658.263C215.441 658.635 215.895 659.184 215.764 659.709C215.611 660.325 214.827 660.52 214.27 660.423C212.973 660.198 211.88 658.959 211.032 658.058C209.791 656.741 208.737 655.324 207.88 653.735C206.929 651.97 206.163 650.097 205.836 648.117C205.496 646.063 205.665 643.923 204.89 641.951C203.585 638.634 200.419 636.677 198.131 634.091C195.28 630.87 195.705 626.86 195.997 622.897C196.157 620.72 196.317 618.26 195.217 616.272C194.796 615.513 193.86 614.806 193.679 613.943C193.514 613.152 194.417 612.354 195.08 613.06Z" fill="#AFB9C5"/>
</g>
</g>
<defs>
<linearGradient id="paint0_linear" x1="388.793" y1="520.034" x2="-28.1453" y2="589.298" gradientUnits="userSpaceOnUse">
<stop stop-color="#7D19F1" stop-opacity="0.19"/>
<stop offset="1" stop-color="#FBBEBE" stop-opacity="0.49"/>
</linearGradient>
<linearGradient id="paint1_linear" x1="-18.9344" y1="513.648" x2="432.485" y2="540.338" gradientUnits="userSpaceOnUse">
<stop stop-color="#7D19F1" stop-opacity="0.19"/>
<stop offset="1" stop-color="#FBBEBE" stop-opacity="0.49"/>
</linearGradient>
<clipPath id="clip0">
<rect width="360" height="640" fill="white"/>
</clipPath>
</defs>
</svg>
