<svg width="360" height="360" viewBox="0 0 360 360" fill="none" xmlns="http://www.w3.org/2000/svg">
<g clip-path="url(#clip0)">
<rect width="360" height="360" fill="white" fill-opacity="0.74"/>
<g style="mix-blend-mode:difference" opacity="0.5">
<path opacity="0.7" fill-rule="evenodd" clip-rule="evenodd" d="M314.746 268.385C319.176 268.156 324.655 270.742 325.127 275.557C325.471 279.056 325.365 282.545 325.896 286.039C326.321 288.831 327.219 291.512 328.445 294.055C329.623 296.501 332.068 298.583 332.704 301.196C333.109 302.86 332.882 305.202 332.323 306.831C331.644 308.811 332.005 308.654 333.359 310.316C336.013 313.572 338.402 316.91 340.092 320.799C342.526 326.4 344.121 332.947 343.218 339.078C343.103 339.856 342.967 342.65 341.895 342.845C340.697 343.064 341.257 341.466 341.321 340.95C341.729 337.656 342.091 334.777 341.599 331.433C339.703 318.527 330.445 310.024 324.416 299.071C324.085 298.506 323.385 297.161 322.899 296.273C322.131 294.872 321.359 292.207 320.319 291.168C318.361 289.211 320.161 293.145 320.543 293.896C321.025 294.846 321.556 295.856 322.05 296.689C324.312 300.547 326.836 304.76 329.172 308.737C319.07 311.039 311.955 298.894 309.243 290.909C307.01 284.33 304.337 268.948 314.746 268.385Z" fill="#69A1AC"/>
<path opacity="0.7" fill-rule="evenodd" clip-rule="evenodd" d="M374.124 256.168C366.718 256.756 361.964 261.643 359.75 268.478C358.557 272.162 358.421 275.946 357.758 279.731C356.761 285.426 354.615 289.742 350.422 293.8C349.123 295.057 348.166 296.347 347.486 297.727C346.135 299.105 344.96 300.665 344.096 302.572C342.992 305.007 342.68 307.929 343.954 310.356C344.297 311.009 345.151 312.319 346.037 312.914C342.721 319.976 340.898 327.709 341.104 335.433C341.228 340.095 341.455 344.759 341.721 349.416C341.793 350.666 342.2 352.731 342.811 350.634C343.371 348.716 342.669 345.705 342.604 343.701C342.288 333.94 342.018 325.065 346.036 315.945C346.457 314.989 346.904 314.041 347.37 313.1C347.397 313.084 347.422 313.065 347.448 313.047C347.466 313.06 347.482 313.075 347.499 313.088C347.529 313.035 347.57 312.972 347.617 312.902C347.751 312.764 347.867 312.59 347.978 312.396C348.335 311.902 348.738 311.322 348.74 311.004C348.74 311.002 348.739 310.998 348.739 310.995C351.226 306.935 354.075 303.098 356.986 299.336C356.964 299.364 360.142 295.036 359.651 297.429C359.414 298.583 357.076 300.779 356.132 302.001C354.043 304.718 351.59 308.162 349.552 311.492C349.277 311.65 348.89 312.424 348.61 313C348.455 313.292 348.311 313.587 348.169 313.843C355.391 316.229 361.009 311.423 364.84 305.832C364.845 305.826 364.849 305.819 364.853 305.812C366.019 304.267 367.213 302.734 368.705 301.512C371.194 299.475 373.86 299.115 376.795 298.112C384.798 295.378 388.201 285.006 389.282 277.309C390.501 268.626 384.537 255.312 374.124 256.168Z" fill="#89C5CC"/>
<path opacity="0.7" fill-rule="evenodd" clip-rule="evenodd" d="M359.495 231.853C351.894 239.764 348.221 250.737 345.314 261.052C342.066 272.574 339.921 284.273 339.838 296.251C339.785 304.121 339.57 312.04 340.03 319.901C340.193 322.693 340.471 325.49 340.914 328.251C340.95 328.478 341.94 334.645 342.887 333.208C343.426 332.391 341.872 326.811 341.755 325.882C341.095 320.647 340.941 315.374 340.973 310.102C341.026 301.421 340.77 292.785 341.65 284.137C341.781 282.845 341.885 281.489 342.192 280.226C342.518 278.883 342.103 279.469 343.164 278.937C344.194 278.421 345.468 278.494 346.538 277.846C350.78 275.274 352.95 268.666 354.639 264.331C356.57 259.373 357.744 254.087 358.682 248.869C359.371 245.036 359.863 241.226 360.142 237.344C360.229 236.12 360.235 234.84 360.475 233.637C360.54 233.313 360.865 232.738 360.853 232.451C360.828 231.843 360.461 231.485 360.431 230.974C360.113 231.26 359.8 231.554 359.495 231.853Z" fill="#89C5CC"/>
<path opacity="0.7" fill-rule="evenodd" clip-rule="evenodd" d="M318.048 337.255C318.048 350.337 328.654 360.943 341.737 360.943C354.82 360.943 365.426 350.337 365.426 337.255" fill="#89C5CC"/>
<path opacity="0.7" fill-rule="evenodd" clip-rule="evenodd" d="M343.638 337.33H342.386C342.473 335.76 342.588 334.192 342.85 332.639C343.854 326.7 346.994 317.976 353.88 317.012C354.134 316.976 355.068 316.97 356.2 317.037C356.737 316.737 357.338 316.556 357.971 316.514C363.834 316.082 370.381 320.812 373.209 325.734C375.489 329.702 375.105 334.913 373.697 339.129C372.754 341.952 370.696 345.977 367.264 346.016C362.97 346.065 362.763 340.758 362.68 337.656C362.57 333.531 362.048 329.938 358.798 327.127C358.041 326.472 357.213 325.895 356.448 325.25C355.25 324.239 353.926 323.204 353.772 321.531C353.558 319.224 354.861 318.809 356.849 319.237C357.188 319.31 360.603 320.843 360.098 319.631C359.943 319.261 359.379 318.968 358.668 318.749C356.827 318.548 354.631 318.316 353.999 318.455C347.186 319.95 344.533 329.387 343.829 335.383C343.753 336.03 343.691 336.68 343.638 337.33Z" fill="#69A1AC"/>
</g>
<g style="mix-blend-mode:luminosity" opacity="0.6">
<path d="M277.807 -93.4945C358.231 -44.1704 399.44 30.9957 373.809 76.7174C340.385 136.342 235.243 176.577 178.571 68.3109C134.901 -15.1167 55.1655 -57.2196 82.5686 -101.901C109.972 -146.582 197.383 -142.819 277.807 -93.4945Z" fill="url(#paint0_linear)"/>
</g>
<g style="mix-blend-mode:luminosity" opacity="0.5">
<path d="M-21.3733 481.007C-137.892 487.259 -233.56 422.333 -240.714 336.44C-250.043 224.429 -173.196 73.2581 -38.1026 169.232C65.9978 243.187 176.618 227.705 181.238 313.799C185.858 399.893 95.1454 474.755 -21.3733 481.007Z" fill="url(#paint1_linear)"/>
</g>
<g style="mix-blend-mode:difference">
<path opacity="0.2" fill-rule="evenodd" clip-rule="evenodd" d="M45.3987 307.199C46.7267 306.541 48.4972 307.304 47.7586 309.045C46.9675 310.91 44.0425 310.933 42.3906 310.896C42.5559 310.887 43.0883 309.177 43.2706 308.919C43.8082 308.157 44.5822 307.605 45.3987 307.199ZM30.107 341.167C29.6379 341.568 30.0689 341.205 30.107 341.167V341.167ZM46.9422 315.855C47.7363 316.456 47.7737 317.518 47.1244 318.237C46.3512 319.093 44.9402 319.062 43.887 318.979C43.4105 318.942 40.8667 318.741 41.4699 318.329C41.4235 318.346 41.3266 318.388 41.2229 318.446C41.167 318.648 41.1083 318.849 41.0472 319.049C41.0621 319.058 41.0749 319.067 41.0908 319.076C41.0735 319.068 41.0614 319.06 41.0461 319.052C40.4333 321.055 39.5615 322.961 38.4203 324.745C38.847 324.578 39.289 324.452 39.7372 324.396C41.0645 324.229 43.8559 325.249 42.3704 327C40.9461 328.678 38.7309 326.879 37.1155 326.632C35.5474 328.799 33.8187 330.875 32.0071 332.882C32.118 332.917 32.2153 332.988 32.2711 333.1C32.9976 332.735 33.7548 332.212 34.4271 332.07C35.3973 331.866 37.3865 331.742 38.1192 332.601C39.0204 333.658 38.0534 334.518 36.9878 334.721C35.4428 335.016 33.4209 334.269 31.9347 333.765C31.7647 333.795 31.5791 333.746 31.4682 333.611C31.4354 333.6 31.4026 333.59 31.3706 333.58C29.536 335.577 27.6313 337.509 25.7382 339.398C25.7584 339.397 25.7785 339.396 25.7995 339.395C26.2933 339.074 26.8228 338.811 27.3967 338.672C28.7244 338.351 30.2863 338.349 31.363 339.3C32.4356 340.246 32.8149 341.903 31.7042 342.967C29.481 345.097 26.2096 340.244 25.0888 340.042C23.165 341.942 21.1309 343.717 19.0649 345.457C19.2995 345.386 19.54 345.334 19.7886 345.31C21.8138 345.117 26.5657 347.573 24.0792 349.994C21.9124 352.103 19.4078 348.047 17.6633 346.629C15.7164 348.25 13.759 349.86 11.8564 351.533C12.8937 351.259 13.8961 351.219 15.0078 351.551C16.1581 351.895 18.0142 352.754 17.2861 354.293C16.5456 355.858 14.3166 355.147 13.1558 354.651C12.5226 354.381 11.2534 353.467 10.1387 353.082C7.10271 355.921 4.47265 359.048 2.48085 362.73C1.23737 365.029 0.293379 367.486 -0.371477 370.01C-0.795851 371.621 -1.63177 374.327 -1.46577 376.424C-2.25997 372.227 -0.817485 367.186 0.735558 363.433C2.16353 359.983 4.29953 356.953 6.801 354.226C6.17458 352.358 0.895224 349.665 4.05301 347.927C5.72986 347.008 7.44608 348.531 7.8117 350.144C8.06282 351.252 7.67864 352.646 7.27112 353.722C8.05802 352.89 8.87602 352.086 9.7189 351.308C10.8837 350.233 12.0765 349.188 13.2806 348.158C11.2982 346.313 9.42383 341.039 12.0835 340.175C16.0111 338.902 14.1166 346.099 13.842 347.448C13.7642 347.452 13.7036 347.429 13.659 347.379C13.681 347.503 13.7066 347.635 13.7376 347.768C16.0422 345.805 18.381 343.881 20.6428 341.871C20.4392 341.722 20.1156 341.153 19.8613 340.85C19.2873 340.166 18.7382 339.452 18.337 338.653C17.7032 337.39 17.0924 335.374 18.7745 334.63C20.6037 333.819 21.4717 336.099 21.4837 337.459C21.4919 338.399 21.2328 339.293 21.0976 340.215C21.0553 340.502 21.2168 341.799 20.8216 341.241C20.8401 341.447 20.8428 341.596 20.8334 341.701C21.2395 341.339 21.6425 340.972 22.0428 340.603C22.0243 340.556 22.0106 340.505 22.0075 340.447C21.9863 340.041 22.3983 339.885 22.6872 340.003C23.2155 339.506 23.7387 339.003 24.2525 338.489C25.3416 337.401 26.4465 336.282 27.5438 335.139C27.3059 334.937 27.4007 334.657 27.1783 334.442C26.9562 334.228 26.5188 334.109 26.2576 333.91C25.6008 333.409 25.0563 332.679 24.6627 331.961C24.0127 330.774 23.1733 328.283 25.074 327.716C27.0332 327.131 28.0263 329.528 28.1515 331.027C28.1758 331.318 27.9549 333.935 27.7863 334.885C29.8166 332.762 31.8136 330.558 33.623 328.317C33.0747 328.312 31.5209 327.2 31.2068 326.897C30.4405 326.157 29.2225 324.521 30.5671 323.655C31.7627 322.886 33.2354 323.998 33.7459 325.078C33.8298 325.256 34.1252 326.913 34.1479 327.656C34.8968 326.706 35.6112 325.749 36.2759 324.79C36.7192 324.152 37.1335 323.498 37.5211 322.829C37.4279 322.777 37.3402 322.686 37.2574 322.573C35.2642 322.238 32.7244 319.16 35.0663 318.087C36.1814 317.577 37.3898 318.628 37.9355 319.489C38.0472 319.665 38.228 320.551 38.3751 321.249C39.4904 319.035 40.3431 316.691 40.9924 314.287C40.8188 314.245 40.672 314.114 40.6527 313.888C39.6852 313.342 38.9212 312.887 38.2461 311.837C37.8267 311.184 37.0716 309.694 38.3051 309.331C39.9102 308.859 40.9171 311.286 41.0478 312.482C41.063 312.62 41.0622 313.024 41.0567 313.394C41.1124 313.386 41.1688 313.387 41.224 313.397C41.5934 311.909 41.8883 310.401 42.1231 308.892C41.2473 308.613 41.0981 304.057 41.6817 303.408C42.9861 301.955 43.9048 304.053 43.8346 305.162C43.7517 306.469 43.1528 307.659 42.4398 308.715C42.3633 308.827 42.3851 308.821 42.3654 308.666C42.3544 308.743 42.3284 308.799 42.2898 308.841C42.3262 309.529 42.3975 310.234 42.3628 310.843C42.2632 312.587 42.0572 314.341 41.7584 316.063C41.6858 316.482 41.6026 316.898 41.5093 317.309C42.2137 316.715 43.1633 316.187 43.5348 316.021C44.4991 315.593 45.985 315.13 46.9422 315.855ZM-1.62351 376.258C-1.57697 376.819 -1.43874 377.33 -1.16661 377.75C-1.36638 377.271 -1.51621 376.772 -1.62351 376.258Z" fill="#C1DEE2"/>
<g opacity="0.5">
<path opacity="0.5" fill-rule="evenodd" clip-rule="evenodd" d="M37.804 288.118C35.4894 288.571 31.7076 293.806 29.7997 295.801C27.5324 298.172 25.4753 300.699 23.5363 303.346C19.362 309.044 15.6289 315.103 12.4544 321.421C7.27918 331.721 3.13317 342.294 0.124233 353.51C-1.71765 360.375 -2.91019 367.491 -3.61695 374.558C-3.75043 375.89 -5.14762 386.165 -3.13435 386.442C-1.32362 386.691 -1.88289 378.64 -1.79554 377.545C-0.80809 365.19 2.15002 353.168 6.26473 341.523C7.16097 338.986 7.99361 335.879 9.42691 333.596C10.4591 331.952 9.43431 332.525 11.2482 331.903C12.8058 331.368 14.5804 331.499 16.1753 330.844C19.6402 329.423 22.4146 326.665 24.8465 323.89C29.5726 318.498 33.3178 312.664 35.27 305.755C36.3529 301.924 37.3481 298.07 37.9004 294.121C38.0432 293.1 39.2947 287.826 37.804 288.118Z" fill="#69A1AC"/>
<path opacity="0.5" fill-rule="evenodd" clip-rule="evenodd" d="M20.377 208.043C12.6591 223.697 6.58865 240.736 3.06494 257.823C0.930008 268.176 -0.346666 278.74 -1.61569 289.227C-3.58051 305.466 -5.38258 321.694 -5.12943 338.074C-4.87504 354.55 -5.25282 373.597 1.15429 389.064C-2.57709 373.18 -1.13231 355.92 -1.73124 339.731C-2.01694 332.003 -1.88707 324.324 -1.56365 316.601C-1.24964 309.11 -0.427467 301.621 0.306516 294.161C0.6641 290.528 1.05175 286.899 1.45079 283.27C1.56996 282.188 1.44303 279.007 2.07434 278.231C2.70974 277.451 6.17651 276.924 7.23589 276.313C9.36912 275.082 11.3417 273.402 13.0703 271.65C16.384 268.292 19.1778 264.004 21.3306 259.816C26.3116 250.127 27.8049 238.6 26.989 227.807C26.8308 225.711 21.9886 203.349 23.3228 202.95C23.2351 202.86 23.1515 202.767 23.0721 202.669C22.1584 204.452 21.2647 206.246 20.377 208.043Z" fill="#89C5CC"/>
</g>
</g>
<path d="M0 0H360V361H0V0Z" fill="url(#paint2_linear)"/>
<g style="mix-blend-mode:luminosity">
<path fill-rule="evenodd" clip-rule="evenodd" d="M76.5891 203.293C74.1132 200.387 72.4375 196.825 72.7175 192.835C73.5243 181.336 89.531 183.865 92.6446 189.669C95.7582 195.473 95.3882 210.194 91.3641 211.231C89.7593 211.645 86.3406 210.631 82.8612 208.534L85.0452 223.985H72.1497L76.5891 203.293Z" fill="#915B3C"/>
<path fill-rule="evenodd" clip-rule="evenodd" d="M75.5982 205.882C73.9797 198.681 69.3688 193.773 70.073 190.554C70.5424 188.409 71.7937 187.075 73.8267 186.552C74.8782 182.298 78.2694 180.489 84.0004 181.124C92.5969 182.077 97.8437 185.647 95.5778 193.502C93.495 193.502 90.9806 192.749 87.5036 194.039C86.4004 194.449 85.6114 195.719 85.1365 197.849H83.5653C82.0403 195.321 80.5368 194.392 79.0545 195.062C77.5723 195.732 77.2353 197.36 78.0437 199.945L77.2697 205.882H75.5982Z" fill="#191847"/>
<path fill-rule="evenodd" clip-rule="evenodd" d="M36.1495 291.149H97.9406C102.689 291.149 106.538 294.998 106.538 299.746V349.179C106.538 353.927 102.689 357.776 97.9406 357.776H36.1495C31.4015 357.776 27.5525 353.927 27.5525 349.179V299.746C27.5525 294.998 31.4015 291.149 36.1495 291.149ZM44.7465 306.194C43.5595 306.194 42.5973 307.156 42.5973 308.343V340.582C42.5973 341.769 43.5595 342.731 44.7465 342.731H89.3435C90.5305 342.731 91.4928 341.769 91.4928 340.582V308.343C91.4928 307.156 90.5305 306.194 89.3435 306.194H44.7465Z" fill="#929FA8"/>
<path fill-rule="evenodd" clip-rule="evenodd" d="M159.817 355.09C149.224 342.153 142.056 332.563 138.313 326.318C131.906 315.626 126.662 306.112 125.007 302.478C121.06 293.812 134.092 289.754 137.042 293.796C141.506 299.914 151.039 319.166 165.642 351.553L159.817 355.09Z" fill="#B28B67"/>
<path fill-rule="evenodd" clip-rule="evenodd" d="M138.109 351.328L118.393 301.7C114.177 292.654 134.54 286.707 137.639 290.917C144.675 300.476 161.397 338.182 163.493 341.03L138.109 351.328Z" fill="#2F3676"/>
<path fill-rule="evenodd" clip-rule="evenodd" d="M85.6004 341.376C89.4409 335.774 103.41 316.926 111.019 309.128C113.205 306.887 115.338 304.737 117.356 302.732C123.354 296.775 135.297 306.788 129.31 312.214C114.402 325.728 92.6489 343.971 90.8315 345.597C88.2842 347.877 83.1868 344.896 85.6004 341.376Z" fill="#915B3C"/>
<path fill-rule="evenodd" clip-rule="evenodd" d="M86.4982 338.845C85.1752 339.934 84.3146 340.824 83.9163 341.514C83.4318 342.353 82.8647 343.658 82.2148 345.429C83.1882 345.991 91.9367 351.042 108.46 360.582C110.444 358.721 110.753 357.277 109.387 356.248C108.022 355.22 106.895 354.353 106.006 353.647L96.9476 341.166C96.7733 340.926 96.4373 340.873 96.1972 341.047C96.1931 341.05 96.189 341.053 96.185 341.056L94.3027 342.505C92.576 342.355 91.2874 342.034 90.4369 341.543C89.7459 341.144 88.9528 340.314 88.0575 339.053L88.0575 339.053C87.7139 338.569 87.0431 338.455 86.5591 338.799C86.5382 338.813 86.5179 338.829 86.4982 338.845Z" fill="#E2E0E0"/>
<path fill-rule="evenodd" clip-rule="evenodd" d="M155.26 353.156C154.659 354.761 154.358 355.962 154.358 356.758C154.358 357.727 154.52 359.141 154.843 361C155.967 361 166.068 361 185.148 361C185.936 358.396 185.481 356.991 183.784 356.783C182.088 356.576 180.678 356.388 179.556 356.221L165.47 349.941C165.199 349.821 164.881 349.942 164.76 350.213C164.758 350.218 164.756 350.223 164.754 350.227L163.849 352.424C162.278 353.157 161.002 353.523 160.02 353.523C159.222 353.523 158.12 353.201 156.714 352.556L156.714 352.556C156.175 352.309 155.537 352.546 155.29 353.085C155.279 353.109 155.269 353.132 155.26 353.156Z" fill="#EADAEA"/>
<path fill-rule="evenodd" clip-rule="evenodd" d="M111.299 304.179C94.9131 301.51 83.9373 299.684 78.3721 298.703C62.5089 295.906 57.8831 287.369 60.6181 268.745H89.8457C93.7135 269.861 109.875 276.769 138.329 289.468C143.449 292.01 142.495 299.503 141.56 301.972C141.521 302.073 132.891 316.861 115.668 346.338L91.7585 331.107L111.344 305.974C111.862 304.932 111.847 304.334 111.299 304.179Z" fill="#5C63AB"/>
<path fill-rule="evenodd" clip-rule="evenodd" d="M113.405 261.711L130.545 274.296C135.193 275.551 139.077 277.111 142.196 278.978C142.932 279.65 143.823 281.009 140.767 280.774C137.712 280.539 134.488 280.43 134.066 281.472C133.644 282.514 135.493 283.76 134.641 285.166C134.073 286.104 131.389 283.753 126.589 278.115L109.616 271.077L113.405 261.711ZM47.5986 262.145L58.8271 262.189C51.894 284.57 48.1512 296.446 47.5986 297.815C46.3553 300.896 48.9863 305.589 50.1114 308.111C46.4469 309.75 46.8374 303.678 42.2147 305.828C37.9954 307.791 34.7857 311.348 29.9108 308.34C29.3115 307.97 28.6547 306.578 30.2416 305.49C34.195 302.779 39.8921 298.035 40.6619 296.473C41.7116 294.343 44.0239 282.901 47.5986 262.145Z" fill="#915B3C"/>
<path fill-rule="evenodd" clip-rule="evenodd" d="M79.5083 215.029L84.1545 214.232C101.393 229.124 108.474 257.733 129.604 272.889L124.519 279.193C87.8609 274.654 78.775 239.758 79.5083 215.029Z" fill="#E87613"/>
<path fill-rule="evenodd" clip-rule="evenodd" d="M59.2539 273.418C77.8835 273.418 91.587 273.418 100.365 273.418C102.243 273.418 101.889 270.705 101.618 269.337C98.4835 253.539 86.2492 236.511 86.2492 214.024L74.391 212.164C64.5827 227.939 61.1908 247.361 59.2539 273.418Z" fill="#DDE3E9"/>
<path fill-rule="evenodd" clip-rule="evenodd" d="M59.5842 227.67C57.8619 227.175 56.4981 226.02 55.4926 224.206C51.1584 216.385 52.7237 212.08 57.3556 210.664C61.9875 209.249 66.1182 212.164 73.498 212.164C73.8994 212.164 74.2671 212.189 74.6009 212.24L78.3132 212.452C88.964 248.548 91.9015 272.632 87.1255 284.701H54.7682C52.8511 289.172 51.0166 292.933 49.2646 295.985H40.4479C39.6181 269.155 45.9969 246.384 59.5842 227.67Z" fill="#FF9B21"/>
<path fill-rule="evenodd" clip-rule="evenodd" d="M61.8143 266.163C62.832 274.677 64.4859 280.857 66.7763 284.701H54.7683C57.0046 279.487 59.3533 273.307 61.8143 266.163Z" fill="black" fill-opacity="0.1"/>
</g>
<circle r="27.3504" transform="matrix(-1 0 0 1 222.65 167.35)" fill="#EDE2F0"/>
<path d="M241.248 204L235.231 191.419C230.218 193.674 227.341 194.359 222.103 194.701L241.248 204Z" fill="#EDE2F0"/>
<circle r="3.28205" transform="matrix(-1 0 0 1 233.59 168.444)" fill="#A68EB3"/>
<circle r="3.28205" transform="matrix(-1 0 0 1 222.65 168.444)" fill="#A68EB3"/>
<circle r="3.28205" transform="matrix(-1 0 0 1 211.709 168.444)" fill="#A68EB3"/>
<circle cx="135.35" cy="167.35" r="27.3504" fill="#AF9DBD"/>
<path d="M116.752 204L122.769 191.419C127.782 193.674 130.659 194.359 135.897 194.701L116.752 204Z" fill="#AF9DBD"/>
<circle cx="124.41" cy="168.444" r="3.28205" fill="#F0E8F3"/>
<circle cx="135.35" cy="168.444" r="3.28205" fill="#F0E8F3"/>
<circle cx="146.291" cy="168.444" r="3.28205" fill="#F0E8F3"/>
<g style="mix-blend-mode:luminosity">
<path fill-rule="evenodd" clip-rule="evenodd" d="M273.937 216.457C276.191 213.812 277.716 210.569 277.461 206.936C276.727 196.469 262.156 198.771 259.321 204.055C256.487 209.338 256.824 222.739 260.487 223.683C261.948 224.06 265.06 223.137 268.227 221.228L266.239 235.293H277.978L273.937 216.457Z" fill="#B28B67"/>
<path fill-rule="evenodd" clip-rule="evenodd" d="M266.012 197.966C267.559 197.712 271.725 197.537 272.494 197.538C272.985 197.538 273.517 197.65 273.807 197.199C274.045 196.83 273.958 196.205 274.029 195.777C274.112 195.279 274.229 194.788 274.348 194.298C274.685 192.904 275.195 191.577 275.909 190.332C277.248 187.995 279.21 186.165 281.688 185.1C284.423 183.924 287.518 183.655 290.461 183.894C293.609 184.149 296.46 185.188 299.433 186.166C302.266 187.099 305.233 187.465 308.196 187.01C311.181 186.552 313.437 184.934 315.955 183.398C318.533 181.826 321.479 180.797 324.526 181.034C327.371 181.254 329.993 182.429 332.345 183.998C334.546 185.466 336.362 187.232 337.387 189.718C338.49 192.392 338.489 195.328 336.675 197.691C334.046 201.116 329.166 202.002 325.106 201.914C322.757 201.863 320.45 201.434 318.233 200.655C315.276 199.615 312.721 197.852 309.954 196.421C308.656 195.75 307.314 195.199 305.907 194.802C304.542 194.416 303.198 194.24 301.962 195.064C300.655 195.936 299.483 196.793 297.988 197.339C296.553 197.863 295.033 198.156 293.504 198.144C290.53 198.121 287.598 197.195 284.709 196.574C282.354 196.068 279.833 195.564 277.432 196.05C276.43 196.253 274.966 196.672 274.604 197.714C280.696 198.818 283.088 206.352 281.371 211.882C280.444 214.867 274.872 218.357 272.706 216.788C271.334 215.793 272.167 214.488 272.706 213.627C273.739 211.977 274.092 209.857 272.181 208.708C270.533 207.717 268.8 210.07 268.767 210.068C268.314 210.032 264.4 207.818 261.703 204.588C259.042 204.746 258.639 202.991 259.274 201.557C259.909 200.122 263.875 198.316 266.012 197.966Z" fill="#191847"/>
<path d="M282.869 361C262.069 361 245.206 344.904 245.206 325.049C245.206 305.194 262.069 289.098 282.869 289.098C303.67 289.098 320.532 305.194 320.532 325.049C320.532 344.904 303.67 361 282.869 361Z" fill="#C5CFD6"/>
<path fill-rule="evenodd" clip-rule="evenodd" d="M211.697 355.453C217.964 341.582 222.496 329.504 224.315 323.132C227.43 312.22 229.8 302.619 230.399 299.033C231.827 290.483 219.412 289.985 217.771 294.235C215.287 300.666 210.951 321.797 205.741 353.716L211.697 355.453ZM284.392 311.922C278.642 309.65 258.505 302.537 248.793 300.525C246.002 299.946 243.298 299.409 240.754 298.924C233.195 297.481 229.279 311.117 236.559 312.165C254.69 314.774 280.393 317.469 282.593 317.771C285.676 318.195 288.005 313.351 284.392 311.922Z" fill="#B28B67"/>
<path fill-rule="evenodd" clip-rule="evenodd" d="M236.115 295.171L267.217 279.338V275.891H263.518C233.428 283.559 218.052 288.473 217.39 290.633C217.383 290.656 217.377 290.679 217.371 290.702C217.355 290.722 217.341 290.742 217.326 290.762C211.363 298.964 207.791 339.002 206.619 342L218.046 343.705C222.417 327.496 236.402 316.204 236.031 296.791C236.131 296.222 236.156 295.682 236.115 295.171Z" fill="#1F28CF"/>
<path fill-rule="evenodd" clip-rule="evenodd" d="M264.633 304.574C267.479 304.004 270.099 303.496 272.342 303.103C286.827 300.562 291.051 292.808 288.553 275.891L261.865 275.891C257.506 277.144 234.849 286.645 223.094 291.698C215.314 295.043 217.767 307.1 222.173 310.238C222.197 310.43 222.276 310.561 222.417 310.62C246.118 320.443 264.867 315.288 271.13 316.935L274.027 307.796L264.633 304.574Z" fill="#2B44FF"/>
<path fill-rule="evenodd" clip-rule="evenodd" d="M282.426 310.47C283.978 310.618 285.081 310.852 285.732 311.169C286.525 311.556 287.618 312.252 289.01 313.258C288.561 314.178 284.53 322.443 276.916 338.054C274.472 337.66 273.503 336.727 274.01 335.256C274.517 333.784 274.927 332.556 275.238 331.571L275.721 317.541C275.73 317.271 275.957 317.059 276.226 317.069C276.231 317.069 276.236 317.069 276.24 317.069L278.399 317.205C279.625 316.212 280.434 315.314 280.826 314.511C281.145 313.858 281.321 312.828 281.354 311.42L281.354 311.42C281.367 310.88 281.816 310.453 282.356 310.466C282.379 310.466 282.402 310.468 282.426 310.47Z" fill="#2B2B2B"/>
<path fill-rule="evenodd" clip-rule="evenodd" d="M214.549 352.881C215.096 354.342 215.369 355.435 215.369 356.16C215.369 357.042 215.222 358.33 214.929 360.022C213.905 360.022 204.709 360.022 187.341 360.022C186.624 357.652 187.038 356.372 188.582 356.183C190.127 355.994 191.41 355.824 192.432 355.671L205.254 349.955C205.501 349.845 205.79 349.956 205.9 350.202C205.902 350.207 205.904 350.211 205.906 350.215L206.73 352.215C208.16 352.882 209.322 353.215 210.216 353.215C210.942 353.215 211.945 352.922 213.225 352.335L213.225 352.335C213.716 352.11 214.297 352.326 214.522 352.817C214.531 352.838 214.54 352.86 214.549 352.881Z" fill="#2B2B2B"/>
<path fill-rule="evenodd" clip-rule="evenodd" d="M236.891 262.497L219.168 254.714C216.063 251.62 213.065 249.269 210.174 247.66C209.309 247.384 207.832 247.301 209.408 249.603C210.984 251.905 212.538 254.397 211.908 255.204C211.279 256.01 209.455 255.12 208.734 256.432C208.253 257.306 211.328 258.353 217.958 259.57L231.232 269.747L236.891 262.497ZM308.545 264.641L298.522 266.63C308.602 285.415 314.007 295.371 314.739 296.498C316.385 299.034 314.849 303.682 314.282 306.13C317.84 306.958 316.437 301.602 320.94 302.721C325.05 303.741 328.535 306.361 332.368 302.828C332.839 302.394 333.184 301.036 331.577 300.34C327.575 298.605 321.661 295.357 320.703 294.096C319.395 292.376 315.343 282.558 308.545 264.641Z" fill="#B28B67"/>
<path fill-rule="evenodd" clip-rule="evenodd" d="M271.279 227.141L267.05 226.415C257.837 235.352 254.078 256.821 247.939 259.663C242.134 262.35 233.906 259.75 224.125 256.239L221.13 262.932C230.016 272.546 248.949 280.669 256.623 276.031C268.892 268.618 271.724 242.138 271.279 227.141Z" fill="#DB2721"/>
<path fill-rule="evenodd" clip-rule="evenodd" d="M289.717 280.293C272.758 280.293 260.284 280.293 252.293 280.293C250.583 280.293 250.905 277.824 251.153 276.578C254.006 262.197 265.143 246.696 265.143 226.225L275.938 224.533C284.866 238.893 287.954 256.573 289.717 280.293Z" fill="#DDE3E9"/>
<path fill-rule="evenodd" clip-rule="evenodd" d="M293.45 265.734C301.079 279.495 307.492 289.403 312.688 295.456L320.533 293.92C315.48 262.582 300.847 239.453 276.634 224.533H276.511L272.36 224.533C262.669 257.567 259.997 279.578 264.345 290.565H298.033C297.5 282.526 295.791 274.023 293.45 265.734H293.45Z" fill="#FF4133"/>
</g>
</g>
<defs>
<linearGradient id="paint0_linear" x1="375.5" y1="-90.5" x2="273.5" y2="126" gradientUnits="userSpaceOnUse">
<stop stop-color="#270053" stop-opacity="0.38"/>
<stop offset="1" stop-color="#F07B7B" stop-opacity="0.57"/>
</linearGradient>
<linearGradient id="paint1_linear" x1="180.301" y1="296.343" x2="-241.744" y2="318.989" gradientUnits="userSpaceOnUse">
<stop stop-color="#7D19F1" stop-opacity="0.19"/>
<stop offset="1" stop-color="#FBBEBE" stop-opacity="0.49"/>
</linearGradient>
<linearGradient id="paint2_linear" x1="1.1351e-06" y1="157.5" x2="208.319" y2="505.17" gradientUnits="userSpaceOnUse">
<stop stop-color="#3E0382" stop-opacity="0.2"/>
<stop offset="1" stop-color="#FAC4BA" stop-opacity="0.37"/>
</linearGradient>
<clipPath id="clip0">
<rect width="360" height="360" fill="white"/>
</clipPath>
</defs>
</svg>
