<svg width="1280" height="720" viewBox="0 0 1280 720" fill="none" xmlns="http://www.w3.org/2000/svg">
<rect x="598" y="95" width="240" height="434" rx="24" fill="url(#paint0_linear)"/>
<path d="M717.337 94.7766H714.476C724.634 120.588 741.389 143.281 763.065 160.588C784.742 177.895 810.581 189.21 838 193.402V190.698C811.295 186.551 786.128 175.526 764.972 158.709C743.817 141.891 727.401 119.859 717.337 94.7766V94.7766Z" fill="#9556DF"/>
<path d="M683.046 528.903L684.991 528.875C677.824 511.444 666.204 496.199 651.291 484.661C636.378 473.123 618.695 465.697 600.009 463.125L600.036 464.962C618.236 467.511 635.459 474.746 650.013 485.956C664.567 497.167 675.951 511.967 683.046 528.903V528.903Z" fill="#FAC4BA" fill-opacity="0.99"/>
<path d="M664.626 94.7766H661.869C684.927 174.811 754.502 234.388 838 244.063V241.402C755.95 231.771 687.571 173.328 664.626 94.7766Z" fill="#AD7BE8"/>
<path d="M601.49 208.872H599.9V207.282H599.59V208.872H598V209.183H599.59V210.772H599.9V209.183H601.49V208.872Z" fill="#F2F2F2"/>
<path d="M617.193 271.685H615.603V270.095H615.294V271.685H613.703V271.996H615.294V273.585H615.603V271.996H617.193V271.685Z" fill="#F2F2F2"/>
<path d="M690.475 225.447H688.886V223.858H688.576V225.447H686.986V225.758H688.576V227.348H688.886V225.758H690.475V225.447Z" fill="#F2F2F2"/>
<path d="M795.164 254.237H793.575V252.647H793.265V254.237H791.675V254.548H793.265V256.137H793.575V254.548H795.164V254.237Z" fill="#F2F2F2"/>
<path d="M709.164 121.237H707.575V119.647H707.265V121.237H705.675V121.548H707.265V123.137H707.575V121.548H709.164V121.237Z" fill="#F2F2F2"/>
<path d="M833.164 173.237H831.119V171.647H830.721V173.237H828.675V173.548H830.721V175.137H831.119V173.548H833.164V173.237Z" fill="#F2F2F2"/>
<path d="M776.844 181.983C778.772 181.983 780.334 180.42 780.334 178.493C780.334 176.566 778.772 175.003 776.844 175.003C774.917 175.003 773.355 176.566 773.355 178.493C773.355 180.42 774.917 181.983 776.844 181.983Z" fill="#FAC4BA"/>
<path d="M717.844 315.983C719.772 315.983 721.334 314.42 721.334 312.493C721.334 310.566 719.772 309.003 717.844 309.003C715.917 309.003 714.355 310.566 714.355 312.493C714.355 314.42 715.917 315.983 717.844 315.983Z" fill="#FAC4BA"/>
<path d="M692.355 500.003C693.459 500.003 694.355 499.108 694.355 498.003C694.355 496.899 693.459 496.003 692.355 496.003C691.25 496.003 690.355 496.899 690.355 498.003C690.355 499.108 691.25 500.003 692.355 500.003Z" fill="#FAC4BA" fill-opacity="0.5"/>
<path d="M688.828 213.324L686.848 213.63C687.467 217.591 687.956 221.639 688.314 225.643L690.311 225.468C689.954 221.412 689.456 217.329 688.828 213.324Z" fill="#E6E6E6"/>
<path d="M683.411 189.473L681.491 190.057C682.652 193.896 683.69 197.831 684.571 201.748L686.534 201.303C685.635 197.342 684.58 193.364 683.411 189.473Z" fill="#E6E6E6"/>
<path d="M674.765 166.599L672.942 167.436C674.617 171.092 676.187 174.843 677.609 178.594L679.485 177.888C678.045 174.093 676.466 170.289 674.765 166.599Z" fill="#E6E6E6"/>
<path d="M663.075 145.155L661.382 146.228C663.537 149.613 665.605 153.12 667.524 156.636L669.286 155.676C667.349 152.117 665.256 148.575 663.075 145.155Z" fill="#E6E6E6"/>
<path d="M648.54 125.5L647.014 126.799C649.613 129.853 652.143 133.046 654.534 136.274L656.139 135.079C653.731 131.816 651.175 128.588 648.54 125.5Z" fill="#E6E6E6"/>
<path d="M688.375 402.767C688.701 400.816 688.998 398.825 689.261 396.848L691.249 397.111C690.984 399.111 690.683 401.124 690.354 403.097L688.375 402.767Z" fill="#E6E6E6"/>
<path d="M682.783 426.304L684.7 426.901C685.903 423.024 686.992 419.053 687.935 415.096L685.981 414.634C685.047 418.548 683.977 422.47 682.783 426.304Z" fill="#E6E6E6"/>
<path d="M674.023 448.84L675.843 449.693C677.574 446.022 679.194 442.24 680.663 438.453L678.791 437.723C677.339 441.468 675.736 445.21 674.023 448.84Z" fill="#E6E6E6"/>
<path d="M662.236 469.981L663.918 471.074C666.137 467.672 668.266 464.145 670.247 460.596L668.498 459.615C666.542 463.124 664.431 466.61 662.236 469.981Z" fill="#E6E6E6"/>
<path d="M651.963 285.019L653.969 284.983C654.006 287.008 654.008 289.043 653.977 291.034L651.972 291.002C652.002 289.035 652 287.022 651.963 285.019Z" fill="#E6E6E6"/>
<path opacity="0.5" fill-rule="evenodd" clip-rule="evenodd" d="M933.523 370.028C936.322 367.146 941.873 359.575 945.266 358.929C947.451 358.513 945.608 366.149 945.396 367.628C944.58 373.348 943.115 378.928 941.521 384.475C938.648 394.478 933.15 402.916 926.214 410.709C922.646 414.719 918.575 418.705 913.495 420.749C911.157 421.691 908.556 421.494 906.273 422.262C903.614 423.156 905.116 422.329 903.601 424.708C901.497 428.01 900.271 432.509 898.953 436.181C892.903 453.038 870.262 543.648 868.793 561.547C868.663 563.134 866.418 563.158 866.616 561.227C867.664 550.991 883.955 481.555 890.173 458.99C896.39 436.425 902.209 416.542 906.052 409.007C910.716 399.866 918.204 389.174 924.331 380.934C927.177 377.106 930.196 373.454 933.523 370.028Z" fill="url(#paint1_linear)"/>
<path opacity="0.5" fill-rule="evenodd" clip-rule="evenodd" d="M932.349 485.405C938.975 482.004 944.073 491.247 938.01 494.739C934.659 496.669 931.696 495.315 930.273 493.03C928.918 494.23 927.626 495.503 926.411 496.559C922.71 499.778 919.166 503.112 915.736 506.556C908.613 513.711 902.249 521.456 895.683 529.008C889.203 536.462 882.757 543.965 876.726 551.706C871.616 558.265 864.986 565.882 862.367 573.55C867.105 557.155 877.482 542.33 889.132 529.076C900.687 515.93 913.818 501.656 929.928 492.404C928.819 490.037 929.268 486.984 932.349 485.405Z" fill="url(#paint2_linear)"/>
<path opacity="0.5" fill-rule="evenodd" clip-rule="evenodd" d="M859.541 303.813C868.558 327.488 875.005 352.939 877.766 378.112C879.439 393.364 879.842 408.805 880.245 424.134C880.868 447.869 881.258 471.565 878.657 495.202C876.042 518.976 873.989 546.552 862.619 568.03C870.179 545.585 870.446 520.445 873.521 497.133C874.988 486.004 875.848 474.888 876.434 463.685C877.003 452.816 876.837 441.882 876.794 431.001C876.773 425.702 876.708 420.404 876.626 415.107C876.602 413.526 877.219 408.946 876.413 407.74C875.601 406.525 870.663 405.291 869.216 404.263C866.301 402.193 863.679 399.496 861.421 396.729C857.09 391.424 853.638 384.846 851.098 378.501C845.222 363.818 844.637 346.958 847.289 331.472C847.804 328.465 857.852 296.81 855.979 296.052C856.118 295.933 856.251 295.809 856.38 295.679C857.456 298.381 858.503 301.095 859.541 303.813Z" fill="url(#paint3_linear)"/>
<path opacity="0.5" fill-rule="evenodd" clip-rule="evenodd" d="M981.859 403.61C982.097 403.363 983.662 401.631 983.01 401.653C984.337 401.608 980.898 403.502 984.339 402.553C982.586 403.746 983.165 405.754 982.875 407.692C982.404 410.839 981.378 413.87 980.293 416.848C978.579 421.557 976.428 426.057 973.681 430.251C967.695 439.392 958.693 447.672 948.824 452.403C943.952 454.739 939.489 455.084 934.264 455.681C930.964 456.058 930.451 457.652 928.283 460.448C923.768 466.271 919.319 472.081 915.181 478.186C910.241 485.476 905.407 492.792 900.754 500.27C885.081 525.46 871.361 551.961 861.867 580.143C864.487 563.058 871.256 546.116 878.847 530.649C884.376 519.38 890.932 508.713 897.784 498.213C899.444 495.669 901.859 492.442 902.863 489.501C903.566 487.44 902.784 485.223 902.634 482.909C902.049 473.898 903.754 464.181 906.896 455.72C910.36 446.39 916.624 442.807 926.224 442.948C929.735 442.999 934.066 443.882 937.447 442.924C941.13 441.881 943.385 436.872 945.873 433.823C952.557 425.634 960.167 417.973 968.53 411.512C970.846 409.723 973.284 408.12 975.83 406.681C977.435 405.773 980.665 404.855 981.859 403.61Z" fill="url(#paint4_linear)"/>
<path fill-rule="evenodd" clip-rule="evenodd" d="M405.129 256.682C398.532 252.179 393.207 245.92 391.622 237.733C387.058 214.142 420.937 210.523 430.393 220.513C439.849 230.503 447.039 260.343 439.424 264.622C436.388 266.328 428.897 266.149 420.697 263.82L433.469 293.74L407.274 300.759L405.129 256.682Z" fill="#998D83"/>
<path fill-rule="evenodd" clip-rule="evenodd" d="M414.222 234.418C418.935 247.993 423.442 254.204 427.744 253.051C434.197 251.322 438.585 245.794 441.416 245.036C443.481 244.483 443.706 247.166 442.846 249.431C442.137 251.3 437.044 254.282 437.695 256.71C438.345 259.139 442.185 256.096 442.571 257.536C443.209 259.918 445.173 264.192 441.002 265.31C436.78 266.441 424.269 268.159 420.531 262.505C418.118 258.857 415.028 250.784 411.259 238.288C410.995 238.326 410.73 238.381 410.466 238.452C406.849 239.421 404.696 243.112 405.656 246.697C406.144 248.517 407.34 249.959 408.873 250.812C407.926 253.338 406.821 256.007 405.487 258.814C397.012 256.425 388.177 245.153 392.049 231.013C392.42 224.495 396.035 220.097 400.919 217.197C404.722 214.276 409.11 212.886 413.144 212.945C420.661 211.6 427.82 212.063 430.033 212.884C431.881 219.781 431.081 222.188 419.517 225.094C417.084 227.333 415.592 230.467 414.222 234.418Z" fill="#191847"/>
<path fill-rule="evenodd" clip-rule="evenodd" d="M420.028 391.974L475.488 531.804L512.686 650.019H527.374L470.507 391.974L420.028 391.974Z" fill="#997659"/>
<path fill-rule="evenodd" clip-rule="evenodd" d="M408.86 391.974C408.269 441.112 399.656 507.267 398.28 510.33C397.363 512.372 365.695 538.339 303.275 588.232L313.392 599.016C387.041 556.239 425.57 531.998 428.978 526.293C434.09 517.735 450.734 438.983 464.096 391.974H408.86Z" fill="#B28B67"/>
<path fill-rule="evenodd" clip-rule="evenodd" d="M301.855 584.609C298.457 585.81 296.117 586.949 294.833 588.026C293.272 589.335 291.213 591.507 288.654 594.54C290.174 596.35 303.829 612.624 329.621 643.361C334.879 641.11 336.529 638.478 334.57 635.464C332.611 632.45 331.007 629.926 329.76 627.892L320.835 596.712C320.664 596.112 320.038 595.764 319.438 595.936C319.428 595.939 319.418 595.942 319.407 595.945L314.645 597.456C311.341 595.916 309.026 594.355 307.698 592.773C306.62 591.488 305.649 589.277 304.787 586.141L304.787 586.141C304.456 584.937 303.212 584.23 302.009 584.561C301.957 584.575 301.906 584.591 301.855 584.609Z" fill="#E4E4E4"/>
<path fill-rule="evenodd" clip-rule="evenodd" d="M506.671 644.672C505.407 648.046 504.775 650.571 504.775 652.247C504.775 654.284 505.114 657.258 505.793 661.167C508.157 661.167 529.401 661.167 569.525 661.167C571.181 655.692 570.225 652.736 566.657 652.299C563.089 651.863 560.124 651.469 557.764 651.117L528.142 637.911C527.572 637.657 526.904 637.913 526.65 638.483C526.646 638.493 526.642 638.503 526.638 638.513L524.733 643.131C521.43 644.673 518.746 645.443 516.681 645.443C515.003 645.443 512.686 644.766 509.729 643.41L509.729 643.41C508.594 642.89 507.253 643.388 506.733 644.523C506.71 644.572 506.69 644.621 506.671 644.672Z" fill="#E4E4E4"/>
<path fill-rule="evenodd" clip-rule="evenodd" d="M457.316 637.843L527.153 630.293L475.396 391.974H412.845L457.316 637.843Z" fill="#9BA6A8"/>
<path fill-rule="evenodd" clip-rule="evenodd" d="M317.72 570.833L363.529 624.845C411.779 572.352 439.908 538.1 447.918 522.089C455.927 506.079 463.128 462.707 469.519 391.974H399.098C395.607 454.202 393.254 486.764 392.039 489.659C390.823 492.555 366.051 519.613 317.72 570.833Z" fill="#BAC2C4"/>
<path fill-rule="evenodd" clip-rule="evenodd" d="M506.526 366.046L546.595 385.725C556.679 386.612 565.289 388.41 572.427 391.118C574.196 392.233 576.535 394.709 570.121 395.341C563.708 395.973 556.99 396.924 556.496 399.226C556.001 401.527 560.284 403.42 559.03 406.63C558.194 408.769 551.781 404.905 539.79 395.038L502.082 386.731L506.526 366.046ZM370.396 390.973L393.666 386.963C387.441 435.619 384.004 461.459 383.357 464.483C381.902 471.287 389.056 479.997 392.303 484.783C385.309 489.5 383.911 476.843 375.119 482.963C367.094 488.549 361.739 497.051 350.55 492.633C349.174 492.089 347.308 489.46 350.199 486.638C357.402 479.608 367.477 467.75 368.504 464.25C369.904 459.478 370.534 435.052 370.396 390.973Z" fill="#B28B67"/>
<path fill-rule="evenodd" clip-rule="evenodd" d="M419.361 282.222L428.694 278.883C469.807 303.277 494.867 359.65 544.137 383.166L535.894 398.015C458.326 402.048 426.828 333.451 419.361 282.222Z" fill="#2D0659"/>
<path fill-rule="evenodd" clip-rule="evenodd" d="M398.631 409.948C437.213 403.145 465.594 398.141 483.772 394.936C487.663 394.249 485.944 388.789 484.884 386.067C472.653 354.656 441.128 324.03 432.956 277.688L407.722 278.187C393.141 314.277 393.173 355.541 398.631 409.948Z" fill="#DDE3E9"/>
<path fill-rule="evenodd" clip-rule="evenodd" d="M382.691 315.548C378.944 315.157 375.7 313.276 372.959 309.904C361.141 295.37 362.818 285.924 371.896 281.316C380.975 276.708 390.589 281.207 405.873 278.512C406.704 278.366 407.475 278.283 408.184 278.265L415.95 277.346C451.125 347.847 465.96 396.406 460.455 423.023L393.441 434.84C391.095 444.752 388.663 453.174 386.143 460.103L367.884 463.323C356.416 408.334 361.352 359.076 382.691 315.548Z" fill="#3E0382"/>
<path fill-rule="evenodd" clip-rule="evenodd" d="M401.297 394.062C406.499 411.237 412.17 423.368 418.31 430.455L393.441 434.84C396.178 423.277 398.797 409.684 401.297 394.062V394.062Z" fill="black" fill-opacity="0.4"/>
<rect x="628" y="242" width="180" height="146" rx="12" fill="url(#paint5_linear)"/>
<path fill-rule="evenodd" clip-rule="evenodd" d="M729.116 464.395C726.433 473.432 729.043 486.039 738.754 489.417C745.811 491.871 753.071 493.391 760.023 496.23C765.579 498.5 770.668 501.693 775.311 505.493C779.776 509.146 782.858 515.234 787.938 517.85C791.175 519.517 796.126 520.217 799.768 519.874C804.197 519.458 803.694 520.126 806.451 523.751C811.853 530.856 817.559 537.457 824.749 542.886C835.105 550.706 847.833 557.267 860.948 558.458C862.613 558.609 868.453 559.72 869.391 557.603C870.439 555.238 866.859 555.598 865.761 555.473C858.754 554.672 852.627 553.985 845.963 551.302C820.249 540.95 807.301 517.586 787.681 499.671C786.679 498.705 784.249 496.589 782.659 495.142C780.148 492.857 775.026 489.933 773.399 487.268C770.333 482.247 777.562 487.927 778.923 489.09C780.645 490.56 782.466 492.16 783.94 493.596C790.783 500.192 798.226 507.507 805.278 514.316C815.07 494.595 793.528 473.841 778.385 464.259C765.909 456.365 735.469 443.175 729.116 464.395Z" fill="url(#paint6_linear)"/>
<path fill-rule="evenodd" clip-rule="evenodd" d="M823.985 411.924C814.202 419.66 812.132 430.917 815.428 442.519C817.203 448.772 820.546 454.179 823.156 460.079C827.083 468.955 828.121 476.98 826.06 486.556C825.422 489.522 825.291 492.215 825.631 494.776C825.034 497.96 824.85 501.234 825.426 504.7C826.16 509.128 828.453 513.495 832.497 515.693C833.585 516.283 836 517.313 837.791 517.317C839.76 530.263 844.438 542.754 851.937 553.337C856.464 559.726 861.138 566.02 865.856 572.268C867.124 573.946 869.62 576.446 868.515 572.95C867.505 569.751 863.714 566.206 861.752 563.471C852.196 550.149 843.531 538.02 840.621 521.545C840.316 519.818 840.054 518.078 839.824 516.331C839.848 516.284 839.865 516.233 839.884 516.183C839.921 516.186 839.957 516.191 839.995 516.193C839.987 516.092 839.984 515.966 839.985 515.823C840.042 515.506 840.042 515.155 840.016 514.78C840.052 513.758 840.073 512.572 839.779 512.127C839.777 512.124 839.771 512.12 839.769 512.116C839.447 504.129 839.839 496.116 840.386 488.15C840.381 488.209 840.774 479.203 842.324 483.001C843.07 484.831 841.859 490.078 841.683 492.664C841.307 498.407 841.101 505.501 841.367 512.05C841.132 512.526 841.314 513.968 841.461 515.034C841.518 515.586 841.591 516.131 841.633 516.622C853.937 513.206 857.286 501.254 857.41 489.878C857.41 489.864 857.41 489.851 857.41 489.838C857.594 486.594 857.827 483.339 858.768 480.242C860.338 475.075 863.721 472.084 866.879 467.944C875.49 456.656 870.552 439.008 864.872 427.262C858.465 414.011 837.712 401.006 823.985 411.924Z" fill="url(#paint7_linear)"/>
<path fill-rule="evenodd" clip-rule="evenodd" d="M868.479 574.77L866.268 576.25C864.565 573.374 862.915 570.47 861.543 567.417C856.296 555.742 851.529 536.626 862.549 526.784C862.955 526.421 864.598 525.305 866.676 524.085C867.269 522.921 868.116 521.891 869.185 521.068C879.027 513.375 896.18 513.988 906.992 519.337C915.709 523.651 921.19 533.307 923.687 542.417C925.359 548.516 926.482 558.055 920.468 562.181C912.943 567.344 906.305 558.217 902.491 552.836C897.42 545.683 892.253 539.954 883.19 538.831C881.079 538.57 878.935 538.531 876.821 538.295C873.51 537.926 869.949 537.663 867.699 534.893C864.596 531.07 866.405 528.797 870.423 527.203C871.108 526.932 878.949 525.601 876.625 524.06C875.915 523.589 874.573 523.738 873.057 524.191C869.568 526.014 865.416 528.199 864.465 529.191C854.2 539.884 860.671 559.685 866.515 571.106C867.146 572.339 867.805 573.559 868.479 574.77V574.77Z" fill="url(#paint8_linear)"/>
<path d="M730.787 292.377C728.588 290.625 726.206 289.057 723.549 288.134C718.419 286.474 714.662 286.197 709.532 287.766C707.883 288.227 705.318 289.426 703.852 290.348C697.072 294.776 694.69 301.97 694.873 309.718C695.056 316.821 698.63 321.709 704.859 324.384C712.28 327.52 723.366 324.384 727.855 317.559C731.703 311.748 731.062 302.708 723.916 299.111C717.044 295.606 707.333 298.465 704.859 304.83C703.302 308.704 705.318 314.515 709.898 315.622C713.013 316.36 716.953 315.068 718.785 312.854C720.251 311.102 720.068 307.966 718.052 306.767C717.503 306.49 716.861 306.398 716.312 306.674C715.945 306.859 715.579 307.136 715.395 307.505C714.937 308.243 714.846 308.98 714.479 309.718C713.563 311.379 710.631 311.563 709.715 309.718C708.707 307.689 709.349 305.844 710.723 304.645C712.006 303.538 713.38 302.985 714.937 302.339C717.869 301.048 723.641 302.893 725.107 306.306C726.573 309.718 724.649 313.869 722.267 316.452C719.701 319.311 716.037 320.695 712.372 320.51C707.241 320.326 704.676 319.496 701.928 315.345C700.37 313.039 700.004 309.165 700.187 306.398C700.37 302.247 702.294 299.664 704.401 297.174C708.158 292.931 715.395 292.101 720.801 293.023C725.29 293.853 728.68 296.251 731.245 299.849C737.567 308.888 735.276 318.389 727.58 325.491C726.847 326.137 725.84 326.783 724.832 327.428C720.984 329.734 717.044 330.195 714.479 330.288C712.647 330.38 708.982 329.458 707.883 330.749C705.959 333.239 711.731 334.9 713.105 335.084C714.479 335.269 716.678 335.269 718.235 334.992C718.694 334.9 720.526 334.807 720.526 335.914C720.526 336.099 720.526 335.545 720.526 336.099C720.526 337.575 719.793 338.036 719.152 338.312C717.777 338.958 715.029 339.419 712.922 338.958C712.006 338.774 711.364 338.312 710.448 338.128C708.982 337.759 707.883 339.05 708.249 340.434C708.524 341.633 709.807 342.555 710.906 342.924C714.021 344.031 718.052 342.924 718.052 342.924C719.243 342.555 720.434 343.017 720.434 343.755C720.434 344.124 720.434 344.124 720.434 344.4C720.343 345.23 719.61 346.337 717.594 346.983C715.67 347.352 713.655 347.352 711.731 346.798C711.181 346.614 710.54 346.153 709.99 346.429C708.616 346.983 709.807 349.289 710.448 349.935C711.547 351.041 713.197 351.503 714.662 351.687C717.961 352.056 722.175 349.842 723.824 346.798C724.191 346.153 724.282 345.692 724.282 345.23C724.557 343.478 724.282 341.264 724.282 339.973C724.374 337.759 724.007 335.73 724.649 333.516C725.015 332.225 725.656 331.671 726.939 330.933C731.795 328.166 737.658 321.248 738.758 315.253C740.315 306.582 737.567 297.82 730.787 292.377Z" fill="#8974A2"/>
<path d="M717.213 280.777C718.767 280.423 718.479 275.996 718.479 274.137C718.479 272.012 718.306 269.533 717.385 269.091C716.579 268.737 716.061 269.445 715.659 270.773C715.371 271.747 715.716 273.606 715.774 274.668C715.774 276.528 715.083 281.308 717.213 280.777Z" fill="#8974A2"/>
<path d="M735.561 281.531C735.974 279.946 736.634 277.142 735.891 275.801C733.663 271.777 728.961 282.506 730.693 285.432C732.756 288.968 734.819 284.457 735.561 281.531Z" fill="#8974A2"/>
<path d="M750.272 290.059C748.084 289.19 745.398 289.98 743.409 290.85C742.017 291.482 737.044 293.774 740.227 295.434C742.614 296.541 753.951 291.482 750.272 290.059Z" fill="#8974A2"/>
<path d="M700.443 284.564C701.011 285.703 701.791 286.727 702.856 286.727C703.352 286.727 703.636 286.044 703.707 285.247C703.849 283.54 703.21 281.604 702.643 280.124C702.075 278.644 699.592 273.18 698.244 275.457C697.96 275.912 697.818 277.165 697.818 277.734C697.818 278.644 698.031 279.669 698.315 280.466C698.882 282.06 699.805 283.198 700.443 284.564Z" fill="#8974A2"/>
<path d="M687.091 289.936C684.419 291.072 687.341 292.888 688.594 293.645C689.846 294.402 691.933 296.066 693.77 295.461C697.528 294.099 690.681 288.423 687.091 289.936Z" fill="#8974A2"/>
<defs>
<linearGradient id="paint0_linear" x1="718" y1="95" x2="718" y2="529" gradientUnits="userSpaceOnUse">
<stop stop-color="#363636"/>
<stop offset="1" stop-color="#3E0382" stop-opacity="0.35"/>
</linearGradient>
<linearGradient id="paint1_linear" x1="923.516" y1="355.386" x2="889.672" y2="566.256" gradientUnits="userSpaceOnUse">
<stop stop-color="#820366"/>
<stop offset="0.9999" stop-color="#FBBEBE"/>
<stop offset="1" stop-color="#7148A0"/>
</linearGradient>
<linearGradient id="paint2_linear" x1="909.826" y1="480.523" x2="894.078" y2="578.64" gradientUnits="userSpaceOnUse">
<stop stop-color="#820366"/>
<stop offset="0.9999" stop-color="#FBBEBE"/>
<stop offset="1" stop-color="#7148A0"/>
</linearGradient>
<linearGradient id="paint3_linear" x1="881.842" y1="299.765" x2="839.385" y2="564.301" gradientUnits="userSpaceOnUse">
<stop stop-color="#820366"/>
<stop offset="0.9999" stop-color="#FBBEBE"/>
<stop offset="1" stop-color="#7148A0"/>
</linearGradient>
<linearGradient id="paint4_linear" x1="938.643" y1="394.513" x2="907.67" y2="587.494" gradientUnits="userSpaceOnUse">
<stop stop-color="#820366"/>
<stop offset="0.9999" stop-color="#FBBEBE"/>
<stop offset="1" stop-color="#7148A0"/>
</linearGradient>
<linearGradient id="paint5_linear" x1="641.953" y1="242" x2="734.886" y2="418.114" gradientUnits="userSpaceOnUse">
<stop stop-color="white"/>
<stop offset="1" stop-color="#EDEDED"/>
</linearGradient>
<linearGradient id="paint6_linear" x1="724.493" y1="477.319" x2="878.48" y2="532.061" gradientUnits="userSpaceOnUse">
<stop stop-color="#EE95D5"/>
<stop offset="1" stop-color="#D1C0CC"/>
</linearGradient>
<linearGradient id="paint7_linear" x1="811.587" y1="420.143" x2="900.676" y2="553.237" gradientUnits="userSpaceOnUse">
<stop stop-color="#81368D"/>
<stop offset="1" stop-color="#D1C0CC"/>
</linearGradient>
<linearGradient id="paint8_linear" x1="870.282" y1="520.263" x2="905.188" y2="572.41" gradientUnits="userSpaceOnUse">
<stop stop-color="#966EA9"/>
<stop offset="1" stop-color="#D1C0CC"/>
</linearGradient>
</defs>
</svg>
