<svg width="1280" height="720" viewBox="0 0 1280 720" fill="none" xmlns="http://www.w3.org/2000/svg">
<g clip-path="url(#clip0)">
<path d="M632.305 633.554C411.873 627.298 241.099 512.366 240.144 376.77C238.897 199.944 405.713 -26.3797 646.238 142.643C831.581 272.887 1042.25 263.865 1038.4 399.426C1034.55 534.988 852.737 639.811 632.305 633.554Z" fill="url(#paint0_linear)"/>
<g opacity="0.5" filter="url(#filter0_f)">
<path d="M640.499 637.215C420.067 630.959 245.844 637.576 240.64 651.667C233.853 670.042 393.428 698.838 639.036 688.774C828.296 681.019 1038.49 688.56 1038.9 674.323C1039.3 660.085 860.932 643.472 640.499 637.215Z" fill="url(#paint1_linear)"/>
</g>
<path fill-rule="evenodd" clip-rule="evenodd" d="M359.472 365.263C354.752 359.722 351.557 352.931 352.091 345.322C353.629 323.398 384.148 328.221 390.084 339.287C396.021 350.352 395.315 378.42 387.643 380.397C384.583 381.186 378.065 379.254 371.431 375.256L375.595 404.714H351.008L359.472 365.263Z" fill="#B28B67"/>
<path fill-rule="evenodd" clip-rule="evenodd" d="M376.07 326.534C372.83 326.002 364.105 325.637 362.496 325.637C361.467 325.637 360.353 325.872 359.744 324.928C359.245 324.155 359.428 322.847 359.279 321.95C359.106 320.907 358.861 319.879 358.612 318.852C357.906 315.932 356.837 313.154 355.342 310.545C352.537 305.652 348.428 301.818 343.239 299.588C337.51 297.125 331.027 296.561 324.864 297.06C318.27 297.595 312.3 299.772 306.073 301.821C300.14 303.773 293.925 304.541 287.719 303.588C281.466 302.628 276.742 299.239 271.468 296.022C266.069 292.729 259.899 290.576 253.516 291.071C247.558 291.533 242.067 293.993 237.14 297.279C232.531 300.354 228.727 304.053 226.58 309.26C224.27 314.861 224.272 321.008 228.071 325.958C233.577 333.132 243.799 334.988 252.303 334.803C257.222 334.697 262.053 333.799 266.697 332.166C272.89 329.987 278.242 326.295 284.036 323.299C286.756 321.893 289.566 320.739 292.512 319.907C295.371 319.1 298.187 318.729 300.775 320.456C303.514 322.283 305.967 324.078 309.1 325.222C312.105 326.319 315.288 326.933 318.49 326.908C324.719 326.86 330.86 324.919 336.91 323.619C341.844 322.559 347.123 321.503 352.153 322.521C354.252 322.947 357.317 323.825 358.075 326.006C345.316 328.318 340.305 344.098 343.902 355.681C345.844 361.933 357.513 369.242 362.05 365.955C364.925 363.873 363.18 361.139 362.05 359.335C359.888 355.879 359.148 351.44 363.15 349.033C366.602 346.958 370.232 351.886 370.3 351.881C371.249 351.806 379.447 347.169 385.096 340.404C390.668 340.734 391.514 337.06 390.183 334.055C388.853 331.05 380.548 327.268 376.07 326.534Z" fill="#191847"/>
<path d="M340.764 668C384.33 668 419.647 634.288 419.647 592.703C419.647 551.117 384.33 517.405 340.764 517.405C297.198 517.405 261.881 551.117 261.881 592.703C261.881 634.288 297.198 668 340.764 668Z" fill="#B3C3CD"/>
<path fill-rule="evenodd" clip-rule="evenodd" d="M489.831 656.382C476.705 627.33 467.213 602.033 463.402 588.686C456.878 565.833 451.915 545.724 450.66 538.214C447.669 520.306 473.672 519.263 477.109 528.163C482.311 541.634 491.392 585.892 502.305 652.743L489.831 656.382ZM337.576 565.209C349.619 560.449 391.794 545.551 412.135 541.337C417.98 540.126 423.645 539.001 428.971 537.984C444.803 534.962 453.006 563.523 437.758 565.717C399.784 571.183 345.95 576.826 341.343 577.46C334.886 578.347 330.007 568.201 337.576 565.209Z" fill="#B28B67"/>
<path fill-rule="evenodd" clip-rule="evenodd" d="M438.689 530.125L373.547 496.964V489.745H381.294C444.316 505.804 476.52 516.095 477.906 520.62C477.921 520.668 477.935 520.717 477.947 520.766C477.979 520.807 478.01 520.849 478.041 520.891C490.531 538.068 498.011 621.927 500.466 628.206L476.533 631.777C467.378 597.828 438.087 574.178 438.865 533.519C438.655 532.326 438.602 531.195 438.689 530.125Z" fill="#202020"/>
<path fill-rule="evenodd" clip-rule="evenodd" d="M378.959 549.819C372.998 548.626 367.51 547.561 362.813 546.737C332.475 541.416 323.629 525.177 328.859 489.745L384.756 489.745C393.887 492.368 441.339 512.267 465.959 522.851C482.254 529.856 477.117 555.11 467.89 561.681C467.839 562.085 467.673 562.358 467.378 562.481C417.738 583.055 378.469 572.26 365.351 575.709L359.283 556.568L378.959 549.819Z" fill="#373737"/>
<path fill-rule="evenodd" clip-rule="evenodd" d="M341.694 562.167C338.441 562.478 336.133 562.966 334.767 563.632C333.107 564.442 330.819 565.901 327.903 568.007C328.843 569.934 337.286 587.245 353.233 619.941C358.353 619.114 360.381 617.16 359.319 614.079C358.257 610.998 357.4 608.426 356.748 606.363L355.736 576.976C355.717 576.411 355.243 575.968 354.677 575.988C354.667 575.988 354.658 575.989 354.648 575.989L350.128 576.273C347.559 574.194 345.864 572.313 345.043 570.63C344.376 569.263 344.008 567.105 343.937 564.157L343.937 564.157C343.91 563.026 342.971 562.131 341.84 562.158C341.791 562.159 341.742 562.162 341.694 562.167Z" fill="#E1E1E1"/>
<path fill-rule="evenodd" clip-rule="evenodd" d="M483.858 650.996C482.712 654.055 482.139 656.344 482.139 657.863C482.139 659.711 482.446 662.407 483.062 665.951C485.205 665.951 504.466 665.951 540.843 665.951C542.345 660.987 541.478 658.307 538.243 657.911C535.008 657.515 532.32 657.158 530.181 656.839L503.324 644.866C502.808 644.636 502.202 644.868 501.972 645.385C501.968 645.394 501.964 645.403 501.96 645.412L500.234 649.599C497.239 650.996 494.805 651.695 492.933 651.695C491.412 651.695 489.311 651.081 486.63 649.852L486.63 649.852C485.602 649.38 484.386 649.832 483.914 650.861C483.894 650.905 483.875 650.95 483.858 650.996Z" fill="#E1E1E1"/>
<path fill-rule="evenodd" clip-rule="evenodd" d="M437.063 461.692L474.183 445.39C480.686 438.91 486.965 433.985 493.021 430.615C494.832 430.038 497.926 429.864 494.625 434.685C491.324 439.506 488.069 444.726 489.388 446.415C490.707 448.105 494.527 446.24 496.037 448.988C497.043 450.819 490.603 453.011 476.717 455.561L448.915 476.876L437.063 461.692ZM286.988 466.182L307.981 470.347C286.869 509.692 275.547 530.544 274.015 532.905C270.568 538.217 273.784 547.951 274.972 553.077C267.52 554.812 270.459 543.595 261.027 545.937C252.419 548.075 245.12 553.561 237.093 546.162C236.106 545.252 235.383 542.409 238.748 540.951C247.131 537.317 259.516 530.514 261.524 527.873C264.263 524.271 272.751 503.707 286.988 466.182Z" fill="#B28B67"/>
<path fill-rule="evenodd" clip-rule="evenodd" d="M365.038 387.639L373.897 386.12C393.192 404.837 401.066 449.804 413.924 455.756C426.082 461.383 443.316 455.938 463.801 448.584L470.074 462.601C451.462 482.738 411.809 499.75 395.736 490.038C370.039 474.511 364.107 419.051 365.038 387.639Z" fill="#044850"/>
<path fill-rule="evenodd" clip-rule="evenodd" d="M326.421 498.965C361.941 498.965 388.069 498.965 404.804 498.965C408.386 498.965 407.711 493.793 407.193 491.183C401.218 461.064 377.891 428.597 377.891 385.722L355.282 382.177C336.581 412.253 330.114 449.284 326.421 498.965Z" fill="#E8EFF6"/>
<path fill-rule="evenodd" clip-rule="evenodd" d="M318.603 468.47C302.625 497.293 289.193 518.044 278.31 530.723L261.88 527.505C272.464 461.87 303.111 413.427 353.823 382.177H354.082L362.775 382.177C383.073 451.366 388.668 497.466 379.562 520.479H309.005C310.122 503.64 313.701 485.833 318.603 468.47H318.603Z" fill="#1A7580"/>
<rect x="465" y="360" width="248" height="248" rx="12" transform="rotate(-45 465 360)" fill="url(#paint2_linear)"/>
<rect x="465" y="360" width="248" height="248" rx="12" transform="rotate(-45 465 360)" fill="url(#paint3_linear)"/>
<path fill-rule="evenodd" clip-rule="evenodd" d="M927.371 350.408C932.357 344.555 935.732 337.383 935.168 329.346C933.543 306.19 901.309 311.284 895.039 322.971C888.768 334.658 889.513 364.304 897.617 366.393C900.849 367.226 907.734 365.186 914.741 360.962L910.342 392.077H936.312L927.371 350.408Z" fill="#915B3C"/>
<path fill-rule="evenodd" clip-rule="evenodd" d="M929.367 355.62C932.626 341.12 941.912 331.235 940.494 324.754C939.548 320.433 937.029 317.746 932.934 316.693C930.817 308.127 923.988 304.484 912.447 305.763C895.135 307.681 884.569 314.871 889.132 330.69C893.326 330.69 898.39 329.173 905.392 331.772C907.613 332.597 909.202 335.154 910.159 339.444H913.323C916.394 334.353 919.422 332.483 922.407 333.832C925.392 335.181 926.07 338.459 924.442 343.665L926.001 355.62H929.367Z" fill="#191847"/>
<path fill-rule="evenodd" clip-rule="evenodd" d="M1008.81 527.334H884.374C874.812 527.334 867.061 535.085 867.061 544.647V644.195C867.061 653.757 874.812 661.508 884.374 661.508H1008.81C1018.37 661.508 1026.12 653.757 1026.12 644.195V544.647C1026.12 535.085 1018.37 527.334 1008.81 527.334ZM991.496 557.631C993.887 557.631 995.825 559.569 995.825 561.959V626.882C995.825 629.273 993.887 631.21 991.496 631.21H901.686C899.296 631.21 897.358 629.273 897.358 626.882V561.959C897.358 559.569 899.296 557.631 901.686 557.631H991.496Z" fill="#929FA8"/>
<path fill-rule="evenodd" clip-rule="evenodd" d="M759.766 656.097C781.099 630.046 795.534 610.733 803.07 598.157C815.974 576.626 826.535 557.466 829.867 550.148C837.815 532.695 811.571 524.523 805.632 532.663C796.642 544.984 777.443 583.754 748.035 648.974L759.766 656.097Z" fill="#B28B67"/>
<path fill-rule="evenodd" clip-rule="evenodd" d="M803.482 648.523L843.185 548.581C851.677 530.363 810.669 518.387 804.428 526.866C790.26 546.115 756.585 622.049 752.364 627.784L803.482 648.523Z" fill="#2F3676"/>
<path fill-rule="evenodd" clip-rule="evenodd" d="M909.224 628.48C901.491 617.199 873.359 579.244 858.037 563.54C853.634 559.027 849.338 554.696 845.274 550.66C833.197 538.662 809.145 558.827 821.201 569.755C851.224 596.969 895.03 633.706 898.69 636.982C903.82 641.573 914.085 635.57 909.224 628.48Z" fill="#915B3C"/>
<path fill-rule="evenodd" clip-rule="evenodd" d="M907.416 623.384C910.081 625.577 911.814 627.368 912.616 628.758C913.591 630.448 914.734 633.076 916.042 636.643C914.082 637.775 896.464 647.946 863.189 667.158C859.194 663.41 858.572 660.501 861.322 658.431C864.072 656.36 866.342 654.614 868.13 653.192L886.373 628.058C886.724 627.574 887.401 627.467 887.884 627.818C887.893 627.824 887.901 627.83 887.909 627.836L891.7 630.755C895.177 630.451 897.772 629.805 899.485 628.816C900.876 628.013 902.473 626.341 904.276 623.802L904.276 623.802C904.968 622.827 906.319 622.598 907.294 623.29C907.336 623.32 907.377 623.351 907.416 623.384Z" fill="#E2E0E0"/>
<path fill-rule="evenodd" clip-rule="evenodd" d="M768.943 652.204C770.154 655.436 770.759 657.854 770.759 659.458C770.759 661.409 770.434 664.257 769.784 668C767.52 668 747.177 668 708.754 668C707.168 662.757 708.084 659.926 711.501 659.508C714.918 659.09 717.756 658.713 720.016 658.376L748.382 645.73C748.928 645.487 749.568 645.732 749.811 646.278C749.815 646.287 749.819 646.297 749.823 646.306L751.646 650.729C754.81 652.205 757.38 652.943 759.358 652.943C760.964 652.943 763.183 652.294 766.015 650.996L766.015 650.996C767.101 650.498 768.386 650.975 768.884 652.062C768.905 652.108 768.925 652.156 768.943 652.204Z" fill="#EADAEA"/>
<path fill-rule="evenodd" clip-rule="evenodd" d="M857.471 553.573C890.47 548.197 912.573 544.521 923.781 542.545C955.726 536.912 965.042 519.722 959.534 482.215H900.675C892.886 484.464 860.34 498.375 803.038 523.949C792.728 529.067 794.648 544.157 796.533 549.128C796.61 549.331 813.99 579.113 848.674 638.474L896.823 607.801L857.381 557.188C856.339 555.09 856.369 553.885 857.471 553.573Z" fill="#5C63AB"/>
<path fill-rule="evenodd" clip-rule="evenodd" d="M853.231 468.05L818.715 493.395C809.354 495.921 801.533 499.064 795.252 502.823C793.768 504.175 791.975 506.913 798.128 506.44C804.281 505.967 810.775 505.746 811.624 507.845C812.473 509.943 808.749 512.453 810.465 515.285C811.61 517.173 817.015 512.439 826.681 501.084L860.861 486.911L853.231 468.05ZM985.753 468.924L963.141 469.013C977.103 514.085 984.64 537.999 985.753 540.757C988.257 546.962 982.958 556.412 980.692 561.491C988.072 564.793 987.286 552.563 996.595 556.894C1005.09 560.848 1011.56 568.01 1021.37 561.953C1022.58 561.208 1023.9 558.404 1020.71 556.213C1012.75 550.754 1001.27 541.199 999.722 538.055C997.608 533.766 992.952 510.723 985.753 468.924Z" fill="#915B3C"/>
<path fill-rule="evenodd" clip-rule="evenodd" d="M921.493 374.041L912.136 372.436C877.421 402.426 863.162 460.039 820.609 490.559L830.851 503.255C904.672 494.115 922.97 423.84 921.493 374.041Z" fill="#E87613"/>
<path fill-rule="evenodd" clip-rule="evenodd" d="M962.281 491.625C924.765 491.625 897.168 491.625 879.492 491.625C875.709 491.625 876.422 486.163 876.969 483.406C883.28 451.594 907.918 417.301 907.918 372.016L931.798 368.272C951.55 400.039 958.381 439.151 962.281 491.625Z" fill="#DDE3E9"/>
<path fill-rule="evenodd" clip-rule="evenodd" d="M961.616 399.498C965.085 398.501 967.831 396.175 969.856 392.522C978.584 376.773 975.432 368.101 966.104 365.251C956.776 362.401 948.458 368.272 933.596 368.272C932.788 368.272 932.048 368.323 931.375 368.424L923.9 368.851C902.451 441.543 896.535 490.042 906.153 514.349H971.315C975.175 523.351 978.87 530.925 982.398 537.072H1000.15C1001.82 483.042 988.979 437.184 961.616 399.498Z" fill="#FF9B21"/>
<path fill-rule="evenodd" clip-rule="evenodd" d="M957.125 477.016C955.076 494.162 951.745 506.607 947.133 514.349H971.315C966.811 503.848 962.081 491.403 957.125 477.016Z" fill="black" fill-opacity="0.1"/>
<g style="mix-blend-mode:luminosity" opacity="0.5">
<path opacity="0.7" fill-rule="evenodd" clip-rule="evenodd" d="M88.9716 468.222C98.5819 467.723 110.467 473.333 111.492 483.779C112.237 491.369 112.007 498.938 113.159 506.517C114.081 512.574 116.03 518.388 118.689 523.906C121.245 529.211 126.548 533.728 127.927 539.396C128.806 543.007 128.314 548.087 127.102 551.62C125.628 555.915 126.411 555.576 129.349 559.18C135.105 566.242 140.288 573.485 143.954 581.92C149.234 594.07 152.695 608.272 150.736 621.571C150.486 623.26 150.191 629.321 147.865 629.745C145.268 630.218 146.482 626.752 146.621 625.632C147.505 618.488 148.29 612.243 147.224 604.987C143.11 576.992 123.027 558.546 109.95 534.786C109.231 533.561 107.713 530.643 106.658 528.718C104.992 525.679 103.317 519.896 101.062 517.643C96.8144 513.398 100.719 521.932 101.547 523.561C102.593 525.622 103.744 527.813 104.817 529.619C109.723 537.989 115.2 547.127 120.267 555.756C98.3514 560.749 82.917 534.402 77.0359 517.08C72.1903 502.809 66.3927 469.443 88.9716 468.222Z" fill="#69A1AC"/>
<path opacity="0.7" fill-rule="evenodd" clip-rule="evenodd" d="M217.778 441.72C201.713 442.995 191.399 453.595 186.598 468.423C184.01 476.413 183.714 484.622 182.276 492.834C180.113 505.188 175.458 514.551 166.362 523.352C163.545 526.078 161.469 528.877 159.993 531.872C157.063 534.861 154.513 538.244 152.639 542.381C150.246 547.663 149.569 554.001 152.332 559.267C153.075 560.683 154.929 563.525 156.85 564.817C149.658 580.134 145.703 596.91 146.149 613.664C146.418 623.778 146.912 633.896 147.488 643.998C147.643 646.71 148.526 651.189 149.853 646.64C151.067 642.479 149.545 635.948 149.404 631.601C148.718 610.426 148.132 591.173 156.849 571.39C157.763 569.317 158.732 567.26 159.741 565.219C159.8 565.185 159.855 565.144 159.911 565.103C159.949 565.133 159.984 565.165 160.023 565.194C160.087 565.079 160.176 564.942 160.279 564.789C160.568 564.491 160.821 564.113 161.061 563.692C161.834 562.62 162.709 561.362 162.714 560.672C162.714 560.667 162.711 560.659 162.711 560.654C168.107 551.845 174.288 543.522 180.601 535.362C180.553 535.421 187.448 526.033 186.382 531.225C185.868 533.727 180.797 538.492 178.748 541.142C174.217 547.037 168.896 554.508 164.475 561.731C163.88 562.073 163.039 563.752 162.431 565.003C162.095 565.636 161.782 566.275 161.474 566.831C177.142 572.008 189.329 561.581 197.639 549.453C197.649 549.439 197.658 549.424 197.668 549.41C200.197 546.059 202.787 542.732 206.024 540.083C211.423 535.663 217.206 534.883 223.572 532.707C240.934 526.775 248.315 504.275 250.66 487.58C253.305 468.745 240.367 439.863 217.778 441.72Z" fill="#89C5CC"/>
<path opacity="0.7" fill-rule="evenodd" clip-rule="evenodd" d="M186.044 388.974C169.555 406.135 161.589 429.937 155.281 452.314C148.236 477.307 143.583 502.685 143.404 528.67C143.287 545.742 142.823 562.92 143.819 579.972C144.173 586.028 144.777 592.095 145.736 598.086C145.815 598.578 147.963 611.955 150.018 608.838C151.187 607.066 147.817 594.962 147.562 592.946C146.129 581.591 145.797 570.152 145.866 558.716C145.981 539.885 145.426 521.151 147.335 502.39C147.619 499.589 147.844 496.647 148.51 493.907C149.216 490.993 148.316 492.265 150.617 491.112C152.853 489.99 155.616 490.15 157.936 488.744C167.138 483.164 171.846 468.831 175.51 459.426C179.7 448.672 182.247 437.204 184.281 425.886C185.775 417.571 186.843 409.306 187.447 400.884C187.637 398.23 187.649 395.454 188.17 392.844C188.311 392.14 189.016 390.894 188.99 390.271C188.936 388.951 188.14 388.175 188.075 387.066C187.384 387.688 186.707 388.324 186.044 388.974Z" fill="#89C5CC"/>
<path opacity="0.7" fill-rule="evenodd" clip-rule="evenodd" d="M96.1363 617.616C96.1363 645.997 119.143 669.003 147.523 669.003C175.903 669.003 198.91 645.997 198.91 617.616" fill="#89C5CC"/>
<path opacity="0.7" fill-rule="evenodd" clip-rule="evenodd" d="M151.646 617.78H148.931C149.119 614.373 149.368 610.973 149.937 607.604C152.116 594.72 158.926 575.797 173.864 573.706C174.415 573.628 176.442 573.615 178.898 573.759C180.061 573.109 181.365 572.715 182.739 572.625C195.456 571.687 209.659 581.947 215.794 592.625C220.739 601.233 219.906 612.538 216.852 621.684C214.806 627.807 210.342 636.537 202.897 636.622C193.583 636.728 193.134 625.216 192.954 618.487C192.714 609.539 191.584 601.745 184.533 595.646C182.89 594.226 181.094 592.976 179.435 591.575C176.836 589.382 173.964 587.136 173.629 583.509C173.167 578.503 175.992 577.603 180.306 578.533C181.041 578.691 188.448 582.015 187.352 579.387C187.017 578.585 185.794 577.949 184.25 577.472C180.256 577.038 175.492 576.534 174.122 576.835C159.343 580.078 153.589 600.55 152.061 613.557C151.896 614.961 151.762 616.369 151.646 617.78V617.78Z" fill="#69A1AC"/>
</g>
<g style="mix-blend-mode:luminosity">
<path opacity="0.5" fill-rule="evenodd" clip-rule="evenodd" d="M1151.57 386.499C1154.34 382.549 1159.48 372.518 1163.38 371.107C1165.89 370.198 1165.16 379.601 1165.19 381.394C1165.31 388.331 1164.64 395.224 1163.8 402.103C1162.3 414.509 1157.39 425.557 1150.65 436.116C1147.18 441.549 1143.11 447.048 1137.48 450.438C1134.89 451.999 1131.77 452.26 1129.21 453.605C1126.22 455.171 1127.85 453.905 1126.5 457.013C1124.64 461.328 1124.04 466.894 1123.18 471.498C1119.21 492.633 1109.61 604.357 1111.27 625.855C1111.42 627.76 1108.77 628.216 1108.63 625.89C1107.93 613.556 1114.03 528.141 1117.11 500.208C1120.18 472.276 1123.3 447.598 1126.42 437.934C1130.21 426.21 1137.05 412.11 1142.75 401.177C1145.39 396.097 1148.28 391.193 1151.57 386.499Z" fill="#69A1AC"/>
<path opacity="0.5" fill-rule="evenodd" clip-rule="evenodd" d="M1172.13 523.498C1179.34 518.206 1187.14 528.194 1180.62 533.486C1177.01 536.412 1173.24 535.371 1171.12 532.933C1169.74 534.612 1168.45 536.368 1167.21 537.851C1163.44 542.371 1159.87 546.998 1156.46 551.733C1149.38 561.57 1143.31 571.963 1136.96 582.165C1130.7 592.234 1124.48 602.355 1118.81 612.68C1114 621.427 1107.59 631.718 1105.94 641.307C1108.44 620.969 1117.92 601.421 1129.21 583.491C1140.4 565.709 1153.26 546.289 1170.59 532.256C1168.83 529.661 1168.78 525.957 1172.13 523.498Z" fill="#C1DEE2"/>
<path opacity="0.5" fill-rule="evenodd" clip-rule="evenodd" d="M1051.27 322.079C1066.46 348.429 1078.95 377.374 1087.01 406.691C1091.9 424.454 1095.31 442.681 1098.71 460.776C1103.96 488.795 1108.93 516.812 1110.35 545.328C1111.77 574.01 1114.58 607.091 1105.19 634.715C1109.88 606.669 1105.41 576.815 1104.62 548.594C1104.25 535.122 1103.15 521.781 1101.71 508.388C1100.32 495.395 1098.04 482.465 1095.92 469.575C1094.89 463.297 1093.8 457.028 1092.7 450.764C1092.37 448.894 1092.23 443.348 1091.04 442.071C1089.85 440.786 1083.76 440.262 1081.85 439.319C1078 437.419 1074.38 434.721 1071.18 431.87C1065.03 426.405 1059.69 419.265 1055.47 412.225C1045.71 395.938 1041.81 376.061 1042.01 357.199C1042.04 353.536 1047.93 314.099 1045.57 313.556C1045.71 313.389 1045.85 313.217 1045.97 313.038C1047.76 316.036 1049.52 319.055 1051.27 322.079Z" fill="#89C5CC"/>
<path opacity="0.5" fill-rule="evenodd" clip-rule="evenodd" d="M1215.26 417.113C1215.5 416.775 1217.02 414.423 1216.25 414.573C1217.82 414.267 1214.1 417.167 1218 415.388C1216.15 417.136 1217.22 419.406 1217.24 421.759C1217.28 425.578 1216.64 429.366 1215.92 433.104C1214.79 439.012 1213.09 444.756 1210.64 450.251C1205.28 462.226 1196.18 473.754 1185.38 481.24C1180.05 484.937 1174.83 486.195 1168.75 487.897C1164.91 488.972 1164.6 490.959 1162.56 494.686C1158.32 502.448 1154.15 510.183 1150.41 518.207C1145.94 527.789 1141.6 537.381 1137.51 547.132C1123.72 579.976 1112.5 614.003 1106.6 649.217C1106.46 628.465 1111.26 607.093 1117.31 587.313C1121.73 572.902 1127.47 559.01 1133.59 545.258C1135.08 541.927 1137.33 537.641 1137.96 533.963C1138.4 531.386 1137.05 528.908 1136.43 526.193C1134.02 515.622 1134.19 503.778 1136.31 493.15C1138.64 481.431 1145.38 475.992 1156.79 474.332C1160.96 473.724 1166.27 473.947 1170.09 472.168C1174.26 470.231 1175.98 463.864 1178.35 459.776C1184.72 448.797 1192.28 438.267 1200.96 429.016C1203.37 426.454 1205.95 424.091 1208.7 421.9C1210.43 420.518 1214.08 418.816 1215.26 417.113Z" fill="#89C5CC"/>
<path opacity="0.5" fill-rule="evenodd" clip-rule="evenodd" d="M1087.35 626.805H1127.83C1129.65 626.805 1131.13 628.281 1131.13 630.101C1131.13 630.262 1131.11 630.423 1131.09 630.582L1127.96 651.8C1127.01 658.268 1121.46 663.06 1114.92 663.06H1100.26C1093.72 663.06 1088.17 658.268 1087.21 651.8L1084.09 630.582C1083.82 628.781 1085.06 627.106 1086.86 626.841C1087.02 626.817 1087.18 626.805 1087.35 626.805Z" fill="#C1DEE2"/>
</g>
<g opacity="0.6">
<path opacity="0.2" fill-rule="evenodd" clip-rule="evenodd" d="M597.085 209.479C570.123 200.894 467.586 304.603 482.475 338.099C497.364 371.594 552.905 368.72 585.113 325.146C617.32 281.573 624.047 218.063 597.085 209.479Z" fill="#F2F2F2"/>
</g>
<g opacity="0.6">
<path opacity="0.2" fill-rule="evenodd" clip-rule="evenodd" d="M606.672 208.4C577.53 199.122 466.704 311.215 482.796 347.419C498.889 383.623 558.921 380.516 593.732 333.42C628.543 286.324 635.814 217.679 606.672 208.4Z" fill="#F2F2F2"/>
</g>
<g style="mix-blend-mode:lighten" opacity="0.6">
<path opacity="0.2" fill-rule="evenodd" clip-rule="evenodd" d="M625.917 179.532C589.828 168.042 452.581 306.858 472.51 351.693C492.439 396.528 566.782 392.681 609.893 334.356C653.003 276.032 662.007 191.023 625.917 179.532Z" fill="#F2F2F2"/>
</g>
<g opacity="0.6">
<path opacity="0.2" fill-rule="evenodd" clip-rule="evenodd" d="M738.966 357.607C708.428 355.944 629.302 492.276 653.97 523.278C678.638 554.281 735.966 536.199 757.836 481.87C779.705 427.541 769.504 359.27 738.966 357.607Z" fill="#F2F2F2"/>
</g>
<g opacity="0.6">
<path opacity="0.2" fill-rule="evenodd" clip-rule="evenodd" d="M739.957 374.056C711.703 372.517 638.496 498.651 661.319 527.335C684.142 556.018 737.182 539.289 757.415 489.024C777.648 438.758 768.211 375.594 739.957 374.056Z" fill="#F2F2F2"/>
</g>
<g opacity="0.6">
<path opacity="0.2" fill-rule="evenodd" clip-rule="evenodd" d="M745.346 324.83C707.528 322.771 609.537 491.604 640.087 529.998C670.636 568.391 741.631 545.998 768.714 478.717C795.796 411.436 783.164 326.89 745.346 324.83Z" fill="#F2F2F2"/>
</g>
<path d="M552.639 445.093L554.643 447.136C565.953 421.808 570.417 393.956 567.591 366.362C564.764 338.769 554.744 312.4 538.534 289.892L536.604 291.786C552.346 313.753 562.102 339.438 564.914 366.317C567.725 393.196 563.495 420.344 552.639 445.093V445.093Z" fill="#9556DF"/>
<path d="M589.554 482.719L591.485 484.687C632.467 412.177 626.267 320.79 574.696 254.412L572.797 256.276C623.385 321.589 629.557 411.328 589.554 482.719Z" fill="#AD7BE8"/>
<path d="M715.214 447.881L716.327 449.016L715.193 450.129L715.409 450.35L716.544 449.237L717.658 450.372L717.88 450.155L716.766 449.019L717.9 447.906L717.683 447.685L716.549 448.798L715.436 447.664L715.214 447.881Z" fill="#F2F2F2"/>
<path d="M749.053 392.681L750.166 393.816L749.031 394.929L749.248 395.15L750.383 394.037L751.497 395.172L751.718 394.955L750.605 393.82L751.739 392.706L751.522 392.485L750.388 393.599L749.275 392.464L749.053 392.681Z" fill="#F2F2F2"/>
<path d="M664.725 372.754L665.839 373.888L664.704 375.002L664.921 375.223L666.056 374.109L667.169 375.245L667.391 375.027L666.277 373.892L667.412 372.779L667.195 372.558L666.06 373.671L664.947 372.536L664.725 372.754Z" fill="#F2F2F2"/>
<path d="M611.958 277.863L613.071 278.998L611.937 280.111L612.154 280.332L613.288 279.219L614.402 280.354L614.624 280.137L613.51 279.002L614.644 277.888L614.428 277.667L613.293 278.78L612.18 277.646L611.958 277.863Z" fill="#F2F2F2"/>
<path d="M577.25 432.396L578.364 433.531L577.229 434.644L577.446 434.865L578.581 433.752L579.694 434.887L579.916 434.67L578.802 433.535L579.937 432.421L579.72 432.2L578.585 433.313L577.472 432.179L577.25 432.396Z" fill="#F2F2F2"/>
<path d="M527.527 307.466L528.959 308.926L527.824 310.039L528.103 310.324L529.238 309.21L530.671 310.671L530.892 310.453L529.459 308.993L530.594 307.88L530.315 307.595L529.18 308.708L527.748 307.249L527.527 307.466Z" fill="#F2F2F2"/>
<path d="M573.212 341.543C571.862 340.167 569.653 340.146 568.277 341.496C566.902 342.846 566.881 345.055 568.23 346.431C569.58 347.807 571.79 347.828 573.165 346.478C574.541 345.128 574.562 342.919 573.212 341.543Z" fill="#FAC4BA"/>
<path d="M750.775 360.682L752.38 361.882C754.773 358.666 757.321 355.482 759.928 352.423L758.405 351.119C755.76 354.215 753.193 357.43 750.775 360.682Z" fill="#E6E6E6"/>
<path d="M737.544 381.254L739.305 382.214C741.233 378.698 743.314 375.201 745.493 371.829L743.801 370.739C741.603 374.155 739.502 377.694 737.544 381.254Z" fill="#E6E6E6"/>
<path d="M727.27 403.445L729.145 404.16C730.581 400.404 732.159 396.656 733.841 393.014L732.023 392.17C730.322 395.855 728.713 399.646 727.27 403.445Z" fill="#E6E6E6"/>
<path d="M720.151 426.808L722.102 427.264C723.009 423.355 724.065 419.423 725.23 415.591L723.311 415.005C722.127 418.88 721.065 422.856 720.151 426.808Z" fill="#E6E6E6"/>
<path d="M716.3 450.948L718.297 451.127C718.656 447.133 719.163 443.091 719.793 439.124L717.816 438.815C717.173 442.819 716.659 446.904 716.3 450.948Z" fill="#E6E6E6"/>
</g>
<defs>
<filter id="filter0_f" x="199.567" y="585.882" width="880.06" height="159.993" filterUnits="userSpaceOnUse" color-interpolation-filters="sRGB">
<feFlood flood-opacity="0" result="BackgroundImageFix"/>
<feBlend mode="normal" in="SourceGraphic" in2="BackgroundImageFix" result="shape"/>
<feGaussianBlur stdDeviation="20" result="effect1_foregroundBlur"/>
</filter>
<linearGradient id="paint0_linear" x1="1039.18" y1="371.941" x2="240.747" y2="349.28" gradientUnits="userSpaceOnUse">
<stop stop-color="#3B007E" stop-opacity="0.15"/>
<stop offset="1" stop-color="#FBBEBE" stop-opacity="0.35"/>
</linearGradient>
<linearGradient id="paint1_linear" x1="1038.81" y1="677.209" x2="240.381" y2="654.548" gradientUnits="userSpaceOnUse">
<stop stop-color="#EEEEEE"/>
<stop offset="1" stop-color="#B5B5B5" stop-opacity="0.35"/>
</linearGradient>
<linearGradient id="paint2_linear" x1="712.487" y1="360" x2="465" y2="607.487" gradientUnits="userSpaceOnUse">
<stop stop-color="#363636"/>
<stop offset="1" stop-color="#3E0382" stop-opacity="0.35"/>
</linearGradient>
<linearGradient id="paint3_linear" x1="712.487" y1="360" x2="465" y2="607.487" gradientUnits="userSpaceOnUse">
<stop stop-color="#363636"/>
<stop offset="1" stop-color="#3E0382" stop-opacity="0.35"/>
</linearGradient>
<clipPath id="clip0">
<rect width="1280" height="720" fill="white"/>
</clipPath>
</defs>
</svg>
