<svg width="1280" height="720" viewBox="0 0 1280 720" fill="none" xmlns="http://www.w3.org/2000/svg">
<rect x="382" y="142" width="240" height="434" rx="24" fill="url(#paint0_linear)"/>
<g style="mix-blend-mode:multiply" opacity="0.4">
<path d="M492.555 328.979C544.834 332.07 587.808 305.213 591.079 269.205C595.346 222.246 560.972 158.512 500.285 198.237C453.521 228.848 403.895 221.908 401.761 258.011C399.626 294.115 440.276 325.888 492.555 328.979Z" fill="url(#paint1_linear)" fill-opacity="0.6"/>
</g>
<path d="M572.686 338.217L545.917 318L540 333.045L566.508 344.351C574.005 353.408 578.197 357.184 579.084 355.678C580.415 353.419 577.527 351.417 578.186 349.743C578.844 348.069 583.88 348.245 588.652 348.623C593.424 349 592.034 346.816 590.883 345.738C586.012 342.739 579.946 340.232 572.686 338.217Z" fill="#E0B893"/>
<path fill-rule="evenodd" clip-rule="evenodd" d="M815.553 321.194C809.511 331.461 798.633 355.799 801.668 360.866L827.444 367.772C827.459 367.728 827.474 367.683 827.489 367.638C837.326 369.141 846.927 363.031 849.562 353.196L854.429 335.034C857.257 324.48 850.993 313.631 840.439 310.803L838.662 310.327C829.196 307.791 819.493 312.568 815.553 321.194Z" fill="#191847"/>
<path fill-rule="evenodd" clip-rule="evenodd" d="M840.453 347.15C845.826 343.483 850.162 338.386 851.452 331.718C855.169 312.508 827.58 309.56 819.879 317.696C812.179 325.831 806.324 350.132 812.525 353.616C814.998 355.005 821.098 354.859 827.775 352.963L817.375 377.328L838.707 383.044L840.453 347.15Z" fill="#B28B67"/>
<path fill-rule="evenodd" clip-rule="evenodd" d="M835.54 342.42C831.753 352.621 828.945 364.676 831.114 368.298L856.89 375.204C864.953 350.857 848.507 356.715 854.747 333.43C854.106 332.36 853.51 331.311 852.893 330.379L853.105 329.702C851.069 319.449 846.619 313.404 839.757 311.565C829.465 308.807 824.944 312.683 821.098 315.973C821.282 323.561 829.029 326.755 834.987 333.051C836.009 332.6 837.19 332.481 838.357 332.794C841.057 333.517 842.665 336.273 841.948 338.949C841.231 341.625 838.461 343.208 835.761 342.485C835.686 342.465 835.613 342.443 835.54 342.42Z" fill="#191847"/>
<path fill-rule="evenodd" clip-rule="evenodd" d="M862.003 547.245C839.929 553.395 820.883 556.47 804.867 556.47C788.851 556.47 773.975 551.734 760.238 542.263C781.84 535.95 799.63 532.793 813.609 532.793C827.587 532.793 843.719 537.61 862.003 547.245Z" fill="#A70606"/>
<path fill-rule="evenodd" clip-rule="evenodd" d="M785.757 565.336C785.97 565.017 786.15 564.67 786.293 564.294C789.243 556.521 836.506 472.665 841.214 457.334H788.003C784.423 468.99 768.311 542.141 766.043 556.735C758.888 579.756 744.157 654.314 742.277 659.479C740.298 664.913 751.43 670.573 754.396 663.893C759.115 653.264 770.361 623.854 775.368 605.897C780.063 589.061 783.885 573.915 785.757 565.336Z" fill="#997659"/>
<path fill-rule="evenodd" clip-rule="evenodd" d="M829.291 575.574C850.899 581.014 929.935 590.849 935.359 592.391C940.938 593.978 945.83 582.522 938.934 580.04C927.96 576.092 897.724 566.968 879.391 563.245C864.645 560.251 851.19 557.807 842.156 556.376C842.921 531.098 846.42 470.436 844.127 457.334H797.045C799.244 469.898 817.832 561.571 821.287 570.748C822.383 574.024 825.655 575.471 829.291 575.574Z" fill="#B28B67"/>
<path fill-rule="evenodd" clip-rule="evenodd" d="M938.503 576.909C941.388 576.372 943.503 576.222 944.846 576.459C946.48 576.747 948.817 577.44 951.856 578.537C951.522 580.433 948.518 597.47 942.844 629.649C938.218 630.203 935.983 629.018 936.137 626.095C936.292 623.171 936.395 620.738 936.447 618.796L930.045 593.172C929.922 592.679 930.221 592.18 930.715 592.056C930.723 592.054 930.731 592.052 930.74 592.05L934.713 591.177C936.417 588.745 937.414 586.702 937.706 585.045C937.943 583.7 937.728 581.745 937.059 579.183L937.059 579.183C936.802 578.199 937.391 577.194 938.375 576.937C938.417 576.926 938.46 576.917 938.503 576.909Z" fill="#534646"/>
<path fill-rule="evenodd" clip-rule="evenodd" d="M757.773 663.119C758.803 665.867 759.318 667.923 759.318 669.287C759.318 670.947 759.041 673.368 758.488 676.552C756.563 676.552 739.263 676.552 706.588 676.552C705.239 672.093 706.018 669.686 708.924 669.33C711.829 668.975 714.243 668.654 716.165 668.367L740.288 657.613C740.752 657.406 741.296 657.615 741.503 658.079C741.507 658.087 741.51 658.095 741.513 658.103L743.064 661.864C745.754 663.119 747.94 663.747 749.622 663.747C750.988 663.747 752.875 663.195 755.283 662.091L755.283 662.091C756.207 661.668 757.299 662.073 757.723 662.997C757.741 663.037 757.758 663.078 757.773 663.119Z" fill="#534646"/>
<path fill-rule="evenodd" clip-rule="evenodd" d="M843.975 457.334C823.227 451.421 803.597 451.421 785.083 457.334C778.641 486.609 762.99 498.228 760.238 543.111C791.524 558.597 830.172 532.067 862.378 547.169C871.58 526.046 858.698 475.175 843.975 457.334Z" fill="#E60606"/>
<path fill-rule="evenodd" clip-rule="evenodd" d="M794.889 396.707L766.457 374.019C762.316 366.915 758.009 361.206 753.535 356.892C752.098 355.974 749.454 355.105 751.201 360.033C752.947 364.961 754.562 370.222 753.027 371.375C751.491 372.527 748.608 370.031 746.661 372.052C745.364 373.4 750.444 376.787 761.902 382.211L781.086 407.065L794.889 396.707ZM743.075 402.484L730.59 392.496C729.946 384.813 728.28 380.711 725.592 380.19C723.689 378.866 725.661 388.777 721.876 387.28C718.092 385.784 709.759 377.002 707.854 378.151C705.036 379.85 706.06 386.776 708.053 390.482C711.777 397.41 715.382 400.19 724.718 404.645C729.599 406.974 734.645 410.806 739.855 416.143L743.075 402.484Z" fill="#997659"/>
<path fill-rule="evenodd" clip-rule="evenodd" d="M810.88 395.59C799.884 393.531 785.6 388.625 771.67 375.959L763.105 388.535C772.035 401.12 785.692 412.574 799.052 414.547C809.58 416.101 817.158 404.436 810.88 395.59Z" fill="#EAEAEB"/>
<path fill-rule="evenodd" clip-rule="evenodd" d="M792.183 414.882C779.975 415.723 760.964 408.841 735.152 394.238C725.844 407.092 720.92 416.558 720.379 422.636C741.833 439.076 761.11 448.119 777.724 451.421C775.458 461.175 775.01 470.757 777.547 480.031C782.761 499.098 834.344 491.387 850.155 497.483C866.255 466.148 848.8 449.182 852.524 427.972C856.601 404.745 844.164 365.694 841.407 365.208L816.263 360.774C811.748 378.266 801.318 396.582 792.183 414.882Z" fill="#F7F7F7"/>
<path fill-rule="evenodd" clip-rule="evenodd" d="M487.571 225.687C483.679 221.118 481.045 215.519 481.485 209.245C482.753 191.169 507.917 195.145 512.812 204.269C517.707 213.393 517.125 236.536 510.799 238.166C508.276 238.816 502.901 237.224 497.432 233.927L500.865 258.216H480.592L487.571 225.687Z" fill="#E0B893"/>
<path fill-rule="evenodd" clip-rule="evenodd" d="M521.793 191.621C521.373 190.145 520.244 188.882 518.722 188.507C518.353 188.416 517.972 188.379 517.592 188.395C517.456 188.4 517.418 188.439 517.354 188.344C517.307 188.273 517.306 188.101 517.286 188.018C517.226 187.76 517.15 187.505 517.057 187.257C516.739 186.41 516.204 185.661 515.559 185.03C514.352 183.849 512.722 183.034 511.028 182.886C510.101 182.805 509.181 182.956 508.304 183.258C507.851 183.414 507.411 183.608 506.982 183.823C506.853 183.888 506.435 184.205 506.305 184.184C506.162 184.161 505.875 183.806 505.759 183.717C504.321 182.614 502.547 182.181 500.757 182.194C498.736 182.209 496.79 182.31 495.105 183.542C494.749 183.802 494.409 184.088 494.085 184.388C493.915 184.547 493.75 184.711 493.593 184.882C493.498 184.985 493.405 185.091 493.316 185.199C493.165 185.383 493.19 185.443 492.978 185.315C492.167 184.822 491.227 184.592 490.281 184.708C489.719 184.777 489.172 184.946 488.653 185.168C488.476 185.244 488.067 185.545 487.878 185.548C487.691 185.551 487.288 185.272 487.095 185.2C486.055 184.817 484.934 184.722 483.841 184.899C482.713 185.082 481.606 185.532 480.65 186.154C480.191 186.453 479.79 186.784 479.468 187.229C479.329 187.421 479.203 187.624 479.046 187.802C478.953 187.906 478.771 188.013 478.721 188.145C478.751 188.066 477.488 187.579 477.369 187.548C476.734 187.382 476.087 187.416 475.466 187.621C474.297 188.005 473.291 188.868 472.465 189.753C472.041 190.207 471.669 190.709 471.354 191.244C471.203 191.5 471.065 191.764 470.939 192.033C470.877 192.164 470.837 192.327 470.756 192.444C470.652 192.596 470.582 192.599 470.394 192.665C469.437 193 468.565 193.567 467.901 194.334C467.229 195.109 466.793 196.064 466.61 197.07C466.6 197.129 466.593 197.375 466.558 197.407C466.511 197.451 466.319 197.432 466.246 197.44C465.994 197.47 465.743 197.514 465.497 197.572C465.041 197.68 464.598 197.838 464.179 198.046C462.546 198.854 461.377 200.369 460.806 202.075C460.206 203.864 460.216 205.914 460.933 207.67C461.049 207.954 461.187 208.229 461.349 208.49C461.448 208.649 461.48 208.65 461.416 208.818C461.344 209.004 461.212 209.185 461.127 209.368C460.848 209.963 460.653 210.594 460.53 211.239C460.328 212.296 460.228 213.407 460.428 214.473C460.52 214.967 460.681 215.451 460.927 215.891C461.052 216.116 461.199 216.329 461.365 216.526C461.451 216.629 461.542 216.726 461.638 216.82C461.692 216.874 461.764 216.92 461.81 216.98C461.924 217.126 461.947 217.006 461.889 217.22C461.807 217.519 461.622 217.814 461.508 218.105C461.391 218.405 461.286 218.709 461.189 219.016C460.993 219.638 460.828 220.27 460.724 220.914C460.525 222.15 460.56 223.467 461.145 224.601C461.395 225.087 461.754 225.512 462.189 225.843C462.401 226.005 462.632 226.145 462.874 226.26C462.998 226.319 463.157 226.344 463.214 226.464C463.275 226.594 463.184 226.85 463.163 226.995C462.984 228.252 462.893 229.572 463.267 230.804C463.611 231.938 464.369 232.94 465.353 233.604C467.262 234.89 469.835 234.818 471.84 233.788C472.363 233.519 472.852 233.186 473.288 232.792C474.399 234.288 476.685 234.241 478.309 233.814C480.332 233.284 481.955 231.877 482.89 230.029C484.169 231.586 486.853 231.081 487.74 229.392C487.957 228.978 488.086 228.523 488.149 228.062C488.182 227.819 488.161 227.575 488.186 227.334C488.218 227.028 488.423 226.73 488.54 226.434C488.77 225.857 488.912 225.261 488.918 224.639C488.921 224.314 488.88 223.997 488.849 223.675C488.821 223.385 488.902 223.114 488.947 222.828C488.429 222.913 487.797 222.773 487.308 222.623C486.828 222.475 486.379 222.087 486.04 221.732C485.254 220.907 484.774 219.826 484.445 218.75C483.725 216.389 484.02 213.556 486.395 212.26C487.501 211.657 490.816 211.659 492.133 211.957C493.519 212.271 495.09 215.328 495.167 215.615C495.215 215.793 495.191 216.013 495.354 216.132C495.713 216.392 496.305 215.94 496.57 215.717C497.027 215.332 497.353 214.819 497.635 214.3C498.251 213.168 498.747 211.955 499.097 210.716C499.367 209.761 499.54 208.776 499.893 207.845C500.244 206.919 500.798 206.091 501.659 205.566C502.595 204.996 503.669 204.695 504.697 204.336C505.716 203.981 506.717 203.546 507.507 202.792C507.681 202.626 507.85 202.45 507.99 202.255C508.1 202.101 508.209 201.806 508.377 201.708C508.639 201.556 509.02 201.951 509.246 202.095C510.362 202.803 511.292 203.791 512.043 204.87C512.789 205.944 513.402 206.977 513.899 208.175C514.268 209.064 514.499 210.203 515.148 210.931C515.438 211.256 517.592 211.453 518.29 211.169C518.988 210.885 519.77 210.148 520.004 209.686C520.244 209.213 520.301 208.693 520.199 208.175C520.139 207.871 520.016 207.586 519.948 207.287C519.891 207.035 519.84 206.798 519.718 206.568C519.486 206.131 519.09 205.818 518.612 205.686C519.109 205.228 519.521 204.68 519.806 204.067C520.102 203.43 520.353 202.655 520.425 201.956C520.482 201.389 520.393 200.801 520.082 200.313C519.756 199.801 519.179 199.467 518.679 199.148C519.442 198.551 520.096 197.824 520.633 197.02C521.677 195.456 522.323 193.485 521.793 191.621Z" fill="#191847"/>
<path fill-rule="evenodd" clip-rule="evenodd" d="M473.898 328.117L514.512 435.586L542.98 514.796H559.212L520.081 328.117L473.898 328.117Z" fill="#1F28CF"/>
<path fill-rule="evenodd" clip-rule="evenodd" d="M463.86 328.117C463.418 364.992 463.738 414.638 462.709 416.936C462.023 418.469 440.693 435.928 398.72 469.315L407.086 483.542C456.919 451.406 483.109 433.197 485.657 428.916C489.478 422.493 508.678 363.395 518.667 328.117H463.86Z" fill="#2B44FF"/>
<path fill-rule="evenodd" clip-rule="evenodd" d="M384 478.889L398.132 468.134L409.534 481.722C410.411 491.966 413.803 503.455 419.709 516.189L417.121 518.36L396.488 493.772L390.724 484.274L389.43 485.36L384 478.889Z" fill="#191847"/>
<path fill-rule="evenodd" clip-rule="evenodd" d="M541.474 530L542.318 512.262H560.057C568.468 518.175 579.449 522.961 593 526.622V530H560.902L549.92 528.311V530H541.474Z" fill="#191847"/>
<path fill-rule="evenodd" clip-rule="evenodd" d="M492.207 244.045L499.511 242.793C526.612 266.204 537.743 311.179 570.962 335.005L562.966 344.916C505.338 337.78 491.054 282.921 492.207 244.045Z" fill="#E87613"/>
<path fill-rule="evenodd" clip-rule="evenodd" d="M460.366 335.837C489.653 335.837 511.196 335.837 524.995 335.837C527.948 335.837 527.391 331.573 526.965 329.421C522.038 304.587 502.804 277.816 502.804 242.465L484.162 239.542C468.743 264.341 463.411 294.873 460.366 335.837Z" fill="#DDE3E9"/>
<path fill-rule="evenodd" clip-rule="evenodd" d="M289.617 356.833C286.14 354.244 280.646 355.515 281.861 360.911C283.162 366.689 291.566 368.285 296.338 369.042C295.867 368.931 295.229 363.734 294.84 362.895C293.692 360.421 291.754 358.427 289.617 356.833ZM316.163 461.007C316.977 462.007 316.227 461.099 316.163 461.007V461.007ZM281.525 380.426C278.979 381.729 278.323 384.727 279.779 387.102C281.512 389.929 285.499 390.563 288.507 390.865C289.868 391.001 297.133 391.729 295.649 390.249C295.77 390.322 296.021 390.491 296.283 390.707C296.336 391.31 296.397 391.911 296.466 392.512C296.419 392.529 296.378 392.549 296.329 392.565C296.381 392.552 296.42 392.536 296.467 392.522C297.155 398.524 298.621 404.387 300.909 410.039C299.794 409.348 298.616 408.764 297.383 408.375C293.733 407.223 285.347 408.698 288.621 414.432C291.761 419.928 298.929 415.947 303.605 416.068C306.897 423.025 310.687 429.809 314.747 436.438C314.417 436.479 314.106 436.633 313.891 436.921C312.035 435.512 310.175 433.641 308.355 432.896C305.73 431.82 300.195 430.452 297.687 432.521C294.602 435.064 296.879 438 299.774 439.122C303.97 440.748 310.049 439.658 314.494 438.983C314.957 439.155 315.505 439.11 315.887 438.784C315.985 438.77 316.083 438.757 316.178 438.745C320.307 445.357 324.669 451.819 329.019 458.154C328.963 458.14 328.907 458.127 328.848 458.113C327.625 456.949 326.27 455.931 324.726 455.245C321.155 453.655 316.759 452.852 313.236 455.004C309.726 457.147 307.8 461.661 310.375 465.252C315.53 472.44 327.254 460.318 330.513 460.316C334.945 466.697 339.751 472.779 344.666 478.776C344.043 478.455 343.392 478.185 342.705 477.991C337.104 476.409 322.454 480.965 328.2 489.113C333.207 496.212 342.359 485.963 348.005 482.823C352.645 488.423 357.322 493.998 361.811 499.722C359.032 498.416 356.231 497.789 352.93 498.166C349.513 498.557 343.843 500.053 345.096 504.797C346.37 509.622 353.012 508.74 356.537 507.922C358.46 507.476 362.506 505.527 365.843 505.003C372.919 514.62 378.703 524.847 382.403 536.329C384.712 543.497 386.097 550.96 386.661 558.473C387.02 563.269 387.972 571.386 386.418 577.26C390.828 565.738 389.379 550.674 386.951 539.218C384.719 528.683 380.276 518.984 374.647 509.957C377.378 504.966 393.635 500.007 385.646 493.457C381.401 489.99 375.781 493.441 373.916 497.839C372.635 500.861 372.995 505.017 373.585 508.283C371.8 505.519 369.914 502.815 367.945 500.174C365.222 496.524 362.406 492.948 359.55 489.404C366.086 485.174 374.095 471.141 367.056 467.328C356.658 461.708 358.263 483.127 358.337 487.101C358.554 487.153 358.737 487.118 358.888 486.999C358.762 487.339 358.622 487.701 358.466 488.064C352.995 481.31 347.408 474.647 342.082 467.782C342.732 467.462 343.938 466.009 344.811 465.277C346.781 463.628 348.697 461.88 350.24 459.812C352.679 456.545 355.442 451.129 351.093 448.156C346.363 444.918 342.739 450.954 342.001 454.812C341.49 457.481 341.757 460.153 341.66 462.843C341.63 463.682 340.503 467.283 341.905 465.9C341.746 466.475 341.662 466.897 341.633 467.201C340.678 465.964 339.733 464.716 338.798 463.463C338.874 463.34 338.939 463.203 338.978 463.037C339.248 461.895 338.169 461.241 337.294 461.431C336.065 459.748 334.853 458.05 333.672 456.328C331.17 452.681 328.639 448.937 326.143 445.13C326.917 444.676 326.795 443.831 327.533 443.334C328.269 442.838 329.562 442.725 330.4 442.292C332.508 441.204 334.419 439.407 335.9 437.566C338.344 434.524 341.998 427.874 336.941 425.292C331.729 422.629 327.691 428.936 326.562 433.133C326.343 433.946 325.609 441.497 325.591 444.284C320.976 437.212 316.496 429.931 312.564 422.637C314.11 422.904 319.06 420.537 320.101 419.835C322.642 418.123 326.918 414.097 323.581 410.948C320.614 408.154 315.892 410.562 313.895 413.372C313.567 413.835 311.877 418.392 311.428 420.493C309.813 417.409 308.297 414.327 306.923 411.262C306.005 409.223 305.178 407.152 304.433 405.054C304.723 404.953 305.017 404.739 305.308 404.459C311.093 404.526 319.838 397.072 313.801 392.828C310.926 390.809 306.979 393.181 304.997 395.349C304.591 395.792 303.624 398.217 302.848 400.128C300.855 393.266 299.669 386.169 299.087 379.007C299.597 378.975 300.079 378.677 300.25 378.045C303.256 376.987 305.643 376.085 308.087 373.444C309.606 371.804 312.504 367.952 309.219 366.292C304.946 364.131 300.854 370.515 299.866 373.847C299.752 374.233 299.545 375.381 299.368 376.435C299.215 376.385 299.056 376.359 298.896 376.358C298.627 371.94 298.578 367.506 298.699 363.096C301.309 362.75 304.089 349.878 302.782 347.736C299.863 342.941 296.19 348.434 295.813 351.622C295.369 355.38 296.439 359.067 297.899 362.432C298.056 362.789 297.998 362.762 298.134 362.33C298.125 362.554 298.169 362.729 298.256 362.866C297.797 364.803 297.231 366.769 297.013 368.518C296.39 373.526 296.061 378.617 296.01 383.663C295.998 384.891 296.017 386.114 296.066 387.332C294.391 385.283 291.991 383.297 291.031 382.638C288.539 380.928 284.595 378.855 281.525 380.426ZM386.733 577.335C386.293 579.041 385.693 580.567 384.874 581.766C385.581 580.36 386.197 578.876 386.733 577.335Z" fill="#B88CB9"/>
<path d="M382 361H622V552C622 565.255 611.255 576 598 576H406C392.745 576 382 565.255 382 552V361Z" fill="url(#paint2_linear)"/>
<path d="M501.337 362H498.476C508.634 387.811 525.389 410.504 547.065 427.811C568.741 445.118 594.581 456.433 622 460.626V457.921C595.294 453.774 570.127 442.75 548.972 425.932C527.816 409.115 511.4 387.082 501.337 362V362Z" fill="#9556DF"/>
<path d="M448.626 362H445.87C468.927 442.035 538.502 501.611 622 511.286V508.626C539.95 498.994 471.571 440.552 448.626 362Z" fill="#AD7BE8"/>
<path d="M385.49 476.095H383.9V474.506H383.59V476.095H382V476.406H383.59V477.995H383.9V476.406H385.49V476.095Z" fill="#F2F2F2"/>
<path d="M401.193 538.908H399.603V537.319H399.294V538.908H397.703V539.219H399.294V540.808H399.603V539.219H401.193V538.908Z" fill="#F2F2F2"/>
<path d="M474.475 492.671H472.886V491.081H472.576V492.671H470.986V492.981H472.576V494.571H472.886V492.981H474.475V492.671Z" fill="#F2F2F2"/>
<path d="M579.164 521.46H577.575V519.871H577.265V521.46H575.675V521.771H577.265V523.36H577.575V521.771H579.164V521.46Z" fill="#F2F2F2"/>
<path d="M493.164 388.46H491.575V386.871H491.265V388.46H489.675V388.771H491.265V390.36H491.575V388.771H493.164V388.46Z" fill="#F2F2F2"/>
<path d="M617.164 440.46H615.119V438.871H614.721V440.46H612.675V440.771H614.721V442.36H615.119V440.771H617.164V440.46Z" fill="#F2F2F2"/>
<path d="M560.844 449.206C562.772 449.206 564.334 447.644 564.334 445.716C564.334 443.789 562.772 442.227 560.844 442.227C558.917 442.227 557.355 443.789 557.355 445.716C557.355 447.644 558.917 449.206 560.844 449.206Z" fill="#FAC4BA"/>
<path d="M422.828 562.548L420.848 562.853C421.467 566.814 421.956 570.862 422.314 574.866L424.311 574.692C423.954 570.635 423.456 566.552 422.828 562.548Z" fill="#E6E6E6"/>
<path d="M417.411 538.696L415.491 539.281C416.652 543.119 417.69 547.054 418.571 550.971L420.534 550.526C419.635 546.565 418.58 542.587 417.411 538.696Z" fill="#E6E6E6"/>
<path d="M408.765 515.822L406.942 516.66C408.617 520.315 410.187 524.066 411.609 527.818L413.485 527.111C412.045 523.316 410.466 519.512 408.765 515.822Z" fill="#E6E6E6"/>
<path d="M397.075 494.378L395.382 495.451C397.537 498.836 399.605 502.343 401.524 505.859L403.286 504.899C401.349 501.34 399.256 497.798 397.075 494.378Z" fill="#E6E6E6"/>
<path d="M382.54 474.723L381.014 476.023C383.613 479.076 386.143 482.269 388.534 485.497L390.139 484.302C387.731 481.039 385.175 477.811 382.54 474.723Z" fill="#E6E6E6"/>
<path fill-rule="evenodd" clip-rule="evenodd" d="M442.156 319L460 319.07C448.982 354.515 443.034 373.322 442.156 375.491C440.18 380.371 444.361 387.803 446.149 391.796C440.326 394.393 440.946 384.776 433.6 388.182C426.895 391.291 421.794 396.924 414.047 392.16C413.095 391.574 412.051 389.369 414.573 387.646C420.855 383.353 429.909 375.839 431.132 373.366C432.801 369.993 436.475 351.871 442.156 319Z" fill="#E0B893"/>
<path fill-rule="evenodd" clip-rule="evenodd" d="M461.204 264.194C458.496 263.42 456.351 261.614 454.77 258.778C447.955 246.551 450.416 239.819 457.7 237.606C464.983 235.393 471.479 239.951 483.083 239.951C483.715 239.951 484.293 239.991 484.818 240.069L490.655 240.401C507.403 296.836 512.023 334.489 504.512 353.359H453.631C450.617 360.348 447.732 366.228 444.977 371H431.113C429.808 329.054 439.838 293.451 461.204 264.194Z" fill="#FF9B21"/>
<path fill-rule="evenodd" clip-rule="evenodd" d="M464.149 324C465.759 337.779 468.376 347.779 472 354H453C456.538 345.562 460.255 335.562 464.149 324H464.149Z" fill="black" fill-opacity="0.1"/>
<path fill-rule="evenodd" clip-rule="evenodd" d="M497.743 462.916C500.431 462.041 503.561 463.971 501.686 467.052C499.678 470.351 494.153 469.586 491.046 469.06C491.36 469.089 492.837 466.011 493.253 465.574C494.477 464.284 496.09 463.456 497.743 462.916ZM459.635 521.755C458.924 522.203 459.576 521.798 459.635 521.755V521.755ZM497.827 479.18C499.129 480.516 498.91 482.505 497.515 483.67C495.856 485.055 493.259 484.616 491.338 484.176C490.469 483.977 485.828 482.913 487.054 482.308C486.963 482.327 486.773 482.38 486.566 482.458C486.408 482.82 486.245 483.179 486.077 483.535C486.103 483.556 486.124 483.576 486.151 483.597C486.121 483.578 486.101 483.56 486.075 483.541C484.399 487.107 482.271 490.424 479.68 493.44C480.513 493.245 481.363 493.13 482.205 493.146C484.7 493.195 489.575 495.854 486.357 498.714C483.272 501.456 479.672 497.503 476.758 496.603C473.274 500.217 469.519 503.618 465.629 506.868C465.824 506.963 465.985 507.123 466.057 507.346C467.497 506.862 469.037 506.093 470.317 506.012C472.163 505.894 475.868 506.202 476.987 508.003C478.363 510.217 476.344 511.557 474.322 511.647C471.39 511.777 467.861 509.837 465.255 508.494C464.933 508.504 464.604 508.362 464.436 508.081C464.378 508.052 464.321 508.023 464.265 507.996C460.335 511.221 456.294 514.305 452.286 517.313C452.323 517.317 452.361 517.32 452.4 517.324C453.399 516.86 454.448 516.512 455.544 516.411C458.082 516.172 460.966 516.592 462.695 518.656C464.417 520.711 464.667 523.902 462.327 525.584C457.644 528.951 452.926 519.019 450.912 518.338C446.844 521.357 442.607 524.114 438.321 526.796C438.773 526.728 439.231 526.696 439.696 526.72C443.487 526.909 451.59 532.777 446.342 536.614C441.769 539.957 438.249 531.717 435.415 528.601C431.38 531.095 427.33 533.565 423.363 536.167C425.352 535.939 427.213 536.135 429.175 537.055C431.204 538.009 434.396 540.114 432.634 542.785C430.841 545.501 426.921 543.572 424.913 542.332C423.818 541.656 421.724 539.609 419.771 538.589C413.395 543.057 407.69 548.172 403.012 554.496C400.092 558.444 397.681 562.766 395.767 567.291C394.546 570.18 392.267 574.997 392.003 578.951C391.678 570.913 395.712 561.906 399.599 555.333C403.174 549.289 407.94 544.221 413.299 539.816C412.651 536.164 403.639 529.712 409.94 527.329C413.285 526.072 416.039 529.375 416.275 532.481C416.437 534.615 415.349 537.108 414.304 539.003C415.983 537.667 417.711 536.389 419.479 535.168C421.921 533.479 424.407 531.857 426.91 530.262C423.752 526.286 421.727 515.946 426.871 515.057C434.467 513.751 429.013 526.652 428.139 529.091C427.994 529.079 427.888 529.019 427.82 528.914C427.827 529.15 427.838 529.403 427.859 529.66C432.647 526.626 437.487 523.674 442.208 520.541C441.873 520.208 441.431 519.059 441.044 518.425C440.17 516.995 439.351 515.516 438.828 513.917C438.002 511.39 437.422 507.468 440.729 506.537C444.326 505.522 445.308 510.006 444.961 512.544C444.72 514.3 443.999 515.895 443.498 517.577C443.342 518.102 443.288 520.561 442.71 519.415C442.688 519.803 442.652 520.082 442.606 520.276C443.455 519.71 444.298 519.136 445.137 518.557C445.116 518.465 445.104 518.366 445.115 518.256C445.186 517.494 445.989 517.315 446.49 517.614C447.6 516.83 448.703 516.034 449.791 515.216C452.097 513.484 454.441 511.697 456.777 509.865C456.393 509.423 456.644 508.926 456.292 508.466C455.94 508.006 455.165 507.667 454.737 507.225C453.661 506.113 452.855 504.605 452.324 503.159C451.447 500.769 450.575 495.899 454.238 495.358C458.013 494.798 459.194 499.536 459.017 502.365C458.983 502.913 457.863 507.731 457.294 509.457C461.619 506.049 465.904 502.484 469.853 498.796C468.843 498.638 466.277 496.145 465.78 495.494C464.567 493.907 462.764 490.528 465.481 489.278C467.897 488.17 470.313 490.641 470.961 492.794C471.068 493.148 471.162 496.316 471.002 497.708C472.643 496.139 474.222 494.55 475.709 492.943C476.701 491.874 477.644 490.766 478.541 489.626C478.383 489.503 478.246 489.309 478.124 489.075C474.536 487.912 470.686 481.484 475.3 480.119C477.497 479.471 479.441 481.758 480.214 483.511C480.373 483.87 480.466 485.57 480.547 486.912C483.208 483.087 485.419 478.948 487.272 474.645C486.963 474.518 486.727 474.234 486.753 473.808C485.116 472.528 483.829 471.473 482.869 469.332C482.273 468.002 481.284 465.019 483.66 464.677C486.751 464.232 487.949 469.029 487.865 471.294C487.855 471.556 487.744 472.309 487.633 472.997C487.738 472.998 487.842 473.015 487.941 473.048C489.028 470.374 489.982 467.644 490.826 464.894C489.286 464.136 490.249 455.604 491.503 454.552C494.306 452.197 495.431 456.357 495 458.405C494.491 460.82 493.062 462.875 491.459 464.65C491.287 464.838 491.329 464.834 491.335 464.538C491.294 464.679 491.23 464.778 491.148 464.844C491.028 466.137 490.968 467.47 490.738 468.595C490.08 471.82 489.222 475.034 488.202 478.163C487.954 478.924 487.688 479.676 487.404 480.418C488.866 479.501 490.762 478.774 491.493 478.567C493.389 478.03 496.257 477.57 497.827 479.18ZM391.793 578.931C391.709 580.077 391.762 581.145 392.018 582.057C391.875 581.04 391.803 579.995 391.793 578.931Z" fill="#E9B8EA"/>
<path fill-rule="evenodd" clip-rule="evenodd" d="M466.98 448.66C463.57 447.915 459.803 447.972 456.329 448.033C437.695 448.287 419.397 457.109 407.489 471.205C397.351 483.205 394.563 498.125 392.56 513.207C392.362 514.704 392.277 516.192 392.165 517.693C392.141 518.015 392.105 518.302 392.066 518.573C391.279 519.277 390.865 520.098 391.332 521C389.597 524.797 388.129 528.69 386.869 532.706C383.162 544.526 379.392 556.571 381.714 569C382.257 562.16 383.399 555.166 384.764 548.438C384.842 548.052 384.927 547.669 385.015 547.287C385.025 547.247 385.033 547.206 385.042 547.166C385.525 545.106 386.153 543.108 386.917 541.141C386.925 541.119 386.933 541.098 386.941 541.077C387.042 540.818 387.149 540.56 387.255 540.303C387.474 539.77 387.699 539.238 387.937 538.708C388.018 538.528 388.095 538.346 388.17 538.163C389.282 535.437 389.751 532.365 390.748 529.545C390.986 528.904 391.235 528.265 391.496 527.629C391.512 527.592 391.527 527.555 391.543 527.518C392.249 525.807 393.028 524.118 393.853 522.446C394.301 522.109 394.54 521.274 394.927 520.515C395.006 520.365 395.631 519.368 395.817 518.793C396.303 517.854 396.786 516.915 397.275 515.977C397.26 515.983 397.246 515.988 397.231 515.994C397.72 515.093 398.211 514.197 398.698 513.304C398.805 513.108 398.913 512.912 399.021 512.715C399.196 512.402 399.371 512.089 399.545 511.777C401.177 508.856 402.908 505.994 404.705 503.167C405.347 502.158 406.879 500.711 407.173 499.579C407.184 499.536 407.186 499.497 407.193 499.457C411.093 493.979 415.582 488.927 420.966 484.924C420.316 485.628 418.932 488.015 418.567 488.488C417.447 489.935 416.232 491.282 415.013 492.646C412.828 495.089 410.696 497.609 408.801 500.274C405.335 505.148 402.346 510.277 399.519 515.51C399.493 515.54 399.463 515.569 399.438 515.601C398.017 517.352 397.123 519.998 396.101 522.001C400.147 520.127 404.622 518.906 408.774 517.242C412.916 515.583 416.945 513.735 420.834 511.566C426.003 508.682 431.366 505.427 436.25 501.743C441.848 498.271 446.551 493.492 450.703 488.477C455.615 482.543 460.117 476.558 462.901 469.353C464.269 465.813 465.345 462.121 465.983 458.386C466.011 458.224 466.046 458.047 466.085 457.864C466.738 456.574 467.321 455.255 467.811 453.906C468.588 451.766 470.425 449.412 466.98 448.66Z" fill="#ECDBFF"/>
<path fill-rule="evenodd" clip-rule="evenodd" d="M531.308 533.872C530.852 533.212 529.454 532.545 528.825 532.175C526.211 530.637 523.402 529.381 520.538 528.377C511.704 525.295 502.427 523.016 493.218 521.472C487.371 520.492 479.583 521.36 474.709 517.697C466.218 511.315 456.51 508.078 445.927 509.23C436.252 510.283 427.325 515.596 420.806 522.433C419.822 523.465 415.992 527.191 414.289 530.011C413.799 530.537 413.318 531.072 412.86 531.626C411.558 533.196 410.315 534.823 409.113 536.468C408.599 537.17 407.393 538.693 407.986 539.277C406.116 540.975 404.351 542.783 402.731 544.719C398.018 550.351 392.857 556.531 389.589 563.106C388.379 565.54 387.47 568.097 386.87 570.751C386.574 572.062 385.625 574.577 386.144 575.835C387.244 578.505 389.174 575.984 389.445 574.556C391.507 563.671 397.926 555.021 404.906 546.558C409.419 541.084 415.231 536.667 421.31 532.953C426.229 529.946 431.085 527.922 436.783 526.782C443.751 525.389 450.888 524.79 457.972 524.162C462.631 523.749 467.278 523.386 471.961 523.264C473.002 523.237 474.762 522.847 475.782 523.201C477.939 523.949 480.435 526.609 482.309 527.93C488.472 532.276 494.531 537.198 501.257 540.672C505.571 542.901 510.074 543.673 514.848 543.649C515.336 543.647 516.202 543.505 517.291 543.251C520.867 543.143 524.382 542.663 527.748 541.372C529.688 540.628 531.619 539.465 533.382 538.399C533.91 538.081 534.254 537.624 534.43 537.138C534.762 537.089 535.008 536.983 535.12 536.798C535.946 535.431 533.141 534.416 531.308 533.872Z" fill="#F3F1F4"/>
<defs>
<linearGradient id="paint0_linear" x1="502" y1="142" x2="502" y2="576" gradientUnits="userSpaceOnUse">
<stop stop-color="#FAFAFA"/>
<stop offset="1" stop-color="white"/>
</linearGradient>
<linearGradient id="paint1_linear" x1="402.194" y1="250.691" x2="591.554" y2="261.887" gradientUnits="userSpaceOnUse">
<stop stop-color="#7D19F1" stop-opacity="0.19"/>
<stop offset="1" stop-color="#FBBEBE" stop-opacity="0.49"/>
</linearGradient>
<linearGradient id="paint2_linear" x1="502" y1="361" x2="502" y2="576" gradientUnits="userSpaceOnUse">
<stop stop-color="#38383A"/>
<stop offset="1" stop-color="#9C7EB7"/>
</linearGradient>
</defs>
</svg>
