<svg width="820" height="457" viewBox="0 0 820 457" fill="none" xmlns="http://www.w3.org/2000/svg">
<g clip-path="url(#clip0)">
<path d="M402.305 557.215C181.873 550.959 11.0995 436.027 10.1436 300.432C8.89703 123.605 175.713 -102.719 416.238 66.3037C601.581 196.549 812.247 187.526 808.399 323.088C804.552 458.649 622.737 563.472 402.305 557.215Z" fill="url(#paint0_linear)"/>
<g opacity="0.5" filter="url(#filter0_f)">
<path d="M410.499 578.215C190.067 571.959 15.8443 578.576 10.64 592.666C3.85325 611.041 163.428 639.838 409.036 629.774C598.296 622.019 808.491 629.56 808.896 615.322C809.3 601.085 630.932 584.471 410.499 578.215Z" fill="url(#paint1_linear)"/>
</g>
</g>
<defs>
<filter id="filter0_f" x="-30.4326" y="526.882" width="880.06" height="159.993" filterUnits="userSpaceOnUse" color-interpolation-filters="sRGB">
<feFlood flood-opacity="0" result="BackgroundImageFix"/>
<feBlend mode="normal" in="SourceGraphic" in2="BackgroundImageFix" result="shape"/>
<feGaussianBlur stdDeviation="20" result="effect1_foregroundBlur"/>
</filter>
<linearGradient id="paint0_linear" x1="809.179" y1="295.602" x2="10.7467" y2="272.941" gradientUnits="userSpaceOnUse">
<stop stop-color="#3B007E" stop-opacity="0.15"/>
<stop offset="1" stop-color="#FBBEBE" stop-opacity="0.35"/>
</linearGradient>

</defs>
</svg>
