<svg width="360" height="360" viewBox="0 0 360 360" fill="none" xmlns="http://www.w3.org/2000/svg">
<g clip-path="url(#clip0)">
<rect width="360" height="360" fill="white" fill-opacity="0.74"/>
<g style="mix-blend-mode:luminosity">
<path d="M414 30.4474C414 161.586 354.96 265.039 282.253 267.895C187.437 271.619 63.5174 176.276 150.505 30.4474C217.536 -81.925 209.491 -207 282.253 -207C355.015 -207 414 -100.691 414 30.4474Z" fill="url(#paint0_linear)"/>
</g>
<rect width="360" height="361" fill="url(#paint1_linear)"/>
<g style="mix-blend-mode:luminosity">
<path fill-rule="evenodd" clip-rule="evenodd" d="M136.609 180.051C139.098 189.224 142.342 209.844 139.032 213.078H118.088C118.086 213.041 118.084 213.004 118.082 212.967C110.319 212.108 104.282 205.527 104.282 197.535V182.369C104.282 173.793 111.234 166.842 119.809 166.842H121.254C129.041 166.842 135.49 172.575 136.609 180.051Z" fill="#191847"/>
<path fill-rule="evenodd" clip-rule="evenodd" d="M112.415 194.639C109.087 190.733 106.835 185.946 107.211 180.582C108.296 165.126 129.81 168.526 133.995 176.327C138.18 184.127 137.683 203.914 132.274 205.308C130.117 205.864 125.522 204.502 120.845 201.683L123.781 222.45H106.448L112.415 194.639Z" fill="#D4A181"/>
<path fill-rule="evenodd" clip-rule="evenodd" d="M117.101 192.028C117.899 200.606 117.579 210.402 115.199 212.727H94.2556C93.0887 192.453 104.366 200.304 104.366 181.215C105.069 180.528 105.734 179.848 106.391 179.262L106.368 178.7C109.995 171.276 114.596 167.563 120.171 167.563C128.534 167.563 131.174 171.455 133.421 174.759C131.741 180.525 125.218 181.381 119.423 184.975C118.74 184.42 117.869 184.087 116.92 184.087C114.726 184.087 112.948 185.866 112.948 188.06C112.948 190.253 114.726 192.032 116.92 192.032C116.98 192.032 117.041 192.03 117.101 192.028Z" fill="#191847"/>
<path fill-rule="evenodd" clip-rule="evenodd" d="M78.5771 353.233C95.9021 358.079 110.85 360.502 123.419 360.502C135.989 360.502 147.665 356.771 158.446 349.308C141.492 344.334 127.53 341.847 116.559 341.847C105.588 341.847 92.9275 345.643 78.5771 353.233Z" fill="#7E0404"/>
<path fill-rule="evenodd" clip-rule="evenodd" d="M138.417 367.486C138.25 367.235 138.109 366.961 137.997 366.665C135.682 360.541 98.5884 294.473 94.8931 282.394H136.655C139.464 291.578 152.11 349.211 153.89 360.71C159.505 378.848 171.067 437.59 172.543 441.659C174.095 445.94 165.359 450.4 163.031 445.137C159.327 436.763 150.501 413.591 146.571 399.443C142.887 386.179 139.887 374.246 138.417 367.486Z" fill="#BA8B72"/>
<path fill-rule="evenodd" clip-rule="evenodd" d="M104.251 375.552C87.2925 379.838 25.2624 387.587 21.0056 388.802C16.6267 390.052 12.7873 381.026 18.1998 379.071C26.8121 375.96 50.5429 368.772 64.9309 365.839C76.5038 363.479 87.0642 361.554 94.1541 360.427C93.5535 340.511 90.8078 292.716 92.6074 282.394H129.559C127.833 292.292 113.244 364.52 110.533 371.75C109.672 374.331 107.105 375.471 104.251 375.552Z" fill="#D4A181"/>
<path fill-rule="evenodd" clip-rule="evenodd" d="M92.7265 282.394C109.01 277.736 124.416 277.736 138.947 282.394C144.002 305.459 156.286 314.614 158.446 349.976C133.892 362.177 103.559 341.275 78.2826 353.173C71.0607 336.531 81.1714 296.451 92.7265 282.394Z" fill="#D50808"/>
<path fill-rule="evenodd" clip-rule="evenodd" d="M162.78 253.731L191.294 249.841C196.998 246.668 202.245 244.521 207.036 243.398C208.384 243.358 210.529 243.848 207.334 246.512C204.139 249.175 200.897 252.122 201.466 253.543C202.036 254.965 205.007 254.436 205.499 256.622C205.827 258.08 201.005 258.317 191.032 257.333L167.895 266.506L162.78 253.731ZM73.2057 260.331L89.0198 260.39C71.6792 299.413 62.6375 319.845 61.8948 321.685C60.2237 325.827 63.76 332.134 65.2722 335.524C60.3468 337.728 60.8716 329.565 54.6584 332.456C48.9872 335.094 44.6732 339.875 38.121 335.832C37.3154 335.335 36.4326 333.464 38.5655 332.001C43.8792 328.358 51.5366 321.981 52.5713 319.882C53.9822 317.019 60.8603 297.169 73.2057 260.331Z" fill="#D4A181"/>
<path fill-rule="evenodd" clip-rule="evenodd" d="M116.522 210.176L128.904 211.001C131.954 238.589 148.564 256.015 185.753 250.116L190.694 285.644C155.935 290.136 125.451 276.22 119.204 238.542C117.586 228.789 116.309 218.638 116.522 210.176Z" fill="#C5C5C5"/>
<path fill-rule="evenodd" clip-rule="evenodd" d="M110.414 206.575L129.174 210.872C129.174 243.139 139.452 263.726 144.724 287.449H94.0579C93.3442 295.647 92.9059 304.072 92.6775 312.726H54.7402C63.337 266.985 81.482 231.598 109.175 206.564H110.404L110.414 206.575Z" fill="#DBDBDB"/>
<path fill-rule="evenodd" clip-rule="evenodd" d="M102.052 241.416C100.746 261.522 101.514 276.867 104.355 287.449H94.0579C95.4718 271.209 97.9665 255.865 102.052 241.416V241.416Z" fill="black" fill-opacity="0.1"/>
</g>
<g style="mix-blend-mode:luminosity">
<path fill-rule="evenodd" clip-rule="evenodd" d="M43.3939 201.218C38.0534 197.572 33.7425 192.506 32.4601 185.878C28.7652 166.782 56.1908 163.852 63.8452 171.939C71.4996 180.026 77.3201 204.182 71.156 207.645C68.6978 209.027 62.6337 208.881 55.9963 206.996L66.3351 231.216L45.1301 236.898L43.3939 201.218Z" fill="#998D83"/>
<path fill-rule="evenodd" clip-rule="evenodd" d="M50.755 183.195C54.5695 194.184 58.2181 199.212 61.7007 198.279C66.9249 196.879 70.4765 192.404 72.7688 191.79C74.4397 191.342 74.622 193.515 73.9261 195.348C73.352 196.861 69.2293 199.275 69.7559 201.241C70.2826 203.206 73.3911 200.743 73.7035 201.909C74.2202 203.837 75.8095 207.297 72.433 208.202C69.0159 209.118 58.8877 210.509 55.8617 205.932C53.9089 202.978 51.407 196.443 48.3561 186.328C48.1422 186.359 47.9279 186.403 47.714 186.46C44.7862 187.245 43.0431 190.233 43.8206 193.135C44.2154 194.608 45.1838 195.776 46.4248 196.466C45.658 198.511 44.7636 200.672 43.684 202.943C36.8231 201.01 29.6713 191.885 32.8054 180.438C33.1056 175.162 36.0321 171.602 39.9856 169.254C43.0644 166.89 46.6165 165.765 49.8823 165.812C55.9675 164.724 61.7621 165.099 63.5539 165.763C65.0499 171.346 64.4023 173.295 55.0409 175.647C53.0715 177.46 51.8638 179.996 50.755 183.195Z" fill="#191847"/>
<path fill-rule="evenodd" clip-rule="evenodd" d="M55.4543 310.737L100.35 423.93L130.461 519.625H142.352L96.3178 310.737L55.4543 310.737Z" fill="#997659"/>
<path fill-rule="evenodd" clip-rule="evenodd" d="M46.414 310.737C45.9359 350.514 38.9639 404.067 37.85 406.546C37.1074 408.199 11.4717 429.22 -39.0571 469.608L-30.8675 478.338C28.7518 443.71 59.9408 424.087 62.6997 419.469C66.8381 412.541 80.311 348.791 91.128 310.737H46.414Z" fill="#B28B67"/>
<path fill-rule="evenodd" clip-rule="evenodd" d="M85.6396 509.768L142.173 503.657L100.275 310.737H49.6404L85.6396 509.768Z" fill="#69A1AC"/>
<path fill-rule="evenodd" clip-rule="evenodd" d="M-27.3635 455.524L9.71881 499.247C48.7768 456.753 71.5478 429.026 78.0316 416.066C84.5154 403.105 90.3441 367.996 95.5175 310.737H38.5121C35.6861 361.111 33.7812 387.469 32.7974 389.814C31.8136 392.158 11.7599 414.061 -27.3635 455.524Z" fill="#89C5CC"/>
<path fill-rule="evenodd" clip-rule="evenodd" d="M125.475 289.749L157.912 305.678C166.074 306.397 173.044 307.852 178.822 310.045C180.255 310.947 182.147 312.952 176.956 313.463C171.764 313.974 166.326 314.744 165.926 316.607C165.526 318.471 168.992 320.003 167.977 322.601C167.3 324.333 162.109 321.205 152.403 313.217L121.878 306.493L125.475 289.749ZM15.2773 309.927L34.1149 306.681C29.0751 346.068 26.2935 366.985 25.7699 369.433C24.5918 374.941 30.3831 381.992 33.0112 385.866C27.35 389.685 26.2183 379.439 19.1009 384.393C12.6046 388.915 8.26981 395.798 -0.787765 392.221C-1.90134 391.781 -3.41202 389.652 -1.07171 387.368C4.75883 381.677 12.9145 372.078 13.7457 369.245C14.8791 365.382 15.3896 345.609 15.2773 309.927Z" fill="#B28B67"/>
<path fill-rule="evenodd" clip-rule="evenodd" d="M54.9144 221.892L62.4694 219.189C95.751 238.937 116.037 284.571 155.921 303.607L149.249 315.628C86.4567 318.892 60.9591 263.363 54.9144 221.892Z" fill="#031760"/>
<path fill-rule="evenodd" clip-rule="evenodd" d="M38.1335 325.287C69.3663 319.78 92.3404 315.729 107.056 313.134C110.205 312.579 108.814 308.158 107.956 305.955C98.0549 280.528 72.5349 255.736 65.9202 218.222L45.4927 218.626C33.6893 247.841 33.7158 281.245 38.1335 325.287Z" fill="#DDE3E9"/>
<path fill-rule="evenodd" clip-rule="evenodd" d="M25.2304 248.87C22.1974 248.554 19.5713 247.031 17.352 244.301C7.7851 232.536 9.14271 224.89 16.4918 221.159C23.8409 217.429 31.6236 221.071 43.996 218.89C44.669 218.771 45.2927 218.704 45.8673 218.69L52.1532 217.946C80.6277 275.016 92.6366 314.325 88.1801 335.872L33.9327 345.437C32.0336 353.462 30.0644 360.279 28.025 365.888L13.2436 368.494C3.96031 323.981 7.95593 284.106 25.2304 248.87Z" fill="#001B7A"/>
<path fill-rule="evenodd" clip-rule="evenodd" d="M40.2922 312.427C44.5029 326.331 49.0936 336.151 54.0643 341.887L33.9328 345.437C36.148 336.077 38.2678 325.073 40.2922 312.427Z" fill="black" fill-opacity="0.4"/>
</g>
<path fill-rule="evenodd" clip-rule="evenodd" d="M216 78V255.688C217.659 256.36 219.327 257.006 221 257.625V79C221 73.4771 225.477 69 231 69H321C326.523 69 331 73.4771 331 79V249.913C332.684 248.686 334.351 247.4 336 246.058V78C336 66.9543 327.046 58 316 58H236C224.954 58 216 66.9543 216 78Z" fill="#6B6B6B"/>
<path opacity="0.5" fill-rule="evenodd" clip-rule="evenodd" d="M221 257.625V79C221 73.4771 225.477 69 231 69H321C326.523 69 331 73.4772 331 79V249.913C315.919 260.902 299.469 267.218 282.253 267.895C262.377 268.675 241.223 265.103 221 257.625Z" fill="white"/>
<path fill-rule="evenodd" clip-rule="evenodd" d="M292.895 44.0661C298.741 46.217 304.386 52.5826 302.336 59.061C300.846 63.768 298.781 68.2137 297.537 73.0178C296.543 76.8575 296.222 80.8145 296.399 84.7753C296.569 88.584 298.575 92.6225 297.952 96.3471C297.556 98.7204 295.969 101.619 294.348 103.412C292.376 105.593 292.929 105.591 293.759 108.484C295.387 114.153 296.627 119.784 296.66 125.738C296.708 134.313 295.151 143.647 290.597 151.064C290.019 152.005 288.299 155.537 286.807 155.197C285.141 154.817 286.747 153.064 287.114 152.433C289.46 148.406 291.518 144.889 292.731 140.299C297.413 122.59 290.158 106.497 288.427 89.025C288.311 88.1126 288.151 85.9896 288.013 84.5752C287.795 82.3422 288.271 78.4741 287.503 76.5586C286.056 72.9502 286.207 79.0241 286.284 80.2045C286.382 81.6976 286.51 83.2944 286.688 84.6423C287.476 90.8739 288.408 97.7069 289.226 104.133C274.911 101.523 272.436 81.9116 273.347 70.1046C274.098 60.3769 279.146 39.0423 292.895 44.0661Z" fill="url(#paint2_linear)"/>
<path fill-rule="evenodd" clip-rule="evenodd" d="M358.852 80.0233C351.473 77.5354 344.876 80.284 339.924 85.9581C337.256 89.0159 335.564 92.606 333.364 95.9805C330.054 101.058 326.207 104.332 320.493 106.513C318.723 107.188 317.269 108.037 316.044 109.086C314.174 109.858 312.398 110.876 310.779 112.357C308.712 114.249 307.206 116.935 307.433 119.8C307.494 120.57 307.777 122.185 308.385 123.124C302.278 128.561 297.332 135.262 294.345 142.789C292.542 147.333 290.838 151.922 289.173 156.519C288.727 157.753 288.268 159.911 289.722 158.142C291.052 156.525 291.617 153.334 292.381 151.376C296.102 141.839 299.501 133.175 307.134 126.044C307.935 125.297 308.756 124.567 309.592 123.853C309.625 123.849 309.658 123.841 309.69 123.833C309.701 123.854 309.711 123.875 309.722 123.895C309.773 123.856 309.838 123.812 309.913 123.764C310.098 123.686 310.282 123.566 310.469 123.425C311.016 123.096 311.644 122.703 311.777 122.398C311.778 122.395 311.779 122.391 311.78 122.389C315.851 119.502 320.179 116.979 324.535 114.554C324.502 114.572 329.35 111.712 327.89 113.816C327.186 114.829 324.027 115.982 322.613 116.77C319.48 118.527 315.696 120.834 312.358 123.203C312.029 123.242 311.336 123.828 310.829 124.268C310.559 124.485 310.299 124.709 310.056 124.898C316.032 130.176 323.428 127.861 329.425 124.053C329.432 124.049 329.439 124.044 329.446 124.04C331.207 123.032 332.99 122.046 334.931 121.484C338.17 120.547 340.887 121.3 344.129 121.544C352.969 122.209 360.525 113.617 364.741 106.646C369.496 98.7821 369.239 83.4923 358.852 80.0233Z" fill="url(#paint3_linear)"/>
<path fill-rule="evenodd" clip-rule="evenodd" d="M363.158 38.3582C349.756 44.0404 339.549 55.5081 330.618 66.5732C320.642 78.9318 311.918 92.0827 305.565 106.651C301.391 116.223 296.996 125.771 293.453 135.6C292.195 139.09 291.074 142.647 290.172 146.247C290.098 146.543 288.087 154.582 289.993 153.323C291.076 152.608 292.094 144.991 292.436 143.796C294.363 137.066 296.928 130.554 299.719 124.139C304.315 113.578 308.511 102.91 314.099 92.8197C314.933 91.313 315.768 89.7128 316.801 88.332C317.899 86.8637 317.088 87.3623 318.659 87.2675C320.186 87.1751 321.701 87.93 323.344 87.6973C329.862 86.7739 335.958 79.8469 340.281 75.4403C345.225 70.4012 349.417 64.5653 353.284 58.6908C356.125 54.3743 358.715 49.9839 361.081 45.3933C361.827 43.9465 362.501 42.3883 363.423 41.0461C363.671 40.684 364.367 40.1534 364.503 39.7966C364.79 39.0416 364.529 38.4135 364.759 37.7743C364.221 37.9575 363.687 38.1523 363.158 38.3582Z" fill="url(#paint4_linear)"/>
<path fill-rule="evenodd" clip-rule="evenodd" d="M288.756 158.743L287.229 158.09C288.155 156.219 289.113 154.367 290.244 152.61C294.569 145.889 302.953 136.887 311.856 139.306C312.184 139.395 313.327 139.875 314.673 140.547C315.484 140.461 316.312 140.554 317.106 140.833C324.483 143.367 330.001 152.554 330.881 160.034C331.591 166.065 328.402 172.221 324.483 176.629C321.86 179.58 317.249 183.415 313.042 181.671C307.778 179.49 310.296 172.908 311.814 169.081C313.833 163.992 315.072 159.337 312.576 154.211C311.993 153.017 311.284 151.882 310.688 150.694C309.754 148.836 308.68 146.882 309.364 144.761C310.309 141.836 312.114 142.009 314.316 143.57C314.692 143.836 318.057 147.488 318.073 145.746C318.078 145.214 317.543 144.563 316.79 143.923C314.648 142.718 312.091 141.288 311.248 141.128C302.157 139.394 293.995 149.522 290.005 156.468C289.575 157.218 289.161 157.978 288.756 158.743V158.743Z" fill="url(#paint5_linear)"/>
<path fill-rule="evenodd" clip-rule="evenodd" d="M244.038 274.922C249.682 273.25 255.392 267.593 253.854 261.36C252.737 256.831 251.061 252.513 250.181 247.908C249.478 244.227 249.417 240.476 249.826 236.753C250.219 233.172 252.356 229.487 251.997 225.937C251.767 223.675 250.448 220.845 249.029 219.055C247.304 216.879 247.825 216.915 248.784 214.238C250.664 208.992 252.177 203.758 252.572 198.147C253.14 190.064 252.242 181.169 248.401 173.898C247.913 172.975 246.507 169.54 245.08 169.77C243.485 170.026 244.892 171.778 245.201 172.395C247.166 176.335 248.892 179.776 249.756 184.178C253.09 201.161 245.267 215.892 242.569 232.259C242.404 233.112 242.123 235.104 241.907 236.43C241.566 238.522 241.778 242.198 240.937 243.957C239.353 247.271 239.865 241.553 240.011 240.445C240.194 239.043 240.412 237.545 240.662 236.285C241.785 230.458 243.081 224.072 244.245 218.063C230.588 219.651 227.058 237.99 227.196 249.178C227.311 258.396 230.768 278.819 244.038 274.922Z" fill="url(#paint6_linear)"/>
<path fill-rule="evenodd" clip-rule="evenodd" d="M184.28 243.124C191.66 245.612 198.256 242.863 203.208 237.189C205.876 234.131 207.569 230.541 209.769 227.166C213.078 222.089 216.926 218.815 222.639 216.634C224.409 215.959 225.864 215.11 227.088 214.061C228.958 213.289 230.734 212.271 232.353 210.79C234.42 208.898 235.926 206.212 235.7 203.347C235.639 202.577 235.356 200.962 234.748 200.023C240.855 194.586 245.8 187.885 248.787 180.358C250.59 175.814 252.295 171.225 253.959 166.628C254.406 165.394 254.865 163.236 253.411 165.005C252.08 166.622 251.515 169.813 250.751 171.771C247.031 181.308 243.631 189.972 235.998 197.103C235.198 197.85 234.376 198.58 233.54 199.294C233.507 199.298 233.475 199.306 233.442 199.314C233.431 199.293 233.421 199.272 233.41 199.252C233.359 199.291 233.294 199.335 233.219 199.383C233.034 199.461 232.85 199.581 232.663 199.722C232.116 200.051 231.488 200.444 231.355 200.749C231.354 200.752 231.354 200.756 231.353 200.758C227.281 203.645 222.953 206.168 218.598 208.593C218.63 208.575 213.782 211.435 215.243 209.331C215.947 208.317 219.105 207.165 220.519 206.377C223.653 204.619 227.437 202.312 230.774 199.944C231.103 199.905 231.796 199.319 232.304 198.879C232.573 198.662 232.834 198.438 233.076 198.249C227.101 192.971 219.704 195.286 213.707 199.094C213.7 199.098 213.693 199.103 213.686 199.107C211.926 200.115 210.142 201.101 208.201 201.662C204.962 202.6 202.245 201.847 199.003 201.603C190.163 200.938 182.607 209.53 178.392 216.501C173.636 224.365 173.893 239.655 184.28 243.124Z" fill="url(#paint7_linear)"/>
<path fill-rule="evenodd" clip-rule="evenodd" d="M254.376 164.404L255.903 165.057C254.977 166.927 254.019 168.78 252.888 170.537C248.563 177.258 240.179 186.26 231.276 183.841C230.948 183.752 229.805 183.272 228.459 182.6C227.648 182.686 226.82 182.593 226.026 182.313C218.649 179.78 213.131 170.593 212.251 163.113C211.542 157.082 214.73 150.926 218.649 146.518C221.272 143.567 225.884 139.732 230.09 141.476C235.354 143.657 232.836 150.239 231.318 154.066C229.299 159.155 228.06 163.81 230.556 168.936C231.139 170.13 231.848 171.265 232.444 172.453C233.378 174.311 234.452 176.265 233.768 178.386C232.823 181.311 231.018 181.138 228.816 179.577C228.44 179.311 225.075 175.659 225.059 177.401C225.054 177.933 225.589 178.584 226.342 179.224C228.484 180.429 231.041 181.859 231.884 182.019C240.975 183.753 249.137 173.625 253.127 166.679C253.557 165.929 253.971 165.169 254.376 164.404V164.404Z" fill="url(#paint8_linear)"/>
<path opacity="0.1" d="M222.221 196.988C219.661 218.162 236.181 237.867 258.638 247.04C265.264 249.741 272.747 251.55 280.613 251.213C290.139 250.803 299.618 247.264 307.719 242.486C319.934 235.281 329.637 224.941 333.545 213.655C337.453 202.369 335.257 190.24 326.783 181.916C322.067 177.284 315.443 173.674 313.051 167.891C309.39 159.038 316.818 148.924 320.019 139.288C322.209 132.692 322.407 125.988 322.569 119.364C322.753 111.853 322.778 103.946 318.067 97.8988C314.164 92.8909 307.322 89.7427 299.898 88.3758C292.473 87.0089 284.47 87.2865 276.587 88.1305C271.639 88.661 266.624 89.4294 261.955 91.1647C257.077 92.9755 252.737 95.7875 249.026 98.9685C240.639 106.15 235.301 115.196 232.137 124.324C228.974 133.452 227.848 142.739 226.84 151.964C225.014 168.55 221.173 180.612 222.18 196.958L222.221 196.988Z" fill="#3E0382"/>
<rect x="235" y="109" width="80" height="120" rx="5" fill="#F9F3FF"/>
<path d="M295.664 172.378C293.404 172.378 290.971 171.756 288.76 169.886C282.347 164.46 276.191 169.828 276.13 169.883L276.11 169.898C276.053 169.935 272.251 172.378 267.775 172.378C265.514 172.378 263.081 171.756 260.87 169.886C254.457 164.46 248.301 169.828 248.24 169.883L248.048 169.497C248.111 169.44 254.454 163.91 261.055 169.493C267.385 174.848 275.63 169.691 275.949 169.487C276.251 169.226 282.474 164.02 288.945 169.493C295.372 174.929 303.764 169.536 303.848 169.481L304 169.898C303.943 169.935 300.141 172.378 295.664 172.378Z" fill="#31194D"/>
<path d="M295.664 183.514C293.404 183.515 290.971 182.892 288.76 181.022C282.347 175.597 276.191 180.964 276.13 181.019L276.11 181.034C276.053 181.071 272.251 183.514 267.775 183.514C265.514 183.515 263.081 182.892 260.87 181.022C254.457 175.597 248.301 180.964 248.24 181.019L248.048 180.633C248.111 180.576 254.454 175.046 261.055 180.63C267.385 185.984 275.63 180.827 275.949 180.623C276.251 180.362 282.474 175.156 288.945 180.63C295.372 186.066 303.764 180.673 303.848 180.617L304 181.034C303.943 181.071 300.141 183.514 295.664 183.514Z" fill="#31194D"/>
<path d="M295.664 194.651C293.404 194.651 290.971 194.028 288.76 192.158C282.347 186.733 276.191 192.1 276.13 192.155L276.11 192.17C276.053 192.208 272.251 194.65 267.775 194.651C265.514 194.651 263.081 194.028 260.87 192.158C254.457 186.733 248.301 192.1 248.24 192.155L248.048 191.769C248.111 191.712 254.454 186.182 261.055 191.766C267.385 197.12 275.63 191.963 275.949 191.759C276.251 191.499 282.474 186.292 288.945 191.766C295.372 197.202 303.764 191.809 303.848 191.754L304 192.17C303.943 192.208 300.141 194.65 295.664 194.651Z" fill="#31194D"/>
<path d="M269.407 205.805C269.337 205.805 269.267 205.802 269.197 205.796C268.063 205.702 267.057 204.839 266.208 203.232C265.366 201.639 264.471 200.84 263.527 200.856C261.953 200.882 260.772 203.204 260.76 203.227L260.744 203.255C260.669 203.366 258.866 205.977 256.724 205.796C255.591 205.702 254.585 204.839 253.735 203.232C252.893 201.639 251.99 200.84 251.055 200.856C249.48 200.882 248.3 203.204 248.288 203.227L248 202.969C248.052 202.865 249.296 200.421 251.05 200.392C252.113 200.367 253.106 201.239 254.018 202.964C254.804 204.45 255.721 205.247 256.744 205.333C258.653 205.491 260.35 203.138 260.481 202.953C260.601 202.718 261.822 200.42 263.523 200.392C263.533 200.391 263.544 200.391 263.555 200.391C264.6 200.391 265.588 201.257 266.49 202.964C267.276 204.45 268.194 205.247 269.217 205.333C271.195 205.501 272.944 202.967 272.961 202.942L273.217 203.255C273.144 203.362 271.454 205.805 269.407 205.805Z" fill="#31194D"/>
<path d="M280.159 130.912C279.414 130.319 278.608 129.788 277.709 129.476C275.973 128.914 274.701 128.821 272.965 129.351C272.407 129.507 271.538 129.913 271.042 130.226C268.748 131.724 267.941 134.159 268.003 136.782C268.065 139.185 269.275 140.84 271.383 141.745C273.895 142.807 277.647 141.745 279.166 139.435C280.469 137.468 280.252 134.409 277.833 133.191C275.507 132.005 272.22 132.973 271.383 135.127C270.856 136.438 271.538 138.405 273.089 138.78C274.143 139.029 275.476 138.592 276.097 137.843C276.593 137.25 276.531 136.188 275.848 135.783C275.662 135.689 275.445 135.658 275.259 135.751C275.135 135.814 275.011 135.907 274.949 136.032C274.794 136.282 274.763 136.532 274.639 136.782C274.329 137.344 273.337 137.406 273.027 136.782C272.686 136.095 272.903 135.47 273.368 135.065C273.802 134.69 274.267 134.503 274.794 134.284C275.786 133.847 277.74 134.471 278.236 135.626C278.732 136.782 278.081 138.186 277.275 139.061C276.407 140.028 275.166 140.497 273.926 140.434C272.189 140.372 271.321 140.091 270.391 138.686C269.864 137.905 269.74 136.594 269.802 135.658C269.864 134.253 270.515 133.379 271.228 132.536C272.5 131.1 274.949 130.819 276.779 131.131C278.298 131.412 279.445 132.224 280.314 133.441C282.453 136.501 281.678 139.716 279.073 142.12C278.825 142.339 278.484 142.557 278.143 142.776C276.841 143.556 275.507 143.712 274.639 143.744C274.019 143.775 272.779 143.463 272.407 143.9C271.755 144.743 273.709 145.304 274.174 145.367C274.639 145.429 275.383 145.429 275.911 145.336C276.066 145.304 276.686 145.273 276.686 145.648C276.686 145.71 276.686 145.523 276.686 145.71C276.686 146.21 276.438 146.366 276.221 146.46C275.755 146.678 274.825 146.834 274.112 146.678C273.802 146.616 273.585 146.46 273.275 146.397C272.779 146.272 272.407 146.709 272.531 147.178C272.624 147.583 273.058 147.896 273.43 148.021C274.484 148.395 275.848 148.021 275.848 148.021C276.252 147.896 276.655 148.052 276.655 148.302C276.655 148.426 276.655 148.426 276.655 148.52C276.624 148.801 276.376 149.176 275.693 149.394C275.042 149.519 274.36 149.519 273.709 149.332C273.523 149.269 273.306 149.113 273.12 149.207C272.655 149.394 273.058 150.175 273.275 150.393C273.647 150.768 274.205 150.924 274.701 150.986C275.817 151.111 277.244 150.362 277.802 149.332C277.926 149.113 277.957 148.957 277.957 148.801C278.05 148.208 277.957 147.459 277.957 147.022C277.988 146.272 277.864 145.585 278.081 144.836C278.205 144.399 278.422 144.212 278.856 143.962C280.5 143.025 282.484 140.684 282.856 138.655C283.384 135.72 282.453 132.754 280.159 130.912Z" fill="#9C999F"/>
<path d="M275.564 126.986C276.09 126.866 275.993 125.368 275.993 124.739C275.993 124.02 275.934 123.181 275.623 123.031C275.35 122.911 275.175 123.151 275.038 123.6C274.941 123.93 275.058 124.559 275.077 124.919C275.077 125.548 274.843 127.166 275.564 126.986Z" fill="#9C999F"/>
<path d="M281.775 127.241C281.914 126.705 282.138 125.756 281.886 125.302C281.132 123.94 279.541 127.571 280.127 128.562C280.825 129.758 281.523 128.232 281.775 127.241Z" fill="#9C999F"/>
<path d="M286.753 130.128C286.013 129.833 285.104 130.101 284.431 130.395C283.96 130.609 282.276 131.385 283.354 131.947C284.162 132.321 287.999 130.609 286.753 130.128Z" fill="#9C999F"/>
<path d="M269.889 128.268C270.081 128.653 270.345 129 270.705 129C270.873 129 270.969 128.769 270.993 128.499C271.041 127.921 270.825 127.266 270.633 126.765C270.441 126.264 269.6 124.415 269.144 125.185C269.048 125.339 269 125.763 269 125.956C269 126.264 269.072 126.611 269.168 126.881C269.36 127.42 269.672 127.806 269.889 128.268Z" fill="#9C999F"/>
<path d="M265.369 130.086C264.465 130.47 265.454 131.085 265.878 131.341C266.302 131.597 267.008 132.161 267.63 131.956C268.902 131.495 266.584 129.574 265.369 130.086Z" fill="#9C999F"/>
</g>
<defs>
<linearGradient id="paint0_linear" x1="267.5" y1="-207" x2="267.5" y2="268" gradientUnits="userSpaceOnUse">
<stop stop-color="#7D19F1" stop-opacity="0.19"/>
<stop offset="1" stop-color="#FBBEBE" stop-opacity="0.49"/>
</linearGradient>
<linearGradient id="paint1_linear" x1="0" y1="0" x2="148.453" y2="433.453" gradientUnits="userSpaceOnUse">
<stop stop-color="#3E0382" stop-opacity="0.2"/>
<stop offset="1" stop-color="#FAC4BA" stop-opacity="0.37"/>
</linearGradient>
<linearGradient id="paint2_linear" x1="301.566" y1="46.7259" x2="269.688" y2="149.914" gradientUnits="userSpaceOnUse">
<stop stop-color="#81368D"/>
<stop offset="1" stop-color="#D1C0CC"/>
</linearGradient>
<linearGradient id="paint3_linear" x1="350.33" y1="76.3314" x2="310.987" y2="168.267" gradientUnits="userSpaceOnUse">
<stop stop-color="#966EA9"/>
<stop offset="1" stop-color="#D1C0CC"/>
</linearGradient>
<linearGradient id="paint4_linear" x1="343.848" y1="32.1054" x2="309.488" y2="158.85" gradientUnits="userSpaceOnUse">
<stop stop-color="#A96E98"/>
<stop offset="1" stop-color="#D1C0CC"/>
</linearGradient>
<linearGradient id="paint5_linear" x1="317.901" y1="141.134" x2="302.487" y2="177.155" gradientUnits="userSpaceOnUse">
<stop stop-color="#A96E98"/>
<stop offset="1" stop-color="#D1C0CC"/>
</linearGradient>
<linearGradient id="paint6_linear" x1="252.376" y1="272.943" x2="228.616" y2="173.706" gradientUnits="userSpaceOnUse">
<stop stop-color="#A96E98"/>
<stop offset="1" stop-color="#D1C0CC"/>
</linearGradient>
<linearGradient id="paint7_linear" x1="192.803" y1="246.816" x2="232.145" y2="154.88" gradientUnits="userSpaceOnUse">
<stop stop-color="#81368D"/>
<stop offset="1" stop-color="#D1C0CC"/>
</linearGradient>
<linearGradient id="paint8_linear" x1="225.231" y1="182.013" x2="240.645" y2="145.992" gradientUnits="userSpaceOnUse">
<stop stop-color="#966EA9"/>
<stop offset="1" stop-color="#D1C0CC"/>
</linearGradient>
<clipPath id="clip0">
<rect width="360" height="360" fill="white"/>
</clipPath>
</defs>
</svg>
