<svg width="360" height="360" viewBox="0 0 360 360" fill="none" xmlns="http://www.w3.org/2000/svg">
<g clip-path="url(#clip0)">
<rect width="360" height="360" fill="white"/>
<g style="mix-blend-mode:color-burn">
<path d="M0 0H360V361H0V0Z" fill="url(#paint0_linear)"/>
</g>
<g style="mix-blend-mode:luminosity">
<path d="M241 147.5C258.673 147.5 273 133.173 273 115.5C273 97.8269 258.673 83.5 241 83.5C223.327 83.5 209 97.8269 209 115.5C209 133.173 223.327 147.5 241 147.5Z" fill="#F2F2F2"/>
<path d="M241 91.9528C242 91.9528 242.811 91.1419 242.811 90.1415C242.811 89.1412 242 88.3302 241 88.3302C239.999 88.3302 239.188 89.1412 239.188 90.1415C239.188 91.1419 239.999 91.9528 241 91.9528Z" fill="black" fill-opacity="0.1"/>
<path d="M215.642 117.311C216.642 117.311 217.453 116.5 217.453 115.5C217.453 114.5 216.642 113.689 215.642 113.689C214.641 113.689 213.83 114.5 213.83 115.5C213.83 116.5 214.641 117.311 215.642 117.311Z" fill="black" fill-opacity="0.1"/>
<path d="M266.358 117.311C267.359 117.311 268.17 116.5 268.17 115.5C268.17 114.5 267.359 113.689 266.358 113.689C265.358 113.689 264.547 114.5 264.547 115.5C264.547 116.5 265.358 117.311 266.358 117.311Z" fill="black" fill-opacity="0.1"/>
<path d="M241 142.67C242 142.67 242.811 141.859 242.811 140.859C242.811 139.858 242 139.047 241 139.047C239.999 139.047 239.188 139.858 239.188 140.859C239.188 141.859 239.999 142.67 241 142.67Z" fill="black" fill-opacity="0.1"/>
<path fill-rule="evenodd" clip-rule="evenodd" d="M241 93.7642L242.208 114.896H239.792L241 93.7642Z" fill="#AFB9C5"/>
<path fill-rule="evenodd" clip-rule="evenodd" d="M251.686 126.186L240.586 116.793L242.293 115.086L251.686 126.186Z" fill="#AFB9C5"/>
<path d="M241 117.915C242.334 117.915 243.415 116.834 243.415 115.5C243.415 114.166 242.334 113.085 241 113.085C239.666 113.085 238.585 114.166 238.585 115.5C238.585 116.834 239.666 117.915 241 117.915Z" fill="#C5CFD6"/>
<g opacity="0.6">
<path opacity="0.2" fill-rule="evenodd" clip-rule="evenodd" d="M234.38 239.699C231.338 205.707 68.1315 140.099 37.8328 172.295C7.53407 204.492 36.6625 264.917 100.157 280.39C163.652 295.863 237.421 273.691 234.38 239.699Z" fill="#F2F2F2"/>
<path opacity="0.345889" fill-rule="evenodd" clip-rule="evenodd" d="M133.505 261.786C136.23 232.908 282.423 177.171 309.563 204.524C336.704 231.876 329.834 289.408 272.958 302.553C216.082 315.698 130.78 290.663 133.505 261.786Z" fill="#DDE3E9"/>
</g>
<path fill-rule="evenodd" clip-rule="evenodd" d="M83.9078 254.194C85.1716 254.04 86.5205 254.094 87.6958 254.593C90.1949 255.654 90.9053 258.606 90.871 261.006C90.834 263.589 90.2855 266.41 92.2492 268.491C93.1519 269.448 94.2748 270.18 95.1611 271.154C96.1082 272.196 96.8514 273.387 97.4016 274.666C98.4119 277.016 98.9078 279.78 97.9839 282.245C97.1705 284.415 95.1239 286.374 95.5661 288.842C96.0274 291.416 98.623 293.384 100.246 295.302C102.082 297.472 103.773 300.245 104.051 303.091C104.317 305.818 103.13 308.577 101.308 310.638C97.668 314.758 92.1963 316.777 86.6791 316.765C84.3367 316.759 81.6846 316.653 79.6631 315.395C79.0384 315.006 78.7088 314.569 78.3373 313.962C78.0043 313.418 77.5644 313.064 77.0553 312.679C75.9366 311.833 75.1288 310.694 74.6132 309.418C72.6112 304.462 74.2113 298.331 77.0137 293.931C77.6777 292.888 78.2214 291.885 77.8988 290.642C77.5622 289.345 76.7348 288.175 76.003 287.06C75.2798 285.958 74.4543 284.906 73.8891 283.715C73.2971 282.466 73.1304 281.159 73.235 279.793C73.4316 277.227 74.5394 274.859 76.1077 272.795C77.6183 270.807 79.392 268.905 79.396 266.301C79.4004 263.54 77.5548 261.084 78.3411 258.277C78.6666 257.115 79.3205 255.923 80.3743 255.226C81.3849 254.558 82.7193 254.339 83.9078 254.194Z" fill="#DDE3E9"/>
<path fill-rule="evenodd" clip-rule="evenodd" d="M83.082 258.607C83.1057 258.237 83.5455 258.014 83.8917 258.111C84.3474 258.238 84.3387 258.664 84.3266 259.043C84.2898 260.21 84.4585 261.343 84.7388 262.474C85.3214 264.827 86.3981 266.994 87.2511 269.254C88.1034 271.511 88.5035 273.842 88.0035 276.231C87.5322 278.484 86.7917 280.678 86.3093 282.933C85.8842 284.921 85.4318 287.017 86.0792 289C86.7023 290.909 88.0797 292.463 89.0715 294.188C91.1248 297.758 92.0357 301.719 92.1576 305.795C92.214 307.688 92.1632 309.598 91.7241 311.454C91.4713 312.523 91.1317 313.968 90.2157 314.706C89.7933 315.046 89.0709 315.164 88.7154 314.66C88.3816 314.187 88.6744 313.455 88.7804 312.952C89.2393 310.771 89.3316 308.542 89.2217 306.327C89.1154 304.182 88.862 302.041 88.1869 299.992C87.5603 298.091 86.6084 296.383 85.488 294.72C84.3464 293.025 83.1596 291.327 82.6879 289.319C82.2086 287.279 82.598 285.204 83.1186 283.203C83.6692 281.087 84.3903 279.032 85.1359 276.973C85.8625 274.967 86.12 273.069 85.7189 270.969C84.9266 266.821 82.8057 262.927 83.082 258.607Z" fill="#C5CFD6"/>
<path fill-rule="evenodd" clip-rule="evenodd" d="M117.276 259.227C118.84 259.702 120.393 260.468 121.508 261.67C123.879 264.225 123.151 268.086 121.843 270.906C120.434 273.941 118.3 276.992 119.503 280.475C120.056 282.076 120.986 283.526 121.51 285.139C122.071 286.864 122.313 288.659 122.282 290.458C122.225 293.763 121.346 297.289 118.959 299.723C116.858 301.867 113.422 303.119 112.637 306.267C111.817 309.552 113.821 313.23 114.711 316.342C115.718 319.864 116.235 324.023 115.057 327.533C113.928 330.897 111.077 333.542 107.851 335.032C101.404 338.01 93.9186 337.552 87.4541 334.667C84.7095 333.442 81.6547 331.937 79.9491 329.397C79.422 328.612 79.2661 327.924 79.1512 327.013C79.0483 326.196 78.7194 325.549 78.3257 324.829C77.4606 323.247 77.1155 321.478 77.1852 319.701C77.4564 312.799 82.5737 306.381 88.1866 302.635C89.5166 301.747 90.6845 300.843 90.963 299.206C91.2538 297.497 90.9019 295.682 90.6329 293.983C90.3673 292.303 89.9547 290.631 89.9216 288.927C89.887 287.143 90.3824 285.511 91.2272 283.949C92.8141 281.017 95.3651 278.793 98.2954 277.168C101.118 275.603 104.204 274.276 105.585 271.198C107.049 267.935 106.183 264.071 108.588 261.161C109.585 259.956 110.982 258.886 112.586 258.61C114.125 258.345 115.805 258.781 117.276 259.227Z" fill="#DDE3E9"/>
<path fill-rule="evenodd" clip-rule="evenodd" d="M114.082 264.622C114.303 264.196 114.934 264.163 115.288 264.459C115.754 264.849 115.521 265.348 115.308 265.791C114.655 267.153 114.258 268.583 113.994 270.07C113.443 273.161 113.567 276.292 113.381 279.415C113.195 282.536 112.442 285.506 110.606 288.073C108.875 290.493 106.86 292.704 105.115 295.122C103.577 297.253 101.95 299.498 101.669 302.186C101.398 304.772 102.194 307.335 102.451 309.897C102.982 315.202 101.973 320.37 99.9802 325.261C99.055 327.532 97.9951 329.767 96.5094 331.735C95.6541 332.869 94.5003 334.401 93.0428 334.795C92.3706 334.977 91.4643 334.738 91.3125 333.955C91.1698 333.22 91.8954 332.507 92.2832 331.966C93.962 329.623 95.2372 327.032 96.2686 324.352C97.2677 321.756 98.0929 319.087 98.3764 316.307C98.6394 313.728 98.4206 311.206 97.9816 308.65C97.5343 306.044 97.0361 303.411 97.5362 300.786C98.044 298.119 99.5862 295.865 101.243 293.769C102.995 291.552 104.915 289.495 106.865 287.448C108.765 285.453 110.06 283.34 110.691 280.644C111.937 275.316 111.496 269.593 114.082 264.622Z" fill="#C5CFD6"/>
<path fill-rule="evenodd" clip-rule="evenodd" d="M68.9291 278.824C71.5295 278.824 73.8157 280.202 75.3911 282.158C77.2352 284.448 77.6076 287.244 78.3564 289.973C78.729 291.331 79.3699 292.679 80.493 293.602C81.5145 294.441 82.8112 294.609 84.0339 295.019C86.4775 295.838 88.4506 297.812 89.2299 300.22C90.1805 303.158 89.1736 306.121 89.347 309.098C89.5061 311.832 92.2019 313.538 94.3708 314.848C96.5095 316.141 98.4362 317.351 99.0803 319.868C99.7634 322.539 99.9925 325.519 99.0465 328.157C97.4713 332.549 92.8614 334.484 88.4071 334.783C84.3647 335.056 79.2817 334.628 76.2459 331.694C74.4293 329.938 73.7714 327.482 73.853 325.039C73.9037 323.52 74.2047 322.014 74.5938 320.546C74.8696 319.506 75.2422 318.469 75.3484 317.394C75.6305 314.533 72.9865 313.984 70.7357 313.198C67.8757 312.2 65.8735 310.315 64.4812 307.688C63.1846 305.242 62.6405 302.496 63.4178 299.803C63.8148 298.428 64.5348 297.181 65.5113 296.12C65.9412 295.653 66.5471 295.263 66.9351 294.772C67.2972 294.314 67.2184 293.72 67.0935 293.184C66.5165 290.705 64.7185 288.652 64.0755 286.177C63.495 283.944 63.8382 281.164 65.8804 279.723C66.7626 279.1 67.8507 278.83 68.9291 278.824Z" fill="#C5CFD6"/>
<path fill-rule="evenodd" clip-rule="evenodd" d="M72.4725 285.283C75.2287 288.219 75.9778 292.202 76.1977 296.063C76.3209 298.228 76.1927 300.512 76.8287 302.611C77.373 304.409 78.6488 305.783 79.9639 307.081C82.6112 309.695 85.5636 312.352 86.3379 316.135C86.7922 318.356 86.4855 320.649 87.1133 322.844C87.6842 324.84 88.6892 326.801 89.9117 328.486C90.896 329.843 92.1783 330.882 93.2543 332.147C93.5825 332.534 94.0528 333.102 93.9173 333.647C93.7587 334.286 92.9455 334.488 92.3685 334.387C91.0232 334.154 89.8908 332.869 89.0111 331.935C87.7249 330.57 86.6319 329.101 85.7435 327.453C84.7573 325.623 83.9632 323.682 83.6239 321.629C83.2718 319.499 83.447 317.28 82.643 315.236C81.2901 311.797 78.0085 309.768 75.636 307.087C72.6799 303.747 73.1207 299.59 73.4235 295.482C73.5898 293.224 73.7552 290.674 72.6143 288.613C72.1788 287.826 71.2078 287.092 71.0206 286.198C70.8491 285.379 71.7852 284.55 72.4725 285.283Z" fill="#AFB9C5"/>
<path fill-rule="evenodd" clip-rule="evenodd" d="M75.4119 333.529C75.412 350.32 78.1521 359.118 92.6178 359.118C107.083 359.118 109.824 350.32 109.824 333.529H75.4119Z" fill="#89C5CC"/>
<path d="M150.853 309.265H135.853C135.366 309.265 134.97 309.66 134.97 310.147V312.353C134.97 312.84 135.366 313.235 135.853 313.235H150.853C151.34 313.235 151.735 312.84 151.735 312.353V310.147C151.735 309.66 151.34 309.265 150.853 309.265Z" fill="#AFB9C5"/>
<path fill-rule="evenodd" clip-rule="evenodd" d="M139.382 296.471C141.276 290.332 142.338 283.861 142.566 277.059H143.794H144.581C144.809 283.861 145.871 290.332 147.765 296.471H150.632C154.409 296.471 157.471 299.532 157.471 303.309C157.471 307.085 154.409 310.147 150.632 310.147H136.074C132.297 310.147 129.235 307.085 129.235 303.309C129.235 299.532 132.297 296.471 136.074 296.471H139.382Z" fill="#DDE3E9"/>
<path fill-rule="evenodd" clip-rule="evenodd" d="M127.745 246.476C132.801 245.982 137.856 245.735 142.912 245.735C147.967 245.735 153.023 245.982 158.078 246.476L160.118 281.529C154.382 282.078 148.647 282.353 142.912 282.353C137.176 282.353 131.441 282.078 125.706 281.529L127.745 246.476Z" fill="#C5CFD6"/>
<path fill-rule="evenodd" clip-rule="evenodd" d="M124.824 313.235H161.441H170.706V359.118H161.441V322.941H124.824V359.118H115.559V313.235H124.824Z" fill="#F2F2F2"/>
</g>
<g style="mix-blend-mode:color-burn">
<path d="M0 0H360V361H0V0Z" fill="url(#paint1_linear)"/>
</g>
</g>
<defs>
<linearGradient id="paint0_linear" x1="1.1351e-06" y1="157.5" x2="208.319" y2="505.17" gradientUnits="userSpaceOnUse">
<stop stop-color="#3E0382" stop-opacity="0.2"/>
<stop offset="1" stop-color="#FAC4BA" stop-opacity="0.37"/>
</linearGradient>
<linearGradient id="paint1_linear" x1="1.1351e-06" y1="157.5" x2="208.319" y2="505.17" gradientUnits="userSpaceOnUse">
<stop stop-color="#3E0382" stop-opacity="0.2"/>
<stop offset="1" stop-color="#FAC4BA" stop-opacity="0.37"/>
</linearGradient>
<clipPath id="clip0">
<rect width="360" height="360" fill="white"/>
</clipPath>
</defs>
</svg>
